<?xml version="1.0" standalone="yes"?>
<svg width="661" height="773">
<path style="fill:#f5f4f1; stroke:none;" d="M0 0L0 271L38 276L38 279C59.6988 280.314 80.2256 283.506 101 290C117.898 290.98 135.066 291.484 151.627 295.269C166.576 298.685 181.561 305.984 197.228 303.441C209.588 301.434 219.49 293.593 229 286L240 271C249.889 266.207 258.019 258.547 268.318 254.564C279.601 250.201 291.948 251.188 300 241C325.167 238.841 349.079 231.768 373.92 227.771C388.17 225.478 405.145 226.265 417.795 218.443C435.257 207.645 441.164 181.003 455.179 165.96C477.197 142.329 505.061 128.032 529.926 108.2C546.558 94.9354 559.757 77.1671 574.615 61.9897C587.056 49.2813 603.388 30.727 623.232 32.9453C635.612 34.3293 640.779 45.4351 642.186 56.5569C644.852 77.6417 642.221 99.9818 637.842 120.642C633.672 140.316 629.389 159.911 623 179L618 172C614.517 169.471 613.446 164.351 609.964 162.312C601.921 157.606 589.658 169.467 587 176L578 178L578 182L571 183L568 195L564 195L564 199L554 200L555 203L550 203L544 192L550 194L553 186L554 182L552 175L554 172L542 178L536 172L551 165C552.185 153.796 568.994 158.738 570 152L577 151L578 139L591 133L600 124L605.922 113.154L610 80L611 80L611 86L612 86L613 75L614 75L614 82L615 82L615 68C598.032 73.1703 584.035 79.81 571 92L568 95L540 119L540 123C536.53 123.248 534.039 123.449 533 127L495 148L495 151C479.138 164.526 480.644 195.095 484 214L484 222L491 221C493.497 205.106 502.291 203.973 516.121 210.167C530.841 216.759 543.755 225.458 555 237L568 237L572 247L577 247L576 245L593 244C591.66 259.165 587.444 268.31 574 276L575 278L563 279L564 290L574 296L578 296C571.798 321.074 563.085 336.497 545 355L557 376L560 376L560 384L553 390L540 390L546 401C544.774 408.09 544.538 431.948 556.042 417.037C557.514 415.129 558.746 413.052 560 411L568 411C567.275 422.105 566.453 431.067 558 439L560 448L564 448L554 504L533 505L533 508L529 508L530 510L520 512L512 524L523 545L527 545L533 549L533 555L530 555C527.582 561.813 515.592 569.804 524 575L526 587C535.397 588.073 541.244 593.808 547 601L577 619L578 660L563 676L585 675L585 684L579 684L578 694L549.19 708.778L541 716L552 716L552 717L547 717C517.222 723.586 490.001 708.688 460.414 712.761C448.938 714.341 437.996 719.409 431.282 729.169C418.846 747.248 429.485 767.102 449.83 771.164C473.538 775.898 499.928 773 524 773L661 773L661 0L0 0z"/>
<path style="fill:#433c34; stroke:none;" d="M300 241C291.122 250.862 279.02 250.025 267.386 254.564C257.371 258.471 249.382 265.902 240 271L229 286C219.418 293.328 209.449 301.09 197.228 303.138C181.905 305.707 167.214 298.612 152.593 295.249C135.72 291.369 118.224 290.907 101 290C98.8704 283.944 91.1623 286.771 86.0895 285.165C70.357 280.184 54.539 279 38 279L38 276L0 271L0 383L24 396L38 398C55.346 410.27 71.9826 421.844 86 438C81.7893 462.443 68.6561 481.76 50.799 498.605C34.3303 514.141 13.6285 528.099 5.24775 550.052C-3.70001 573.491 0.000412393 602.382 5.62716e-05 627L0 773L434 773C429.805 763.655 422.039 759.07 420.412 748C418.938 737.969 424.941 733.75 430.546 726.806C434.212 722.264 436.568 716.109 442.019 713.046C448.173 709.588 455.394 712.11 462 711.995C468.773 711.878 475.145 709.494 482 710.065C487.676 710.538 491.777 714.383 497 716.13C502.58 717.996 508.293 717.639 514 719.741C521.066 722.343 543.958 727.443 547 717L552 717L552 716L541 716L578 694L579 684L585 684L585 675L563 676L578 660L577 619L547 601C544.713 593.174 533.914 587.247 526 587L524 575L530 555L533 555L533 549L527 545L523 545L512 524L520 512L530 510L529 508L533 508L533 505L554 504L564 448L560 448L558 439C567.118 431.436 567.482 422.205 568 411L560 411C558.8 412.845 557.621 414.711 556.259 416.443C544.768 431.063 544.854 408.436 546 401L540 390L553 390L560 384L560 376L557 376L545 355C563.746 336.754 572.146 321.405 578 296L574 296C572.801 291.897 567.922 290.742 564 290L563 279L575 278L574 276C587.902 268.617 591.914 259.367 593 244L576 245L577 247L572 247L568 237L555 237C543.992 224.983 530.956 216.348 516.109 209.661C501.912 203.267 492.963 204.55 491 221L484 222L484 214C480.97 194.437 479.492 165.582 495 151L495 148L533 127L540 123L540 119L568 95L571 92C584.249 80.2905 598.255 73.4301 615 68L615 82L614 82L614 75L613 75L612 86L611 86L611 80L610 80C608.428 95.3616 605.505 109.549 600 124L591 133L578 139L577 151L570 152C570 155.776 564.852 154.454 562 155.167C555.907 156.69 551 157.92 551 165C546.239 165.432 537.69 167.192 536 172L542 178L554 172L552 175L554 182L553 186L550 194L544 192L550 203L555 203L554 200L564 199L564 195L568 195L571 183L578 182L578 178L587 176L586 173C591.84 169.832 602.416 158.031 609.964 162.992C613.503 165.318 613.995 169.782 618 172L623 179C629.568 159.947 633.913 140.346 638.045 120.642C642.383 99.9565 644.755 77.6533 642.343 56.5506C641.08 45.5015 636.316 34.2955 624.044 32.5824C604.29 29.8246 587.746 47.8367 575.346 60.4966C560.224 75.9338 546.776 93.9998 529.926 107.572C505.182 127.502 477.235 141.642 455.179 165.195C440.888 180.456 434.963 207.578 417.039 218.392C404.249 226.109 387.293 225.408 372.957 227.746C348.452 231.743 324.808 238.687 300 241z"/>
<path style="fill:#f5f4f1; stroke:none;" d="M458 356L464 390L467 393L472 393L474 402C487.961 394.588 503.553 369.5 484.535 357.597C476.75 352.725 466.504 354.704 458 356M0 383L0 553C3.53929 550.155 2.95164 545.795 5.21258 542C8.99508 535.652 15.1903 529.916 20.5504 524.868C38.2422 508.208 63.1208 496.058 74.9669 473.734C79.2599 465.644 85.5095 456.403 88.6865 447.941C90.2492 443.778 90.4287 439.756 86 438C72.3269 421.345 55.7215 409.953 38 398L24 396L0 383M519 460L509 449C497.502 454.284 513.591 459.923 519 460M354 481L352 488L355 491L360 491L360 487L365 486L362 480L354 481M412 671L419 676L419 671L412 671z"/>
<path style="fill:#433c34; stroke:none;" d="M585 698L590 696L593 688L585 698z"/>
</svg>
