<?xml version="1.0" standalone="yes"?>
<svg width="661" height="773">
<path style="fill:#f5f4f1; stroke:none;" d="M0 0L0 271L38 276L38 279C59.6669 279.841 80.5454 282.504 101 290C118.39 290.948 136.81 290.615 153.761 294.974C168.761 298.832 182.369 307.977 198.48 305.081C210.76 302.873 219.892 293.828 229 286L240 271C249.889 266.207 258.019 258.547 268.318 254.564C279.601 250.201 291.948 251.188 300 241C326.354 239.9 350.891 230.881 376.805 226.958C390.257 224.921 406.949 227.286 419.108 220.421C430.376 214.06 431.781 201.413 436.529 190.599C440.839 180.785 448.104 172.568 455.426 164.88C477.91 141.268 506.179 127.96 531.262 108.207C547.117 95.7214 559.713 77.5002 573.865 63.0017C587.36 49.1766 601.42 29.7667 623.091 30.3933C636.689 30.7864 642.271 41.9617 643.039 54.1361C644.431 76.213 643.136 99.0364 637.993 120.538C633.316 140.095 630.592 160.301 623 179L618 172C614.517 169.471 613.446 164.351 609.964 162.312C601.921 157.606 589.658 169.467 587 176L578 178L578 182L571 183L568 195L564 195L564 199L554 200L555 203L550 203L544 192L550 194L553 186L554 182L552 175L554 172L542 178L536 172L551 165C552.185 153.796 568.994 158.738 570 152L577 151L578 139L591 133L600 124L605.922 113.154L610 80L611 80L611 86L612 86L613 75L614 75L614 82L615 82L615 68C597.889 71.9981 582.365 78.1105 571 92L568 95L540 119L540 123C536.53 123.248 534.039 123.449 533 127L495 148L495 151C479.138 164.526 480.644 195.095 484 214L484 222L491 221C489.883 200.982 500.452 201.735 515.727 209.47C530.249 216.824 545.319 223.413 555 237L568 237L572 247L577 247L576 245L593 244C593.81 260.277 590.408 270.907 574 276L575 278L563 279L564 290L574 296L578 296L570.116 327.05L545 355L557 376L560 376L560 384L553 390L540 390L546 401C544.669 406.599 542.952 412.777 544.162 418.552C546.023 427.427 553.614 422.325 556.724 417.306C557.974 415.29 558.974 413.135 560 411L568 411C567.275 422.105 566.453 431.067 558 439L560 448L564 448L554 504L533 505L533 508L529 508L530 510L520 512L512 524L523 545L527 545L533 549L533 555L530 555C527.582 561.813 515.592 569.804 524 575L526 587C535.397 588.073 541.244 593.808 547 601L577 619L578 660L563 676L585 675L585 684L579 684L578 694L549.19 708.778L541 716L552 716L552 717L547 717C512.939 729.397 478.311 699.671 444.225 715.475C417.657 727.793 415.539 768.118 448.319 772.232C472.341 775.247 497.814 773 522 773L661 773L661 0L0 0z"/>
<path style="fill:#433c34; stroke:none;" d="M300 241C291.122 250.862 279.02 250.025 267.386 254.564C257.371 258.471 249.382 265.902 240 271L229 286C219.735 293.406 210.54 302.499 198.48 304.828C182.781 307.86 169.341 298.755 154.728 294.967C137.471 290.494 118.711 290.852 101 290C98.8704 283.944 91.1623 286.771 86.0895 285.165C70.357 280.184 54.539 279 38 279L38 276L0 271L0 383L24 396L38 398C55.0702 410.853 73.2974 420.26 86 438C85.6352 491.835 19.5327 505.358 3.74957 549.743C-4.30138 572.383 1.95141e-07 601.32 1.31985e-08 625L0 773L434 773C429.805 763.655 422.039 759.07 420.412 748C418.938 737.969 424.941 733.75 430.546 726.806C434.212 722.264 436.568 716.109 442.019 713.046C448.173 709.588 455.394 712.11 462 711.995C468.773 711.878 475.145 709.494 482 710.065C487.676 710.538 491.777 714.383 497 716.13C502.58 717.996 508.293 717.639 514 719.741C521.066 722.343 543.958 727.443 547 717L552 717L552 716L541 716L578 694L579 684L585 684L585 675L563 676L578 660L577 619L547 601C544.713 593.174 533.914 587.247 526 587L524 575L530 555L533 555L533 549L527 545L523 545L512 524L520 512L530 510L529 508L533 508L533 505L554 504L564 448L560 448L558 439C567.118 431.436 567.482 422.205 568 411L560 411C558.883 413.109 557.791 415.24 556.454 417.222C544.74 434.593 544.287 409.053 546 401L540 390L553 390L560 384L560 376L557 376L545 355C553.73 346.918 565.393 337.948 570.615 327.049C575.093 317.703 575.31 305.993 578 296L574 296C572.801 291.897 567.922 290.742 564 290L563 279L575 278L574 276C590.866 271.32 594.051 260.463 593 244L576 245L577 247L572 247L568 237L555 237C545.866 222.843 530.283 216.398 515.726 208.995C500.1 201.048 489.205 200.455 491 221L484 222L484 214C480.97 194.437 479.492 165.582 495 151L495 148L533 127L540 123L540 119L568 95L571 92C582.878 78.6877 597.994 72.3875 615 68L615 82L614 82L614 75L613 75L612 86L611 86L611 80L610 80C608.94 95.6804 606.8 109.7 600 124L591 133L578 139L577 151L570 152C570 155.776 564.852 154.454 562 155.167C555.907 156.69 551 157.92 551 165C546.239 165.432 537.69 167.192 536 172L542 178L554 172L552 175L554 182L553 186L550 194L544 192L550 203L555 203L554 200L564 199L564 195L568 195L571 183L578 182L578 178L587 176L586 173C591.84 169.832 602.416 158.031 609.964 162.992C613.503 165.318 613.995 169.782 618 172L623 179C637.541 144.638 642.615 103.976 643.212 67.0057C643.508 48.675 641.057 26.0784 616.648 30.5849C600.589 33.5497 589.52 45.2568 578.999 56.762C564.63 72.4738 550.273 90.9813 534.367 104.978C523.767 114.305 510.873 120.05 499.194 127.788C482.293 138.986 465.468 152.945 451.846 167.963C445.642 174.802 439.754 182.021 436.135 190.599C431.616 201.308 429.983 213.457 419.108 219.916C407.044 227.082 390.276 224.783 376.805 226.795C350.903 230.665 326.304 239.734 300 241z"/>
<path style="fill:#f5f4f1; stroke:none;" d="M458 356L464 390L467 393L472 393L474 402C490.671 397.858 504.923 369.808 488.378 356.519C480.019 349.805 467.227 353.583 458 356M0 383L0 553C3.53929 550.155 2.95164 545.795 5.21258 542C8.99508 535.652 15.1903 529.916 20.5504 524.868C38.2422 508.208 63.1208 496.058 74.9669 473.734C79.2599 465.644 85.5095 456.403 88.6865 447.941C90.2492 443.778 90.4287 439.756 86 438C73.9639 419.705 55.5059 410.264 38 398L24 396L0 383M519 460L509 449C497.502 454.284 513.591 459.923 519 460M354 481L352 488L355 491L360 491L360 487L365 486L362 480L354 481M412 671L419 676L419 671L412 671z"/>
<path style="fill:#433c34; stroke:none;" d="M585 698L590 696L593 688L585 698z"/>
</svg>
