<?xml version="1.0" standalone="yes"?>
<svg width="661" height="773">
<path style="fill:#f5f2ef; stroke:none;" d="M0 0L0 271L28 275L28 278C52.7704 279.424 77.8081 280.364 101 290C116.984 290.872 133.849 290.683 149.384 294.926C167.436 299.856 182.527 310.435 202.054 304.296C218.419 299.151 227.184 282.163 239.228 271.151C254.276 257.392 271.189 251.359 291 248C315.758 235.873 346.577 230.323 373.791 227.034C388.136 225.3 407.217 227.731 419.905 219.953C434.641 210.921 436.131 187.442 447.035 174.279C469.17 147.56 499.152 128.981 530 114C551.373 87.0082 574.578 51.8337 606 36C609.918 34.0261 613.862 32.0348 618.186 31.1183C640.631 26.3615 643.494 49.6674 643.128 66.0088C642.567 91.0077 638.945 114.661 633.703 139.044C630.448 154.184 628.505 167.787 617 179L616 172C599.786 173.428 587.629 179.761 578 193C574.187 192.181 571.416 191.977 570 196L564 196L550 203L551 192L560 183L562 173L560 161L570 161L570 155L584 154L584 141C588.447 140.659 591.891 140.224 594 136L599 136L600 126C611.833 116.501 611.63 89.2246 613 75L614 75L614 82L615 82C615.001 77.3841 613.878 71.7511 619 70L619 64L604 65L571 92L568 95L540 119L540 123C536.53 123.248 534.039 123.449 533 127L495 148L495 151C479.84 152.698 482.378 182.153 482.018 194.018C481.859 199.254 479.061 208.899 486 210C489.945 202.788 494.347 198.988 502 196L555 237L568 237C571.054 245.697 585.725 244 593 244C593.81 260.277 590.408 270.907 574 276L575 278L563 279L564 290L582 294L574 304C573.492 311.689 573.526 319.993 570.087 327.068C563.226 341.184 553.331 348.354 551 365L552 365L557 364L560 384L553 390L540 390L546 401C544.669 406.599 542.952 412.777 544.162 418.552C546.023 427.427 553.614 422.325 556.724 417.306C557.974 415.29 558.974 413.135 560 411L568 411C568.448 422.736 566.757 430.783 558 439L560 448L564 448L563 478L562 478L562 476L561 476L558 496L555 496L554 504L540 505L540 506L542 507C538.238 508.005 534.643 509.428 530.951 510.654C528.424 511.493 526.091 512.369 524.019 514.098C508.155 527.335 527.165 539.904 529.11 554.077C530.292 562.685 514.234 568.965 524 575L526 587C535.397 588.073 541.244 593.808 547 601L577 619L578 660L563 676L576 673L582 680L582 684L579 684L578 694L558.986 704.769L547 712L530 713L530 718L544 719L544 721C519.5 722.803 498.86 712.526 475.008 710.236C459.326 708.729 444.12 710.785 433.247 723.173C420.469 737.731 418.438 762.812 440.088 770.411C461.121 777.794 489.958 773 512 773L661 773L661 0L0 0z"/>
<path style="fill:#3f3933; stroke:none;" d="M606 36C592.521 42.1852 584.026 51.7908 573.867 62.2481C557.857 78.7304 543.664 95.4699 530 114C521.991 114.874 511.873 122.364 504.741 126.236C479.06 140.177 453.594 161.43 435.569 185.134C426.021 197.691 439.658 214.449 420 222.843C408.511 227.748 399.607 222.314 388.019 224.157C372.818 226.576 356.264 227.997 341 231.477C335.623 232.703 331.059 236.648 325.94 237.787C317.883 239.579 293.863 238.214 291 248C271.24 251.051 254.271 256.871 239.228 270.497C226.861 281.698 217.931 299.108 201.157 304.282C182.322 310.092 167.702 299.724 150.311 294.912C134.491 290.535 117.29 290.785 101 290C99.0394 284.424 86.4105 283.148 81 282.986C63.4966 282.464 45.8916 278.002 28 278L28 275L0 271L0 383C9.40633 385.651 16.6084 389.614 24 396C40.6248 403.66 58.33 411.282 72.1189 423.6C78.4174 429.226 84.9071 436.514 84.8946 445.466C84.8815 454.875 79.0146 464.241 74.201 471.959C62.4702 490.769 44.8427 504.638 28.3886 519.127C18.6997 527.659 7.60769 535.984 3.10346 548.587C-4.6455 570.27 3.27004e-08 599.27 2.14697e-09 622L0 773L434 773C430.139 766.948 426.115 760.764 424.346 753.717C419.594 734.789 436.301 714.669 454.425 711.016C484.576 704.941 513.451 723.528 544 721L544 719L530 718L530 713L547 712L578 694L579 684L582 684L582 680L576 673L563 676L578 660L577 619L547 601C544.713 593.174 533.914 587.247 526 587L524 575C524.399 567.61 526.726 560.257 526.19 552.845C525.073 537.409 514.804 523.048 531.663 512.269C534.928 510.181 538.482 508.603 542 507L540 506L540 505L554 504L555 496L558 496L561 476L562 476L562 478L563 478L564 448L560 448L558 439C567.298 431.068 568.679 422.836 568 411L560 411C558.883 413.109 557.791 415.24 556.454 417.222C544.74 434.593 544.287 409.053 546 401L540 390L553 390L560 384L557 364L552 365L551 365C553.509 348.436 564.021 341.246 570.571 327.066C573.852 319.963 573.641 311.655 574 304L582 294L564 290L563 279L575 278L574 276C590.866 271.32 594.051 260.463 593 244L568 237L555 237L502 196C494.011 198.716 489.696 202.402 486 210C479.547 207.975 481.848 199.481 482.036 194.013C482.447 182.113 480.012 153.312 495 151L495 148L533 127L540 123L540 119L568 95L571 92L604 65L619 64L619 70L616 69L615 82L614 82L614 75L613 75C611.398 89.3668 611.666 116.146 600 126L599 136L594 136L584 141L584 154L570 155L570 161L568 159L567 159L560 161L562 173L560 183L551 192L550 203C555.945 202.134 560.304 200.958 564 196L570 196L578 193C588.09 180.357 599.971 173.908 616 172L617 179C628.568 168.689 630.384 155.564 633.49 141.027C638.989 115.294 642.719 90.394 643.22 64.0146C643.534 47.4703 639.626 25.4664 617.499 30.9236C613.382 31.9388 609.681 33.9626 606 36z"/>
<path style="fill:#f5f2ef; stroke:none;" d="M471 348L460 356C458.659 368.153 460.28 378.405 464 390L467 390L466 396L475 400L475 395L479 396L477 400C486.97 393.706 490.329 386.476 492 375L495 375L498 355L471 348M0 383L0 547L1 547C22.6995 520.689 54.4094 503.333 73.1167 474.524C84.9658 456.276 90.8763 439.842 72.8982 423.6C67.7902 418.985 62.0651 415.118 56.1263 411.66C45.8153 405.656 34.9555 400.693 24 396C16.7242 389.226 9.63256 385.431 0 383M506 458L515 459L512 455C511.258 449.1 506.198 453.904 506 458M412 671L419 676L419 671L412 671z"/>
<path style="fill:#3f3933; stroke:none;" d="M593 684L581 702C586.755 696.651 590.42 691.438 593 684z"/>
</svg>
