<?xml version="1.0" standalone="yes"?>
<svg width="661" height="773">
<path style="fill:#f5f2ef; stroke:none;" d="M0 0L0 271L28 275L28 278C52.8298 280.175 76.8439 283.788 101 290C116.351 291.41 131.592 293.155 146.739 296.074C163.506 299.304 180.915 303.872 197.887 299.323C216.563 294.318 230.304 279.739 245.699 268.955C259.624 259.199 274.928 253.21 291 248C313.004 240.685 335.141 234.405 357.971 230.227C376.531 226.83 397.283 225.671 413.768 215.633C433.171 203.817 443.544 180.848 458.865 164.685C479.166 143.27 504.345 128.086 530 114C553.074 85.2676 577.096 58.9956 606 36C634.404 37.2629 641.697 55.7855 641.088 82.2838C640.313 116.035 631.904 148.833 617 179L616 172L578 193C574.187 192.181 571.416 191.977 570 196L564 196L550 203L551 192L560 183L562 173L560 161L570 161L570 155L584 154L584 141C588.447 140.659 591.891 140.224 594 136L599 136L600 126C611.833 116.501 611.63 89.2246 613 75L614 75L614 82L615 82C615.001 77.3841 613.878 71.7511 619 70L619 64L604 65L571 92L568 95L540 119L540 123C536.53 123.248 534.039 123.449 533 127L495 148L495 151C479.84 152.698 482.378 182.153 482.018 194.018C481.859 199.254 479.061 208.899 486 210L502 196L555 237L568 237C571.054 245.697 585.725 244 593 244C589.679 257.52 584.522 266.815 574 276L575 278L563 279L564 290L582 294L574 304L551 365L552 365L557 364L560 384L553 390L540 390L546 401C544.774 408.09 544.538 431.948 556.042 417.037C557.514 415.129 558.746 413.052 560 411L568 411L558 439L560 448L564 448L563 478L562 478L562 476L561 476L558 496L555 496L554 504L540 505L540 506L542 507C538.238 508.005 534.643 509.428 530.951 510.654C528.424 511.493 526.091 512.369 524.019 514.098C508.155 527.335 527.165 539.904 529.11 554.077C530.292 562.685 514.234 568.965 524 575L526 587C535.397 588.073 541.244 593.808 547 601L577 619L578 660L563 676L576 673L582 680L582 684L579 684L578 694L558.986 704.769L547 712L530 713L530 718L544 719L544 721C516.001 718.629 480.669 706.79 453.533 717.429C429.968 726.668 423.671 756.658 449.785 767.137C472.214 776.136 500.343 772.975 524.002 772.994L661 773L661 0L0 0z"/>
<path style="fill:#3f3933; stroke:none;" d="M606 36C576.615 58.5993 552.732 84.8472 530 114C521.991 114.874 511.873 122.364 504.741 126.236C479.06 140.177 453.594 161.43 435.569 185.134C426.021 197.691 439.658 214.449 420 222.843C408.511 227.748 399.607 222.314 388.019 224.157C372.818 226.576 356.264 227.997 341 231.477C335.623 232.703 331.059 236.648 325.94 237.787C317.883 239.579 293.863 238.214 291 248C274.614 253.098 259.071 259.039 244.928 268.962C229.544 279.757 215.784 294.317 197.044 299.157C180.34 303.472 163.23 298.978 146.739 295.857C131.591 292.99 116.349 291.329 101 290C99.0394 284.424 86.4105 283.148 81 282.986C63.4966 282.464 45.8916 278.002 28 278L28 275L0 271L0 383L24 396C44.8753 407.141 77.7215 422.43 76.669 450.633C76.0901 466.148 65.9324 479.984 56.1926 491.283C38.2224 512.129 14.6715 529.479 5.85195 556.631C-2.47324 582.261 0.0182595 611.424 0.0040823 638.001L0 773L434 773C432.356 765.568 430.667 758.04 430.898 750.379C432.335 702.614 491.797 715.529 522.043 718.994C529.347 719.831 536.672 720.428 544 721L544 719L530 718L530 713L547 712L578 694L579 684L582 684L582 680L576 673L563 676L578 660L577 619L547 601C544.713 593.174 533.914 587.247 526 587L524 575C525.277 548.726 521.679 526.761 542 507L540 506L540 505L554 504L555 496L558 496L561 476L562 476L562 478L563 478L564 448L560 448L558 439C566.946 430.901 568.509 422.758 568 411L560 411C558.8 412.845 557.621 414.711 556.259 416.443C544.768 431.063 544.854 408.436 546 401L540 390L553 390L560 384L557 364L552 365L551 365L574 304L582 294L564 290L563 279L575 278L574 276C584.867 266.958 589.879 257.723 593 244L568 237L555 237L502 196L486 210C479.547 207.975 481.848 199.481 482.036 194.013C482.447 182.113 480.012 153.312 495 151L495 148L533 127L540 123L540 119L568 95L571 92L604 65L619 64L619 70L616 69L615 82L614 82L614 75L613 75C611.398 89.3668 611.666 116.146 600 126L599 136L594 136L584 141L584 154L570 155L570 161L568 159L567 159L560 161L562 173L560 183L551 192L550 203C555.945 202.134 560.304 200.958 564 196L570 196L578 193L616 172L617 179C632.588 148.479 640.818 114.713 641.256 80.3633C641.588 54.2617 634.034 36.2015 606 36z"/>
<path style="fill:#f5f2ef; stroke:none;" d="M471 348L460 356L464 390L467 390L466 396L475 400L475 395L479 396L477 400L492 375L495 375L498 355L471 348M0 383L0 547L1 547C7.16133 540.82 13.3355 534.654 19.5969 528.575C42.7243 506.123 97.4719 464.819 69.7282 427.935C66.1197 423.137 61.6428 419.042 56.8909 415.402C46.7621 407.644 35.297 401.831 24 396L0 383M506 458L515 459L512 455C511.258 449.1 506.198 453.904 506 458M412 671L419 676L419 671L412 671z"/>
<path style="fill:#3f3933; stroke:none;" d="M593 684L581 702L593 684z"/>
</svg>
