<?xml version="1.0" standalone="yes"?>
<svg width="661" height="773">
<path style="fill:#f5f3f0; stroke:none;" d="M0 0L0 269C47.1652 276.756 94.5485 283.191 141.659 290.776C160.918 293.877 180.723 305.624 200.516 300.247C221.896 294.439 238.011 273.079 253 258L293 247L293 246L291 246L291 245C317.148 238.045 343.852 230.113 370.516 225.506C384.962 223.01 402.04 225.535 415.408 218.81C426.729 213.114 430.52 200.949 435.858 190.384C440.776 180.65 447.272 171.859 454.647 163.848C479.544 136.807 515.531 123.793 540.361 97.3875C558.887 77.6866 575.495 55.0453 597.73 39.1781C607.271 32.3695 621.182 25.7607 632.625 32.0641C646.909 39.9331 645.095 62.2593 644.833 76.0046C644.265 105.673 638.059 137.471 629.689 165.924C627.767 172.457 623.363 190.407 615.151 192.17C611.048 193.052 602.183 183.74 598 182L599 185L592 189L584 203C581.084 203.137 579.37 203.017 579 206L540 211L542 213L542 214L540 216L546 216L550 219L569 231L569 232L567 232L567 233L577 234C596.386 251.337 594.72 269.783 572 283L572 284L574 285L571 286L571 289L586 293L586 294C575.775 311.986 561.757 339.272 562.359 360.361C562.753 374.191 568.833 387.411 574 400L576 432L577 432L577 429L578 429L565 459C561.573 479.098 556.741 494.312 541 508L542 510C534.333 516.501 533.533 523.311 534 533L536 532L546 542L547 543L546 545C550.5 547.794 549.636 551.195 550 556L545 559L545 553L544 553C535.202 558.389 528.292 574.961 540 581L547 588L547 597L555 597L560 590C572.7 590.905 568.005 607.826 577 609C579.511 631.477 578.831 649.941 570 671L575 667L589 663C588.301 666.982 587.927 669.357 592 671L588 682L586 684L558 706L558 707L560 707L560 708L557 710L555 709L554 709L554 710L565 712L571 709L571 710C553.6 718.083 536.415 723.603 516.987 721.236C492.179 718.213 464.118 705.582 441.419 722.645C428.215 732.571 422.547 752.355 436.764 764.13C443.826 769.979 453.268 771.66 462.151 772.367C527.669 777.576 595.274 773 661 773L661 0L0 0z"/>
<path style="fill:#8a745b; stroke:none;" d="M291 245L291 246L293 246L293 247L253 258C237.752 272.656 221.65 293.839 200.516 299.799C180.818 305.355 160.858 293.554 141.62 290.604C94.4541 283.37 47.203 276.433 0 269L2 330L8 326L8 330C4.47934 331.207 4.01416 332.453 5 336L6 336C10.7679 337.578 11.8295 340.136 12 345L16 347L16 350L11 355L7 354L8 351L0 349C0.624951 362.167 1.43178 375.556 11.2646 385.433C30.4292 404.683 72.5788 411.548 79.5484 441.358C83.0125 456.176 72.4557 471.707 63.5177 482.522C42.1739 508.347 14.897 524.795 0 556C20.0712 534.103 43.7459 515.685 63.2948 493.42C79.9786 474.418 91.4017 452.478 111 436L120 416L122 416L120 410L108 402L111 392L112 391L120 391L121 391L122 391L136 393L135 396L146 387L148 388L147 384L148 380L121 362L120 360C122.6 352.017 118.14 344.327 115.148 337C114.019 334.234 114.127 330.466 111 330L108 312L105 304L151 308L166 314L166 321L176 331L190 334L200 331L202 324L210 323C209.823 319.662 209.694 318.215 213 317L212 310L236 304L256 286L255 283L277 279L278 275L292 273L291 276L299 275L310 280L309 277L312 274L303 272L312 262L316.333 256.333L326 247C331.267 246.996 340.871 246.386 343 241L352 242L355 240L360 244L377 241L391 234L390 238C401.922 233.502 415.755 229.961 425.365 221.169C434.371 212.93 438.424 200.752 444.164 190.294C450.676 178.432 459.036 168.072 468 158L459 188L464 192L475 203L476 203L476 200L477 200L485 246L490 256L521 248L525 245L523 272L541 272L544 286L568 300C567.709 303.383 567.456 306.786 566.816 310.125C563.445 327.697 549.339 318.28 540 311L525 296C520.629 296.009 515.703 294.267 514 290L502 268L495 268L494 264L492 266L491 266L488 262L492 260L492 259C484.743 256.859 479.046 255.202 474 262L480 260L476 273L473 274C474.094 278.006 475.612 285.06 480 286L479 293L485 293L483 299L488 301L485 300L488 303L488 304L483 304L490 311L490 314L489 314L480 316L479 316L469 306L464 306L465 303L463 300L471 300L461 298L455 294L429 272L425 269L423 270L405 256L400 257L399 257L393 248L392 248L372 245L380 265L380 264L376 264L376 263L384 263L382 264L382 265L385 264L396 276L410 280L435 304L439 302L442 307L471 324L473 323C474.882 342.508 454.546 350.232 452.244 368.928C449.411 391.932 464.251 413.862 465 437L470 441L473 440L478 446C488.085 462.531 505.808 467.329 523 474L522 477L523 478L525 478L526 477L525 474L529 473L531 481C525.486 481.299 525.114 485.925 530 488L530 489L528 489L528 490L538 497L538 498L522 498L523 500L504 500L504 499L506 499L506 498C488.235 502.705 485.141 520.068 499 532C497.658 541.191 493.026 545.665 488 553L483 551L488 566L495 575L503 581L504 581L504 578L505 578L514 587L507 598L508 601L494 609C503.176 615.459 512.049 619.525 523 622L527 616L523 617L523 611L546 610L547 618L550 618L553 631L554 631L557 630L571 623L570 664L567 667L557 678L575 682L578 681C559.388 703.292 537.831 713.875 509 706L529 704L543 697L551 685C553.819 685 553.634 683.579 553 681L555 677L554 677C537.226 684.954 523.326 688.178 505 684L492 677L482 666L473 643C472.388 630.281 474.035 619.396 464 610L466 608L463 605L449 580L447 581L442 567L439 568L440 564L432 564L416 576L416 580L424 579L419 583C415.648 576.832 407.396 588.422 409 593L375 604C354.321 607.809 336.212 604.981 316 600L316 599L318 599L318 598C307.565 595.549 293.091 591.522 285.394 583.565C281.232 579.263 276.144 562.698 271 562L271 557C256.059 548.745 236.61 537.783 225 556L229 562L230 560L231 560L245 586L249 587L249 591L253 594L260 604L262 602L265 605L264 607L270 609C286.826 620.913 304.513 628.521 324 635L322 629L323 629L324 632L325 632L325 629L333 631L333 632L327 631L338 638L342 642L389 657L388 659L397 661L398 673C398.673 680.251 402.43 682.661 409 685L408 687L408 706L406 705C406.181 718.792 407.22 732.431 409.098 746.098C410.033 752.903 410.946 760.869 416.094 765.95C421.271 771.059 429.162 771.946 436 773C432.288 765.29 428.295 757.25 428.167 748.505C427.902 730.274 444.68 717.707 461.251 714.94C481.61 711.541 500.926 720.324 520.975 721.867C539.013 723.255 555.003 717.728 571 710L571 709C567.739 708.611 565.973 708.689 565 712L554 710L554 709L557 710L560 708L560 707L558 707L558 706C563.999 706 573.989 698.014 578 693C581.237 688.954 583.591 680.898 588 682L592 671L589 663L575 667L570 671C579.193 649.959 579.685 631.545 577 609C573.279 609 571.496 601.272 570.667 598C569.119 591.895 566.185 590 560 590L555 597L547 597L547 588L540 581C528.793 573.419 535.745 559.89 544 553L545 553L545 559L550 556C549.875 551.269 550.812 547.345 546 545L546 542C540.781 542.186 536.133 537.043 536 532L534 533C533.576 523.299 534.417 516.583 542 510L541 508C557.278 494.653 561.759 479.216 565 459L578 429L577 429L577 432L576 432L574 400C569.074 387.39 563.088 374.135 562.772 360.38C562.287 339.322 576.31 312.275 586 294L586 293L571 289L571 286L574 285L572 284L572 283C595.421 270.299 596.925 251.077 577 234L575 236L567 233L567 232L569 232L569 231L550 219L546 216L540 216L542 214L542 213L540 211L579 206L584 203L592 189L599 185L598 182C602.101 183.95 611.16 194.002 615.403 192.896C623.778 190.714 628.043 172.817 630.001 165.941C638.236 137.017 644.547 105.102 644.934 75.0049C645.107 61.5835 647.012 39.8125 633.396 31.8044C622.624 25.4688 609.038 30.9574 599.585 37.1697C577.003 52.0103 559.787 75.062 541.907 94.9161C516.865 122.723 479.37 135.857 453.84 163.827C446.771 171.572 440.531 180.052 435.822 189.441C430.303 200.446 426.512 213.05 414.627 218.865C401.124 225.47 384.074 222.942 369.542 225.477C343.218 230.069 316.73 237.811 291 245z"/>
<path style="fill:#2f2d29; stroke:none;" d="M619 40L618 43C614.297 42.3569 600.589 42.0624 600 46C596.505 46.6173 587.862 50.5837 590 55L590 56L586 59L597 51C600.235 51.0544 610.301 48.2637 611 45L618 44C620.46 47.8964 622.43 49.649 627 48L628 48L627 57L631 57L631 76L626 80L628 80C626.775 86.0753 626.118 92.4269 632 96L632 90L633 90L633 98C637.037 97.1848 638.769 92.022 634 91L637 78L635 52L636 52L636 56L637 56L636 45L634 46L633 40L619 40M635 40L636 41L635 40M610 51L611 52L610 51M584 61L582 63L582 64L586 61L584 61M628.333 62.6667L628.667 63.3333L628.333 62.6667M583 65L584 66L583 65z"/>
<path style="fill:#8a745b; stroke:none;" d="M632.333 72.6667L632.667 73.3333L632.333 72.6667z"/>
<path style="fill:#2f2d29; stroke:none;" d="M557 83L557 88L558 88L557 83M559 83L560 84L559 83z"/>
<path style="fill:#f5f3f0; stroke:none;" d="M540 121L529 134L527 133L499 158L498 160L494 177L496 181L512 178L511 176L534 161L532 159L551.259 148.398L558 144C562.137 143.678 565.456 140.813 560 139L560 138L564 137L564 136L560 136L560 135L568 136L578 118L583 112L585 113L586 113L586 112L584 111L586 106L594 105L594 104L592 102L594 94L598 88L594 89L599 85C575.919 93.2667 558.545 105.163 540 121z"/>
<path style="fill:#8a745b; stroke:none;" d="M628 87L629 88L628 87z"/>
<path style="fill:#2f2d29; stroke:none;" d="M632 114L633 114L634 105C629.348 106.971 630.455 109.832 632 114M635.333 105.667L635.667 106.333L635.333 105.667M635 108L636 109L635 108M630.333 112.667L630.667 113.333L630.333 112.667M630 115L629 121L630 121L630 115M627 117L627 120L628 120L627 117z"/>
<path style="fill:#8a745b; stroke:none;" d="M566.667 128.333L567.333 128.667L566.667 128.333z"/>
<path style="fill:#2f2d29; stroke:none;" d="M626 132L626 134L627 135L629 135L630 132L629 131L626 132M625 136L624 140L628 140L627 136L625 136z"/>
<path style="fill:#8a745b; stroke:none;" d="M511 146L512 147L511 146z"/>
<path style="fill:#2f2d29; stroke:none;" d="M390 238L391 234C386.385 234 378.069 236.013 377 241C373.077 239.994 361.025 239.215 360 244L355 240L352 242L343 241L326 247L312 262L303 272L312 274L310 280L299 275L291 276L292 273L278 275L277 279L274 278L255 283L256 286L236 304L212 310L213 317C209.596 317.967 209.644 319.668 210 323L202 324L200 331L190 334L176 331L166 321L166 314L151 308L105 304L108 312L111 330C114.412 330 113.836 335.207 115 338C118.043 345.303 122.344 351.902 120 360L121 362L148 380L147 384L148 388L146 387L135 396L136 393L122 391L121 391L120 391L112 391L111 392L108 402L120 410L122 416L120 416L111 436C89.3946 453.415 77.355 477.84 58.529 497.777C40.0965 517.298 13.7829 533.291 4.50532 559.703C-3.51273 582.529 0.0002137 610.188 2.83303e-05 634L0 773L411 773C408.624 768.133 406.206 765.123 408.333 759.083C409.433 755.961 412.363 754.671 412.278 751C412.097 743.19 406.895 737.123 405.25 730C403.509 722.464 405.613 712.674 406 705L408 706L408 687L409 685C403.252 682.102 399.993 679.203 398 673L397 661L388 659L389 657L342 642L338 638L327 631L333 632L333 631C329.728 630.326 325.918 627.805 325 632L324 632L323 629L322 629L321 632L324 635C304.73 628.231 286.929 620.55 270 609L264 607L265 605L262 602L260 604L253 594L249 591L249 587L245 586L231 560L230 560L229 562L225 556C237.936 539.272 255.456 548.868 271 557L271 562C274.64 562 281.392 579.898 284.5 583.667C290.643 591.117 308.649 597.262 318 598L318 599L316 599L316 600C336.201 605.196 354.324 608.161 375 604L409 593C409.637 588.192 413.183 581.142 419 583L424 579L416 580L416 576L432 564L440 564L439 568L442 567L447 581L449 580L466 608L464 607L464 610C469.769 620.699 471.988 630.958 473 643C467.798 653.403 483.719 659.122 482 666L492 677L505 684C506.87 688.723 513.302 689.471 518 689.937C528.538 690.983 547.316 685.699 554 677L555 677L556 680L553 681C553.508 684.047 553.587 685.647 551 685L543 697L529 704L509 706C537.616 714.558 560.049 703.785 578 681L575 682C571.096 675.536 563.486 678.235 557 678L567 667L570 664L571 623L557 630L554 631L553 631L550 618L547 618L546 610L523 611L523 617L527 616L523 622L494 609L508 601L507 598L514 587L505 578L504 578L504 581L503 581L495 575L488 566L483 551L488 553C492.898 544.447 498.761 543.032 499 532C491.917 517.676 492.997 507.862 506 498L506 499L504 499L504 500L523 500L522 498L538 498L538 497L528 490L528 489L530 489L530 488C525.608 485.655 525.492 481.358 531 481L529 473L525 474L526 477L525 478L523 478L522 477L523 474C505.928 467.053 488.664 461.963 478 446L473 440L470 441L465 437L468 436C463.973 414.34 449.586 391.181 452.561 368.895C455.057 350.201 475.839 342.741 473 323L471 324L442 307L439 302L435 304L410 280L408 282L396 276L385 264L382 265L382 264L384 263L376 263L376 264L380 264L380 265L372 245L392 248L393 248L399 257L400 257L405 256L423 270L425 269L429 272L455 294L457 292L461 298L471 300L463 300L465 303L464 306L469 306L479 316L480 316L490 314L490 311L488 312L483 304L488 304L488 303L485 300L488 301C487.311 297.803 485.946 298.254 483 299L485 293L479 293L480 286L473 274L476 273L480 260L474 262L492 259L492 260L488 262L491 266L492 266L494 264L495 268L502 268L514 290C516.603 294.33 520.102 295.566 525 296L540 311C549.39 318.858 564.032 328.757 567.057 310.223C567.608 306.844 567.786 303.413 568 300L544 286L541 272L523 272L525 245L521 248L490 256L485 246L477 200L476 200L476 203L475 203L464 192L459 188L468 158C458.916 167.69 450.607 177.743 444.164 189.418C438.356 199.944 434.31 212.152 425.365 220.569C415.797 229.573 401.967 233.315 390 238z"/>
<path style="fill:#8a745b; stroke:none;" d="M463 164L464 165L463 164z"/>
<path style="fill:#f5f3f0; stroke:none;" d="M492 184L488 195L490 192L524 206L527 210L528 210L530 207L529 206L526 208C516.29 196.768 505.425 190.112 492 184z"/>
<path style="fill:#8a745b; stroke:none;" d="M584 200L585 201L584 200z"/>
<path style="fill:#f5f3f0; stroke:none;" d="M529 209L529 210L535 210L534 213L536 209L529 209z"/>
<path style="fill:#8a745b; stroke:none;" d="M406.667 232.333L407.333 232.667L406.667 232.333M388.667 239.333L389.333 239.667L388.667 239.333M367 244L368 245L367 244z"/>
<path style="fill:#2f2d29; stroke:none;" d="M496 248L497 249L496 248M584 251L587 248L584 251M378 252L379 253L378 252M402 257L403 258L402 257z"/>
<path style="fill:#8a745b; stroke:none;" d="M469 272L469 274L471 274L471 272L469 272M472 272L473 273L472 272z"/>
<path style="fill:#2f2d29; stroke:none;" d="M280.667 273.333L281.333 273.667L280.667 273.333M263.667 280.333L264.333 280.667L263.667 280.333z"/>
<path style="fill:#8a745b; stroke:none;" d="M445 280L446 281L445 280M588 287L588 288L591 288L591 289L587 289L587 291L592 291L588 287M464 293L464 295L468 295L468 293L464 293z"/>
<path style="fill:#2f2d29; stroke:none;" d="M489 318L488 321L492 321L492 320L489 318M208 320L206 323L208 320M0 325L0 349L8 351L7 354L11 355L16 350L16 347L12 345C12.5192 339.914 11.7642 336.065 6 336L5 336C4.19055 332.502 4.59072 331.269 8 330L8 326L2 330L0 325M9 327L10 328L9 327z"/>
<path style="fill:#8a745b; stroke:none;" d="M0 331L0 335L1 335L0 331M7 339L11 342L11 341L7 339M2 343L2 344L6 344L2 343M5 347L5 348L8 349L8 346L5 347z"/>
<path style="fill:#2f2d29; stroke:none;" d="M24 352L24 346C19.5581 347.68 19.3757 350.466 24 352z"/>
<path style="fill:#f5f3f0; stroke:none;" d="M475 352L464 367L464 368L469 376L481 377L485 379L491 375L491 358L490 358L490 361L489 361L480 355L480 354L483 354L475 352z"/>
<path style="fill:#2f2d29; stroke:none;" d="M520 362C507.647 370.541 501.248 380.035 496 394C497.472 398.882 498.05 403.68 503 406L514 398L512 412L506 419L508 424L508 438L510 446L519 455L546 459L551 444C554.983 443.405 554.575 434.579 555 431L541 432L539 410L530 393L530 391L540 387L541 387L544 389L544 386L540 386L540 385L543 385L543 384L536 380L547 379L547 378L544 378L544 377L549 377L533 362L533 359L529 359C528.239 353.499 519.3 355.449 520 362M24 357L25 358L24 357M531 357L532 358L531 357z"/>
<path style="fill:#8a745b; stroke:none;" d="M520 358L520 359L524 359L520 358z"/>
<path style="fill:#2f2d29; stroke:none;" d="M2 376L9 376L7 373L2 376z"/>
<path style="fill:#8a745b; stroke:none;" d="M519 380L516 386L534 383C529.3 375.523 522.981 382.934 519 380z"/>
<path style="fill:#f5f3f0; stroke:none;" d="M0 385L0 546C6.50879 539.016 13.0352 532.049 19.8075 525.318C44.3684 500.908 108.436 457.045 65.5485 420.66C57.3338 413.69 47.8976 408.186 38.4635 403.054C25.99 396.268 13.1118 390.429 0 385M485 389L485 390L489 391L485 389M550 401L543 407C544.106 413.636 535.993 433.457 551 428C555.249 426.455 553.198 420.049 557 421L557 406C558.939 405.606 560.871 405.332 562.527 404.146C581.563 390.52 531.153 385.39 550 401z"/>
<path style="fill:#2f2d29; stroke:none;" d="M96 392L96 393L104 393L96 392z"/>
<path style="fill:#f5f3f0; stroke:none;" d="M487 392L488 393L487 392z"/>
<path style="fill:#2f2d29; stroke:none;" d="M65 408L65 409L68 409L68 410L66 411L80 418L82 407L65 408M85 416L86 417L85 416z"/>
<path style="fill:#8a745b; stroke:none;" d="M537 421L538 422L537 421M309 459L308 484L327 503L349 508L349 509L346 509L346 510C368.239 509.224 380.973 503.164 377 479L364 465C364.024 460.661 357.351 458.646 354 456.444C345.169 450.641 335.988 437.879 324.083 442.5C316.823 445.318 314.934 458.174 309 459z"/>
<path style="fill:#f5f3f0; stroke:none;" d="M509 453L509 458L515 458L509 453z"/>
<path style="fill:#8a745b; stroke:none;" d="M510 454L511 455L510 454z"/>
<path style="fill:#2f2d29; stroke:none;" d="M535 488L536 489L535 488z"/>
<path style="fill:#8a745b; stroke:none;" d="M509.667 498.333L510.333 498.667L509.667 498.333z"/>
<path style="fill:#2f2d29; stroke:none;" d="M525 499L525 500L528 500L525 499M533 499L533 500L536 500L533 499M537 499L538 500L537 499M355 508L355 509L359 509L355 508z"/>
<path style="fill:#8a745b; stroke:none;" d="M343 535L352 556L363 553C363.732 547.034 363.929 541.307 360.368 536.124C355.294 528.738 347.46 526.346 343 535M297 532L297 536L307 535L307 533L297 532M575 533L576 534L575 533M482 547L485 544L482 547z"/>
<path style="fill:#2f2d29; stroke:none;" d="M234 567L235 568L234 567M421 583L422 584L421 583M511 600L512 601L511 600M552 623L553 624L552 623z"/>
<path style="fill:#8a745b; stroke:none;" d="M553 649C557.943 657.275 564.13 657.619 570 650L553 649z"/>
<path style="fill:#f5f3f0; stroke:none;" d="M568 669L570 673L568 669M566 672L567 673L566 672z"/>
<path style="fill:#8a745b; stroke:none;" d="M593 680L588 690L577 703L593 680z"/>
<path style="fill:#2f2d29; stroke:none;" d="M430 712L452 699L442 694C435.845 699.137 432.507 704.402 430 712z"/>
<path style="fill:#8a745b; stroke:none;" d="M579 695L580 696L579 695M575.333 705.667L575.667 706.333L575.333 705.667M571.667 706.333L572.333 706.667L571.667 706.333M559 709L560 710L559 709z"/>
</svg>
