<?xml version="1.0" standalone="yes"?>
<svg width="661" height="773">
<path style="fill:#f5f4f1; stroke:none;" d="M0 0L0 271L38 276L38 279C59.58 280.688 80.1723 284.062 101 290C117.599 291.053 134.217 292.095 150.535 295.502C165.704 298.668 181.233 304.521 196.932 301.95C209.084 299.961 219.192 293.004 229 286L240 271C249.889 266.207 258.019 258.547 268.318 254.564C279.601 250.201 291.948 251.188 300 241C324.013 238.319 347.249 232.604 371.011 228.502C385.627 225.978 402.173 225.505 415.275 217.866C433.896 207.009 441.532 181.882 455.719 166.274C476.78 143.107 503.683 128.24 527.927 109.027C549.353 92.0472 565.465 69.4027 586 51.4122C595.577 43.0215 608.153 33.7178 621.665 35.0817C639.63 36.8951 642.204 57.7875 642.496 72.1553C643.227 108.223 633.506 144.776 623 179L618 172C614.517 169.471 613.446 164.351 609.964 162.312C601.921 157.606 589.658 169.467 587 176L578 178L578 182L571 183L568 195L564 195L564 199L554 200L555 203L550 203L544 192L550 194L553 186L554 182L552 175L554 172L542 178L536 172L551 165C552.185 153.796 568.994 158.738 570 152L577 151L578 139L591 133L600 124L605.922 113.154L610 80L611 80L611 86L612 86L613 75L614 75L614 82L615 82L615 68C598.564 73.7965 584.549 80.981 571 92L568 95L540 119L540 123C536.53 123.248 534.039 123.449 533 127L495 148L495 151C479.138 164.526 480.644 195.095 484 214L484 222L491 221C502.018 190.52 541.135 224.512 555 237L568 237L572 247L577 247L576 245L593 244C590.183 257.995 585.281 267.125 574 276L575 278L563 279L564 290L574 296L578 296C571.678 320.029 562.006 336.906 545 355L557 376L560 376L560 384L553 390L540 390L546 401C544.774 408.09 544.538 431.948 556.042 417.037C557.514 415.129 558.746 413.052 560 411L568 411C567.275 422.105 566.453 431.067 558 439L560 448L564 448L554 504L533 505L533 508L529 508L530 510L520 512L512 524L523 545L527 545L533 549L533 555L530 555C527.582 561.813 515.592 569.804 524 575L526 587C535.397 588.073 541.244 593.808 547 601L577 619L578 660L563 676L585 675L585 684L579 684L578 694L549.19 708.778L541 716L552 716L552 717L547 717C522.435 720.529 500.468 713.885 476.143 713.046C462.195 712.565 447.002 715.132 436.824 725.499C420.981 741.637 428.822 763.995 449.656 769.792C472.902 776.259 500.107 772.999 524 773L661 773L661 0L0 0z"/>
<path style="fill:#433c34; stroke:none;" d="M300 241C291.122 250.862 279.02 250.025 267.386 254.564C257.371 258.471 249.382 265.902 240 271L229 286C219.146 292.815 208.996 299.65 196.932 301.642C181.241 304.233 165.714 298.377 150.535 295.275C134.212 291.939 117.595 290.973 101 290C98.8704 283.944 91.1623 286.771 86.0895 285.165C70.357 280.184 54.539 279 38 279L38 276L0 271L0 383L24 396L38 398C55.251 410.2 71.3945 422.661 86 438C80.6372 459.422 70.9455 477.114 55.6614 493.156C38.2048 511.478 15.4556 526.789 6.12625 551.295C-3.22064 575.846 0.004024 605.225 0.000709819 631L0 773L434 773C429.805 763.655 422.039 759.07 420.412 748C418.938 737.969 424.941 733.75 430.546 726.806C434.212 722.264 436.568 716.109 442.019 713.046C448.173 709.588 455.394 712.11 462 711.995C468.773 711.878 475.145 709.494 482 710.065C487.676 710.538 491.777 714.383 497 716.13C502.58 717.996 508.293 717.639 514 719.741C521.066 722.343 543.958 727.443 547 717L552 717L552 716L541 716L578 694L579 684L585 684L585 675L563 676L578 660L577 619L547 601C544.713 593.174 533.914 587.247 526 587L524 575L530 555L533 555L533 549L527 545L523 545L512 524L520 512L530 510L529 508L533 508L533 505L554 504L564 448L560 448L558 439C567.118 431.436 567.482 422.205 568 411L560 411C558.8 412.845 557.621 414.711 556.259 416.443C544.768 431.063 544.854 408.436 546 401L540 390L553 390L560 384L560 376L557 376L545 355C562.553 337.083 571.991 320.349 578 296L574 296C572.801 291.897 567.922 290.742 564 290L563 279L575 278L574 276C585.687 267.319 590.419 258.219 593 244L576 245L577 247L572 247L568 237L555 237C541.482 224.234 500.968 189.217 491 221L484 222L484 214C480.97 194.437 479.492 165.582 495 151L495 148L533 127L540 123L540 119L568 95L571 92C584.674 81.3531 598.769 74.005 615 68L615 82L614 82L614 75L613 75L612 86L611 86L611 80L610 80L600 124L591 133L578 139L577 151L570 152C570 155.776 564.852 154.454 562 155.167C555.907 156.69 551 157.92 551 165C546.239 165.432 537.69 167.192 536 172L542 178L554 172L552 175L554 182L553 186L550 194L544 192L550 203L555 203L554 200L564 199L564 195L568 195L571 183L578 182L578 178L587 176L586 173C591.84 169.832 602.416 158.031 609.964 162.992C613.503 165.318 613.995 169.782 618 172L623 179C633.875 144.466 643.402 107.656 642.566 71.1879C642.229 56.5129 639.399 35.6586 620.9 34.5073C607.312 33.6617 594.873 42.8952 585.233 51.3967C565.003 69.2364 549.04 91.5569 527.927 108.4C503.769 127.672 476.812 142.408 455.719 165.505C441.405 181.179 433.82 206.216 415.275 217.369C402.226 225.217 385.668 225.788 371.011 228.309C347.249 232.397 323.986 238.154 300 241z"/>
<path style="fill:#f5f4f1; stroke:none;" d="M458 356L464 390L467 393L472 393L474 402C486.091 392.917 501.276 369.638 481.794 358.743C474.666 354.756 465.832 355.562 458 356M0 383L0 553C3.53929 550.155 2.95164 545.795 5.21258 542C8.99508 535.652 15.1903 529.916 20.5504 524.868C38.2422 508.208 63.1208 496.058 74.9669 473.734C79.2599 465.644 85.5095 456.403 88.6865 447.941C90.2492 443.778 90.4287 439.756 86 438C71.6363 422.263 55.5528 409.965 38 398L24 396L0 383M519 460L509 449C497.502 454.284 513.591 459.923 519 460M354 481L352 488L355 491L360 491L360 487L365 486L362 480L354 481M412 671L419 676L419 671L412 671z"/>
<path style="fill:#433c34; stroke:none;" d="M585 698L590 696L593 688L585 698z"/>
</svg>
