<?xml version="1.0" standalone="yes"?>
<svg width="661" height="773">
<path style="fill:#f5f2ef; stroke:none;" d="M0 0L0 271L28 275L28 278L101 290C130.832 293.723 162.104 299.195 191.959 292.965C227.082 285.636 258.998 263.415 291 248C329.514 237.314 372.785 231.14 407.704 210.856C430.614 197.548 448.47 177.539 468.051 160.047C487.34 142.815 508.419 128.176 530 114L606 36C658.852 64.6451 633.505 134.501 617 179L616 172L578 193C574.187 192.181 571.416 191.977 570 196L564 196L550 203L551 192L560 183L562 173L560 161L570 161L570 155L584 154L584 141C588.447 140.659 591.891 140.224 594 136L599 136L600 126C611.833 116.501 611.63 89.2246 613 75L614 75L614 82L615 82C615.001 77.3841 613.878 71.7511 619 70L619 64L604 65L571 92L568 95L540 119L540 123C536.53 123.248 534.039 123.449 533 127L495 148L495 151C479.84 152.698 482.378 182.153 482.018 194.018C481.859 199.254 479.061 208.899 486 210L502 196L555 237L568 237C571.054 245.697 585.725 244 593 244C589.679 257.52 584.522 266.815 574 276L575 278L563 279L564 290L582 294L574 304L551 365L552 365L557 364L560 384L553 390L540 390L546 401C544.774 408.09 544.538 431.948 556.042 417.037C557.514 415.129 558.746 413.052 560 411L568 411L558 439L560 448L564 448L563 478L562 478L562 476L561 476L558 496L555 496L554 504L540 505L540 506L542 507C538.238 508.005 534.643 509.428 530.951 510.654C528.424 511.493 526.091 512.369 524.019 514.098C508.155 527.335 527.165 539.904 529.11 554.077C530.292 562.685 514.234 568.965 524 575L526 587C535.397 588.073 541.244 593.808 547 601L577 619L578 660L563 676L576 673L582 680L582 684L579 684L578 694L558.986 704.769L547 712L530 713L530 718L544 719L544 721C518.49 718.83 488.753 714.16 464.28 724.095C460.932 725.454 457.698 727.168 454.845 729.397C436.602 743.643 453.922 759.997 469.644 765.234C493.777 773.273 520.983 772.521 546.111 772.806C584.402 773.24 622.706 773 661 773L661 0L0 0z"/>
<path style="fill:#3f3933; stroke:none;" d="M606 36C578.919 60.524 553.862 86.3376 530 114C521.991 114.874 511.873 122.364 504.741 126.236C479.06 140.177 453.594 161.43 435.569 185.134C426.021 197.691 439.658 214.449 420 222.843C408.511 227.748 399.607 222.314 388.019 224.157C372.818 226.576 356.264 227.997 341 231.477C335.623 232.703 331.059 236.648 325.94 237.787C317.883 239.579 293.863 238.214 291 248C258.661 263.25 226.48 285.53 191.11 292.769C161.527 298.823 130.573 293.56 101 290C99.0394 284.424 86.4105 283.148 81 282.986C63.4966 282.464 45.8916 278.002 28 278L28 275L0 271L0 383L24 396C35.2543 404.939 47.0362 413.995 55.2733 425.954C70.3143 447.792 63.1091 471.437 50.4403 492.462C33.5441 520.503 14.0235 545.367 6.56371 577.996C0.149774 606.051 0.320076 635.381 0.117509 664.006C-0.139578 700.336 0.000143061 736.67 0 773L434 773C436.339 761.822 438.732 750.247 445.272 740.648C465.747 710.597 513.307 718.552 544 721L544 719L530 718L530 713L547 712L578 694L579 684L582 684L582 680L576 673L563 676L578 660L577 619L547 601C544.713 593.174 533.914 587.247 526 587L524 575C525.277 548.726 521.679 526.761 542 507L540 506L540 505L554 504L555 496L558 496L561 476L562 476L562 478L563 478L564 448L560 448L558 439C566.946 430.901 568.509 422.758 568 411L560 411C558.8 412.845 557.621 414.711 556.259 416.443C544.768 431.063 544.854 408.436 546 401L540 390L553 390L560 384L557 364L552 365L551 365L574 304L582 294L564 290L563 279L575 278L574 276C584.867 266.958 589.879 257.723 593 244L568 237L555 237L502 196L486 210C479.547 207.975 481.848 199.481 482.036 194.013C482.447 182.113 480.012 153.312 495 151L495 148L533 127L540 123L540 119L568 95L571 92L604 65L619 64L619 70L616 69L615 82L614 82L614 75L613 75C611.398 89.3668 611.666 116.146 600 126L599 136L594 136L584 141L584 154L570 155L570 161L568 159L567 159L560 161L562 173L560 183L551 192L550 203C555.945 202.134 560.304 200.958 564 196L570 196L578 193L616 172L617 179C633.519 135.696 660.273 62.2593 606 36z"/>
<path style="fill:#f5f2ef; stroke:none;" d="M471 348L460 356L464 390L467 390L466 396L475 400L475 395L479 396L477 400L492 375L495 375L498 355L471 348M0 383L0 547L1 547C28.5325 519.085 85.6682 471.382 56.8671 427.378C48.5104 414.61 35.9099 405.219 24 396L0 383M506 458L515 459L512 455C511.258 449.1 506.198 453.904 506 458M412 671L419 676L419 671L412 671z"/>
<path style="fill:#3f3933; stroke:none;" d="M593 684L581 702L593 684z"/>
</svg>
