<?xml version="1.0" standalone="yes"?>
<svg width="661" height="773">
<path style="fill:#ebe6df; stroke:none;" d="M0 0L0 271L28 275L28 278L53 279L53 282C69.2922 283.28 85.0564 287.023 101.217 289.17C114.684 290.959 128.387 290.967 141.781 293.261C154.741 295.481 165.859 302.803 178.651 305.278C207.294 310.819 224.491 291.999 240 271L253 262C273.965 257.686 295.901 254.944 315 245L315 242L384 228C396.045 225.014 411.039 226.43 421.444 218.934C430.841 212.164 432.18 200.504 436.529 190.599C440.701 181.098 447.648 173.128 454.702 165.648C475.788 143.286 502.609 127.303 530 114C552.39 85.7238 575.312 55.8734 606 36C609.918 34.0261 613.862 32.0348 618.186 31.1183C640.631 26.3615 643.494 49.6674 643.128 66.0088C642.567 91.0077 638.945 114.661 633.703 139.044C630.448 154.184 628.505 167.787 617 179L616 148L592 156L595 162L588 168L577 173L568 171L568 168L558 168L560 161L570 161L570 155L584 154L584 141C588.447 140.659 591.891 140.224 594 136L599 136L600 126C611.833 116.501 611.63 89.2246 613 75L614 75L614 82L615 82C615.001 77.3841 613.878 71.7511 619 70L619 64L604 65L571 92L568 95L540 119L540 123C536.53 123.248 534.039 123.449 533 127L495 148L495 151C479.84 152.698 482.378 182.153 482.018 194.018C481.859 199.254 479.061 208.899 486 210C489.945 202.788 494.347 198.988 502 196L555 237L568 237C571.054 245.697 585.725 244 593 244C593.81 260.277 590.408 270.907 574 276L575 278L563 279L564 290L582 294L574 304C572.714 323.412 569.055 333.255 549 338L550 335L541 333L542 331L535 328L522 311L514 310L506 300L516 317L515 336L529 341L529 348L540 359L560 376L560 384L553 390L540 390L546 401C544.022 409.322 540.807 430.348 556.003 421.934C558.097 420.775 560.042 419.369 562 418L561 413L565 432L560 432L551 466C554.244 479.031 555.785 490.608 554 504L533 505L533 508L529 508L530 510L512 511L509 514L509 529L512 529L519 546C523.714 557.844 515.205 560.383 505 563L509 569L509 573L512 573L512 577L516 577C520.688 589.819 531.353 590.513 539 600C553.501 603.568 564.234 611.755 577 619L578 660L563 676L576 673L582 680L582 684L579 684C578.024 691.197 566.363 701 559.94 704.329C555.783 706.483 548.418 707.153 547 712L530 713L530 718L544 719L544 721C519.5 722.803 498.86 712.526 475.008 710.236C459.326 708.729 444.12 710.785 433.247 723.173C420.469 737.731 418.438 762.812 440.088 770.411C461.121 777.794 489.958 773 512 773L661 773L661 0L0 0z"/>
<path style="fill:#37342e; stroke:none;" d="M606 36C574.994 54.4252 551.096 85.3911 530 114C521.75 115.173 512.147 122.286 504.715 126.171C486.665 135.604 468.605 150.319 454.871 165.124C448.612 171.872 439.944 178.305 435.008 186.089C429.114 195.387 436.501 207.584 428.526 216.7C423.387 222.575 412.837 227.008 405 225.741C399.233 224.808 386.661 220.432 384 228L315 242L315 245C295.543 254.373 273.984 257.319 253 262L240 271C229.648 284.037 219.023 299.349 202.24 304.253C181.418 310.337 165.975 298.29 146.569 293.982C132.362 290.828 117.571 291.116 103.172 289.289C86.3446 287.153 69.9688 283.184 53 282L53 279L28 278L28 275L0 271L0 383C9.40633 385.651 16.6084 389.614 24 396C43.0485 400.827 58.1444 409.707 72.3022 423.391C78.6075 429.486 85.2844 436.971 84.8746 446.327C84.4096 456.943 77.2228 467.704 71.4315 476.213C52.4956 504.037 15.8981 520.318 3.72712 552.851C-4.41093 574.604 1.27986e-07 603.138 8.71776e-09 626L0 773L434 773C430.139 766.948 426.115 760.764 424.346 753.717C419.594 734.789 436.301 714.669 454.425 711.016C484.576 704.941 513.451 723.528 544 721L544 719L530 718L530 713L547 712C559.405 703.977 570.352 696.177 579 684L582 684L582 680L576 673L563 676L578 660L577 619C564.367 611.215 553.763 603.252 539 600L516 577L512 577L512 573L509 573L509 569L505 563C515.464 560.663 524.982 558.091 519 546L512 529L509 529L509 514L512 511L530 510L529 508L533 508L533 505L554 504C555.971 490.543 554.573 479.052 551 466C559.93 460.76 554.504 451.836 554.794 444.004C554.964 439.435 558.183 435.976 560 432L565 432C564.924 427.484 565.62 413.99 561 413L562 418C544.726 429.223 542.634 416.827 546 401L540 390L553 390L560 384L560 376L540 359L529 348L529 341L515 336L516 317L506 300L514 310L522 311L535 328L542 331L541 333L550 335L549 338C569.539 333.65 573.072 323.734 574 304L582 294L564 290L563 279L575 278L574 276C590.866 271.32 594.051 260.463 593 244L568 237L555 237L502 196C494.011 198.716 489.696 202.402 486 210C479.547 207.975 481.848 199.481 482.036 194.013C482.447 182.113 480.012 153.312 495 151L495 148L533 127L540 123L540 119L568 95L571 92L604 65L619 64L619 70L616 69L615 82L614 82L614 75L613 75C611.398 89.3668 611.666 116.146 600 126L599 136L594 136L584 141L584 154L570 155L570 161L568 159L567 159L560 161L558 168L568 168L568 171L577 173L588 168L595 162L592 160L592 156L616 148L617 179C628.568 168.689 630.384 155.564 633.49 141.027C638.989 115.294 642.719 90.394 643.22 64.0146C643.534 47.4703 639.626 25.4664 617.499 30.9236C613.382 31.9388 609.681 33.9626 606 36z"/>
<path style="fill:#ebe6df; stroke:none;" d="M460 397L467 405L468 405C476.305 404.771 478.085 416.34 481.718 421.507C484.634 425.653 488.454 423.922 490 420L496 424C492.36 400.346 494.811 378.541 498 355C492.773 352.731 487.498 350.373 481.874 349.275C478.805 348.676 475.65 348.458 472.538 348.83C447.465 351.826 455.364 380.878 460 397M0 383L0 553C10.8155 539.729 21.6831 526.858 34.1141 515.046C47.0506 502.753 61.2548 491.924 71.4327 477.051C78.0174 467.43 87.6254 453.555 84.9769 441.227C81.9006 426.907 64.5869 414.718 53.0921 407.215C44.1177 401.357 34.34 398.414 24 396C16.7242 389.226 9.63256 385.431 0 383M506 458L515 459L512 455C511.258 449.1 506.198 453.904 506 458M336 463L338 465L329 480L333 496L339 497L339 503L368 502L368 496L371 496L371 492L373 494L374 494L373 480L370 480L370 474L366 474L361 469L361 465C352.367 462.057 344.994 461.519 336 463M412 671L419 676L419 671L412 671z"/>
</svg>
