<?xml version="1.0" standalone="yes"?>
<svg width="661" height="773">
<path style="fill:#f5f2ef; stroke:none;" d="M0 0L0 271L28 275L28 278C53.0005 279.78 76.9298 282.788 101 290C116.759 291.084 132.488 292.277 147.915 295.862C166.431 300.165 185.094 307.411 204.01 300.704C219.197 295.319 229.896 282.942 240 271L253 262L315 245L315 242L384 228C396.089 225.541 409.001 223.292 419.021 215.573C435.305 203.028 442.436 180.588 456.465 165.576C477.145 143.446 503.337 127.793 530 114C552.757 85.1891 576.086 57.6727 606 36C611.372 35.1266 616.88 34.1636 622.324 34.9811C641.351 37.8387 642.47 60.9997 642.169 76.1161C641.474 111.031 635.142 148.791 617 179L616 172C601.331 176.575 589.656 182.981 578 193C574.187 192.181 571.416 191.977 570 196L564 196L550 203L551 192L560 183L562 173L560 161L570 161L570 155L584 154L584 141C588.447 140.659 591.891 140.224 594 136L599 136L600 126C611.833 116.501 611.63 89.2246 613 75L614 75L614 82L615 82C615.001 77.3841 613.878 71.7511 619 70L619 64L604 65L571 92L568 95L540 119L540 123C536.53 123.248 534.039 123.449 533 127L495 148L495 151C479.84 152.698 482.378 182.153 482.018 194.018C481.859 199.254 479.061 208.899 486 210L502 196L555 237L568 237C571.054 245.697 585.725 244 593 244C590.183 257.995 585.281 267.125 574 276L575 278L563 279L564 290L582 294L574 304L551 365L552 365L557 364L560 384L553 390L540 390L546 401C544.774 408.09 544.538 431.948 556.042 417.037C557.514 415.129 558.746 413.052 560 411L568 411L558 439L560 448L564 448L563 478L562 478L562 476L561 476L558 496L555 496L554 504L540 505L540 506L542 507C538.238 508.005 534.643 509.428 530.951 510.654C528.424 511.493 526.091 512.369 524.019 514.098C508.155 527.335 527.165 539.904 529.11 554.077C530.292 562.685 514.234 568.965 524 575L526 587C535.397 588.073 541.244 593.808 547 601L577 619L578 660L563 676L576 673L582 680L582 684L579 684L578 694L558.986 704.769L547 712L530 713L530 718L544 719L544 721C514.84 719.832 478.419 704.095 450.373 715.494C427.75 724.689 417.974 757.113 444.664 768.096C466.116 776.923 494.307 772.998 517 773L661 773L661 0L0 0z"/>
<path style="fill:#3d3731; stroke:none;" d="M606 36C575.562 57.0433 552.241 84.757 530 114C521.75 115.173 512.147 122.286 504.715 126.171C486.665 135.604 468.605 150.319 454.871 165.124C448.612 171.872 439.944 178.305 435.008 186.089C429.114 195.387 436.501 207.584 428.526 216.7C423.387 222.575 412.837 227.008 405 225.741C399.233 224.808 386.661 220.432 384 228L315 242L315 245L253 262L240 271C229.359 283.067 218.096 295.796 202.302 300.913C183.908 306.873 165.837 299.713 147.915 295.621C132.486 292.097 116.753 291 101 290C99.0394 284.424 86.4105 283.148 81 282.986C63.4966 282.464 45.8916 278.002 28 278L28 275L0 271L0 383L24 396C44.525 406.15 80.7535 420.819 80.1949 448.577C79.9242 462.032 71.5011 474.538 63.3014 484.593C44.6933 507.412 14.5001 524.203 4.76453 553.218C-3.32407 577.325 0.00157946 605.947 0.00026549 631L0 773L434 773C431.357 766.109 428.659 759.117 428.03 751.698C427.607 746.716 428.161 741.678 429.856 736.963C443.66 698.55 492.471 716.01 521.205 719.516C528.776 720.44 536.382 720.755 544 721L544 719L530 718L530 713L547 712L578 694L579 684L582 684L582 680L576 673L563 676L578 660L577 619L547 601C544.713 593.174 533.914 587.247 526 587L524 575C525.914 548.51 519.046 525.607 542 507L540 506L540 505L554 504L555 496L558 496L561 476L562 476L562 478L563 478L564 448L560 448L558 439C566.946 430.901 568.509 422.758 568 411L560 411C558.8 412.845 557.621 414.711 556.259 416.443C544.768 431.063 544.854 408.436 546 401L540 390L553 390L560 384L557 364L552 365L551 365L574 304L582 294L564 290L563 279L575 278L574 276C585.687 267.319 590.419 258.219 593 244L568 237L555 237L502 196L486 210C479.547 207.975 481.848 199.481 482.036 194.013C482.447 182.113 480.012 153.312 495 151L495 148L533 127L540 123L540 119L568 95L571 92L604 65L619 64L619 70L616 69L615 82L614 82L614 75L613 75C611.398 89.3668 611.666 116.146 600 126L599 136L594 136L584 141L584 154L570 155L570 161L568 159L567 159L560 161L562 173L560 183L551 192L550 203C555.945 202.134 560.304 200.958 564 196L570 196L578 193C589.764 183.359 601.575 176.822 616 172L617 179C635.876 148.953 641.707 110.182 642.282 75.1359C642.53 60.0028 641.285 36.5394 621.869 34.4266C616.534 33.8461 611.207 34.9645 606 36z"/>
<path style="fill:#f5f2ef; stroke:none;" d="M471 348L460 356L464 390L467 390L466 396L475 400L475 395L479 396L477 400L492 375L495 375L498 355L471 348M0 383L0 547L1 547C7.00923 540.726 13.0542 534.491 19.322 528.474C24.1915 523.799 29.1684 519.238 34.1448 514.677C55.4868 495.119 98.8818 458.192 72.3727 426.91C68.0484 421.807 62.7458 417.584 57.2275 413.845C46.7981 406.779 35.3522 401.387 24 396L0 383M506 458L515 459L512 455C511.258 449.1 506.198 453.904 506 458M412 671L419 676L419 671L412 671z"/>
<path style="fill:#3d3731; stroke:none;" d="M593 684L581 702L593 684z"/>
</svg>
