<?xml version="1.0" standalone="yes"?>
<svg width="661" height="773">
<path style="fill:#ebe6df; stroke:none;" d="M0 0L0 271L28 275L28 278L53 279L53 282C82.589 285.73 113.04 288.575 142.244 294.591C161.373 298.532 180.831 307.187 200.559 301.787C217.44 297.167 229.115 283.864 240 271L253 262L315 245L315 242L384 228C396.089 225.541 409.001 223.292 419.021 215.573C435.305 203.028 442.436 180.588 456.465 165.576C477.145 143.446 503.337 127.793 530 114C552.896 85.0264 577.096 59.1187 606 36C611.372 35.1266 616.88 34.1636 622.324 34.9811C641.351 37.8387 642.47 60.9997 642.169 76.1161C641.474 111.031 635.142 148.791 617 179L616 148L592 156L595 162L588 168L577 173L568 171L568 168L558 168L560 161L570 161L570 155L584 154L584 141C588.447 140.659 591.891 140.224 594 136L599 136L600 126C611.833 116.501 611.63 89.2246 613 75L614 75L614 82L615 82C615.001 77.3841 613.878 71.7511 619 70L619 64L604 65L571 92L568 95L540 119L540 123C536.53 123.248 534.039 123.449 533 127L495 148L495 151C479.84 152.698 482.378 182.153 482.018 194.018C481.859 199.254 479.061 208.899 486 210L502 196L555 237L568 237C571.054 245.697 585.725 244 593 244C590.183 257.995 585.281 267.125 574 276L575 278L563 279L564 290L582 294L574 304C570.116 320.361 563.764 329.746 549 338L550 335L541 333L542 331L535 328L522 311L514 310L506 300L516 317L515 336L529 341L529 348L540 359L560 376L560 384L553 390L540 390L546 401C545.444 414.147 547.477 422.325 562 418L561 413L565 432L560 432L551 466L554 504L533 505L533 508L529 508L530 510L512 511L509 514L509 529L512 529L519 546C520.595 556.74 514.305 559.795 505 563L509 569L509 573L512 573L512 577L516 577C520.688 589.819 531.353 590.513 539 600L577 619L578 660L563 676L576 673L582 680L582 684L579 684C578.024 691.197 566.363 701 559.94 704.329C555.783 706.483 548.418 707.153 547 712L530 713L530 718L544 719L544 721C514.84 719.832 478.419 704.095 450.373 715.494C427.75 724.689 417.974 757.113 444.664 768.096C466.116 776.923 494.307 772.998 517 773L661 773L661 0L0 0z"/>
<path style="fill:#37342e; stroke:none;" d="M606 36C576.535 58.576 552.415 84.54 530 114C521.75 115.173 512.147 122.286 504.715 126.171C486.665 135.604 468.605 150.319 454.871 165.124C448.612 171.872 439.944 178.305 435.008 186.089C429.114 195.387 436.501 207.584 428.526 216.7C423.387 222.575 412.837 227.008 405 225.741C399.233 224.808 386.661 220.432 384 228L315 242L315 245L253 262L240 271C228.963 283.516 217.204 296.727 200.566 301.44C180.883 307.016 161.365 298.231 142.244 294.367C113.033 288.465 82.5946 285.544 53 282L53 279L28 278L28 275L0 271L0 383L24 396C46.1946 404.436 81.6656 420.549 80.1942 449.38C79.4182 464.587 68.9536 478.385 59.2832 489.35C40.4697 510.682 14.8218 528.3 5.30843 556.27C-3.04156 580.819 0.00261971 609.466 0.000447391 635L0 773L434 773C431.357 766.109 428.659 759.117 428.03 751.698C427.607 746.716 428.161 741.678 429.856 736.963C443.66 698.55 492.471 716.01 521.205 719.516C528.776 720.44 536.382 720.755 544 721L544 719L530 718L530 713L547 712L579 684L582 684L582 680L576 673L563 676L578 660L577 619L539 600L516 577L512 577L512 573L509 573L509 569L505 563C515.038 560.355 523.063 557.59 519 546L512 529L509 529L509 514L512 511L530 510L529 508L533 508L533 505L554 504L551 466C559.93 460.76 554.504 451.836 554.794 444.004C554.964 439.435 558.183 435.976 560 432L565 432C564.924 427.484 565.62 413.99 561 413L562 418C547.783 421.85 545.766 413.86 546 401L540 390L553 390L560 384L560 376L540 359L529 348L529 341L515 336L516 317L506 300L514 310L522 311L535 328L542 331L541 333L550 335L549 338C564.202 330.008 570.419 320.672 574 304L582 294L564 290L563 279L575 278L574 276C585.687 267.319 590.419 258.219 593 244L568 237L555 237L502 196L486 210C479.547 207.975 481.848 199.481 482.036 194.013C482.447 182.113 480.012 153.312 495 151L495 148L533 127L540 123L540 119L568 95L571 92L604 65L619 64L619 70L616 69L615 82L614 82L614 75L613 75C611.398 89.3668 611.666 116.146 600 126L599 136L594 136L584 141L584 154L570 155L570 161L568 159L567 159L560 161L558 168L568 168L568 171L577 173L588 168L595 162L592 160L592 156L616 148L617 179C635.876 148.953 641.707 110.182 642.282 75.1359C642.53 60.0028 641.285 36.5394 621.869 34.4266C616.534 33.8461 611.207 34.9645 606 36z"/>
<path style="fill:#ebe6df; stroke:none;" d="M460 397L467 405L468 405C476.305 404.771 478.085 416.34 481.718 421.507C484.634 425.653 488.454 423.922 490 420L496 424C493.913 400.632 495.075 378.239 498 355C492.523 353.669 486.99 352.278 481.329 352.094C454.853 351.232 456.422 378.318 460 397M0 383L0 553C6.62798 545.145 13.2847 537.315 20.2854 529.787C44.5046 503.744 106.086 460.171 68.3901 421.55C63.8805 416.929 58.7496 412.913 53.3179 409.434C44.1798 403.582 34.1604 399.67 24 396L0 383M506 458L515 459L512 455C511.258 449.1 506.198 453.904 506 458M336 463L338 465L329 480L333 496L339 497L339 503L368 502L368 496L371 496L371 492L373 494L374 494L373 480L370 480L370 474L366 474L361 469L361 465L336 463M412 671L419 676L419 671L412 671z"/>
</svg>
