<?xml version="1.0" standalone="yes"?>
<svg width="661" height="773">
<path style="fill:#f5f3f0; stroke:none;" d="M0 0L0 269C35.1928 275.098 70.6998 282.31 106.029 287.261C118.855 289.059 131.919 288.391 144.695 290.478C163.42 293.536 181.275 307.882 200.825 302.418C221.807 296.553 238.216 272.886 253 258L293 247L293 246L291 246L291 245C318.082 237.478 346.591 228.716 374.393 224.585C388.702 222.459 406.648 226.394 419.285 217.985C429.091 211.46 431.029 199.349 435.813 189.423C440.908 178.855 448.733 169.459 456.808 161.035C478.184 138.737 506.168 126.442 530.044 107.7C542.943 97.5741 551.682 83.1597 563.132 71.539C578.533 55.9084 604.18 20.9157 630.234 29.5112C644.58 34.2437 644.759 51.5036 644.953 64.0116C645.45 96.0557 638.684 126.816 631.997 157.999C630.047 167.092 625.593 189.615 615.681 193.761C613.062 194.856 602.631 183.141 598 182L599 185L592 189L584 203C581.084 203.137 579.37 203.017 579 206L540 211L542 213L542 214L540 216L546 216L550 219L569 231L569 232L567 232L567 233L577 234C582.33 237.935 588.624 241.85 591.808 247.876C600.582 264.48 586.278 277.843 572 283L572 284L574 285L571 286L571 289L586 293L586 294C578.066 304.254 576.783 313.912 572.886 325.808C570.015 334.57 563.209 341.489 561.108 350.547C557.261 367.137 567.748 385.228 574 400L576 432L577 432L577 429L578 429C576.214 440.757 572.428 449.701 565 459C562.222 479.311 559.494 496.497 541 508L542 510C534.333 516.501 533.533 523.311 534 533L536 532L546 542L547 543L546 545C550.5 547.794 549.636 551.195 550 556L545 559L545 553L544 553C535.202 558.389 528.292 574.961 540 581L547 588L547 597L555 597L560 590C572.7 590.905 568.005 607.826 577 609C579.936 632.267 580.598 649.564 570 671L575 667L589 663C588.301 666.982 587.927 669.357 592 671L588 682L586 684L558 706L558 707L560 707L560 708L557 710L555 709L554 709L554 710L565 712L571 709L571 710C553.941 719.022 536.577 725.142 517 722.194C492.002 718.429 463.885 703.412 440.241 720.719C416.053 738.424 424.239 770.011 454.077 772.522C478.132 774.547 502.869 773 527 773L661 773L661 0L0 0z"/>
<path style="fill:#8a745b; stroke:none;" d="M291 245L291 246L293 246L293 247L253 258C237.578 272.53 221.139 296.681 199.854 302.293C180.782 307.321 163.018 293.069 144.641 290.299C132.187 288.422 119.501 289.011 107.016 287.257C71.3208 282.242 35.633 274.787 0 269L2 330L8 326L8 330C4.47934 331.207 4.01416 332.453 5 336L6 336C10.7679 337.578 11.8295 340.136 12 345L16 347L16 350L11 355L7 354L8 351L0 349C0.0565276 360.701 -1.42415 375.241 7.39024 384.378C22.4369 399.975 47.202 406.414 64.6715 419.243C72.4921 424.986 81.5835 432.55 82.9983 442.792C84.7242 455.286 74.4533 469.288 67.5715 478.862C47.1184 507.316 11.8285 520.793 0 556C20.5772 533.341 45.8376 515.096 65.6167 491.936C81.6425 473.171 90.2086 450.531 111 436C116.177 429.783 118.723 423.983 120 416L122 416L120 410L108 402L111 392L112 391L120 391L121 391L122 391L136 393L135 396L146 387L148 388L147 384L148 380L121 362L120 360C122.6 352.017 118.14 344.327 115.148 337C114.019 334.234 114.127 330.466 111 330L108 312L105 304L151 308L166 314L166 321L176 331L190 334L200 331L202 324L210 323C209.823 319.662 209.694 318.215 213 317L212 310L236 304C240.944 295.123 246.827 290.248 256 286L255 283L277 279L278 275L292 273L291 276L299 275L310 280L309 277L312 274L303 272L312 262L316.333 256.333L326 247C331.267 246.996 340.871 246.386 343 241L352 242L355 240L360 244L377 241L391 234L390 238C401.778 232.982 418.022 231.241 427.473 222.207C435.509 214.525 437.243 202.408 442.015 192.772C448.465 179.744 457.803 168.257 468 158L459 188L464 192L475 203L476 203L476 200L477 200L485 246L490 256L521 248L525 245L523 272L541 272L544 286L568 300C567.855 309.035 568.945 330.156 553.947 322.358C551.891 321.289 549.994 319.928 548.188 318.483C545.299 316.17 542.655 313.572 540 311L525 296C520.629 296.009 515.703 294.267 514 290L502 268L495 268L494 264L492 266L491 266L488 262L492 260L492 259C484.743 256.859 479.046 255.202 474 262L480 260L476 273L473 274C474.094 278.006 475.612 285.06 480 286L479 293L485 293L483 299L488 301L485 300L488 303L488 304L483 304L490 311L490 314L489 314L480 316L479 316L469 306L464 306L465 303L463 300L471 300L461 298L455 294L429 272L425 269L423 270L405 256L400 257L399 257L393 248L392 248L372 245L380 265L380 264L376 264L376 263L384 263L382 264L382 265L385 264L396 276L410 280C416.802 289.988 425.475 296.751 435 304L439 302L442 307C453.691 310.096 461.905 316.266 471 324L473 323C481.57 343.727 453.615 346.196 450.854 365.684C447.216 391.365 467.824 411.444 465 437L470 441L473 440L478 446C483.319 464.793 507.125 467.474 523 474L522 477L523 478L525 478L526 477L525 474L529 473L531 481C525.486 481.299 525.114 485.925 530 488L530 489L528 489L528 490L538 497L538 498L522 498L523 500L504 500L504 499L506 499L506 498C488.235 502.705 485.141 520.068 499 532C497.658 541.191 493.026 545.665 488 553L483 551L488 566L495 575L503 581L504 581L504 578L505 578L514 587L507 598L508 601L494 609C502.799 617.25 510.982 620.999 523 622L527 616L523 617L523 611L546 610L547 618L550 618L553 631L554 631L557 630L571 623L570 664L567 667L557 678L575 682L578 681C562.442 704.288 536.122 717.976 509 706L529 704L543 697L551 685C553.819 685 553.634 683.579 553 681L555 677L554 677C537.403 686.089 523.364 690.959 505 684L492 677L482 666L473 643C472.388 630.281 474.035 619.396 464 610L466 608L463 605L449 580L447 581L442 567L439 568L440 564L432 564L416 576L416 580L424 579L419 583C415.648 576.832 407.396 588.422 409 593L375 604C354.352 610.155 336.274 605.236 316 600L316 599L318 599L318 598C307.565 595.549 293.091 591.522 285.394 583.565C281.232 579.263 276.144 562.698 271 562L271 557C256.913 548.781 234.161 535.051 225 556L229 562L230 560L231 560L245 586L249 587L249 591L253 594L260 604L262 602L265 605L264 607L270 609C285.83 622.335 304.471 628.946 324 635L322 629L323 629L324 632L325 632L325 629L333 631L333 632L327 631L338 638L342 642L389 657L388 659L397 661L398 673C398.673 680.251 402.43 682.661 409 685L408 687L408 706L406 705C405.478 719.871 408.309 733.695 409.431 748.4C409.911 754.693 408.936 763.043 413.893 767.876C419.357 773.205 428.959 772.723 436 773C431.298 765.508 425.915 757.476 425.388 748.366C424.362 730.621 442.118 716.659 458.089 713.953C480.063 710.23 498.712 720.517 519.999 722.791C538.561 724.774 555.068 718.976 571 710L571 709C567.739 708.611 565.973 708.689 565 712L554 710L554 709L557 710L560 708L560 707L558 707L558 706C563.999 706 573.989 698.014 578 693C581.237 688.954 583.591 680.898 588 682L592 671L589 663L575 667L570 671C581.19 649.766 580.145 632.227 577 609C573.279 609 571.496 601.272 570.667 598C569.119 591.895 566.185 590 560 590L555 597L547 597L547 588L540 581C528.793 573.419 535.745 559.89 544 553L545 553L545 559L550 556C549.875 551.269 550.812 547.345 546 545L546 542C540.781 542.186 536.133 537.043 536 532L534 533C533.576 523.299 534.417 516.583 542 510L541 508C560.068 497.132 562.434 479.296 565 459C572.757 449.763 576.449 440.941 578 429L577 429L577 432L576 432L574 400C568.785 386.811 561.01 372.631 560.748 358.159C560.542 346.725 568.001 339.153 572.185 329.229C577.401 316.854 577.897 305.416 586 294L586 293L571 289L571 286L574 285L572 284L572 283C586.777 278.169 601.487 264.03 591.923 247.186C588.622 241.373 582.347 237.692 577 234L575 236L567 233L567 232L569 232L569 231L550 219L546 216L540 216L542 214L542 213L540 211L579 206L584 203L592 189L599 185L598 182C602.558 183.432 612.591 195.555 615.607 194.485C625.797 190.87 630.345 166.945 632.207 157.999C638.727 126.691 645.509 96.1564 644.993 64.0116C644.804 52.2507 645.224 35.7988 632.631 29.9717C620.182 24.2117 605.628 31.6523 595.759 39.1895C572.866 56.6716 556.851 80.8452 536.776 100.976C511.983 125.836 476.801 137.649 452.85 164.462C446.092 172.027 439.658 180.177 435.363 189.423C430.229 200.474 427.933 213.418 415.999 219.387C403.005 225.886 386.462 222.5 372.454 224.727C345.316 229.043 317.36 237.26 291 245z"/>
<path style="fill:#2f2d29; stroke:none;" d="M619 40L618 43C614.297 42.3569 600.589 42.0624 600 46C596.505 46.6173 587.862 50.5837 590 55L590 56L586 59L597 51C600.235 51.0544 610.301 48.2637 611 45L618 44C620.46 47.8964 622.43 49.649 627 48L628 48L627 57L631 57L631 76L626 80L628 80C626.775 86.0753 626.118 92.4269 632 96L632 90L633 90L633 98C637.037 97.1848 638.769 92.022 634 91L637 78L635 52L636 52L636 56L637 56L636 45L634 46L633 40L619 40M635 40L636 41L635 40M610 51L611 52L610 51M584 61L582 63L582 64L586 61L584 61M628.333 62.6667L628.667 63.3333L628.333 62.6667M583 65L584 66L583 65z"/>
<path style="fill:#8a745b; stroke:none;" d="M632.333 72.6667L632.667 73.3333L632.333 72.6667z"/>
<path style="fill:#2f2d29; stroke:none;" d="M557 83L557 88L558 88L557 83M559 83L560 84L559 83z"/>
<path style="fill:#f5f3f0; stroke:none;" d="M540 121L529 134L527 133L499 158L498 160L494 177L496 181L512 178L511 176L534 161L532 159L551.259 148.398L558 144C562.137 143.678 565.456 140.813 560 139L560 138L564 137L564 136L560 136L560 135L568 136L578 118L583 112L585 113L586 113L586 112L584 111L586 106L594 105L594 104L592 102L594 94L598 88L594 89L599 85C574.7 93.0115 559.467 104.919 540 121z"/>
<path style="fill:#8a745b; stroke:none;" d="M628 87L629 88L628 87z"/>
<path style="fill:#2f2d29; stroke:none;" d="M632 114L633 114L634 105C629.348 106.971 630.455 109.832 632 114M635.333 105.667L635.667 106.333L635.333 105.667M635 108L636 109L635 108M630.333 112.667L630.667 113.333L630.333 112.667M630 115L629 121L630 121L630 115M627 117L627 120L628 120L627 117z"/>
<path style="fill:#8a745b; stroke:none;" d="M566.667 128.333L567.333 128.667L566.667 128.333z"/>
<path style="fill:#2f2d29; stroke:none;" d="M626 132L626 134L627 135L629 135L630 132L629 131L626 132M625 136L624 140L628 140L627 136L625 136z"/>
<path style="fill:#8a745b; stroke:none;" d="M511 146L512 147L511 146z"/>
<path style="fill:#2f2d29; stroke:none;" d="M390 238L391 234C386.385 234 378.069 236.013 377 241C373.077 239.994 361.025 239.215 360 244L355 240L352 242L343 241L326 247L312 262L303 272L312 274L310 280L299 275L291 276L292 273L278 275L277 279L274 278L255 283L256 286C246.307 289.863 240.545 294.52 236 304L212 310L213 317C209.596 317.967 209.644 319.668 210 323L202 324L200 331L190 334L176 331L166 321L166 314L151 308L105 304L108 312L111 330C114.412 330 113.836 335.207 115 338C118.043 345.303 122.344 351.902 120 360L121 362L148 380L147 384L148 388L146 387L135 396L136 393L122 391L121 391L120 391L112 391L111 392L108 402L120 410L122 416L120 416C118.523 423.822 115.949 429.755 111 436C90.4845 449.466 82.1649 470.823 67.1158 489.244C48.4156 512.134 17.2499 527.083 4.7658 554.694C-4.46348 575.105 8.00271e-07 603.129 6.09945e-08 625L0 773L411 773C408.624 768.133 406.206 765.123 408.333 759.083C409.433 755.961 412.363 754.671 412.278 751C412.097 743.19 406.895 737.123 405.25 730C403.509 722.464 405.613 712.674 406 705L408 706L408 687L409 685C403.012 682.246 399.716 679.48 398 673L397 661L388 659L389 657L342 642L338 638L327 631L333 632L333 631C329.728 630.326 325.918 627.805 325 632L324 632L323 629L322 629L321 632L324 635C304.672 628.496 286.114 621.855 270 609L264 607L265 605L262 602L260 604L253 594L249 591L249 587L245 586L231 560L230 560L229 562L225 556C235.597 536.197 256.206 548.901 271 557L271 562C274.64 562 281.392 579.898 284.5 583.667C290.643 591.117 308.649 597.262 318 598L318 599L316 599L316 600C336.077 605.537 354.558 610.616 375 604L409 593C409.637 588.192 413.183 581.142 419 583L424 579L416 580L416 576L432 564L440 564L439 568L442 567L447 581L449 580L466 608L464 607L464 610C472.448 620.091 472.183 630.445 473 643C467.798 653.403 483.719 659.122 482 666L492 677L505 684C506.87 688.723 513.302 689.471 518 689.937C528.538 690.983 547.316 685.699 554 677L555 677L556 680L553 681C553.508 684.047 553.587 685.647 551 685L543 697L529 704L509 706C535.5 718.831 563.541 704.632 578 681L575 682C571.096 675.536 563.486 678.235 557 678L567 667L570 664C572.94 650.259 571.912 636.912 571 623L557 630L554 631L553 631L550 618L547 618L546 610L523 611L523 617L527 616L523 622C511.204 620.587 502.875 616.91 494 609L508 601L507 598L514 587L505 578L504 578L504 581L503 581L495 575L488 566L483 551L488 553C492.898 544.447 498.761 543.032 499 532C488.341 518.397 489.51 505.189 506 498L506 499L504 499L504 500L523 500L522 498L538 498L538 497L528 490L528 489L530 489L530 488C525.608 485.655 525.492 481.358 531 481L529 473L525 474L526 477L525 478L523 478L522 477L523 474C507.083 467.018 484.322 464.366 478 446L473 440L470 441L465 437L468 436C465.469 412.248 447.789 390.765 450.99 366.544C453.619 346.658 482.797 343.906 473 323L471 324C462 315.775 454.124 309.619 442 307L439 302L435 304L410 280L408 282L396 276L385 264L382 265L382 264L384 263L376 263L376 264L380 264L380 265L372 245L392 248L393 248L399 257L400 257L405 256L423 270L425 269L429 272L455 294L457 292L461 298L471 300L463 300L465 303L464 306L469 306L479 316L480 316L490 314L490 311L488 312L483 304L488 304L488 303L485 300L488 301C487.311 297.803 485.946 298.254 483 299L485 293L479 293L480 286L473 274L476 273L480 260L474 262L492 259L492 260L488 262L491 266L492 266L494 264L495 268L502 268L514 290C516.603 294.33 520.102 295.566 525 296L540 311C542.688 313.82 545.369 316.662 548.38 319.145C550.141 320.597 552.006 321.95 554.032 323.011C569.486 331.102 568.031 309.111 568 300L544 286L541 272L523 272L525 245L521 248L490 256L485 246L477 200L476 200L476 203L475 203L464 192L459 188L468 158C457.326 167.941 447.922 179.564 441.563 192.772C436.985 202.28 435.204 213.893 427.473 221.571C418.066 230.913 401.83 232.716 390 238z"/>
<path style="fill:#8a745b; stroke:none;" d="M463 164L464 165L463 164z"/>
<path style="fill:#f5f3f0; stroke:none;" d="M492 184L488 195L490 192L524 206L527 210L528 210L530 207L529 206L526 208C517.886 194.433 506.106 189.814 492 184z"/>
<path style="fill:#8a745b; stroke:none;" d="M584 200L585 201L584 200z"/>
<path style="fill:#f5f3f0; stroke:none;" d="M529 209L529 210L535 210L534 213L536 209L529 209z"/>
<path style="fill:#8a745b; stroke:none;" d="M406.667 232.333L407.333 232.667L406.667 232.333M388.667 239.333L389.333 239.667L388.667 239.333M367 244L368 245L367 244z"/>
<path style="fill:#2f2d29; stroke:none;" d="M496 248L497 249L496 248M584 251L587 248L584 251M378 252L379 253L378 252M402 257L403 258L402 257z"/>
<path style="fill:#8a745b; stroke:none;" d="M469 272L469 274L471 274L471 272L469 272M472 272L473 273L472 272z"/>
<path style="fill:#2f2d29; stroke:none;" d="M280.667 273.333L281.333 273.667L280.667 273.333M263.667 280.333L264.333 280.667L263.667 280.333z"/>
<path style="fill:#8a745b; stroke:none;" d="M445 280L446 281L445 280M588 287L588 288L591 288L591 289L587 289L587 291L592 291L588 287M464 293L464 295L468 295L468 293L464 293z"/>
<path style="fill:#2f2d29; stroke:none;" d="M489 318L488 321L492 321L492 320L489 318M208 320L206 323L208 320M0 325L0 349L8 351L7 354L11 355L16 350L16 347L12 345C12.5192 339.914 11.7642 336.065 6 336L5 336C4.19055 332.502 4.59072 331.269 8 330L8 326L2 330L0 325M9 327L10 328L9 327z"/>
<path style="fill:#8a745b; stroke:none;" d="M0 331L0 335L1 335L0 331M7 339L11 342L11 341L7 339M2 343L2 344L6 344L2 343M5 347L5 348L8 349L8 346L5 347z"/>
<path style="fill:#2f2d29; stroke:none;" d="M24 352L24 346C19.5581 347.68 19.3757 350.466 24 352z"/>
<path style="fill:#f5f3f0; stroke:none;" d="M475 352L464 367L464 368L469 376L481 377L485 379L491 375L491 358L490 358L490 361L489 361L480 355L480 354L483 354L475 352z"/>
<path style="fill:#2f2d29; stroke:none;" d="M520 362C505.29 369.284 500.579 378.713 496 394C497.472 398.882 498.05 403.68 503 406L514 398L512 412L506 419L508 424L508 438L510 446L519 455L546 459L551 444C554.983 443.405 554.575 434.579 555 431L541 432L539 410L530 393L530 391L540 387L541 387L544 389L544 386L540 386L540 385L543 385L543 384L536 380L547 379L547 378L544 378L544 377L549 377L533 362L533 359L529 359C528.239 353.499 519.3 355.449 520 362M24 357L25 358L24 357M531 357L532 358L531 357z"/>
<path style="fill:#8a745b; stroke:none;" d="M520 358L520 359L524 359L520 358z"/>
<path style="fill:#2f2d29; stroke:none;" d="M2 376L9 376L7 373L2 376z"/>
<path style="fill:#8a745b; stroke:none;" d="M519 380L516 386L534 383C529.3 375.523 522.981 382.934 519 380z"/>
<path style="fill:#f5f3f0; stroke:none;" d="M0 385L0 546C11.4313 533.358 23.1667 521.029 35.932 509.714C48.9037 498.217 62.3432 488.382 71.7513 473.52C78.4053 463.009 87.2357 449.504 81.6005 436.755C74.2617 420.152 52.639 410.236 37.4863 402.268C25.2442 395.83 13.0071 389.748 0 385M485 389L485 390L489 391L485 389M550 401L543 407C544.106 413.636 535.993 433.457 551 428C555.249 426.455 553.198 420.049 557 421L557 406C558.939 405.606 560.871 405.332 562.527 404.146C581.563 390.52 531.153 385.39 550 401z"/>
<path style="fill:#2f2d29; stroke:none;" d="M96 392L96 393L104 393L96 392z"/>
<path style="fill:#f5f3f0; stroke:none;" d="M487 392L488 393L487 392z"/>
<path style="fill:#2f2d29; stroke:none;" d="M65 408L65 409L68 409L68 410L66 411L80 418L82 407L65 408M85 416L86 417L85 416z"/>
<path style="fill:#8a745b; stroke:none;" d="M537 421L538 422L537 421M309 459L308 484L327 503L349 508L349 509L346 509L346 510C360.956 510.274 383.134 511.197 380.007 489.717C379.47 486.026 378.222 482.507 377 479L364 465C364.024 460.661 357.351 458.646 354 456.444C345.169 450.641 335.988 437.879 324.083 442.5C316.823 445.318 314.934 458.174 309 459z"/>
<path style="fill:#f5f3f0; stroke:none;" d="M509 453L509 458L515 458L509 453z"/>
<path style="fill:#8a745b; stroke:none;" d="M510 454L511 455L510 454z"/>
<path style="fill:#2f2d29; stroke:none;" d="M535 488L536 489L535 488z"/>
<path style="fill:#8a745b; stroke:none;" d="M509.667 498.333L510.333 498.667L509.667 498.333z"/>
<path style="fill:#2f2d29; stroke:none;" d="M525 499L525 500L528 500L525 499M533 499L533 500L536 500L533 499M537 499L538 500L537 499M355 508L355 509L359 509L355 508z"/>
<path style="fill:#8a745b; stroke:none;" d="M343 535L352 556L363 553C363.732 547.034 363.929 541.307 360.368 536.124C355.294 528.738 347.46 526.346 343 535M297 532L297 536L307 535L307 533L297 532M575 533L576 534L575 533M482 547L485 544L482 547z"/>
<path style="fill:#2f2d29; stroke:none;" d="M234 567L235 568L234 567M421 583L422 584L421 583M511 600L512 601L511 600M552 623L553 624L552 623z"/>
<path style="fill:#8a745b; stroke:none;" d="M553 649C557.943 657.275 564.13 657.619 570 650L553 649z"/>
<path style="fill:#f5f3f0; stroke:none;" d="M568 669L570 673L568 669M566 672L567 673L566 672z"/>
<path style="fill:#8a745b; stroke:none;" d="M593 680L588 690L577 703C585.886 696.814 590.729 690.67 593 680z"/>
<path style="fill:#2f2d29; stroke:none;" d="M430 712L452 699L442 694C435.82 699.127 432.491 704.385 430 712z"/>
<path style="fill:#8a745b; stroke:none;" d="M579 695L580 696L579 695M575.333 705.667L575.667 706.333L575.333 705.667M571.667 706.333L572.333 706.667L571.667 706.333M559 709L560 710L559 709z"/>
</svg>
