<?xml version="1.0" standalone="yes"?>
<svg width="661" height="773">
<path style="fill:#f5f3f0; stroke:none;" d="M0 0L0.000436762 172C0.00231014 197.345 -5.10512 230.745 5.68967 254.428C16.6018 278.368 52.706 279.355 75.0139 283.258C98.1211 287.301 121.504 289.975 144.503 294.586C162.487 298.191 181.043 304.224 199.393 299.44C218.317 294.507 233.499 280.366 248 268L248 267L246 267L246 266L276 254L275 252C284.221 251.117 295.509 250.427 301 242C322.998 238.557 344.69 233.753 366.585 229.767C382.049 226.951 398.892 225.465 412.752 217.451C432.955 205.768 443.292 181.431 458.695 164.673C477.949 143.724 502.339 129.305 524.338 111.623C546.275 93.9911 563.561 71.4734 585.306 53.6765C594.997 45.7458 607.714 36.5866 620.97 37.752C638.447 39.2885 641.649 59.7413 641.963 73.7849C642.755 109.295 632.632 145.45 622 179L620 179L606 156L584 173L585 176L578 178C567.241 186.358 557.731 191.26 544 192L549 193C549.506 186.984 553.57 181.043 552.891 174.967C552.236 169.105 546.235 174.451 545 177L536 171L544 168L551 165L551 161L568 156L579 141C590.472 130.136 599.475 118.909 607 105L607 104L610 86L613 72L614 72L614 74L615 74L615 68L582 79L575 83L553 108L551 107L510 137L505 144L502 143L495 151C479.869 165.158 479.662 194.951 484 214L485 223L491 221C491 213.827 481.316 202.842 493 197C497.867 194.567 511.959 209.163 512 209C533.484 219.818 553.219 231.945 572 247L578 247L577 245L593 244L591 275L574 276L575 278C564.513 283.621 569.421 289.918 577 296C570.527 318.619 560.98 337.11 547 356L547 358C552.569 372.206 552.313 381.169 540 391L547 401L546 403L541 406L543 418L541 417L541 428C547.176 427.99 551.042 426.881 555 422C559.669 420.483 559.913 415.345 560 411C561.406 424.102 560.645 436.101 558 449L564 448L556 472L560 473L557 496L555 500C550.113 501.751 529.971 505.178 530 510L520 512L521 516L512 522L523 545L532 553L532 554L518 567L539 591L568 618C583.625 631.792 578.645 654.988 565 668L565 669L567 669L567 670C563.597 670.729 564.013 672.806 564 676C566.693 676 580.657 669.373 579 676L585 675L550 709L544 715L539 715L539 716L556 715L547 717C546.536 720.547 541.25 721.343 538 721.944C528.407 723.721 520.219 722.565 511 719.556C501.848 716.568 491.554 711.056 482 710.083C474.66 709.336 468.159 711.403 461 711.917C454.474 712.385 449.456 708.659 443 712.083C436.569 715.494 426.805 727.72 423.083 734C417.042 744.195 421.857 770.896 436 772.917C459.611 776.29 486.123 773 510 773L661 773L661 0L0 0z"/>
<path style="fill:#423c34; stroke:none;" d="M301 242C294.668 249.861 284.476 250.872 275 252L276 254L246 266L246 267L248 267L248 268C232.937 280.436 217.124 294.968 197.553 299.486C176.216 304.412 153.75 295.702 132.79 292.23C88.5051 284.894 44.1618 278.112 0 270C0.000267967 290.938 -0.328658 311.914 0.284219 332.846C0.720065 347.731 1.65437 363.64 10.1169 376.437C27.4193 402.602 77.0438 411.865 77.7885 448.312C78.1111 464.096 67.7723 478.359 57.9278 489.748C39.5546 511.003 15.0784 528.666 5.741 556.252C-2.81303 581.523 0.00831414 610.722 0.00165929 637L0 773L434 773L434 772C425.536 764.858 416.874 750.341 421.231 739C423.794 732.332 429.269 728.193 433.861 723C437.629 718.739 440.148 713.362 445.866 711.366C450.849 709.626 455.946 712.177 461 711.935C468.163 711.593 474.686 709.2 482 710.264C494.435 712.073 506.636 719.115 519 722.12C524.731 723.513 546.041 724.758 547 717L556 715L539 716L539 715L544 715L550 709C563.372 698.985 574.614 688.087 585 675L579 676C578.156 669.899 567.634 674.73 564 676L567 670L567 669L565 669L565 668C578.954 655.993 584.259 630.718 568 618L539 591L518 567L532 554L532 553L523 545L512 522L521 516L520 512L530 510C530 504.981 550.264 502.56 555 500L557 496L560 473L556 472L564 448L558 449C561.865 435.78 575.148 422.682 560 411C560 415.719 558.447 422.862 555 422L541 428L541 417L543 418L541 406L546 403L547 401L540 391C552.455 381.208 552.836 372.216 547 358L547 356C561.427 337.209 570.813 318.891 577 296C569.831 289.878 564.939 283.662 575 278L574 276L591 275L595.833 257L593 244L577 245L578 247L572 247C553.345 231.616 533.731 219.561 512 209C511.153 202.977 494.51 193.874 489.569 200.083C483.763 207.381 490.247 213.638 491 221L485 223L484 214C483.493 191.43 486.007 171.826 495 151L502 143L505 144L510 137L551 107L553 108L575 83C577.996 82.9594 581.533 82.2011 582 79L615 68L615 74L614 74L614 72L613 72L610 86L607 104L607 105C599.183 118.561 590.121 129.995 579 141C579.169 150.46 571.461 149.374 568 156C559.781 151.891 554.113 161.778 551 161L551 165L544 168C540.052 167.183 537.784 167.122 536 171L545 177C545 174.607 551.924 168.548 553.333 173C555.488 179.804 546.764 186.464 549 193L544 192C557.749 207.29 570.379 190.82 578 178L585 176L584 173L606 156L620 179L622 179C632.889 145.389 642.989 109.114 642.131 73.4634C641.791 59.322 638.59 38.7271 620.987 37.186C607.75 36.0273 595.028 45.0333 585.307 52.9282C563.49 70.6459 546.231 93.2159 524.338 110.898C502.407 128.611 477.971 142.947 458.695 163.822C443.146 180.659 432.84 205.05 412.623 216.967C398.877 225.07 382.181 226.721 366.772 229.531C344.809 233.535 323.041 238.395 301 242z"/>
<path style="fill:#f5f3f0; stroke:none;" d="M613.667 65.3333L614.333 65.6667L613.667 65.3333z"/>
<path style="fill:#423c34; stroke:none;" d="M610 81L610 84L611 84L610 81M592 127L593 128L592 127M587 135L588 136L587 135z"/>
<path style="fill:#f5f3f0; stroke:none;" d="M581 142L581 144L583 144L581 142z"/>
<path style="fill:#423c34; stroke:none;" d="M608.333 158.667L608.667 159.333L608.333 158.667M607.333 166.667L607.667 167.333L607.333 166.667z"/>
<path style="fill:#f5f3f0; stroke:none;" d="M545 167L546 168L545 167M542 170L542 171L547 171L542 170M556 175L558 178L556 175M482 176L483 177L482 176z"/>
<path style="fill:#423c34; stroke:none;" d="M576 184L577 185L576 184M546.333 199.667L546.667 200.333L546.333 199.667z"/>
<path style="fill:#f5f3f0; stroke:none;" d="M493 224L491 230C494.331 229.286 494.591 226.762 493 224M63 281L64 282L63 281M460 355L467 393L477 404L477 405L475 407L494 382L492 383L492 377L494 378C491.166 366.63 486.773 358.814 478 351L479 349L460 355M480 349L481 350L480 349M0 382L0 550C6.44172 543.038 12.9048 536.096 19.5535 529.33C45.7007 502.721 104.557 458.814 64.0898 419.837C57.1459 413.149 49.0368 407.726 40.774 402.816C27.6452 395.014 13.8002 388.506 0 382M482 407L483 408L482 407M484 408L484 409L488 410L484 408M485 417L488 416L485 417z"/>
<path style="fill:#423c34; stroke:none;" d="M559 446L560 447L559 446z"/>
<path style="fill:#f5f3f0; stroke:none;" d="M503 448L519 460C517.178 451.574 507.896 451.608 503 448M351 471L355 476L352 477L352 487C355.347 491.844 358.82 492.504 360 486L364 487L365 486L360 481L361 477L357 478L358 471L351 471M512 519L513 520L512 519M510.333 520.667L510.667 521.333L510.333 520.667M516.333 570.667L516.667 571.333L516.333 570.667M575 623L576 624L575 623M412 671C413.616 675.823 417.537 674.617 420 671L412 671z"/>
<path style="fill:#423c34; stroke:none;" d="M591 688L584 695L584 699L593 688L591 688M581.667 699.333L582.333 699.667L581.667 699.333M554 713L554 714L560 714L554 713z"/>
</svg>
