<?xml version="1.0" standalone="yes"?>
<svg width="661" height="773">
<path style="fill:#f5f4f1; stroke:none;" d="M0 0L0 271C34.7342 273.672 68.647 281.433 103 286.717C116.799 288.839 130.854 288.152 144.614 290.336C162.543 293.181 179.107 306.474 197.829 303.128C217.141 299.676 227.558 281.112 241.412 269.244C255.691 257.012 272.833 251.551 291 248C315.3 235.565 347.28 228.32 374.255 224.513C388.383 222.519 405.633 226.098 418.445 218.688C428.86 212.664 430.642 200.678 435.003 190.507C438.819 181.606 444.883 174.002 451.244 166.79C475.644 139.124 508.604 121.257 540 103C554.655 74.764 581.372 56.4091 600 31L619 29L619 26C642.955 30.1182 645.036 45.2288 644.957 67.0014C644.854 95.5286 638.309 122.06 633.646 150C631.653 161.949 628.406 173.332 623.246 184.321C621.687 187.641 619.201 194.295 615.144 195.374C610.013 196.738 610.194 182.544 610 180L597 181L598 186L594 186L584 196L581 200L579 206L564 206L564 209L541 211L557 228L568 228L568 231L572 231L572 232L570 233L574 236L578 235L578 241L596 241L595 272L592 272L584 280L585 282C576.434 284.669 573.285 288.631 582 294L574 304C574.067 312.078 575.006 320.78 572.278 328.54C568.59 339.033 561.009 346.388 560.993 358.192C560.973 373.324 568.47 385.874 572.63 399.939C575.694 410.301 575.618 421.293 576 432L577 432L579 429L576 452L573 455L568 455L563 478L562 478L562 476L561 476L558 496L555 496L553 507C549.734 507.884 546.428 508.726 543.314 510.073C523.127 518.804 544.434 540.515 547 554L550 555L550 556C542.698 556.365 538.007 557.612 534 564L536 563L536 568L533 568L533 576L546 597L554 597C554.42 593.77 560.995 586.843 564.611 589.25C569.501 592.505 571.406 599.558 572 605C577.152 608.051 577.083 613.592 578.236 619C581.323 633.473 580.163 645.775 578 660L571 669L581 667L589 663L592 677L586 677L585 684L581 684L581 688L578 688L578 694L558 708L560 709L560 710L557 710L557 711L570 709C551.84 721.093 532.883 725.16 511.307 721.164C488.324 716.908 459.07 704.573 438.12 721.736C415.225 740.494 426.879 770.702 455.129 772.627C523.124 777.261 592.84 773 661 773L661 0L0 0z"/>
<path style="fill:#8b745b; stroke:none;" d="M619 26L619 29L600 31C580.558 55.5475 553.742 74.4325 540 103C532.25 104.947 523.213 112.299 515.866 116.199C484.732 132.725 458.098 156.39 435.319 183.134C425.12 195.11 437.844 214.899 418 222.264C404.338 227.334 387.344 221.57 373 223.079C357.278 224.732 341.647 233.97 326 236.801C318 238.249 293.766 238.545 291 248C272.513 251.279 255.119 256.787 240.679 269.244C226.876 281.15 216.322 299.849 196.878 302.955C178.603 305.874 162.229 292.781 144.614 290.19C131.159 288.212 117.474 288.789 104 286.717C69.3224 281.383 35.0876 273.457 0 271L2 328L8 326L8 331L4 331L4 335L12 332L13 347L16 347L8 356L0 350L0 386L21 397L72 420C76.547 426.469 81.7769 433.309 83.0564 441.324C85.408 456.055 72.0058 474.258 63.1361 484.984C41.9998 510.544 9.3568 522.355 0 557C32.0477 518.095 76.8765 491.689 94 442C99.4907 441.302 112.014 440.649 114 435C122.148 429.022 120.906 420.018 120 411L114 402L111 403L111 390C118.382 393.885 133.032 394.451 142 393C145.586 392.42 144.723 386.706 148 389L148 380L145 380L145 376L126 370L126 362L122 362C122 357.434 123.313 350.554 118 349L113 329L111 331L105 304L134 304C140.974 312.854 155.636 311.703 166 313C166.641 319.17 167.929 323.204 173 327L173 331L190 334L200 332L211 324L210 318L214 318L236 304L248 289L293 273L291 277L299 277L299 282L310 280L309 277L315 274L303 272L312 269L322 247L342 245L342 241L382 238L392 233L391 238L427.657 220.908L443 192L461 158L468 158L468 165C461.6 166.305 452.236 182.122 461 184L460 188L464 188C465.499 191.529 467.291 192.343 471 193L477 223L480 223L481 238C486.526 241.547 489.164 249.896 491 256L500 258L501 258L503 254L525 246L522 262L520 261C525.718 268.547 531.731 270.917 541 272L544 275L544 286L568 299C568.367 311.75 569.898 323.616 557 330L557 325L550 324L547 321L547 316L540 314L540 311L533 311L533 307L526 296L514 293C509.082 279.492 502.608 272.046 489 267L488 261L492 261L492 259L476 256L475 261L480 259L480 268L472 272L480 288L476 288L478 293L485 292L484 297L488 297L488 304L482 304L488 310L488 314L474 314L470 310L470 306L464 306L465 301L471 301L457 292L454 294C446.869 286.159 439.207 282.508 429 280C422.501 270.817 414.689 267.614 404 265L405 256L393 248L392 248L384 251L384 248L373 246L374 256C368.603 256 371.373 261.187 375 263C376.976 263.988 378.413 261.735 380 262C382.768 262.461 382.297 263.812 382 265L392 266L397 270L396 275L402 276L402 277L400 277L400 278L408 280L411 284L408 286L424 297L430 300L435 300L435 304L440 303L440 306L458 314L464 321L473 323L473 327L481 341L450 353C449.911 371.839 452.325 388.784 457 407L464 407L468 439L473 440L477 458L484 462C498.439 464.581 510.659 469.008 523 477L526 477L526 474L530 474L532 481L526 482L531 488L532 494L538 498L504 500L504 499L512 499L512 498L488 503C488.931 514.597 490.193 524.662 500 532L499 547C493.849 546.843 490.979 547.675 488 552L482 552L495 576L502 581L504 579L505 579L514 587C507.653 597.742 490.936 608.267 505 619L505 622C512.863 621.996 522.427 623.701 527 616L523 617L526 610C529.463 616.872 540.126 609.038 547 609L553 630L552 630L552 627L551 627L551 632L558 632L571 623C571 629.482 567.802 647.469 575 650L574 660L578 660C581.17 646.026 581.165 633.225 578.453 619C577.468 613.832 577.51 607.119 572 605C569.256 594.358 562.818 585.689 554 597L546 597C543.192 588.518 539.482 582.182 533 576L533 568L536 568L536 563L534 564C538.268 558.037 542.843 556.565 550 556L550 555L547 554L550 553C544.371 541.577 524.378 519.972 542.683 510.699C545.95 509.044 549.507 508.047 553 507L555 496L558 496L561 476L562 476L562 478L563 478L568 455L573 455L576 452L579 429L577 432L576 432C575.682 420.993 575.86 409.674 572.666 399.03C568.635 385.597 561.476 373.591 561.309 359.151C561.171 347.204 568.625 339.881 572.529 329.357C575.499 321.353 574.291 312.342 574 304L582 294C573.79 288.552 576.699 284.731 585 282L584 280L592 272L595 272L596 241L578 241L578 235L574 236L570 233L572 232L572 231L568 231L568 228L557 228L541 211L564 209L564 206L579 206L581 200L584 196L594 186L598 186L597 181L610 180C610.126 182.679 609.566 197.66 615.064 196.256C619.161 195.209 621.668 188.613 623.246 185.273C628.427 174.307 631.664 162.937 633.648 151C638.352 122.696 644.873 95.8965 644.967 67.0013C645.039 44.9992 643.554 29.6176 619 26z"/>
<path style="fill:#2f2d29; stroke:none;" d="M619 40L620 50L629 48L633 79L632 79L632 76C627.188 78.3556 627.103 82.0173 627 87L623 87L629 97L626 101C634.021 87.8441 636.423 75.2534 637 60L633 60L636 54L637 54L637 46L633 46L633 40L623 40L624 43L622 40L619 40M608 41C596.333 47.6636 588.105 54.8942 582 67C586.041 64.8613 587.121 61.3113 588 57L610 48L610 45L616 46L616 42L608 41z"/>
<path style="fill:#f5f4f1; stroke:none;" d="M573 89L572 89L568 95L564 95L547 120L541 121L541 122L543 122L543 123L540 126L502 152L499 158L499 171C494.865 173.532 492.539 178.814 498 181L520 174L533 164L546 151L550 151L558 144C561.639 143.815 563.609 143.52 565 140L560 140L560 136C568.942 132.953 575.119 129.235 580 121L580 120L595 101L594 94L599 88L605 88L573 89z"/>
<path style="fill:#2f2d29; stroke:none;" d="M633 114L634 105C628.777 106.652 630.181 110.387 633 114M461 158L443 192L428.664 222.453L391 238L392 233C387.381 233.292 384.529 233.951 382 238L342 241L342 245L322 247L312 269C307.883 268.104 304.718 267.667 303 272L315 274L309 277L310 280L299 282L299 277L291 277L293 273C283.428 273.051 275.77 280.107 266.844 282.32C259.57 284.123 252.676 281.796 248 289C242.13 293.092 238.782 297.419 236 304L214 318L210 318L211 324L200 332C196.362 331.022 190.994 329.361 190 334L173 331L173 327C168.396 322.941 166.814 319.024 166 313L134 304L105 304L111 331L113 329L118 349L122 362L126 362L126 370L145 376L145 380L148 380L148 389L146 387C134.198 392.193 123.558 391.839 111 390L111 403L114 402L112 404L120 411C119.686 419.846 118.096 427.122 114 435L94 442C85.8009 463.687 73.3583 484.047 56.474 500.031C38.8266 516.738 15.0152 531.232 4.8902 554.189C-4.39684 575.246 8.27291e-07 603.516 6.16492e-08 626L0 773L410 773L407 771L408 744C410.512 736.797 405 726.984 405 719C405 715.76 403.993 710.587 408 710L408 705L409 684L395 683L399 661L375 653L375 650L357 649L357 646L345 643L339 638L339 635L330 632L334 632L334 631L321 629L324 635L320 631L277 619L270 609L263 608L260 597L233 570C232.708 565.464 232.074 562.39 228 560L228 556L225 556C228.998 547.603 233.989 544.698 243 543L243 544L240 544L240 545L264 556L270 563L273 562L284 584L315 597C316.512 602.17 328.087 603.084 332.995 604.023C337.828 604.948 342.19 607.911 347.134 608.806C359.392 611.023 371.359 606.987 383 604L382 601L410 594L408 586L412 581L422 580L422 579L416 579L416 576L428 573L428 570L432 564L435 564L435 560L443 566L442 569L461 598L460 601L463 605L470 608L474 630L471 629L471 647L471 648L481 667L486 667L492 671L492 676L505 688C522.573 689.44 536.534 685.64 553 680L553 686L551 685L551 691C545.02 692.262 535.475 698.25 533 704L509 706L509 712L547 712C560.19 702.983 574.403 694.711 574 677L557 678L567 664L572 664L575 650L571 623C565.279 624.823 561.52 627.083 558 632L551 632L551 627L552 627L552 630L553 630L547 609L526 610C522.372 611.436 522.169 613.347 523 617L527 616C521.693 623.209 513.12 621.993 505 622L505 619C491.634 607.966 508.348 598.149 514 587L505 579L504 579L502 581L495 576L482 552L488 552L499 547L500 532C490.698 524.272 489.145 514.554 488 503L512 498L512 499L504 499L504 500L538 498L532 494L531 488L526 482L532 481L530 474L526 477L523 477L523 474L484 462C482.609 458.48 480.639 458.185 477 458L473 440L468 439L464 407L457 407C452.651 388.759 450.034 371.802 450 353L481 341C479.692 334.983 477.888 330.873 473 327L473 323L464 321L458 314C453.224 307.889 447.369 307.011 440 306L440 303L435 304L435 300L430 300C428.865 296.603 427.423 296.421 424 297L408 286L411 284L408 280L400 278L400 277L402 277L402 276L396 275L397 270L392 266L382 265C381.606 262.163 367.638 260.118 374 256L373 246L384 248L384 251L392 248L393 248L405 256L404 265C414.503 267.813 422.21 271.284 429 280C438.809 282.973 446.481 286.991 454 294L457 292L471 301L465 301L464 306L470 306L470 310L474 314L488 314L488 310L482 304L488 304L488 297L484 297L485 292L478 293L476 288L480 288L472 272L480 268L480 259L475 261L476 256L492 259L492 261L488 261L489 267C502.188 272.394 508.78 279.865 514 293L526 296L533 307L533 311L540 311L540 314L547 316L547 321L550 324L557 325L557 330C570.521 324.14 568.511 311.815 568 299L544 286L544 275L541 272C531.93 270.682 525.943 268.089 520 261L522 262L525 246L503 254L501 258L500 258L491 256C489.665 249.963 486.916 240.765 481 238L480 223L477 223L471 193L464 188L460 188L461 184L468 165L468 158L461 158z"/>
<path style="fill:#f5f4f1; stroke:none;" d="M487 186L488 195C494.262 193.972 497.878 195.123 502 200L526 206L522 200C516.939 193.352 511.029 192.385 503 192C499.53 186.019 493.312 186.162 487 186z"/>
<path style="fill:#2f2d29; stroke:none;" d="M0 325L0 350L8 356L16 347L13 347L12 332L4 335L4 331L8 331L8 326L0 325z"/>
<path style="fill:#f5f4f1; stroke:none;" d="M474 352C466.917 360.883 464.957 364.509 467 376C481.938 374.861 489.477 370.91 489 355L485 355L486 353L474 352z"/>
<path style="fill:#2f2d29; stroke:none;" d="M523 353C521.605 363.738 511.224 366 502 366L502 372L499 372L499 406L503 406L514 398L512 414C504.174 416.28 507.857 434.679 508.889 440.995C511 453.915 532.618 464.924 544.657 457.657C547.71 455.815 548.897 449.843 551.005 446.875C554.835 441.481 555 437.477 555 431L543 432L543 428L539 428L540 410L533 410C534.704 399.87 537.716 393.838 547 389L536 384L536 379L543 376L548 377L533 362L533 356L523 353z"/>
<path style="fill:#8b745b; stroke:none;" d="M517 386L530 384L530 379C524.371 379.733 520.411 381.345 517 386z"/>
<path style="fill:#f5f4f1; stroke:none;" d="M0 386L0 547L1 547C6.93054 538.626 13.2364 530.744 20.5279 523.504C39.3055 504.858 60.9348 491.979 74.5993 468.686C79.5672 460.218 85.3182 450.677 83.3001 440.453C81.7667 432.683 76.628 426.189 72 420L21 397C15.0941 390.546 8.34422 388.085 0 386M547 391C547.026 395.78 547.843 398.44 552 401C546.134 409.467 543.182 417.987 541 428L551 428L554 425L555 406L565 404L564 390L547 391z"/>
<path style="fill:#2f2d29; stroke:none;" d="M96 392L96 393L105 393L96 392M69 412L87 417C83.7337 410.324 74.0727 400.884 69 412z"/>
<path style="fill:#8b745b; stroke:none;" d="M322 442L322 446L318 446C312.459 458.451 309.598 470.491 308 484L315 487L330 507L370 512C380.762 502.957 381.864 493.497 381 480L377 480L377 473C372.588 472.265 364.461 465.157 365 463L339 448L339 442L322 442z"/>
<path style="fill:#f5f4f1; stroke:none;" d="M509 453L509 459L515 459L513 453L509 453z"/>
<path style="fill:#8b745b; stroke:none;" d="M343 536L345 535L349 549L352 549L352 556L360 556L360 549C368.627 545.582 363.167 533.668 356 532C350.953 523.01 343.423 526.81 343 536M297 532C300.599 539.706 307.297 533.331 297 532M225 556L228 556L228 560L233 570C243.993 578.395 246.335 591.097 260 597L263 608L270 609L277 619L320 631L324 635L321 629L334 631L334 632L330 632L339 635L339 638L345 643L357 646L357 649L375 650L375 653L399 661L395 683L409 684L408 705L408 710C403.907 710.514 405 715.527 405 719C405 727.484 409.488 735.967 408 744L407 771L436 773C431.428 765.061 426.233 756.587 425.776 747.182C424.906 729.27 441.95 716.209 458.191 714.107C478.329 711.501 495.687 719.219 515.188 721.969C535.43 724.824 553.393 720.887 570 709L557 711L557 710L560 710L560 709L558 708L568 699C563.349 699.985 548.233 707.786 547 712L509 712L509 706L533 704C536.477 698.521 544.888 692.995 551 691L551 685L553 686L553 680C536.521 685.241 522.489 689.256 505 688L492 676L492 671L486 667L481 667L471 648L471 647L471 629L474 630L470 608L463 605L460 601L461 598L442 569L443 566L435 560L435 564L432 564L428 570L428 573L416 576L416 579L422 579L422 580L412 581L408 586L410 594L382 601L383 604C358.312 609.436 338.182 607.064 315 597L284 584L273 562L270 563L264 556C256.478 550.338 249.176 547.072 240 545L240 544L243 544C233.572 544.54 228.706 547.148 225 556M550 649C556.731 656.635 563.599 657.399 570 649L550 649M581 667L571 669L571 664L567 664L557 678L574 677L578 688L581 688L581 684L585 684L586 677L592 677L589 663C585.184 663.093 582.366 663.116 581 667M588 684L588 689L586 688L581 702L594 684L588 684M577 688L568 697L568 698L578 694L577 688z"/>
<path style="fill:#2f2d29; stroke:none;" d="M453 702C451.853 698.739 450.118 698.622 446.995 697.495C442.379 695.83 436.949 692.607 432.97 697.569C431.013 700.009 425.557 713 432.054 713.404C435.352 713.609 436.576 709.369 438.545 707.569C442.411 704.037 447.892 702.06 453 702z"/>
</svg>
