<?xml version="1.0" standalone="yes"?>
<svg width="661" height="773">
<path style="fill:#f5f3f0; stroke:none;" d="M0 0C1.05362e-13 54.3315 -0.0391733 108.663 0.00803751 162.995C0.0315173 190.016 -3.8395 222.817 7.02658 248.275C18.6486 275.504 53.473 279.294 79.055 283.797C99.4826 287.392 119.987 290.55 140.431 294.048C159.677 297.341 179.605 301.068 198.904 296.101C217.512 291.312 232.991 279.452 248 268L248 267L246 267L246 266L276 254L275 252C284.221 251.117 295.509 250.427 301 242C335.613 235.964 377.855 233.52 408.913 215.998C430.374 203.89 444.179 181.967 460.88 164.526C479.459 145.122 501.222 129.526 521.868 112.485C543.415 94.7008 562.18 73.3827 584.653 56.7699C594.378 49.5812 607.239 41.3378 619.974 43.4041C636.066 46.015 639.624 65.1069 640.179 78.6028C641.576 112.513 631.266 146.76 622 179L620 179L606 156L584 173L585 176L578 178L544 192L549 193C549.506 186.984 553.57 181.043 552.891 174.967C552.236 169.105 546.235 174.451 545 177L536 171L544 168L551 165L551 161L568 156L579 141L607 105L607 104L610 86L613 72L614 72L614 74L615 74L615 68L582 79L575 83L553 108L551 107L510 137L505 144L502 143L495 151C479.869 165.158 479.662 194.951 484 214L485 223L491 221C491 213.827 481.316 202.842 493 197C497.867 194.567 511.959 209.163 512 209L572 247L578 247L577 245L593 244L591 275L574 276L575 278C564.513 283.621 569.421 289.918 577 296C569.151 317.429 559.374 336.829 547 356L547 358C552.569 372.206 552.313 381.169 540 391L547 401L546 403L541 406L543 418L541 417L541 428C547.176 427.99 551.042 426.881 555 422C559.669 420.483 559.913 415.345 560 411L558 449L564 448L556 472L560 473L557 496L555 500C550.113 501.751 529.971 505.178 530 510L520 512L521 516L512 522L523 545L532 553L532 554L518 567L539 591L568 618C583.625 631.792 578.645 654.988 565 668L565 669L567 669L567 670C563.597 670.729 564.013 672.806 564 676C566.693 676 580.657 669.373 579 676L585 675L550 709L544 715L539 715L539 716L556 715L547 717C546.536 720.547 541.25 721.343 538 721.944C528.407 723.721 520.219 722.565 511 719.556C501.848 716.568 491.554 711.056 482 710.083C474.66 709.336 468.159 711.403 461 711.917C454.474 712.385 449.456 708.659 443 712.083C436.569 715.494 426.805 727.72 423.083 734C417.042 744.195 421.857 770.896 436 772.917C459.611 776.29 486.123 773 510 773L661 773L661 0L0 0z"/>
<path style="fill:#423c34; stroke:none;" d="M301 242C294.668 249.861 284.476 250.872 275 252L276 254L246 266L246 267L248 267L248 268C232.186 279.801 215.84 292.036 196.185 296.364C172.119 301.664 146.674 294.798 122.89 290.873C81.8894 284.107 40.9053 277.331 0 270C0.0319983 302.908 -5.45199 344.919 12.8235 374.157C29.281 400.486 72.5406 415.43 72.5181 450.568C72.5065 468.68 60.3925 484.508 49.3844 497.795C32.9451 517.638 14.7916 536.315 6.84721 561.467C-1.65204 588.376 0.0641195 618.132 0.0169227 646.004C-0.0547602 688.336 1.58143e-09 730.668 0 773L434 773L434 772C425.536 764.858 416.874 750.341 421.231 739C423.794 732.332 429.269 728.193 433.861 723C437.629 718.739 440.148 713.362 445.866 711.366C450.849 709.626 455.946 712.177 461 711.935C468.163 711.593 474.686 709.2 482 710.264C494.435 712.073 506.636 719.115 519 722.12C524.731 723.513 546.041 724.758 547 717L556 715L539 716L539 715L544 715L550 709L585 675L579 676C578.156 669.899 567.634 674.73 564 676L567 670L567 669L565 669L565 668C578.954 655.993 584.259 630.718 568 618L539 591L518 567L532 554L532 553L523 545L512 522L521 516L520 512L530 510C530 504.981 550.264 502.56 555 500L557 496L560 473L556 472L564 448L558 449C561.865 435.78 575.148 422.682 560 411C560 415.719 558.447 422.862 555 422L541 428L541 417L543 418L541 406L546 403L547 401L540 391C552.455 381.208 552.836 372.216 547 358L547 356C559.66 336.901 569.362 317.607 577 296C569.831 289.878 564.939 283.662 575 278L574 276L591 275L595.833 257L593 244L577 245L578 247L572 247L512 209C511.153 202.977 494.51 193.874 489.569 200.083C483.763 207.381 490.247 213.638 491 221L485 223L484 214C484.978 192.104 488.284 171.879 495 151L502 143L505 144L510 137L551 107L553 108L575 83C577.996 82.9594 581.533 82.2011 582 79L615 68L615 74L614 74L614 72L613 72L610 86L607 104L607 105L579 141C579.169 150.46 571.461 149.374 568 156C559.781 151.891 554.113 161.778 551 161L551 165L544 168C540.052 167.183 537.784 167.122 536 171L545 177C545 174.607 551.924 168.548 553.333 173C555.488 179.804 546.764 186.464 549 193L544 192C557.749 207.29 570.379 190.82 578 178L585 176L584 173L606 156L620 179L622 179C631.457 146.682 641.791 112.36 640.341 78.3145C639.762 64.7316 636.187 45.4915 620.008 42.8173C607.282 40.7138 594.403 48.8745 584.655 56.0375C562.137 72.5848 543.391 93.9427 521.868 111.746C501.257 128.795 479.466 144.34 460.878 163.704C444.051 181.233 430.215 203.252 408.693 215.54C377.699 233.237 335.606 235.78 301 242z"/>
<path style="fill:#f5f3f0; stroke:none;" d="M613.667 65.3333L614.333 65.6667L613.667 65.3333z"/>
<path style="fill:#423c34; stroke:none;" d="M610 81L610 84L611 84L610 81M592 127L593 128L592 127M587 135L588 136L587 135z"/>
<path style="fill:#f5f3f0; stroke:none;" d="M581 142L581 144L583 144L581 142z"/>
<path style="fill:#423c34; stroke:none;" d="M608.333 158.667L608.667 159.333L608.333 158.667M607.333 166.667L607.667 167.333L607.333 166.667z"/>
<path style="fill:#f5f3f0; stroke:none;" d="M545 167L546 168L545 167M542 170L542 171L547 171L542 170M556 175L558 178L556 175M482 176L483 177L482 176z"/>
<path style="fill:#423c34; stroke:none;" d="M576 184L577 185L576 184M546.333 199.667L546.667 200.333L546.333 199.667z"/>
<path style="fill:#f5f3f0; stroke:none;" d="M493 224L491 230C494.331 229.286 494.591 226.762 493 224M63 281L64 282L63 281M460 355L467 393L477 404L477 405L475 407L494 382L492 383L492 377L494 378C491.166 366.63 486.773 358.814 478 351L479 349L460 355M480 349L481 350L480 349M0 382L0 550C6.11948 543.614 12.2459 537.235 18.4082 530.89C44.6855 503.834 96.1299 460.713 60.7445 421.276C54.9129 414.777 47.9336 409.372 40.6953 404.535C27.7904 395.91 13.8346 388.978 0 382M482 407L483 408L482 407M484 408L484 409L488 410L484 408M485 417L488 416L485 417z"/>
<path style="fill:#423c34; stroke:none;" d="M559 446L560 447L559 446z"/>
<path style="fill:#f5f3f0; stroke:none;" d="M503 448L519 460C517.178 451.574 507.896 451.608 503 448M351 471L355 476L352 477L352 487C355.347 491.844 358.82 492.504 360 486L364 487L365 486L360 481L361 477L357 478L358 471L351 471M512 519L513 520L512 519M510.333 520.667L510.667 521.333L510.333 520.667M516.333 570.667L516.667 571.333L516.333 570.667M575 623L576 624L575 623M412 671C413.616 675.823 417.537 674.617 420 671L412 671z"/>
<path style="fill:#423c34; stroke:none;" d="M591 688L584 695L584 699L593 688L591 688M581.667 699.333L582.333 699.667L581.667 699.333M554 713L554 714L560 714L554 713z"/>
</svg>
