<?xml version="1.0" standalone="yes"?>
<svg width="661" height="773">
<path style="fill:#f5f2ef; stroke:none;" d="M0 0L0 271L28 275L28 278C53.0426 279.598 77.0999 281.94 101 290C116.759 290.944 132.736 291.567 148.113 295.427C166.936 300.152 184.856 309.096 204.443 302.103C219.837 296.607 230.225 283.397 240 271L253 262C274.086 257.369 295.162 253.802 315 245L315 242L384 228C396.307 225.696 410.583 224.563 420.709 216.459C435.92 204.289 441.053 181.271 454.481 166.752C475.549 143.974 502.493 127.737 530 114C552.474 85.5532 575.277 56.024 606 36C610.756 34.5682 615.586 33.0693 620.596 32.9767C641.487 32.591 642.989 56.5177 642.673 72.0522C641.968 106.777 637.771 150.122 617 179L616 172C600.455 175.502 589.181 181.627 578 193C574.187 192.181 571.416 191.977 570 196L564 196L550 203L551 192L560 183L562 173L560 161L570 161L570 155L584 154L584 141C588.447 140.659 591.891 140.224 594 136L599 136L600 126C611.833 116.501 611.63 89.2246 613 75L614 75L614 82L615 82C615.001 77.3841 613.878 71.7511 619 70L619 64L604 65L571 92L568 95L540 119L540 123C536.53 123.248 534.039 123.449 533 127L495 148L495 151C479.84 152.698 482.378 182.153 482.018 194.018C481.859 199.254 479.061 208.899 486 210L502 196L555 237L568 237C571.054 245.697 585.725 244 593 244C591.66 259.165 587.444 268.31 574 276L575 278L563 279L564 290L582 294L574 304L551 365L552 365L557 364L560 384L553 390L540 390L546 401C544.774 408.09 544.538 431.948 556.042 417.037C557.514 415.129 558.746 413.052 560 411L568 411C566.842 421.705 564.069 430.077 558 439L560 448L564 448L563 478L562 478L562 476L561 476L558 496L555 496L554 504L540 505L540 506L542 507C538.238 508.005 534.643 509.428 530.951 510.654C528.424 511.493 526.091 512.369 524.019 514.098C508.155 527.335 527.165 539.904 529.11 554.077C530.292 562.685 514.234 568.965 524 575L526 587C535.397 588.073 541.244 593.808 547 601L577 619L578 660L563 676L576 673L582 680L582 684L579 684L578 694L558.986 704.769L547 712L530 713L530 718L544 719L544 721C513.869 721.064 477.695 702.427 448.783 714.315C426.971 723.284 414.612 756.895 441.172 768.536C461.617 777.497 490.196 773 512 773L661 773L661 0L0 0z"/>
<path style="fill:#3d3731; stroke:none;" d="M606 36C574.818 55.1227 551.728 85.1729 530 114C521.75 115.173 512.147 122.286 504.715 126.171C486.665 135.604 468.605 150.319 454.871 165.124C448.612 171.872 439.944 178.305 435.008 186.089C429.114 195.387 436.501 207.584 428.526 216.7C423.387 222.575 412.837 227.008 405 225.741C399.233 224.808 386.661 220.432 384 228L315 242L315 245L253 262L240 271C229.639 283.497 218.7 297.134 202.687 302.357C183.995 308.454 166.923 299.932 149.044 295.405C133.368 291.436 117.072 290.872 101 290C99.0394 284.424 86.4105 283.148 81 282.986C63.4966 282.464 45.8916 278.002 28 278L28 275L0 271L0 383L24 396C44.0127 405.562 82.8628 420.251 82.2822 447.487C82.0353 459.071 75.0629 470.186 68.3922 479.208C49.9259 504.183 14.6085 520.819 4.12032 550.962C-3.93434 574.111 9.16389e-05 602.856 1.16309e-05 627L0 773L434 773C430.768 766.485 427.455 759.855 426.332 752.591C423.269 732.768 438.954 715.627 457.73 712.034C485.812 706.66 515.457 721.307 544 721L544 719L530 718L530 713L547 712L578 694L579 684L582 684L582 680L576 673L563 676L578 660L577 619L547 601C544.713 593.174 533.914 587.247 526 587L524 575C525.637 559.088 518.683 535.864 525.86 521.695C529.263 514.976 535.839 510.89 542 507L540 506L540 505L554 504L555 496L558 496L561 476L562 476L562 478L563 478L564 448L560 448L558 439C566.946 430.901 568.509 422.758 568 411L560 411C558.8 412.845 557.621 414.711 556.259 416.443C544.768 431.063 544.854 408.436 546 401L540 390L553 390L560 384L557 364L552 365L551 365C557.402 343.334 571.411 326.965 574 304L582 294L564 290L563 279L575 278L574 276C587.902 268.617 591.914 259.367 593 244L568 237L555 237L502 196L486 210C479.547 207.975 481.848 199.481 482.036 194.013C482.447 182.113 480.012 153.312 495 151L495 148L533 127L540 123L540 119L568 95L571 92L604 65L619 64L619 70L616 69L615 82L614 82L614 75L613 75C611.398 89.3668 611.666 116.146 600 126L599 136L594 136L584 141L584 154L570 155L570 161L568 159L567 159L560 161L562 173L560 183L551 192L550 203C555.945 202.134 560.304 200.958 564 196L570 196L578 193C589.373 182.118 600.734 175.833 616 172L617 179C638.617 150.631 642.153 105.686 642.765 71.0626C643.041 55.3984 641.293 31.3585 620.045 32.5779C615.192 32.8564 610.566 34.4534 606 36z"/>
<path style="fill:#f5f2ef; stroke:none;" d="M471 348L460 356L464 390L467 390L466 396L475 400L475 395L479 396L477 400C484.392 392.525 488.743 384.978 492 375L495 375L498 355L471 348M0 383L0 547L1 547C23.5349 522.387 53.3224 503.021 71.9007 475.062C82.9305 458.462 87.8091 440.503 72.4551 424.944C67.7941 420.22 62.3719 416.28 56.7711 412.751C46.3722 406.199 35.1682 401.075 24 396L0 383M506 458L515 459L512 455C511.258 449.1 506.198 453.904 506 458M412 671L419 676L419 671L412 671z"/>
<path style="fill:#3d3731; stroke:none;" d="M593 684L581 702L593 684z"/>
</svg>
