<?xml version="1.0" standalone="yes"?>
<svg width="661" height="773">
<path style="fill:#ebe6df; stroke:none;" d="M0 0L0 271L28 275L28 278L53 279L53 282C80.7345 285.8 108.518 289.391 136.106 294.162C156.727 297.728 178.645 303.145 199.358 297.315C215.389 292.803 227.917 281.944 240 271L253 262L315 245L315 242L384 228C396.118 223.633 408.009 218.929 418.194 210.84C435.63 196.993 447.482 177.155 463.227 161.535C482.845 142.072 506.184 127.693 530 114C553.356 85.6753 578.276 60.0747 606 36C633.553 41.7745 640.773 60.6104 639.984 87.464C639.042 119.532 629.85 149.868 617 179L616 148L592 156L595 162L588 168L577 173L568 171L568 168L558 168L560 161L570 161L570 155L584 154L584 141C588.447 140.659 591.891 140.224 594 136L599 136L600 126C611.833 116.501 611.63 89.2246 613 75L614 75L614 82L615 82C615.001 77.3841 613.878 71.7511 619 70L619 64L604 65L571 92L568 95L540 119L540 123C536.53 123.248 534.039 123.449 533 127L495 148L495 151C479.84 152.698 482.378 182.153 482.018 194.018C481.859 199.254 479.061 208.899 486 210L502 196L555 237L568 237C571.054 245.697 585.725 244 593 244C589.679 257.52 584.522 266.815 574 276L575 278L563 279L564 290L582 294L574 304C567.734 317.574 560.132 328.012 549 338L550 335L541 333L542 331L535 328L522 311L514 310L506 300L516 317L515 336L529 341L529 348L540 359L560 376L560 384L553 390L540 390L546 401C545.444 414.147 547.477 422.325 562 418L561 413L565 432L560 432L551 466L554 504L533 505L533 508L529 508L530 510L512 511L509 514L509 529L512 529L519 546C520.595 556.74 514.305 559.795 505 563L509 569L509 573L512 573L512 577L516 577C520.688 589.819 531.353 590.513 539 600L577 619L578 660L563 676L576 673L582 680L582 684L579 684C578.024 691.197 566.363 701 559.94 704.329C555.783 706.483 548.418 707.153 547 712L530 713L530 718L544 719L544 721C516.601 718.178 482.461 708.705 455.88 719.25C432.08 728.69 428.789 756.296 453.902 766.317C476.798 775.454 504.859 772.918 529.011 772.976C573.007 773.081 617.004 773 661 773L661 0L0 0z"/>
<path style="fill:#37342e; stroke:none;" d="M606 36C577.882 59.7974 553.079 85.2998 530 114C521.75 115.173 512.147 122.286 504.715 126.171C486.665 135.604 468.605 150.319 454.871 165.124C448.612 171.872 439.944 178.305 435.008 186.089C429.114 195.387 436.501 207.584 428.526 216.7C423.387 222.575 412.837 227.008 405 225.741C399.233 224.808 386.661 220.432 384 228L315 242L315 245L253 262L240 271C227.631 281.88 214.819 292.728 198.585 297.145C177.794 302.801 155.833 297.315 135.156 293.794C107.882 289.15 80.4208 285.649 53 282L53 279L28 278L28 275L0 271L0 383L24 396C45.6356 407.344 75.1672 423.039 73.7786 451.646C72.8899 469.954 60.1554 485.737 48.871 499.138C32.5316 518.542 15.0365 537.125 7.15838 561.827C-1.49396 588.956 0.0760707 618.881 0.0202696 647.005C-0.0630602 689.003 2.87966e-09 731.002 0 773L434 773C433.105 764.407 432.156 755.648 433.72 747.071C441.209 705.997 493.452 715.662 522.944 718.861C529.958 719.622 536.978 720.317 544 721L544 719L530 718L530 713L547 712L579 684L582 684L582 680L576 673L563 676L578 660L577 619L539 600L516 577L512 577L512 573L509 573L509 569L505 563C515.038 560.355 523.063 557.59 519 546L512 529L509 529L509 514L512 511L530 510L529 508L533 508L533 505L554 504L551 466C559.93 460.76 554.504 451.836 554.794 444.004C554.964 439.435 558.183 435.976 560 432L565 432C564.924 427.484 565.62 413.99 561 413L562 418C547.783 421.85 545.766 413.86 546 401L540 390L553 390L560 384L560 376L540 359L529 348L529 341L515 336L516 317L506 300L514 310L522 311L535 328L542 331L541 333L550 335L549 338C560.418 328.126 567.911 317.804 574 304L582 294L564 290L563 279L575 278L574 276C584.867 266.958 589.879 257.723 593 244L568 237L555 237L502 196L486 210C479.547 207.975 481.848 199.481 482.036 194.013C482.447 182.113 480.012 153.312 495 151L495 148L533 127L540 123L540 119L568 95L571 92L604 65L619 64L619 70L616 69L615 82L614 82L614 75L613 75C611.398 89.3668 611.666 116.146 600 126L599 136L594 136L584 141L584 154L570 155L570 161L568 159L567 159L560 161L558 168L568 168L568 171L577 173L588 168L595 162L592 160L592 156L616 148L617 179C630.42 149.394 639.568 118.314 640.193 85.5714C640.697 59.1583 633.373 40.6744 606 36z"/>
<path style="fill:#ebe6df; stroke:none;" d="M460 397L467 405L468 405C476.305 404.771 478.085 416.34 481.718 421.507C484.634 425.653 488.454 423.922 490 420L496 424L498 355C492.416 355.136 486.76 355.221 481.287 356.456C461.664 360.884 460.217 380.106 460 397M0 383L0 553C6.23245 546.039 12.4748 539.088 18.807 532.217C41.9307 507.128 93.8936 465.165 66.8379 426.947C63.5043 422.238 59.3741 418.133 54.9034 414.506C45.5352 406.905 34.7068 401.429 24 396L0 383M506 458L515 459L512 455C511.258 449.1 506.198 453.904 506 458M336 463L338 465L329 480L333 496L339 497L339 503L368 502L368 496L371 496L371 492L373 494L374 494L373 480L370 480L370 474L366 474L361 469L361 465L336 463M412 671L419 676L419 671L412 671z"/>
</svg>
