<?xml version="1.0" standalone="yes"?>
<svg width="661" height="773">
<path style="fill:#f5f2ef; stroke:none;" d="M0 0L0 271L28 275L28 278L101 290C131.048 293.072 166.971 305.993 196.803 298.487C215.691 293.735 230.154 279.939 245.894 269.323C259.913 259.867 275.119 253.583 291 248C312.415 241.09 333.918 235 356.029 230.725C374.923 227.072 395.575 225.219 412.435 215.188C432.527 203.235 444.096 180.712 459.987 164.205C480.174 143.235 504.816 128.166 530 114C553.195 85.4019 577.446 59.3403 606 36C633.741 39.6205 641.138 57.9071 640.55 84.4055C639.816 117.511 630.854 149.15 617 179L616 172L578 193C574.187 192.181 571.416 191.977 570 196L564 196L550 203L551 192L560 183L562 173L560 161L570 161L570 155L584 154L584 141C588.447 140.659 591.891 140.224 594 136L599 136L600 126C611.833 116.501 611.63 89.2246 613 75L614 75L614 82L615 82C615.001 77.3841 613.878 71.7511 619 70L619 64L604 65L571 92L568 95L540 119L540 123C536.53 123.248 534.039 123.449 533 127L495 148L495 151C479.84 152.698 482.378 182.153 482.018 194.018C481.859 199.254 479.061 208.899 486 210L502 196L555 237L568 237C571.054 245.697 585.725 244 593 244C589.679 257.52 584.522 266.815 574 276L575 278L563 279L564 290L582 294L574 304L551 365L552 365L557 364L560 384L553 390L540 390L546 401C544.774 408.09 544.538 431.948 556.042 417.037C557.514 415.129 558.746 413.052 560 411L568 411L558 439L560 448L564 448L563 478L562 478L562 476L561 476L558 496L555 496L554 504L540 505L540 506L542 507C538.238 508.005 534.643 509.428 530.951 510.654C528.424 511.493 526.091 512.369 524.019 514.098C508.155 527.335 527.165 539.904 529.11 554.077C530.292 562.685 514.234 568.965 524 575L526 587C535.397 588.073 541.244 593.808 547 601L577 619L578 660L563 676L576 673L582 680L582 684L579 684L578 694L558.986 704.769L547 712L530 713L530 718L544 719L544 721C516.397 718.348 481.926 707.924 455.096 718.236C431.538 727.29 425.91 756.007 451.49 766.532C474.024 775.803 502.17 772.948 526.006 772.986C571.004 773.057 616.002 773 661 773L661 0L0 0z"/>
<path style="fill:#3f3933; stroke:none;" d="M606 36C576.999 58.9998 552.894 85.0034 530 114C521.991 114.874 511.873 122.364 504.741 126.236C479.06 140.177 453.594 161.43 435.569 185.134C426.021 197.691 439.658 214.449 420 222.843C408.511 227.748 399.607 222.314 388.019 224.157C372.818 226.576 356.264 227.997 341 231.477C335.623 232.703 331.059 236.648 325.94 237.787C317.883 239.579 293.863 238.214 291 248C275.12 253.378 259.907 259.46 245.894 268.813C230.092 279.36 215.663 293.229 196.803 298.094C167.052 305.768 131.029 292.915 101 290C99.0394 284.424 86.4105 283.148 81 282.986C63.4966 282.464 45.8916 278.002 28 278L28 275L0 271L0 383L24 396C44.9023 407.615 76.4911 423.31 75.0955 451.618C74.2887 467.982 63.348 482.363 53.0575 494.258C35.746 514.267 14.8221 531.851 6.39315 557.826C-2.14048 584.124 0.0359206 613.727 0.00876001 641.002C-0.035055 685.001 1.72502e-11 729.001 0 773L434 773C432.745 765.098 431.442 757.078 432.236 749.057C436.673 704.219 492.844 715.603 522.968 718.946C529.97 719.723 536.984 720.369 544 721L544 719L530 718L530 713L547 712L578 694L579 684L582 684L582 680L576 673L563 676L578 660L577 619L547 601C544.713 593.174 533.914 587.247 526 587L524 575C525.277 548.726 521.679 526.761 542 507L540 506L540 505L554 504L555 496L558 496L561 476L562 476L562 478L563 478L564 448L560 448L558 439C566.946 430.901 568.509 422.758 568 411L560 411C558.8 412.845 557.621 414.711 556.259 416.443C544.768 431.063 544.854 408.436 546 401L540 390L553 390L560 384L557 364L552 365L551 365L574 304L582 294L564 290L563 279L575 278L574 276C584.867 266.958 589.879 257.723 593 244L568 237L555 237L502 196L486 210C479.547 207.975 481.848 199.481 482.036 194.013C482.447 182.113 480.012 153.312 495 151L495 148L533 127L540 123L540 119L568 95L571 92L604 65L619 64L619 70L616 69L615 82L614 82L614 75L613 75C611.398 89.3668 611.666 116.146 600 126L599 136L594 136L584 141L584 154L570 155L570 161L568 159L567 159L560 161L562 173L560 183L551 192L550 203C555.945 202.134 560.304 200.958 564 196L570 196L578 193L616 172L617 179C631.355 148.981 640.113 116.897 640.718 83.4475C641.194 57.108 633.922 38.5818 606 36z"/>
<path style="fill:#f5f2ef; stroke:none;" d="M471 348L460 356L464 390L467 390L466 396L475 400L475 395L479 396L477 400L492 375L495 375L498 355L471 348M0 383L0 547L1 547C6.94879 541.09 12.9052 535.187 18.906 529.33C42.0602 506.729 94.6249 466.154 68.9786 429.072C65.6546 424.265 61.4539 420.115 56.9458 416.423C46.9234 408.215 35.3574 402.117 24 396L0 383M506 458L515 459L512 455C511.258 449.1 506.198 453.904 506 458M412 671L419 676L419 671L412 671z"/>
<path style="fill:#3f3933; stroke:none;" d="M593 684L581 702L593 684z"/>
</svg>
