<?xml version="1.0" standalone="yes"?>
<svg width="661" height="773">
<path style="fill:#f5f2ef; stroke:none;" d="M0 0L0 271L28 275L28 278L101 290C132.504 293.496 170.768 306.689 201.839 296.564C216.767 291.699 228.572 281.351 240 271L253 262L315 245L315 242L384 228C396.118 223.633 408.009 218.929 418.194 210.84C435.63 196.993 447.482 177.155 463.227 161.535C482.845 142.072 506.184 127.693 530 114C553.305 85.5474 577.741 59.6011 606 36C633.553 41.7745 640.773 60.6104 639.984 87.464C639.042 119.532 629.85 149.868 617 179L616 172L578 193C574.187 192.181 571.416 191.977 570 196L564 196L550 203L551 192L560 183L562 173L560 161L570 161L570 155L584 154L584 141C588.447 140.659 591.891 140.224 594 136L599 136L600 126C611.833 116.501 611.63 89.2246 613 75L614 75L614 82L615 82C615.001 77.3841 613.878 71.7511 619 70L619 64L604 65L571 92L568 95L540 119L540 123C536.53 123.248 534.039 123.449 533 127L495 148L495 151C479.84 152.698 482.378 182.153 482.018 194.018C481.859 199.254 479.061 208.899 486 210L502 196L555 237L568 237C571.054 245.697 585.725 244 593 244C589.679 257.52 584.522 266.815 574 276L575 278L563 279L564 290L582 294L574 304L551 365L552 365L557 364L560 384L553 390L540 390L546 401C544.774 408.09 544.538 431.948 556.042 417.037C557.514 415.129 558.746 413.052 560 411L568 411L558 439L560 448L564 448L563 478L562 478L562 476L561 476L558 496L555 496L554 504L540 505L540 506L542 507C538.238 508.005 534.643 509.428 530.951 510.654C528.424 511.493 526.091 512.369 524.019 514.098C508.155 527.335 527.165 539.904 529.11 554.077C530.292 562.685 514.234 568.965 524 575L526 587C535.397 588.073 541.244 593.808 547 601L577 619L578 660L563 676L576 673L582 680L582 684L579 684L578 694L558.986 704.769L547 712L530 713L530 718L544 719L544 721C516.601 718.178 482.461 708.705 455.88 719.25C432.08 728.69 428.789 756.296 453.902 766.317C476.798 775.454 504.859 772.918 529.011 772.976C573.007 773.081 617.004 773 661 773L661 0L0 0z"/>
<path style="fill:#3d3731; stroke:none;" d="M606 36C577.326 59.2981 553.029 85.1713 530 114C521.75 115.173 512.147 122.286 504.715 126.171C486.665 135.604 468.605 150.319 454.871 165.124C448.612 171.872 439.944 178.305 435.008 186.089C429.114 195.387 436.501 207.584 428.526 216.7C423.387 222.575 412.837 227.008 405 225.741C399.233 224.808 386.661 220.432 384 228L315 242L315 245L253 262L240 271C228.296 281.295 216.218 291.629 201.088 296.411C170.177 306.18 132.337 293.32 101 290C99.0394 284.424 86.4105 283.148 81 282.986C63.4966 282.464 45.8916 278.002 28 278L28 275L0 271L0 383L24 396C44.6731 407.969 74.7883 423.82 73.6497 451.789C72.9507 468.959 61.3679 483.968 50.6866 496.489C34.0116 516.036 14.9817 533.879 6.86549 558.996C-1.74764 585.651 0.063858 615.354 0.0168706 643.003C-0.056769 686.335 7.74869e-10 729.668 0 773L434 773C433.105 764.407 432.156 755.648 433.72 747.071C441.209 705.997 493.452 715.662 522.944 718.861C529.958 719.622 536.978 720.317 544 721L544 719L530 718L530 713L547 712L578 694L579 684L582 684L582 680L576 673L563 676L578 660L577 619L547 601C544.713 593.174 533.914 587.247 526 587L524 575C525.277 548.726 521.679 526.761 542 507L540 506L540 505L554 504L555 496L558 496L561 476L562 476L562 478L563 478L564 448L560 448L558 439C566.946 430.901 568.509 422.758 568 411L560 411C558.8 412.845 557.621 414.711 556.259 416.443C544.768 431.063 544.854 408.436 546 401L540 390L553 390L560 384L557 364L552 365L551 365L574 304L582 294L564 290L563 279L575 278L574 276C584.867 266.958 589.879 257.723 593 244L568 237L555 237L502 196L486 210C479.547 207.975 481.848 199.481 482.036 194.013C482.447 182.113 480.012 153.312 495 151L495 148L533 127L540 123L540 119L568 95L571 92L604 65L619 64L619 70L616 69L615 82L614 82L614 75L613 75C611.398 89.3668 611.666 116.146 600 126L599 136L594 136L584 141L584 154L570 155L570 161L568 159L567 159L560 161L562 173L560 183L551 192L550 203C555.945 202.134 560.304 200.958 564 196L570 196L578 193L616 172L617 179C630.42 149.394 639.568 118.314 640.193 85.5714C640.697 59.1583 633.373 40.6744 606 36z"/>
<path style="fill:#f5f2ef; stroke:none;" d="M471 348L460 356L464 390L467 390L466 396L475 400L475 395L479 396L477 400L492 375L495 375L498 355L471 348M0 383L0 547L1 547L18.938 529.334C41.9984 506.725 91.8332 467.116 68.2235 430.172C65.1509 425.364 61.2005 421.167 56.9147 417.424C47.0258 408.787 35.3896 402.401 24 396L0 383M506 458L515 459L512 455C511.258 449.1 506.198 453.904 506 458M412 671L419 676L419 671L412 671z"/>
<path style="fill:#3d3731; stroke:none;" d="M593 684L581 702L593 684z"/>
</svg>
