<?xml version="1.0" standalone="yes"?>
<svg width="661" height="773">
<path style="fill:#f5f3f0; stroke:none;" d="M0 0L0.00145412 168C0.00684855 194.187 -4.67946 227.463 6.12132 252.054C17.3093 277.527 53.2928 279.461 76.9938 283.567C99.1176 287.401 121.396 290.341 143.457 294.531C161.754 298.007 180.693 302.992 199.225 298.2C218.055 293.331 233.339 280.104 248 268L248 267L246 267L246 266L276 254L275 252C284.221 251.117 295.509 250.427 301 242C322.604 238.432 344.041 234.087 365.552 230.013C381.048 227.079 397.516 224.823 411.397 216.846C431.928 205.048 443.518 181.922 459.224 164.963C478.183 144.492 501.617 129.548 523.163 112.097C545.185 94.2601 563.156 71.9487 585.427 54.4733C595.092 46.8889 607.878 38.1591 620.864 39.7939C637.473 41.8848 640.9 61.4036 641.356 75.063C642.526 110.155 632.113 145.768 622 179L620 179L606 156L584 173L585 176L578 178C567.142 185.346 557.006 190.026 544 192L549 193C549.506 186.984 553.57 181.043 552.891 174.967C552.236 169.105 546.235 174.451 545 177L536 171L544 168L551 165L551 161L568 156L579 141L607 105L607 104L610 86L613 72L614 72L614 74L615 74L615 68L582 79L575 83L553 108L551 107L510 137L505 144L502 143L495 151C479.869 165.158 479.662 194.951 484 214L485 223L491 221C491 213.827 481.316 202.842 493 197C497.867 194.567 511.959 209.163 512 209C533.26 220.069 553.029 232.335 572 247L578 247L577 245L593 244L591 275L574 276L575 278C564.513 283.621 569.421 289.918 577 296C569.99 318.132 560.355 337.027 547 356L547 358C552.569 372.206 552.313 381.169 540 391L547 401L546 403L541 406L543 418L541 417L541 428C547.176 427.99 551.042 426.881 555 422C559.669 420.483 559.913 415.345 560 411L558 449L564 448L556 472L560 473L557 496L555 500C550.113 501.751 529.971 505.178 530 510L520 512L521 516L512 522L523 545L532 553L532 554L518 567L539 591L568 618C583.625 631.792 578.645 654.988 565 668L565 669L567 669L567 670C563.597 670.729 564.013 672.806 564 676C566.693 676 580.657 669.373 579 676L585 675L550 709L544 715L539 715L539 716L556 715L547 717C546.536 720.547 541.25 721.343 538 721.944C528.407 723.721 520.219 722.565 511 719.556C501.848 716.568 491.554 711.056 482 710.083C474.66 709.336 468.159 711.403 461 711.917C454.474 712.385 449.456 708.659 443 712.083C436.569 715.494 426.805 727.72 423.083 734C417.042 744.195 421.857 770.896 436 772.917C459.611 776.29 486.123 773 510 773L661 773L661 0L0 0z"/>
<path style="fill:#423c34; stroke:none;" d="M301 242C294.668 249.861 284.476 250.872 275 252L276 254L246 266L246 267L248 267L248 268C232.783 280.219 216.883 293.739 197.399 298.242C174.891 303.444 150.999 295.381 128.819 291.72C85.8464 284.627 42.8573 277.789 0 270C0.00307072 302.211 -7.30798 347.522 11.2915 375.861C28.4021 401.932 75.6522 413.384 75.8999 449.377C76.0148 466.086 64.8997 480.893 54.4814 492.936C36.6825 513.51 14.8099 531.614 6.08592 558.314C-2.33723 584.093 0.021217 613.256 0.00479386 640.001L0 773L434 773L434 772C425.536 764.858 416.874 750.341 421.231 739C423.794 732.332 429.269 728.193 433.861 723C437.629 718.739 440.148 713.362 445.866 711.366C450.849 709.626 455.946 712.177 461 711.935C468.163 711.593 474.686 709.2 482 710.264C494.435 712.073 506.636 719.115 519 722.12C524.731 723.513 546.041 724.758 547 717L556 715L539 716L539 715L544 715L550 709L585 675L579 676C578.156 669.899 567.634 674.73 564 676L567 670L567 669L565 669L565 668C578.954 655.993 584.259 630.718 568 618L539 591L518 567L532 554L532 553L523 545L512 522L521 516L520 512L530 510C530 504.981 550.264 502.56 555 500L557 496L560 473L556 472L564 448L558 449C561.865 435.78 575.148 422.682 560 411C560 415.719 558.447 422.862 555 422L541 428L541 417L543 418L541 406L546 403L547 401L540 391C552.455 381.208 552.836 372.216 547 358L547 356C560.739 337.114 570.25 318.37 577 296C569.831 289.878 564.939 283.662 575 278L574 276L591 275L595.833 257L593 244L577 245L578 247L572 247C553.138 232.058 533.468 219.849 512 209C511.153 202.977 494.51 193.874 489.569 200.083C483.763 207.381 490.247 213.638 491 221L485 223L484 214C484.057 191.67 486.956 171.89 495 151L502 143L505 144L510 137L551 107L553 108L575 83C577.996 82.9594 581.533 82.2011 582 79L615 68L615 74L614 74L614 72L613 72L610 86L607 104L607 105L579 141C579.169 150.46 571.461 149.374 568 156C559.781 151.891 554.113 161.778 551 161L551 165L544 168C540.052 167.183 537.784 167.122 536 171L545 177C545 174.607 551.924 168.548 553.333 173C555.488 179.804 546.764 186.464 549 193L544 192C557.749 207.29 570.379 190.82 578 178L585 176L584 173L606 156L620 179L622 179C632.345 145.695 642.753 109.986 641.52 74.7507C641.039 61.0009 637.605 41.3344 620.888 39.2145C607.916 37.5697 595.12 46.1823 585.427 53.734C563.095 71.1324 545.148 93.495 523.163 111.367C501.672 128.837 478.199 143.71 459.224 164.12C443.188 181.37 431.477 204.956 410.438 216.828C396.278 224.819 379.55 227.124 363.807 230.135C342.875 234.139 322.007 238.397 301 242z"/>
<path style="fill:#f5f3f0; stroke:none;" d="M613.667 65.3333L614.333 65.6667L613.667 65.3333z"/>
<path style="fill:#423c34; stroke:none;" d="M610 81L610 84L611 84L610 81M592 127L593 128L592 127M587 135L588 136L587 135z"/>
<path style="fill:#f5f3f0; stroke:none;" d="M581 142L581 144L583 144L581 142z"/>
<path style="fill:#423c34; stroke:none;" d="M608.333 158.667L608.667 159.333L608.333 158.667M607.333 166.667L607.667 167.333L607.333 166.667z"/>
<path style="fill:#f5f3f0; stroke:none;" d="M545 167L546 168L545 167M542 170L542 171L547 171L542 170M556 175L558 178L556 175M482 176L483 177L482 176z"/>
<path style="fill:#423c34; stroke:none;" d="M576 184L577 185L576 184M546.333 199.667L546.667 200.333L546.333 199.667z"/>
<path style="fill:#f5f3f0; stroke:none;" d="M493 224L491 230C494.331 229.286 494.591 226.762 493 224M63 281L64 282L63 281M460 355L467 393L477 404L477 405L475 407L494 382L492 383L492 377L494 378C491.166 366.63 486.773 358.814 478 351L479 349L460 355M480 349L481 350L480 349M0 382L0 550C6.27574 543.327 12.5649 536.667 18.9712 530.119C45.2035 503.305 101.541 459.648 62.964 420.355C56.3538 413.622 48.5369 408.138 40.5278 403.207C27.5338 395.208 13.7291 388.618 0 382M482 407L483 408L482 407M484 408L484 409L488 410L484 408M485 417L488 416L485 417z"/>
<path style="fill:#423c34; stroke:none;" d="M559 446L560 447L559 446z"/>
<path style="fill:#f5f3f0; stroke:none;" d="M503 448L519 460C517.178 451.574 507.896 451.608 503 448M351 471L355 476L352 477L352 487C355.347 491.844 358.82 492.504 360 486L364 487L365 486L360 481L361 477L357 478L358 471L351 471M512 519L513 520L512 519M510.333 520.667L510.667 521.333L510.333 520.667M516.333 570.667L516.667 571.333L516.333 570.667M575 623L576 624L575 623M412 671C413.616 675.823 417.537 674.617 420 671L412 671z"/>
<path style="fill:#423c34; stroke:none;" d="M591 688L584 695L584 699L593 688L591 688M581.667 699.333L582.333 699.667L581.667 699.333M554 713L554 714L560 714L554 713z"/>
</svg>
