<?xml version="1.0" standalone="yes"?>
<svg width="661" height="773">
<path style="fill:#ebe6df; stroke:none;" d="M0 0L0 271L28 275L28 278L53 279L53 282C82.014 285.84 111.464 288.906 140.195 294.503C159.764 298.316 180.245 306.019 200.236 300.505C216.856 295.921 228.779 283.35 240 271L253 262L315 245L315 242L384 228C396.016 225.125 408.316 222.134 418.282 214.433C435.104 201.435 443.823 179.735 458.404 164.389C478.758 142.968 504.154 127.804 530 114C552.988 85.1472 577.506 59.4919 606 36C634.636 34.5275 642.161 52.8497 641.639 79.2008C640.955 113.717 633.324 148.537 617 179L616 148L592 156L595 162L588 168L577 173L568 171L568 168L558 168L560 161L570 161L570 155L584 154L584 141C588.447 140.659 591.891 140.224 594 136L599 136L600 126C611.833 116.501 611.63 89.2246 613 75L614 75L614 82L615 82C615.001 77.3841 613.878 71.7511 619 70L619 64L604 65L571 92L568 95L540 119L540 123C536.53 123.248 534.039 123.449 533 127L495 148L495 151C479.84 152.698 482.378 182.153 482.018 194.018C481.859 199.254 479.061 208.899 486 210L502 196L555 237L568 237C571.054 245.697 585.725 244 593 244C589.679 257.52 584.522 266.815 574 276L575 278L563 279L564 290L582 294L574 304C569.034 319.181 562.157 328.882 549 338L550 335L541 333L542 331L535 328L522 311L514 310L506 300L516 317L515 336L529 341L529 348L540 359L560 376L560 384L553 390L540 390L546 401C545.444 414.147 547.477 422.325 562 418L561 413L565 432L560 432L551 466L554 504L533 505L533 508L529 508L530 510L512 511L509 514L509 529L512 529L519 546C520.595 556.74 514.305 559.795 505 563L509 569L509 573L512 573L512 577L516 577C520.688 589.819 531.353 590.513 539 600L577 619L578 660L563 676L576 673L582 680L582 684L579 684C578.024 691.197 566.363 701 559.94 704.329C555.783 706.483 548.418 707.153 547 712L530 713L530 718L544 719L544 721C515.509 719.09 479.469 705.526 451.956 716.521C428.897 725.736 420.945 756.796 447.261 767.542C469.341 776.559 497.668 772.99 521 772.998L661 773L661 0L0 0z"/>
<path style="fill:#37342e; stroke:none;" d="M606 36C576.993 59.0706 552.599 84.6855 530 114C521.75 115.173 512.147 122.286 504.715 126.171C486.665 135.604 468.605 150.319 454.871 165.124C448.612 171.872 439.944 178.305 435.008 186.089C429.114 195.387 436.501 207.584 428.526 216.7C423.387 222.575 412.837 227.008 405 225.741C399.233 224.808 386.661 220.432 384 228L315 242L315 245L253 262L240 271C228.659 283.038 216.662 295.481 200.254 300.135C180.585 305.714 160.424 298.233 141.144 294.471C112.117 288.808 82.3324 285.724 53 282L53 279L28 278L28 275L0 271L0 383L24 396C46.3176 405.447 80.041 421.193 78.3734 450.383C77.4525 466.504 66.3127 480.731 56.0305 492.31C37.8496 512.784 15.0289 530.634 5.97414 557.46C-2.56665 582.764 0.0111641 611.693 0.002265 638L0 773L434 773C431.883 765.811 429.72 758.525 429.533 750.975C429.42 746.432 430.043 741.873 431.589 737.589C444.812 700.933 493.142 715.789 521.134 719.134C528.733 720.042 536.363 720.543 544 721L544 719L530 718L530 713L547 712L579 684L582 684L582 680L576 673L563 676L578 660L577 619L539 600L516 577L512 577L512 573L509 573L509 569L505 563C515.038 560.355 523.063 557.59 519 546L512 529L509 529L509 514L512 511L530 510L529 508L533 508L533 505L554 504L551 466C559.93 460.76 554.504 451.836 554.794 444.004C554.964 439.435 558.183 435.976 560 432L565 432C564.924 427.484 565.62 413.99 561 413L562 418C547.783 421.85 545.766 413.86 546 401L540 390L553 390L560 384L560 376L540 359L529 348L529 341L515 336L516 317L506 300L514 310L522 311L535 328L542 331L541 333L550 335L549 338C562.551 329.078 569.292 319.478 574 304L582 294L564 290L563 279L575 278L574 276C584.867 266.958 589.879 257.723 593 244L568 237L555 237L502 196L486 210C479.547 207.975 481.848 199.481 482.036 194.013C482.447 182.113 480.012 153.312 495 151L495 148L533 127L540 123L540 119L568 95L571 92L604 65L619 64L619 70L616 69L615 82L614 82L614 75L613 75C611.398 89.3668 611.666 116.146 600 126L599 136L594 136L584 141L584 154L570 155L570 161L568 159L567 159L560 161L558 168L568 168L568 171L577 173L588 168L595 162L592 160L592 156L616 148L617 179C633.96 148.527 641.219 112.99 641.772 78.2294C642.189 52.0179 634.647 33.478 606 36z"/>
<path style="fill:#ebe6df; stroke:none;" d="M460 397L467 405L468 405C476.305 404.771 478.085 416.34 481.718 421.507C484.634 425.653 488.454 423.922 490 420L496 424C494.407 400.715 495.329 378.169 498 355C492.394 354.072 486.722 353.08 481.016 353.326C456.762 354.371 457.541 378.876 460 397M0 383L0 553C6.5035 545.445 13.0294 537.911 19.8096 530.602C43.4423 505.125 102.356 461.95 68.5915 423.449C64.2628 418.513 59.1395 414.296 53.6958 410.647C44.466 404.461 34.2559 400.155 24 396L0 383M506 458L515 459L512 455C511.258 449.1 506.198 453.904 506 458M336 463L338 465L329 480L333 496L339 497L339 503L368 502L368 496L371 496L371 492L373 494L374 494L373 480L370 480L370 474L366 474L361 469L361 465L336 463M412 671L419 676L419 671L412 671z"/>
</svg>
