<?xml version="1.0" standalone="yes"?>
<svg width="661" height="773">
<path style="fill:#f5f3f0; stroke:none;" d="M0 0L6.82231e-07 178C4.3999e-06 194.648 -0.116128 211.302 0.0661866 227.95C0.17689 238.058 -0.263184 249.443 3.965 258.871C13.5075 280.147 52.6151 279.157 72.063 282.683C97.0405 287.212 122.962 288.84 147.644 294.487C164.841 298.422 181.747 307.332 199.735 302.529C218.853 297.425 233.508 280.52 248 268L248 267L246 267L246 266L276 254L275 252C284.221 251.117 295.509 250.427 301 242C324.9 239.133 347.859 232.33 371.573 228.529C386.312 226.166 403.574 226.811 416.701 218.831C434.892 207.774 441.858 181.224 455.889 165.578C476.801 142.258 504.773 129.018 528.732 109.583C549.468 92.7636 565.149 70.2653 584.94 52.3004C594.578 43.5521 606.503 33.7018 620.167 33.1663C640.14 32.3835 642.926 54.2273 643.028 69.4591C643.273 105.993 634.65 144.848 622 179L620 179L606 156L584 173L585 176L578 178C567.97 189.085 559.328 196.477 544 192L549 193C549.506 186.984 553.57 181.043 552.891 174.967C552.236 169.105 546.235 174.451 545 177L536 171L544 168L551 165L551 161L568 156L579 141C592.478 130.979 601.225 120.867 607 105L607 104L610 86L613 72L614 72L614 74L615 74L615 68L582 79L575 83L553 108L551 107C538.262 118.691 525.041 128.469 510 137L505 144L502 143L495 151C479.869 165.158 479.662 194.951 484 214L485 223L491 221C491 213.827 481.316 202.842 493 197C497.867 194.567 511.959 209.163 512 209C533.942 218.964 554.09 230.767 572 247L578 247L577 245L593 244L591 275L574 276L575 278C564.513 283.621 569.421 289.918 577 296C571.503 320.23 562.508 336.694 547 356L547 358C553.899 372.477 554.066 381.834 540 391L547 401L546 403L541 406L543 418L541 417L541 428C547.176 427.99 551.042 426.881 555 422C559.669 420.483 559.913 415.345 560 411C564.201 424.71 562.622 435.612 558 449L564 448L556 472L560 473L557 496L555 500C550.113 501.751 529.971 505.178 530 510L520 512L521 516L512 522L523 545L532 553L532 554L518 567L539 591L568 618C583.625 631.792 578.645 654.988 565 668L565 669L567 669L567 670C563.597 670.729 564.013 672.806 564 676C566.693 676 580.657 669.373 579 676L585 675C575.38 689.337 564.567 699.746 550 709L544 715L539 715L539 716L556 715L547 717C546.536 720.547 541.25 721.343 538 721.944C528.407 723.721 520.219 722.565 511 719.556C501.848 716.568 491.554 711.056 482 710.083C474.66 709.336 468.159 711.403 461 711.917C454.474 712.385 449.456 708.659 443 712.083C436.569 715.494 426.805 727.72 423.083 734C417.042 744.195 421.857 770.896 436 772.917C459.611 776.29 486.123 773 510 773L661 773L661 0L0 0z"/>
<path style="fill:#423c34; stroke:none;" d="M301 242C294.668 249.861 284.476 250.872 275 252L276 254L246 266L246 267L248 267L248 268C232.86 280.428 217.621 298.074 197.843 302.637C178.264 307.154 158.851 295.845 139.836 292.732C93.2304 285.102 46.4611 278.811 0 270C1.38138e-08 293.317 -0.188176 316.644 0.0660619 339.96C0.207146 352.899 -0.153015 367.616 7.69449 378.641C20.9949 397.327 47.9487 404.28 65.3316 418.633C73.9738 425.77 82.2889 435.137 82.2884 446.992C82.288 460.16 73.6259 472.856 65.7 482.712C46.5763 506.492 14.7403 522.981 4.32253 553.014C-3.74714 576.277 0.000148173 604.751 1.92104e-05 629L0 773L434 773L434 772C425.536 764.858 416.874 750.341 421.231 739C423.794 732.332 429.269 728.193 433.861 723C437.629 718.739 440.148 713.362 445.866 711.366C450.849 709.626 455.946 712.177 461 711.935C468.163 711.593 474.686 709.2 482 710.264C494.435 712.073 506.636 719.115 519 722.12C524.731 723.513 546.041 724.758 547 717L556 715L539 716L539 715L544 715L550 709C564.982 700.023 575.651 689.763 585 675L579 676C578.156 669.899 567.634 674.73 564 676L567 670L567 669L565 669L565 668C578.954 655.993 584.259 630.718 568 618L539 591L518 567L532 554L532 553L523 545L512 522L521 516L520 512L530 510C530 504.981 550.264 502.56 555 500L557 496L560 473L556 472L564 448L558 449C561.865 435.78 575.148 422.682 560 411C560 415.719 558.447 422.862 555 422L541 428L541 417L543 418L541 406L546 403L547 401L540 391C554.422 382.008 554.375 372.463 547 358L547 356C563.157 336.835 571.826 320.588 577 296C569.831 289.878 564.939 283.662 575 278L574 276L591 275L595.833 257L593 244L577 245L578 247L572 247C554.325 230.31 534.255 218.569 512 209C511.153 202.977 494.51 193.874 489.569 200.083C483.763 207.381 490.247 213.638 491 221L485 223L484 214C481.939 191.559 482.948 170.595 495 151L502 143L505 144L510 137C525.352 128.742 538.44 119.087 551 107L553 108L575 83C577.996 82.9594 581.533 82.2011 582 79L615 68L615 74L614 74L614 72L613 72L610 86L607 104L607 105C600.716 120.389 592.011 130.75 579 141C579.169 150.46 571.461 149.374 568 156C559.781 151.891 554.113 161.778 551 161L551 165L544 168C540.052 167.183 537.784 167.122 536 171L545 177C545 174.607 551.924 168.548 553.333 173C555.488 179.804 546.764 186.464 549 193L544 192C557.749 207.29 570.379 190.82 578 178L585 176L584 173L606 156L620 179L622 179C635.01 144.88 643.54 105.707 643.213 69.0896C643.072 53.3124 639.992 31.2256 619.293 32.7357C605.602 33.7346 593.787 43.445 584.071 52.2955C564.583 70.0477 549.098 92.1617 528.732 108.854C504.901 128.388 476.853 141.494 455.889 164.704C441.53 180.601 434.581 207.716 415.868 218.799C402.658 226.622 385.516 226.096 370.761 228.476C347.323 232.257 324.592 238.965 301 242z"/>
<path style="fill:#f5f3f0; stroke:none;" d="M613.667 65.3333L614.333 65.6667L613.667 65.3333z"/>
<path style="fill:#423c34; stroke:none;" d="M610 81L610 84L611 84L610 81M592 127L593 128L592 127M587 135L588 136L587 135z"/>
<path style="fill:#f5f3f0; stroke:none;" d="M581 142L581 144L583 144L581 142z"/>
<path style="fill:#423c34; stroke:none;" d="M608.333 158.667L608.667 159.333L608.333 158.667M607.333 166.667L607.667 167.333L607.333 166.667z"/>
<path style="fill:#f5f3f0; stroke:none;" d="M545 167L546 168L545 167M542 170L542 171L547 171L542 170M556 175L558 178L556 175M482 176L483 177L482 176z"/>
<path style="fill:#423c34; stroke:none;" d="M576 184L577 185L576 184M546.333 199.667L546.667 200.333L546.333 199.667z"/>
<path style="fill:#f5f3f0; stroke:none;" d="M493 224L491 230C494.331 229.286 494.591 226.762 493 224M63 281L64 282L63 281M460 355C459.973 368.532 462.26 380.339 467 393L477 404L477 405L475 407L494 382L492 383L492 377L494 378C491.72 366.104 487.6 358.487 478 351L479 349L460 355M480 349L481 350L480 349M0 382L0 550C6.64553 542.421 13.3541 534.908 20.457 527.751C46.5339 501.477 111.806 456.572 66.2224 418.634C58.1959 411.954 49.1559 406.541 40.0288 401.518C27.0079 394.352 13.5779 388.027 0 382M482 407L483 408L482 407M484 408L484 409L488 410L484 408M485 417L488 416L485 417z"/>
<path style="fill:#423c34; stroke:none;" d="M559 446L560 447L559 446z"/>
<path style="fill:#f5f3f0; stroke:none;" d="M503 448L519 460C517.178 451.574 507.896 451.608 503 448M351 471L355 476L352 477L352 487C355.347 491.844 358.82 492.504 360 486L364 487L365 486L360 481L361 477L357 478L358 471L351 471M512 519L513 520L512 519M510.333 520.667L510.667 521.333L510.333 520.667M516.333 570.667L516.667 571.333L516.333 570.667M575 623L576 624L575 623M412 671C413.616 675.823 417.537 674.617 420 671L412 671z"/>
<path style="fill:#423c34; stroke:none;" d="M591 688L584 695L584 699L593 688L591 688M581.667 699.333L582.333 699.667L581.667 699.333M554 713L554 714L560 714L554 713z"/>
</svg>
