<?xml version="1.0" standalone="yes"?>
<svg width="661" height="773">
<path style="fill:#ebe6df; stroke:none;" d="M0 0L0 271L28 275L28 278L53 279L53 282C81.0992 285.15 109.79 288.564 137.661 293.245C168.235 298.381 195.535 315.479 222.669 290.731C229.153 284.817 234.582 277.871 240 271L253 262C274.086 257.369 295.162 253.802 315 245L315 242L384 228C396.307 225.696 410.583 224.563 420.709 216.459C435.92 204.289 441.053 181.271 454.481 166.752C475.549 143.974 502.493 127.737 530 114C552.847 85.0822 576.434 58.3439 606 36C610.756 34.5682 615.586 33.0693 620.596 32.9767C641.487 32.591 642.989 56.5177 642.673 72.0522C641.968 106.777 637.771 150.122 617 179L616 148L592 156L595 162L588 168L577 173L568 171L568 168L558 168L560 161L570 161L570 155L584 154L584 141C588.447 140.659 591.891 140.224 594 136L599 136L600 126C611.833 116.501 611.63 89.2246 613 75L614 75L614 82L615 82C615.001 77.3841 613.878 71.7511 619 70L619 64L604 65L571 92L568 95L540 119L540 123C536.53 123.248 534.039 123.449 533 127L495 148L495 151C479.84 152.698 482.378 182.153 482.018 194.018C481.859 199.254 479.061 208.899 486 210L502 196L555 237L568 237C571.054 245.697 585.725 244 593 244C591.66 259.165 587.444 268.31 574 276L575 278L563 279L564 290L582 294L574 304C571.508 321.74 565.872 331.13 549 338L550 335L541 333L542 331L535 328L522 311L514 310L506 300L516 317L515 336L529 341L529 348L540 359L560 376L560 384L553 390L540 390L546 401C544.391 415.161 546.307 424.821 562 418L561 413L565 432L560 432L551 466L554 504L533 505L533 508L529 508L530 510L512 511L509 514L509 529L512 529L519 546C520.595 556.74 514.305 559.795 505 563L509 569L509 573L512 573L512 577L516 577C520.688 589.819 531.353 590.513 539 600L577 619L578 660L563 676L576 673L582 680L582 684L579 684C578.024 691.197 566.363 701 559.94 704.329C555.783 706.483 548.418 707.153 547 712L530 713L530 718L544 719L544 721C513.869 721.064 477.695 702.427 448.783 714.315C426.971 723.284 414.612 756.895 441.172 768.536C461.617 777.497 490.196 773 512 773L661 773L661 0L0 0z"/>
<path style="fill:#37342e; stroke:none;" d="M606 36C575.847 57.5518 552.166 84.5931 530 114C521.75 115.173 512.147 122.286 504.715 126.171C486.665 135.604 468.605 150.319 454.871 165.124C448.612 171.872 439.944 178.305 435.008 186.089C429.114 195.387 436.501 207.584 428.526 216.7C423.387 222.575 412.837 227.008 405 225.741C399.233 224.808 386.661 220.432 384 228L315 242L315 245L253 262L240 271C229.247 283.969 217.822 298.134 200.91 302.897C181.229 308.439 163.191 298.337 144.351 294.302C114.855 287.986 83.0285 285.14 53 282L53 279L28 278L28 275L0 271L0 383L24 396C45.7281 403.066 83.7754 420.285 82.2585 448.329C81.5254 461.882 72.331 474.81 63.9431 484.865C44.7913 507.823 15.3649 524.891 4.81457 554.124C-3.68482 577.674 0.000196371 606.381 2.538e-05 631L0 773L434 773C430.768 766.485 427.455 759.855 426.332 752.591C423.269 732.768 438.954 715.627 457.73 712.034C485.812 706.66 515.457 721.307 544 721L544 719L530 718L530 713L547 712L579 684L582 684L582 680L576 673L563 676L578 660L577 619L539 600L516 577L512 577L512 573L509 573L509 569L505 563C515.038 560.355 523.063 557.59 519 546L512 529L509 529L509 514L512 511L530 510L529 508L533 508L533 505L554 504L551 466C559.93 460.76 554.504 451.836 554.794 444.004C554.964 439.435 558.183 435.976 560 432L565 432C564.924 427.484 565.62 413.99 561 413L562 418C546.706 424.016 544.838 414.802 546 401L540 390L553 390L560 384L560 376L540 359L529 348L529 341L515 336L516 317L506 300L514 310L522 311L535 328L542 331L541 333L550 335L549 338C566.341 331.464 571.844 322.054 574 304L582 294L564 290L563 279L575 278L574 276C587.902 268.617 591.914 259.367 593 244L568 237L555 237L502 196L486 210C479.547 207.975 481.848 199.481 482.036 194.013C482.447 182.113 480.012 153.312 495 151L495 148L533 127L540 123L540 119L568 95L571 92L604 65L619 64L619 70L616 69L615 82L614 82L614 75L613 75C611.398 89.3668 611.666 116.146 600 126L599 136L594 136L584 141L584 154L570 155L570 161L568 159L567 159L560 161L558 168L568 168L568 171L577 173L588 168L595 162L592 160L592 156L616 148L617 179C638.617 150.631 642.153 105.686 642.765 71.0626C643.041 55.3984 641.293 31.3585 620.045 32.5779C615.192 32.8564 610.566 34.4534 606 36z"/>
<path style="fill:#ebe6df; stroke:none;" d="M460 397L467 405L468 405C476.305 404.771 478.085 416.34 481.718 421.507C484.634 425.653 488.454 423.922 490 420L496 424C493.239 400.532 494.853 378.336 498 355C492.468 353.16 486.877 351.263 481.039 350.706C452.412 347.976 455.302 378.097 460 397M0 383L0 553C6.73165 544.839 13.4872 536.697 20.7013 528.954C45.0809 502.787 108.997 459.504 69.3344 421.021C64.3212 416.156 58.7445 411.825 52.8194 408.128C43.8418 402.526 34.0644 399.075 24 396L0 383M506 458L515 459L512 455C511.258 449.1 506.198 453.904 506 458M336 463L338 465L329 480L333 496L339 497L339 503L368 502L368 496L371 496L371 492L373 494L374 494L373 480L370 480L370 474L366 474L361 469L361 465L336 463M412 671L419 676L419 671L412 671z"/>
</svg>
