<?xml version="1.0" standalone="yes"?>
<svg width="661" height="773">
<path style="fill:#faf8f6; stroke:none;" d="M0 0L0 271C39.2985 276.295 78.4555 282.533 117.722 288.051C142.628 291.551 168.914 296.755 193.982 292.017C228.229 285.546 259.108 261.502 291 248C310.774 241.503 330.601 235.327 350.78 230.199C370.268 225.246 390.627 221.287 408.274 211.205C430.963 198.242 446.611 176.038 464.895 157.944C485.778 137.28 509.569 119.971 531.634 100.645C550.652 83.9884 568.061 64.2178 589.578 50.6913C598.964 44.7903 611.43 39.0355 622.554 43.4885C639.824 50.4023 640.913 75.1896 640.625 90.7502C639.798 135.395 626.3 179.858 616 223L608 223L609 210L608 210L602 211L608 208L608 204L605 204L596 195C595.679 200.377 593.953 203.41 590 207L590 208L590 209L592 215L582 216C570.906 225.001 578.757 229.485 584 240L596 241C590.627 256.747 583.763 268.213 571 279L571 282L567 282L567 289L582 294L574 304L568.801 362.605L574 458L563 478L562 478L562 476L561 476L558 496L555 496L553 507L547 507L536 514L547 538L551 560L547 560L546 569L547 569L548 566L550 566L551 569L542 574L540 577L540 578L564 584L564 587L575 604L578 604L578 614L581 614L584 649L581 649L578 660L571 669L581 667L584 660L592 660L596 664L581 702L587 687L582 685L578 688L578 694L554 706L562 713C543.446 716.166 525.078 718.146 506.254 718.61C489.169 719.03 469.344 718.359 454.343 727.92C451.837 729.517 449.514 731.437 447.617 733.733C432.105 752.503 459.081 765.765 474.105 768.919C498.775 774.097 524.944 772.908 550.01 772.97C587.006 773.062 624.003 773 661 773L661 0L0 0z"/>
<path style="fill:#9f876a; stroke:none;" d="M291 248C258.74 261.288 227.629 285.444 193.115 291.789C168.008 296.405 141.688 291.247 116.75 287.76C77.8099 282.315 38.985 276.127 0 271C0.184308 285.174 -1.08479 300.464 13 308L8 320L15 318L21 330L42 331L38 338C55.8705 338.211 38.0309 353.482 48 357L48 362L28 362L28 367C25.0108 366.645 17.6296 364.223 17 368L6 361L2 358L0 386L72 420C72.6179 433.874 72.6354 447.591 68.0769 460.891C55.7173 496.952 21.7931 526.333 0 557L38 518C58.4325 495.148 76.9376 471.469 94 446L94 442L108 432L104 432L108 421L93 422C88.1008 434.738 66.6472 412.741 62 407C68.3407 401.191 71.1261 395.335 73 387L77 378C74.1009 376.98 72.6916 376.772 72 380L71 380L73 376L74 362L90 362L88 366C95.7908 371.427 96.4945 377.966 96 387L117 383L117 384L115 386L125 390L136 391L146 384L146 380L138 379C133.805 373.694 129.383 371.111 123 369L125 363L120 363L113 329L111 331L107 312L104 312L102 304L101 304L101 307L76 304L62 296L50 296L46 289L46 288L55 286L55 283L90 289L90 292L131 300L135 297C137.061 306.669 153.989 299.098 155 306L172 307L172 311C192.978 304.454 212.573 296.272 232 286L232 282C236.874 281.842 248.338 279.726 250 275L295 264L299 265L298 262L315 255L322 244L391 231L391 228C429.908 211.044 451.938 178.344 480 148L477 158C473.48 159.391 473.185 161.361 473 165L468 165L464 176L460 176C462.464 182.963 465.225 188.269 471 193L477 197L481 238C486.526 241.547 489.164 249.896 491 256L500 258L501 258L503 254L510 255L510 252L514 252L525 246L522 262L520 261C525.864 268.238 531.877 270.734 541 272L544 275L544 286L554 286L557 293L564 293L564 299L568 299L571 331L537 320L537 314L533 314L533 310L527 310L527 307L505 276L502 273L488 272L485 275L485 281L488 281L488 289L486 292C491.044 311.06 493.249 329.287 493 349C490.442 343.17 484.56 344.13 478.999 344.075C467.131 343.958 454.477 345.768 451.122 359.21C449.24 366.752 448.064 380.246 451.378 387.47C454.143 393.498 459.444 398.073 462.077 404.403C466.803 415.765 468 426.849 468 439L473 440C491.915 453.526 511.326 463.614 533 472L546 466L542 483L544 487C537.699 489.496 539.884 496.336 546 497L546 501L505 503L505 510L499 514L495 514L492 518L502 525C508.928 537.494 516.857 549.434 500 556L498 563L513 584L514 584L514 580L515 580L553 613L554 623L571 623C571 629.482 567.802 647.469 575 650L574 660L578 660L581 649L584 649L581 614L578 614L578 604L575 604L564 587L564 584L540 578L540 577L543 577L542 574L551 569L550 566L548 566L547 569L546 569L547 560L551 560L547 538L536 514C540.015 513.524 545.824 511.025 547 507L553 507L555 496L558 496L561 476L562 476L562 478L563 478L574 458L569.163 363.525L574 304L582 294L567 289L567 282L571 282L571 279C584.134 268.384 590.82 256.975 596 241L584 240L580.274 229.586L571.802 223.945L582 216L592 215L590 209L590 208L590 207C595.406 204.361 596 200.629 596 195L605 204L608 204L608 208L602 211L608 210L609 210L608 223L616 223C615.931 202.548 626.526 189.989 631.852 171C635.264 158.835 633.935 144.6 636.282 132C639.854 112.835 645 96.1255 645 76C645 64.6725 645.196 53.3256 644.995 42C644.928 38.2066 645.023 31.819 641.782 29.2917C624.943 16.1599 604.536 28.8108 590.431 38.5972C582.262 44.2643 576.989 57.4601 569.607 64.8055C563.305 71.075 554.95 75.0184 549.509 82.412C546.213 86.8914 545.852 93.4071 541.676 97.3936C530.019 108.522 515.296 113.65 502.412 122.417C494.252 127.97 488.073 135.933 479.94 141.407C473.473 145.76 464.004 147.505 459.292 154.153C451.977 164.472 438.937 175.06 433.37 186.005C426.879 198.766 436.154 214.079 419 221.843C404.485 228.411 386.185 220.243 371.005 222.139C361.653 223.307 346.87 226.286 338.153 229.954C333.761 231.802 330.82 236.701 325.94 237.787C317.883 239.579 293.863 238.214 291 248z"/>
<path style="fill:#37342e; stroke:none;" d="M561 79L557 79L542 110L543 110L550 99L554 99L574 79L578 79L582 72L600 64L600 60L616 58L616 55L624 55L623 131L620 131C620.003 135.192 620.746 148.618 628.583 143.111C632.494 140.363 633.247 123.923 634.19 119.06C637.109 104.009 636.613 90.2225 638.134 75C639.413 62.2066 642.598 47.5689 637.523 35.1389C633.503 25.2914 618.284 30.1405 612.018 33.1991C607.86 35.2292 602.028 35.3692 598.491 38.2824C589.469 45.7125 583.186 57.9022 574.982 66.5695C571.305 70.4532 562.408 74.1813 561 79z"/>
<path style="fill:#faf8f6; stroke:none;" d="M547 117L540 119L540 128L536 128L533 136C529.291 136.657 527.499 137.471 526 141L522 141L522 146L526 146L527 152L550 144L550 134L554 136L562 128L570 120L568 117C570.475 116.487 570.575 116.396 570 114L578 110L578 104L585 97L547 117z"/>
<path style="fill:#37342e; stroke:none;" d="M391 228L391 231L322 244L315 255L298 262L299 265L295 264L250 275L232 282L232 286L172 311L172 307L155 306L135 297L131 300L90 292L90 289L55 283L55 286L46 288L46 289L50 296L62 296L76 304L85 302.5L100.5 306.333L101 304L102 304L104 312L107 312L111 331L113 329L120 363L125 363L123 369L138 379L146 380L146 384C141.87 384.651 137.464 386.953 136 391L125 390C123.213 385.491 119.343 386.012 115 386L117 384L117 383L96 387C96.7166 377.86 96.1554 371.223 88 366L90 362L74 362L73 376L71 380L72 380L72 377L77 378L73 387L62 407C66.2074 412.917 88.7258 435.876 93 422L108 421L104 432L108 432L94 442L94 446C88.0646 447.735 84.705 460.577 82.3935 465.94C76.6424 479.284 68.9676 489.334 57.5926 498.866C50.6343 504.696 40.0248 507.991 38 518C27.4372 531.172 17.3141 544.588 11.0374 560.41C-2.15084 593.653 0.111268 631.902 0.0291639 667C-0.0534896 702.333 2.6903e-06 737.667 0 773L416 773L413 763L417 763C417 756.608 416.064 738.066 409 736L412 680L398 681C398 676.469 397.292 668.073 401 669C400.987 665.806 401.403 663.729 398 663C397.532 659.126 391.624 657.767 388 657L385 648L371 649L372 647L345 643L339 638L339 633L334 625L313 623C305.231 626.204 296.632 627.173 291 620L267 607L267 606L269 606L269 605L260 597L239 566L235 560L234 560L233 562L231 549L267 560L273 570L273 574L283 584L315 597C316.744 602.963 329.636 602.7 334.94 604.449C339.458 605.939 343.791 609.681 348.153 610.782C358.102 613.295 375.496 612.011 384.644 607.532C387.708 606.032 388.432 601.369 392.005 599.435C397.666 596.371 403.623 595.094 404 603C408.324 602.099 411.619 601.537 413 597L436 582L434 573L441 584L449 584L464 642L467 642L486 667L495 676L502 691L547 681L557 671L567 664L572 664L575 650L571 623L554 623L553 613C548.882 613.147 550.036 608.403 546.833 607.167C543.299 605.803 538.678 607.804 535 606.833C521.96 603.392 515 593.159 515 580L514 580L514 584L513 584L498 563L500 556C517.201 549.466 509.321 537.596 502 525L492 518L495 514L499 514L505 510L505 503L546 501L546 497C541.384 494.253 540.774 491.309 544 487L542 483L546 466C540.286 466.376 536.484 467.239 533 472C511.522 463.394 492.006 453.215 473 440L468 439C468 426.735 467.024 415.902 462.523 404.361C459.893 397.617 453.977 393.021 451.197 386.726C448.081 379.67 449.279 366.447 451.283 359.171C455.003 345.66 468.037 343.884 480 344.276C485.236 344.448 490.683 343.314 493 349C510.969 336.138 503.053 300.966 486 292L488 289L488 281L485 281L485 275L488 272L502 273L505 276L527 307L527 310L533 310L533 314L537 314L537 320L571 331L568 299L564 299L564 293L557 293L554 286L544 286L544 275L541 272C532.049 270.542 526.037 267.86 520 261L522 262L525 246C520.741 247.067 515.725 247.64 514 252L510 252L510 255L503 254L501 258L500 258L491 256C489.665 249.963 486.916 240.765 481 238L477 197L471 193L460 176L464 176L468 165L473 165L477 158L480 148C451.673 177.947 429.504 210.583 391 228M593 248C574.627 253.345 588.074 266.566 593 248z"/>
<path style="fill:#9f876a; stroke:none;" d="M384 254L392 263L408 275L412 280C412.185 283.639 412.48 285.609 416 287C420.617 293.888 439.726 298.183 448 299L450 296L436 287L412 269L412 272L401 260L395 261L396 256L384 254z"/>
<path style="fill:#37342e; stroke:none;" d="M0 308L0 361L2 358L6 361L17 368C17 363.893 25.0196 366.922 28 367L28 362L48 362L48 357C46.174 348.987 45.309 342.71 38 338L42 331L21 330L15 318L8 320L13 308L0 308M502 353C498.567 369.099 487.946 399.667 510 406L509 417L505 417L506 442C527.288 450.975 541.11 450.593 555 431L543 432L543 428L539 428L541 408L538 408L533 391L547 389L544 381L544 380C555.935 373.35 540.259 361.778 533 359L533 353L502 353z"/>
<path style="fill:#faf8f6; stroke:none;" d="M474 359C474.998 363.568 475.55 367.781 480 370L480 375L488 375C484.595 367.914 480.617 363.26 474 359M0 386L0 547L1 547C25.2319 521.278 58.1803 494.102 69.0284 459.272C73.0245 446.442 72.7547 433.261 72 420L0 386M554 403L560 403C560.484 400.081 561.625 395.619 558.393 393.822C556.464 392.749 546.743 391.898 547.304 395.842C547.657 398.317 552.567 400.746 554 403M544 406L541 428L551 428L554 425C553.441 416.307 551.006 411.248 544 406z"/>
<path style="fill:#9f876a; stroke:none;" d="M322 445L315 490L339 503L339 507L370 512L380 474L368 466L322 445M349 549L354 549L354 553C361.215 547.731 360.765 540.013 359 532L353 532C351.024 527.521 346.57 526.015 345.992 532.312C345.475 537.938 347.807 543.589 349 549M297 532C300.599 539.706 307.297 533.331 297 532M231 549L233 562L234 560L235 560L239 566L260 597L269 605L269 606L267 606L267 607L291 620C295.816 627.717 305.664 626.313 313 623L334 625L339 633L339 638L345 643L372 647L371 649L385 648L388 657L398 663L401 669C396.708 669.641 398 677.47 398 681L412 680L409 736L417 763L413 763C419.487 770.449 426.382 772.209 436 773C436.839 761.131 437.714 748.537 444.67 738.419C453.797 725.143 470.243 721.152 485.394 719.82C511.188 717.553 536.376 717.609 562 713L554 708C550.531 708.248 548.039 708.449 547 712L509 712L509 706L533 704L533 698L542 691L551 691L554 688C559.8 681.878 565.935 679.158 574 677L568 697L568 698L578 694L578 688L582 685L587 687L581 702L596 664L592 660L584 660L581 667L571 669L571 664L567 664L557 671L547 681L502 691L495 676L486 667L467 642L464 642L449 584L441 584C440.023 578.858 438.286 576.02 434 573L436 582L413 597C411.008 601.029 408.207 601.91 404 603C398.146 590.612 383.022 607.891 374.539 609.801C356.512 613.859 330.239 607.209 315 597L283 584L273 574L273 570C268.827 568.372 267.922 564.079 267 560L231 549M555 656L564 656L564 652C559.868 652.035 556.663 651.803 555 656z"/>
<path style="fill:#37342e; stroke:none;" d="M554 688L551 691L542 691L533 698L533 704L509 706L509 712L547 712L574 677C565.755 678.962 559.562 681.424 554 688M434 691L430 695C434.313 707.483 441.899 705.668 453 702L443 691L434 691z"/>
<path style="fill:#9f876a; stroke:none;" d="M560 704L564 701L560 704z"/>
</svg>
