<?xml version="1.0" standalone="yes"?>
<svg width="661" height="773">
<path style="fill:#f5f2ef; stroke:none;" d="M0 0L0 271L28 275L28 278C52.9153 279.975 76.8703 283.362 101 290C116.723 291.261 132.331 292.829 147.779 296.117C164.254 299.623 181.328 305.025 198.162 300.503C216.751 295.509 229.73 280.129 244.696 269.068C258.738 258.689 274.389 252.871 291 248C313.88 240.104 337.021 233.622 360.906 229.545C378.565 226.531 398.71 226.092 414.454 216.655C433.09 205.485 441.977 182.335 456.287 166.662C476.922 144.062 503.262 128.28 530 114C552.933 85.1708 576.662 58.498 606 36C634.636 34.5275 642.161 52.8497 641.639 79.2008C640.955 113.717 633.324 148.537 617 179L616 172C601.98 177.261 589.904 183.913 578 193C574.187 192.181 571.416 191.977 570 196L564 196L550 203L551 192L560 183L562 173L560 161L570 161L570 155L584 154L584 141C588.447 140.659 591.891 140.224 594 136L599 136L600 126C611.833 116.501 611.63 89.2246 613 75L614 75L614 82L615 82C615.001 77.3841 613.878 71.7511 619 70L619 64L604 65L571 92L568 95L540 119L540 123C536.53 123.248 534.039 123.449 533 127L495 148L495 151C479.84 152.698 482.378 182.153 482.018 194.018C481.859 199.254 479.061 208.899 486 210L502 196L555 237L568 237C571.054 245.697 585.725 244 593 244C589.679 257.52 584.522 266.815 574 276L575 278L563 279L564 290L582 294L574 304L551 365L552 365L557 364L560 384L553 390L540 390L546 401C544.774 408.09 544.538 431.948 556.042 417.037C557.514 415.129 558.746 413.052 560 411L568 411L558 439L560 448L564 448L563 478L562 478L562 476L561 476L558 496L555 496L554 504L540 505L540 506L542 507C538.238 508.005 534.643 509.428 530.951 510.654C528.424 511.493 526.091 512.369 524.019 514.098C508.155 527.335 527.165 539.904 529.11 554.077C530.292 562.685 514.234 568.965 524 575L526 587C535.397 588.073 541.244 593.808 547 601L577 619L578 660L563 676L576 673L582 680L582 684L579 684L578 694L558.986 704.769L547 712L530 713L530 718L544 719L544 721C515.509 719.09 479.469 705.526 451.956 716.521C428.897 725.736 420.945 756.796 447.261 767.542C469.341 776.559 497.668 772.99 521 772.998L661 773L661 0L0 0z"/>
<path style="fill:#3f3933; stroke:none;" d="M606 36C576.151 58.0159 552.529 84.7355 530 114C521.991 114.874 511.873 122.364 504.741 126.236C479.06 140.177 453.594 161.43 435.569 185.134C426.021 197.691 439.658 214.449 420 222.843C408.511 227.748 399.607 222.314 388.019 224.157C372.818 226.576 356.264 227.997 341 231.477C335.623 232.703 331.059 236.648 325.94 237.787C317.883 239.579 293.863 238.214 291 248C274.401 252.649 258.74 258.246 244.696 268.511C229.654 279.504 216.711 294.987 198.162 300.125C181.348 304.782 164.263 299.339 147.779 295.888C132.329 292.653 116.719 291.178 101 290C99.0394 284.424 86.4105 283.148 81 282.986C63.4966 282.464 45.8916 278.002 28 278L28 275L0 271L0 383L24 396C44.769 406.659 79.1091 421.584 78.3543 449.622C77.9597 464.282 68.5321 477.581 59.4001 488.33C41.1439 509.818 14.9003 526.738 5.52198 554.493C-2.9669 579.616 0.0067787 608.881 0.00133418 635L0 773L434 773C431.883 765.811 429.72 758.525 429.533 750.975C429.42 746.432 430.043 741.873 431.589 737.589C444.812 700.933 493.142 715.789 521.134 719.134C528.733 720.042 536.363 720.543 544 721L544 719L530 718L530 713L547 712L578 694L579 684L582 684L582 680L576 673L563 676L578 660L577 619L547 601C544.713 593.174 533.914 587.247 526 587L524 575C525.277 548.726 521.679 526.761 542 507L540 506L540 505L554 504L555 496L558 496L561 476L562 476L562 478L563 478L564 448L560 448L558 439C566.946 430.901 568.509 422.758 568 411L560 411C558.8 412.845 557.621 414.711 556.259 416.443C544.768 431.063 544.854 408.436 546 401L540 390L553 390L560 384L557 364L552 365L551 365L574 304L582 294L564 290L563 279L575 278L574 276C584.867 266.958 589.879 257.723 593 244L568 237L555 237L502 196L486 210C479.547 207.975 481.848 199.481 482.036 194.013C482.447 182.113 480.012 153.312 495 151L495 148L533 127L540 123L540 119L568 95L571 92L604 65L619 64L619 70L616 69L615 82L614 82L614 75L613 75C611.398 89.3668 611.666 116.146 600 126L599 136L594 136L584 141L584 154L570 155L570 161L568 159L567 159L560 161L562 173L560 183L551 192L550 203C555.945 202.134 560.304 200.958 564 196L570 196L578 193L616 172L617 179C633.96 148.527 641.219 112.99 641.772 78.2294C642.189 52.0179 634.647 33.478 606 36z"/>
<path style="fill:#f5f2ef; stroke:none;" d="M471 348L460 356L464 390L467 390L466 396L475 400L475 395L479 396L477 400L492 375L495 375L498 355L471 348M0 383L0 547L1 547C7.10224 540.785 13.2241 534.591 19.4877 528.539C24.3303 523.859 29.247 519.257 34.1547 514.646C55.4578 494.629 96.0399 458.964 71.0187 427.443C66.9874 422.365 61.9815 418.117 56.7238 414.36C46.5261 407.073 35.2007 401.542 24 396L0 383M506 458L515 459L512 455C511.258 449.1 506.198 453.904 506 458M412 671L419 676L419 671L412 671z"/>
<path style="fill:#3f3933; stroke:none;" d="M593 684L581 702L593 684z"/>
</svg>
