<?xml version="1.0" standalone="yes"?>
<svg width="661" height="773">
<path style="fill:#ebe6df; stroke:none;" d="M0 0L0 271L28 275L28 278L53 279L53 282C80.0809 285.72 107.17 289.38 134.138 293.863C155.068 297.343 177.271 302.299 198.264 296.646C214.51 292.27 227.457 281.72 240 271L253 262L315 245L315 242L384 228C396.515 223.033 408.705 217.683 419.222 209.099C436.505 194.993 449.019 175.822 465.009 160.343C484.322 141.648 506.932 127.532 530 114C553.476 85.8422 578.468 60.2115 606 36C633.364 43.7562 640.445 63.2056 639.406 90.4955C638.226 121.479 628.968 150.67 617 179L616 148L592 156L595 162L588 168L577 173L568 171L568 168L558 168L560 161L570 161L570 155L584 154L584 141C588.447 140.659 591.891 140.224 594 136L599 136L600 126C611.833 116.501 611.63 89.2246 613 75L614 75L614 82L615 82C615.001 77.3841 613.878 71.7511 619 70L619 64L604 65L571 92L568 95L540 119L540 123C536.53 123.248 534.039 123.449 533 127L495 148L495 151C479.84 152.698 482.378 182.153 482.018 194.018C481.859 199.254 479.061 208.899 486 210L502 196L555 237L568 237C571.054 245.697 585.725 244 593 244C589.679 257.52 584.522 266.815 574 276L575 278L563 279L564 290L582 294L574 304C567.734 317.574 560.132 328.012 549 338L550 335L541 333L542 331L535 328L522 311L514 310L506 300L516 317L515 336L529 341L529 348L540 359L560 376L560 384L553 390L540 390L546 401C545.444 414.147 547.477 422.325 562 418L561 413L565 432L560 432L551 466L554 504L533 505L533 508L529 508L530 510L512 511L509 514L509 529L512 529L519 546C520.595 556.74 514.305 559.795 505 563L509 569L509 573L512 573L512 577L516 577C520.688 589.819 531.353 590.513 539 600L577 619L578 660L563 676L576 673L582 680L582 684L579 684C578.024 691.197 566.363 701 559.94 704.329C555.783 706.483 548.418 707.153 547 712L530 713L530 718L544 719L544 721C516.924 718.114 483.728 709.671 457.42 719.88C432.964 729.371 431.06 756.427 456.264 766.16C479.523 775.143 507.551 772.885 532.017 772.964C575.011 773.103 618.006 773 661 773L661 0L0 0z"/>
<path style="fill:#37342e; stroke:none;" d="M606 36C578.106 59.9579 553.217 85.4922 530 114C521.75 115.173 512.147 122.286 504.715 126.171C486.665 135.604 468.605 150.319 454.871 165.124C448.612 171.872 439.944 178.305 435.008 186.089C429.114 195.387 436.501 207.584 428.526 216.7C423.387 222.575 412.837 227.008 405 225.741C399.233 224.808 386.661 220.432 384 228L315 242L315 245L253 262L240 271C227.176 281.657 213.951 292.18 197.504 296.465C176.425 301.956 154.182 296.948 133.188 293.505C106.537 289.134 79.7667 285.579 53 282L53 279L28 278L28 275L0 271L0 383L24 396C45.4883 407.915 74.1558 423.972 72.3907 452.59C71.2515 471.062 58.5505 486.967 47.3314 500.706C31.5802 519.995 15.1962 538.75 7.5429 562.945C-1.14945 590.425 0.114169 620.523 0.0324017 649.007C-0.0862452 690.338 4.13616e-08 731.669 0 773L434 773C433.506 764.016 432.955 754.835 435.123 746.011C446.116 701.263 511.955 717.757 544 721L544 719L530 718L530 713L547 712L579 684L582 684L582 680L576 673L563 676L578 660L577 619L539 600L516 577L512 577L512 573L509 573L509 569L505 563C515.038 560.355 523.063 557.59 519 546L512 529L509 529L509 514L512 511L530 510L529 508L533 508L533 505L554 504L551 466C559.93 460.76 554.504 451.836 554.794 444.004C554.964 439.435 558.183 435.976 560 432L565 432C564.924 427.484 565.62 413.99 561 413L562 418C547.783 421.85 545.766 413.86 546 401L540 390L553 390L560 384L560 376L540 359L529 348L529 341L515 336L516 317L506 300L514 310L522 311L535 328L542 331L541 333L550 335L549 338C560.418 328.126 567.911 317.804 574 304L582 294L564 290L563 279L575 278L574 276C584.867 266.958 589.879 257.723 593 244L568 237L555 237L502 196L486 210C479.547 207.975 481.848 199.481 482.036 194.013C482.447 182.113 480.012 153.312 495 151L495 148L533 127L540 123L540 119L568 95L571 92L604 65L619 64L619 70L616 69L615 82L614 82L614 75L613 75C611.398 89.3668 611.666 116.146 600 126L599 136L594 136L584 141L584 154L570 155L570 161L568 159L567 159L560 161L558 168L568 168L568 171L577 173L588 168L595 162L592 160L592 156L616 148L617 179C629.495 150.161 638.762 120.288 639.642 88.6111C640.388 61.781 633.26 42.6469 606 36z"/>
<path style="fill:#ebe6df; stroke:none;" d="M460 397L467 405L468 405C476.305 404.771 478.085 416.34 481.718 421.507C484.634 425.653 488.454 423.922 490 420L496 424L498 355C470.133 357.199 461.548 369.862 460 397M0 383L0 553C6.26583 546.053 12.5402 539.114 18.8733 532.227C46.2445 502.466 99.7569 454.951 55.5537 416.111C46.1377 407.837 34.9786 401.898 24 396L0 383M506 458L515 459L512 455C511.258 449.1 506.198 453.904 506 458M336 463L338 465L329 480L333 496L339 497L339 503L368 502L368 496L371 496L371 492L373 494L374 494L373 480L370 480L370 474L366 474L361 469L361 465L336 463M412 671L419 676L419 671L412 671z"/>
</svg>
