<?xml version="1.0" standalone="yes"?>
<svg width="661" height="773">
<path style="fill:#f5f3f0; stroke:none;" d="M0 0L1.0047e-11 184C1.44246e-10 200.997 -0.0461173 217.994 0.0128013 234.991C0.0434604 243.835 -0.930582 254.451 3.0306 262.648C6.58581 270.006 14.7287 272.434 22.117 274.118C37.6422 277.655 53.5578 279.193 69.2113 282.037C83.1399 284.568 96.9423 287.932 111.007 289.655C123.908 291.235 137.113 290.992 149.784 294.158C167.186 298.504 182.182 309.556 200.878 304.242C219.873 298.843 233.082 279.94 248 268L248 267L246 267L246 266L276 254L275 252C284.221 251.117 295.509 250.427 301 242C326.455 239.929 350.373 231.2 375.571 227.573C389.393 225.584 406.39 227.734 418.77 220.373C429.252 214.141 431.732 202.264 436.549 191.976C441.373 181.672 448.511 172.444 456.131 164.058C478.375 139.575 509.665 128.226 533.805 106.692C551.233 91.1445 565.709 71.0711 582.245 54.3515C591.984 44.5045 602.901 33.9902 616.96 31.0698C640.326 26.2159 643.422 49.0202 643.353 66.4301C643.209 102.885 637.121 145.581 622 179L620 179L606 156L584 173L585 176L578 178C569.007 190.339 559.21 202.16 544 192L549 193C549.506 186.984 553.57 181.043 552.891 174.967C552.236 169.105 546.235 174.451 545 177L536 171L544 168L551 165L551 161L568 156L579 141C593.945 131.866 603.013 122.326 607 105L607 104L610 86L613 72L614 72L614 74L615 74L615 68L582 79L575 83L553 108L551 107C538.668 119.477 525.659 129.09 510 137L505 144L502 143L495 151C479.869 165.158 479.662 194.951 484 214L485 223L491 221C491 213.827 481.316 202.842 493 197C497.867 194.567 511.959 209.163 512 209C533.532 217.662 556.112 229.757 572 247L578 247L577 245L593 244L591 275L574 276L575 278C564.513 283.621 569.421 289.918 577 296L569.328 327.285L547 356L547 358C557.295 372.75 558.516 384.228 540 391L547 401L546 403L541 406L543 418L541 417L541 428C547.176 427.99 551.042 426.881 555 422C559.669 420.483 559.913 415.345 560 411C567.688 424.69 563.586 435.337 558 449L564 448L556 472L560 473L557 496L555 500C550.113 501.751 529.971 505.178 530 510L520 512L521 516L512 522L523 545L532 553L532 554L518 567C523.099 577.58 529.127 584.623 539 591L568 618C583.625 631.792 578.645 654.988 565 668L565 669L567 669L567 670C563.597 670.729 564.013 672.806 564 676C566.693 676 580.657 669.373 579 676L585 675C576.466 690.53 565.644 700.757 550 709L544 715L539 715L539 716L556 715L547 717C546.536 720.547 541.25 721.343 538 721.944C528.407 723.721 520.219 722.565 511 719.556C501.848 716.568 491.554 711.056 482 710.083C474.66 709.336 468.159 711.403 461 711.917C454.474 712.385 449.456 708.659 443 712.083C436.569 715.494 426.805 727.72 423.083 734C417.042 744.195 421.857 770.896 436 772.917C459.611 776.29 486.123 773 510 773L661 773L661 0L0 0z"/>
<path style="fill:#423c34; stroke:none;" d="M301 242C294.668 249.861 284.476 250.872 275 252L276 254L246 266L246 267L248 267L248 268C232.187 279.728 218.738 299.538 198.931 304.455C179.132 309.369 161.897 295.486 142.926 292.541C95.2726 285.144 47.4774 279.261 0 270C9.79265e-18 294.998 -0.0460765 319.997 0.0075707 344.995C0.0315124 356.152 -1.45142 370.204 5.63094 379.689C19.45 398.197 49.8016 405.139 67.903 419.354C75.8915 425.628 85.0849 433.95 85.321 444.912C85.5401 455.086 78.7073 465.096 73.4607 473.328C55.0104 502.274 15.2934 517.872 3.37629 550.887C-4.46856 572.62 7.937e-08 601.219 5.32605e-09 624L0 773L434 773L434 772C425.536 764.858 416.874 750.341 421.231 739C423.794 732.332 429.269 728.193 433.861 723C437.629 718.739 440.148 713.362 445.866 711.366C450.849 709.626 455.946 712.177 461 711.935C468.163 711.593 474.686 709.2 482 710.264C494.435 712.073 506.636 719.115 519 722.12C524.731 723.513 546.041 724.758 547 717L556 715L539 716L539 715L544 715L550 709C566.099 701.234 576.937 690.999 585 675L579 676C578.156 669.899 567.634 674.73 564 676L567 670L567 669L565 669L565 668C578.954 655.993 584.259 630.718 568 618L539 591C529.536 584.401 523.343 577.221 518 567L532 554L532 553L523 545L512 522L521 516L520 512L530 510C530 504.981 550.264 502.56 555 500L557 496L560 473L556 472L564 448L558 449C561.865 435.78 575.148 422.682 560 411C560 415.719 558.447 422.862 555 422L541 428L541 417L543 418L541 406L546 403L547 401L540 391C558.805 384.646 557.9 372.483 547 358L547 356L569.874 327.283L577 296C569.831 289.878 564.939 283.662 575 278L574 276L591 275L595.833 257L593 244L577 245L578 247L572 247C556.579 229.308 533.758 217.06 512 209C511.153 202.977 494.51 193.874 489.569 200.083C483.763 207.381 490.247 213.638 491 221L485 223L484 214C480.394 193.663 480.524 167.084 495 151L502 143L505 144L510 137C526.045 129.511 538.997 120.026 551 107L553 108L575 83C577.996 82.9594 581.533 82.2011 582 79L615 68L615 74L614 74L614 72L613 72L610 86L607 104L607 105C602.241 121.905 593.503 131.429 579 141C579.169 150.46 571.461 149.374 568 156C559.781 151.891 554.113 161.778 551 161L551 165L544 168C540.052 167.183 537.784 167.122 536 171L545 177C545 174.607 551.924 168.548 553.333 173C555.488 179.804 546.764 186.464 549 193L544 192C557.749 207.29 570.379 190.82 578 178L585 176L584 173L606 156L620 179L622 179C637.625 145.915 643.557 102.337 643.559 66.0087C643.56 47.7927 640.019 25.3384 615.992 30.8882C601.974 34.1261 591.183 44.4539 581.388 54.3515C564.854 71.0582 550.443 91.2456 532.931 106.692C508.663 128.097 477.519 139.489 455.335 164.058C448.015 172.165 441.196 181.051 436.549 190.984C431.53 201.714 428.965 213.968 417.927 220.349C405.452 227.56 388.595 225.492 374.745 227.513C349.834 231.147 326.137 239.73 301 242z"/>
<path style="fill:#f5f3f0; stroke:none;" d="M613.667 65.3333L614.333 65.6667L613.667 65.3333z"/>
<path style="fill:#423c34; stroke:none;" d="M610 81L610 84L611 84L610 81M592 127L593 128L592 127M587 135L588 136L587 135z"/>
<path style="fill:#f5f3f0; stroke:none;" d="M581 142L581 144L583 144L581 142z"/>
<path style="fill:#423c34; stroke:none;" d="M608.333 158.667L608.667 159.333L608.333 158.667M607.333 166.667L607.667 167.333L607.333 166.667z"/>
<path style="fill:#f5f3f0; stroke:none;" d="M545 167L546 168L545 167M542 170L542 171L547 171L542 170M556 175L558 178L556 175M482 176L483 177L482 176z"/>
<path style="fill:#423c34; stroke:none;" d="M576 184L577 185L576 184M546.333 199.667L546.667 200.333L546.333 199.667z"/>
<path style="fill:#f5f3f0; stroke:none;" d="M493 224L491 230C494.331 229.286 494.591 226.762 493 224M63 281L64 282L63 281M460 355C458.288 369.092 461.019 380.256 467 393L477 404L477 405L475 407C484.729 400.255 490.322 393.285 494 382L492 383L492 377L494 378C493.636 364.659 490.495 356.751 478 351L479 349L460 355M480 349L481 350L480 349M0 382L0 550C22.2192 523.656 54.1475 503.92 72.8708 475.171C79.7329 464.634 89.4901 450.569 84.3385 437.482C77.4677 420.028 54.6804 408.844 39.0508 400.714C26.216 394.038 13.414 387.446 0 382M482 407L483 408L482 407M484 408L484 409L488 410L484 408M485 417L488 416L485 417z"/>
<path style="fill:#423c34; stroke:none;" d="M559 446L560 447L559 446z"/>
<path style="fill:#f5f3f0; stroke:none;" d="M503 448L519 460C517.178 451.574 507.896 451.608 503 448M351 471L355 476L352 477L352 487C355.347 491.844 358.82 492.504 360 486L364 487L365 486L360 481L361 477L357 478L358 471L351 471M512 519L513 520L512 519M510.333 520.667L510.667 521.333L510.333 520.667M516.333 570.667L516.667 571.333L516.333 570.667M575 623L576 624L575 623M412 671C413.616 675.823 417.537 674.617 420 671L412 671z"/>
<path style="fill:#423c34; stroke:none;" d="M591 688L584 695L584 699L593 688L591 688M581.667 699.333L582.333 699.667L581.667 699.333M554 713L554 714L560 714L554 713z"/>
</svg>
