<?xml version="1.0" standalone="yes"?>
<svg width="661" height="773">
<path style="fill:#ebe6df; stroke:none;" d="M0 0L0 271L28 275L28 278L53 279L53 282C81.0655 285.829 109.249 289.265 137.135 294.269C157.478 297.919 179.11 304.028 199.637 298.287C215.837 293.756 228.177 282.385 240 271L253 262L315 245L315 242L384 228C396.002 224.144 407.869 219.983 417.907 212.109C435.424 198.37 446.518 177.727 462.141 162.004C481.904 142.114 505.724 127.655 530 114C553.232 85.4998 578.058 59.9171 606 36C633.741 39.6205 641.138 57.9071 640.55 84.4055C639.816 117.511 630.854 149.15 617 179L616 148L592 156L595 162L588 168L577 173L568 171L568 168L558 168L560 161L570 161L570 155L584 154L584 141C588.447 140.659 591.891 140.224 594 136L599 136L600 126C611.833 116.501 611.63 89.2246 613 75L614 75L614 82L615 82C615.001 77.3841 613.878 71.7511 619 70L619 64L604 65L571 92L568 95L540 119L540 123C536.53 123.248 534.039 123.449 533 127L495 148L495 151C479.84 152.698 482.378 182.153 482.018 194.018C481.859 199.254 479.061 208.899 486 210L502 196L555 237L568 237C571.054 245.697 585.725 244 593 244C589.679 257.52 584.522 266.815 574 276L575 278L563 279L564 290L582 294L574 304C567.734 317.574 560.132 328.012 549 338L550 335L541 333L542 331L535 328L522 311L514 310L506 300L516 317L515 336L529 341L529 348L540 359L560 376L560 384L553 390L540 390L546 401C545.444 414.147 547.477 422.325 562 418L561 413L565 432L560 432L551 466L554 504L533 505L533 508L529 508L530 510L512 511L509 514L509 529L512 529L519 546C520.595 556.74 514.305 559.795 505 563L509 569L509 573L512 573L512 577L516 577C520.688 589.819 531.353 590.513 539 600L577 619L578 660L563 676L576 673L582 680L582 684L579 684C578.024 691.197 566.363 701 559.94 704.329C555.783 706.483 548.418 707.153 547 712L530 713L530 718L544 719L544 721C516.397 718.348 481.926 707.924 455.096 718.236C431.538 727.29 425.91 756.007 451.49 766.532C474.024 775.803 502.17 772.948 526.006 772.986C571.004 773.057 616.002 773 661 773L661 0L0 0z"/>
<path style="fill:#37342e; stroke:none;" d="M606 36C577.63 59.6093 552.93 85.0963 530 114C521.75 115.173 512.147 122.286 504.715 126.171C486.665 135.604 468.605 150.319 454.871 165.124C448.612 171.872 439.944 178.305 435.008 186.089C429.114 195.387 436.501 207.584 428.526 216.7C423.387 222.575 412.837 227.008 405 225.741C399.233 224.808 386.661 220.432 384 228L315 242L315 245L253 262L240 271C227.881 282.317 215.245 293.697 198.842 298.124C178.55 303.6 157.229 297.624 137.135 294.061C109.249 289.116 81.0715 285.71 53 282L53 279L28 278L28 275L0 271L0 383L24 396C45.9842 406.84 76.8377 422.507 75.1985 451.498C74.2096 468.987 62.1103 484.112 51.1626 496.818C34.3028 516.386 15.3713 534.642 7.02669 559.774C-1.83498 586.464 0.0495552 616.266 0.0122891 644.003C-0.0454836 687.002 8.26602e-11 730.001 0 773L434 773C432.745 765.098 431.442 757.078 432.236 749.057C436.673 704.219 492.844 715.603 522.968 718.946C529.97 719.723 536.984 720.369 544 721L544 719L530 718L530 713L547 712L579 684L582 684L582 680L576 673L563 676L578 660L577 619L539 600L516 577L512 577L512 573L509 573L509 569L505 563C515.038 560.355 523.063 557.59 519 546L512 529L509 529L509 514L512 511L530 510L529 508L533 508L533 505L554 504L551 466C559.93 460.76 554.504 451.836 554.794 444.004C554.964 439.435 558.183 435.976 560 432L565 432C564.924 427.484 565.62 413.99 561 413L562 418C547.783 421.85 545.766 413.86 546 401L540 390L553 390L560 384L560 376L540 359L529 348L529 341L515 336L516 317L506 300L514 310L522 311L535 328L542 331L541 333L550 335L549 338C560.418 328.126 567.911 317.804 574 304L582 294L564 290L563 279L575 278L574 276C584.867 266.958 589.879 257.723 593 244L568 237L555 237L502 196L486 210C479.547 207.975 481.848 199.481 482.036 194.013C482.447 182.113 480.012 153.312 495 151L495 148L533 127L540 123L540 119L568 95L571 92L604 65L619 64L619 70L616 69L615 82L614 82L614 75L613 75C611.398 89.3668 611.666 116.146 600 126L599 136L594 136L584 141L584 154L570 155L570 161L568 159L567 159L560 161L558 168L568 168L568 171L577 173L588 168L595 162L592 160L592 156L616 148L617 179C631.355 148.981 640.113 116.897 640.718 83.4475C641.194 57.108 633.922 38.5818 606 36z"/>
<path style="fill:#ebe6df; stroke:none;" d="M460 397L467 405L468 405C476.305 404.771 478.085 416.34 481.718 421.507C484.634 425.653 488.454 423.922 490 420L496 424L498 355C492.469 354.813 486.873 354.572 481.385 355.459C460.244 358.876 459.413 379.569 460 397M0 383L0 553C6.18614 546.022 12.3839 539.055 18.7073 532.2C41.8278 507.139 96.0707 464.887 67.9658 426.494C64.3074 421.497 59.7562 417.198 54.8505 413.442C45.4227 406.223 34.6724 401.077 24 396L0 383M506 458L515 459L512 455C511.258 449.1 506.198 453.904 506 458M336 463L338 465L329 480L333 496L339 497L339 503L368 502L368 496L371 496L371 492L373 494L374 494L373 480L370 480L370 474L366 474L361 469L361 465L336 463M412 671L419 676L419 671L412 671z"/>
</svg>
