<?xml version="1.0" standalone="yes"?>
<svg width="661" height="773">
<path style="fill:#f5f2ef; stroke:none;" d="M0 0L0 271L28 275L28 278L101 290C131.195 293.706 165.159 303.276 195.364 296.089C214.541 291.525 230.524 279.607 247.095 269.555C261.124 261.044 275.871 254.288 291 248C311.234 241.904 331.534 236.324 352.175 231.765C371.924 227.403 392.633 223.87 410.298 213.469C431.823 200.796 446.23 179.137 463.841 161.965C483.553 142.742 506.477 128.063 530 114C553.506 85.8361 578.219 59.9873 606 36C663.888 56.447 633.643 138.084 617 179L616 172L578 193C574.187 192.181 571.416 191.977 570 196L564 196L550 203L551 192L560 183L562 173L560 161L570 161L570 155L584 154L584 141C588.447 140.659 591.891 140.224 594 136L599 136L600 126C611.833 116.501 611.63 89.2246 613 75L614 75L614 82L615 82C615.001 77.3841 613.878 71.7511 619 70L619 64L604 65L571 92L568 95L540 119L540 123C536.53 123.248 534.039 123.449 533 127L495 148L495 151C479.84 152.698 482.378 182.153 482.018 194.018C481.859 199.254 479.061 208.899 486 210L502 196L555 237L568 237C571.054 245.697 585.725 244 593 244C589.679 257.52 584.522 266.815 574 276L575 278L563 279L564 290L582 294L574 304L551 365L552 365L557 364L560 384L553 390L540 390L546 401C544.774 408.09 544.538 431.948 556.042 417.037C557.514 415.129 558.746 413.052 560 411L568 411L558 439L560 448L564 448L563 478L562 478L562 476L561 476L558 496L555 496L554 504L540 505L540 506L542 507C538.238 508.005 534.643 509.428 530.951 510.654C528.424 511.493 526.091 512.369 524.019 514.098C508.155 527.335 527.165 539.904 529.11 554.077C530.292 562.685 514.234 568.965 524 575L526 587C535.397 588.073 541.244 593.808 547 601L577 619L578 660L563 676L576 673L582 680L582 684L579 684L578 694L558.986 704.769L547 712L530 713L530 718L544 719L544 721C517.097 718.104 484.279 710.349 458.21 720.728C433.993 730.37 433.372 756.248 457.848 765.769C481.261 774.877 509.372 772.839 534.027 772.947C576.35 773.133 618.676 773 661 773L661 0L0 0z"/>
<path style="fill:#3f3933; stroke:none;" d="M606 36C577.863 59.7345 553.268 85.5061 530 114C521.991 114.874 511.873 122.364 504.741 126.236C479.06 140.177 453.594 161.43 435.569 185.134C426.021 197.691 439.658 214.449 420 222.843C408.511 227.748 399.607 222.314 388.019 224.157C372.818 226.576 356.264 227.997 341 231.477C335.623 232.703 331.059 236.648 325.94 237.787C317.883 239.579 293.863 238.214 291 248C275.571 254.226 260.567 260.964 246.303 269.581C229.719 279.6 213.728 291.447 194.523 295.892C164.562 302.825 130.962 293.532 101 290C99.0394 284.424 86.4105 283.148 81 282.986C63.4966 282.464 45.8916 278.002 28 278L28 275L0 271L0 383L24 396C34.1513 402.382 44.473 408.75 53.3682 416.856C57.7017 420.805 61.6934 425.196 64.799 430.187C88.5568 468.368 38.672 505.842 20.4114 534.398C13.1248 545.793 7.87947 558.227 4.91824 571.429C-1.1014 598.267 0.0778708 626.671 0.0229631 654.003C-0.0567198 693.669 1.16479e-07 733.335 0 773L434 773C433.903 763.405 433.749 753.548 436.767 744.319C450.297 702.935 512.354 717.757 544 721L544 719L530 718L530 713L547 712L578 694L579 684L582 684L582 680L576 673L563 676L578 660L577 619L547 601C544.713 593.174 533.914 587.247 526 587L524 575C525.277 548.726 521.679 526.761 542 507L540 506L540 505L554 504L555 496L558 496L561 476L562 476L562 478L563 478L564 448L560 448L558 439C566.946 430.901 568.509 422.758 568 411L560 411C558.8 412.845 557.621 414.711 556.259 416.443C544.768 431.063 544.854 408.436 546 401L540 390L553 390L560 384L557 364L552 365L551 365L574 304L582 294L564 290L563 279L575 278L574 276C584.867 266.958 589.879 257.723 593 244L568 237L555 237L502 196L486 210C479.547 207.975 481.848 199.481 482.036 194.013C482.447 182.113 480.012 153.312 495 151L495 148L533 127L540 123L540 119L568 95L571 92L604 65L619 64L619 70L616 69L615 82L614 82L614 75L613 75C611.398 89.3668 611.666 116.146 600 126L599 136L594 136L584 141L584 154L570 155L570 161L568 159L567 159L560 161L562 173L560 183L551 192L550 203C555.945 202.134 560.304 200.958 564 196L570 196L578 193L616 172L617 179C628.783 150.711 638.13 121.594 639.109 90.6939C639.965 63.6578 632.748 44.3685 606 36z"/>
<path style="fill:#f5f2ef; stroke:none;" d="M471 348L460 356L464 390L467 390L466 396L475 400L475 395L479 396L477 400L492 375L495 375L498 355L471 348M0 383L0 547L1 547L18.9204 529.313C46.089 502.376 95.1715 458.206 57.2731 419.972C47.613 410.226 35.6278 403.11 24 396L0 383M506 458L515 459L512 455C511.258 449.1 506.198 453.904 506 458M412 671L419 676L419 671L412 671z"/>
<path style="fill:#3f3933; stroke:none;" d="M593 684L581 702L593 684z"/>
</svg>
