<?xml version="1.0" standalone="yes"?>
<svg width="661" height="773">
<path style="fill:#ebe6df; stroke:none;" d="M0 0L0 271L28 275L28 278L53 279L53 282C81.7067 285.881 110.652 289.157 139.129 294.506C158.92 298.224 179.851 304.922 199.929 299.345C216.325 294.791 228.465 282.854 240 271L253 262L315 245L315 242L384 228C395.879 224.671 407.78 221.106 417.701 213.471C435.065 200.109 445.115 178.835 460.294 163.197C480.35 142.531 504.948 127.755 530 114C553.106 85.3187 577.809 59.7317 606 36C634.404 37.2629 641.697 55.7855 641.088 82.2838C640.313 116.035 631.904 148.833 617 179L616 148L592 156L595 162L588 168L577 173L568 171L568 168L558 168L560 161L570 161L570 155L584 154L584 141C588.447 140.659 591.891 140.224 594 136L599 136L600 126C611.833 116.501 611.63 89.2246 613 75L614 75L614 82L615 82C615.001 77.3841 613.878 71.7511 619 70L619 64L604 65L571 92L568 95L540 119L540 123C536.53 123.248 534.039 123.449 533 127L495 148L495 151C479.84 152.698 482.378 182.153 482.018 194.018C481.859 199.254 479.061 208.899 486 210L502 196L555 237L568 237C571.054 245.697 585.725 244 593 244C589.679 257.52 584.522 266.815 574 276L575 278L563 279L564 290L582 294L574 304C568.237 318.217 560.927 328.332 549 338L550 335L541 333L542 331L535 328L522 311L514 310L506 300L516 317L515 336L529 341L529 348L540 359L560 376L560 384L553 390L540 390L546 401C545.444 414.147 547.477 422.325 562 418L561 413L565 432L560 432L551 466L554 504L533 505L533 508L529 508L530 510L512 511L509 514L509 529L512 529L519 546C520.595 556.74 514.305 559.795 505 563L509 569L509 573L512 573L512 577L516 577C520.688 589.819 531.353 590.513 539 600L577 619L578 660L563 676L576 673L582 680L582 684L579 684C578.024 691.197 566.363 701 559.94 704.329C555.783 706.483 548.418 707.153 547 712L530 713L530 718L544 719L544 721C516.001 718.629 480.669 706.79 453.533 717.429C429.968 726.668 423.671 756.658 449.785 767.137C472.214 776.136 500.343 772.975 524.002 772.994L661 773L661 0L0 0z"/>
<path style="fill:#37342e; stroke:none;" d="M606 36C577.341 59.3802 552.771 84.8864 530 114C521.75 115.173 512.147 122.286 504.715 126.171C486.665 135.604 468.605 150.319 454.871 165.124C448.612 171.872 439.944 178.305 435.008 186.089C429.114 195.387 436.501 207.584 428.526 216.7C423.387 222.575 412.837 227.008 405 225.741C399.233 224.808 386.661 220.432 384 228L315 242L315 245L253 262L240 271C228.155 282.777 215.708 294.754 199.112 299.193C178.988 304.577 158.001 297.753 138.179 294.118C110.005 288.952 81.3963 285.705 53 282L53 279L28 278L28 275L0 271L0 383L24 396C46.2929 406.254 78.6661 422.01 76.7044 451.355C75.591 468.011 64.1158 482.499 53.5519 494.541C35.9977 514.551 15.2407 532.639 6.53798 558.627C-2.17173 584.636 0.0271299 613.967 0.00618333 641.001L0 773L434 773C432.356 765.568 430.667 758.04 430.898 750.379C432.335 702.614 491.797 715.529 522.043 718.994C529.347 719.831 536.672 720.428 544 721L544 719L530 718L530 713L547 712L579 684L582 684L582 680L576 673L563 676L578 660L577 619L539 600L516 577L512 577L512 573L509 573L509 569L505 563C515.038 560.355 523.063 557.59 519 546L512 529L509 529L509 514L512 511L530 510L529 508L533 508L533 505L554 504L551 466C559.93 460.76 554.504 451.836 554.794 444.004C554.964 439.435 558.183 435.976 560 432L565 432C564.924 427.484 565.62 413.99 561 413L562 418C547.783 421.85 545.766 413.86 546 401L540 390L553 390L560 384L560 376L540 359L529 348L529 341L515 336L516 317L506 300L514 310L522 311L535 328L542 331L541 333L550 335L549 338C561.268 328.478 568.452 318.486 574 304L582 294L564 290L563 279L575 278L574 276C584.867 266.958 589.879 257.723 593 244L568 237L555 237L502 196L486 210C479.547 207.975 481.848 199.481 482.036 194.013C482.447 182.113 480.012 153.312 495 151L495 148L533 127L540 123L540 119L568 95L571 92L604 65L619 64L619 70L616 69L615 82L614 82L614 75L613 75C611.398 89.3668 611.666 116.146 600 126L599 136L594 136L584 141L584 154L570 155L570 161L568 159L567 159L560 161L558 168L568 168L568 171L577 173L588 168L595 162L592 160L592 156L616 148L617 179C632.588 148.479 640.818 114.713 641.256 80.3633C641.588 54.2617 634.034 36.2015 606 36z"/>
<path style="fill:#ebe6df; stroke:none;" d="M460 397L467 405L468 405C476.305 404.771 478.085 416.34 481.718 421.507C484.634 425.653 488.454 423.922 490 420L496 424L498 355C492.307 354.45 486.54 353.835 480.828 354.483C458.489 357.015 458.539 379.405 460 397M0 383L0 553C6.35533 545.738 12.727 538.49 19.2807 531.405C42.7297 506.056 99.3865 463.146 68.0486 424.646C64.0214 419.698 59.1541 415.47 53.9575 411.794C44.6927 405.239 34.3368 400.572 24 396L0 383M506 458L515 459L512 455C511.258 449.1 506.198 453.904 506 458M336 463L338 465L329 480L333 496L339 497L339 503L368 502L368 496L371 496L371 492L373 494L374 494L373 480L370 480L370 474L366 474L361 469L361 465L336 463M412 671L419 676L419 671L412 671z"/>
</svg>
