<?xml version="1.0" standalone="yes"?>
<svg width="661" height="773">
<path style="fill:#f5f4f1; stroke:none;" d="M0 0L0 271L38 276L38 279L101 290C131.039 292.686 164.428 303.228 194.456 298.935C206.871 297.16 217.997 291.731 229 286L240 271C249.889 266.207 258.019 258.547 268.318 254.564C279.601 250.201 291.948 251.188 300 241C321.803 237.807 343.459 233.958 365.089 229.761C380.63 226.745 397.015 224.05 410.961 216.138C431.89 204.266 443.806 181.085 459.891 163.96C479.028 143.585 502.283 128.317 523.938 110.889C545.582 93.4695 563.202 71.5874 585.054 54.4995C594.634 47.0078 607.417 38.5724 620.248 40.7499C636.592 43.5237 640.205 63.0203 640.837 76.7589C642.422 111.239 632.08 146.109 623 179L618 172C614.517 169.471 613.446 164.351 609.964 162.312C601.921 157.606 589.658 169.467 587 176L578 178L578 182L571 183L568 195L564 195L564 199L554 200L555 203L550 203L544 192L550 194L553 186L554 182L552 175L554 172L542 178L536 172L551 165C552.185 153.796 568.994 158.738 570 152L577 151L578 139L591 133L600 124L605.922 113.154L610 80L611 80L611 86L612 86L613 75L614 75L614 82L615 82L615 68L571 92L568 95L540 119L540 123C536.53 123.248 534.039 123.449 533 127L495 148L495 151C479.138 164.526 480.644 195.095 484 214L484 222L491 221C502.351 190.807 541.035 224.505 555 237L568 237L572 247L577 247L576 245L593 244C589.679 257.52 584.522 266.815 574 276L575 278L563 279L564 290L574 296L578 296C570.208 318.253 559.803 336.657 545 355L557 376L560 376L560 384L553 390L540 390L546 401C544.774 408.09 544.538 431.948 556.042 417.037C557.514 415.129 558.746 413.052 560 411L568 411C567.275 422.105 566.453 431.067 558 439L560 448L564 448L554 504L533 505L533 508L529 508L530 510L520 512L512 524L523 545L527 545L533 549L533 555L530 555C527.582 561.813 515.592 569.804 524 575L526 587C535.397 588.073 541.244 593.808 547 601L577 619L578 660L563 676L585 675L585 684L579 684L578 694L549.19 708.778L541 716L552 716L552 717L547 717C517.644 718.082 480.993 708.092 453.361 720.001C430.298 729.941 427.534 757.178 452.25 766.843C475.032 775.752 503.028 772.953 527.005 772.987C571.67 773.051 616.335 773 661 773L661 0L0 0z"/>
<path style="fill:#433c34; stroke:none;" d="M300 241C291.122 250.862 279.02 250.025 267.386 254.564C257.371 258.471 249.382 265.902 240 271L229 286C217.705 291.75 206.294 297.153 193.584 298.787C163.715 302.626 130.879 292.535 101 290C98.8704 283.944 91.1623 286.771 86.0895 285.165C70.357 280.184 54.539 279 38 279L38 276L0 271L0 383L24 396L38 398L86 438C78.9931 456.574 70.4911 473.47 57.7369 488.826C40.2889 509.832 18.298 527.772 8.29917 553.949C-1.87146 580.577 0.065295 611.001 0.01646 639.004C-0.0614337 683.669 6.83353e-11 728.335 0 773L434 773C429.805 763.655 422.039 759.07 420.412 748C418.938 737.969 424.941 733.75 430.546 726.806C434.212 722.264 436.568 716.109 442.019 713.046C448.173 709.588 455.394 712.11 462 711.995C468.773 711.878 475.145 709.494 482 710.065C487.676 710.538 491.777 714.383 497 716.13C502.58 717.996 508.293 717.639 514 719.741C521.066 722.343 543.958 727.443 547 717L552 717L552 716L541 716L578 694L579 684L585 684L585 675L563 676L578 660L577 619L547 601C544.713 593.174 533.914 587.247 526 587L524 575L530 555L533 555L533 549L527 545L523 545L512 524L520 512L530 510L529 508L533 508L533 505L554 504L564 448L560 448L558 439C567.118 431.436 567.482 422.205 568 411L560 411C558.8 412.845 557.621 414.711 556.259 416.443C544.768 431.063 544.854 408.436 546 401L540 390L553 390L560 384L560 376L557 376L545 355C560.173 336.758 570.45 318.498 578 296L574 296C572.801 291.897 567.922 290.742 564 290L563 279L575 278L574 276C584.867 266.958 589.879 257.723 593 244L576 245L577 247L572 247L568 237L555 237C541.176 224.23 502.021 190.099 491 221L484 222L484 214C480.97 194.437 479.492 165.582 495 151L495 148L533 127L540 123L540 119L568 95L571 92L615 68L615 82L614 82L614 75L613 75L612 86L611 86L611 80L610 80L600 124L591 133L578 139L577 151L570 152C570 155.776 564.852 154.454 562 155.167C555.907 156.69 551 157.92 551 165C546.239 165.432 537.69 167.192 536 172L542 178L554 172L552 175L554 182L553 186L550 194L544 192L550 203L555 203L554 200L564 199L564 195L568 195L571 183L578 182L578 178L587 176L586 173C591.84 169.832 602.416 158.031 609.964 162.992C613.503 165.318 613.995 169.782 618 172L623 179C632.339 145.832 642.704 110.656 640.953 75.8281C640.263 62.1028 636.583 42.8251 620.259 40.14C607.432 38.03 594.662 46.3596 585.054 53.835C563.157 70.8718 545.559 92.8049 523.938 110.252C502.328 127.69 479.041 142.886 459.891 163.208C443.725 180.363 431.825 203.575 410.961 215.659C397.048 223.716 380.662 226.506 365.089 229.552C343.457 233.784 321.793 237.69 300 241z"/>
<path style="fill:#f5f4f1; stroke:none;" d="M458 356L464 390L467 393L472 393L474 402C485.574 392.194 500.287 368.878 479.93 358.878C473.211 355.577 465.284 355.912 458 356M0 383L0 553C3.53929 550.155 2.95164 545.795 5.21258 542C8.99508 535.652 15.1903 529.916 20.5504 524.868C38.2422 508.208 63.1208 496.058 74.9669 473.734C79.2599 465.644 85.5095 456.403 88.6865 447.941C90.2492 443.778 90.4287 439.756 86 438L38 398L24 396L0 383M519 460L509 449C497.502 454.284 513.591 459.923 519 460M354 481L352 488L355 491L360 491L360 487L365 486L362 480L354 481M412 671L419 676L419 671L412 671z"/>
<path style="fill:#433c34; stroke:none;" d="M585 698L590 696L593 688L585 698z"/>
</svg>
