<?xml version="1.0" standalone="yes"?>
<svg width="661" height="773">
<path style="fill:#faf8f6; stroke:none;" d="M0 0L0 266C37.9047 273.104 75.8624 279.868 113.961 285.855C139.73 289.904 166.796 295.148 192.833 290.556C227.001 284.529 255.524 261.101 287.151 248.106C329.363 230.76 373.727 224.818 419 223L419 219C430.75 199.852 442.923 181.104 458.189 164.522C478.211 142.774 502.109 125.24 524.562 106.168C545.366 88.496 564.731 69.3096 584 50C592.845 46.8174 602.064 43.2551 611.601 43.2582C636.969 43.2665 641.725 72.4914 641.626 92.3235C641.405 136.603 626.939 181.185 617 224C611.318 223.067 608.434 221.283 606 216L603 214L592 218L589 224L587 234L598 238C590.406 276.076 575.703 313.907 572.272 352.611C570.169 376.33 573.712 399.974 574.512 423.663C575.218 444.568 573.37 465.253 571 486C569.28 481.862 565.497 480.521 562.798 484.998C557.127 494.404 559.419 505.42 547 510L539 514C538.132 525.554 539.976 530.192 547 539L568 545L569 550L559 549L557 556L554 556L554 560L547 560L540 571L540 583L564 584L564 587L574 600L584 621L587 621L588 634L585.222 636.028L582 659L589 651C592.054 650.346 591.936 648.993 592 646L594 648L595 648L603 626L604 626L604 633L601 633L600 653L593 657L601 660C583.761 686.951 564.395 708.246 531.86 715.12C508.294 720.099 466.661 713.875 450.331 735.841C433.372 758.653 475.973 768.764 489.954 770.497C545.983 777.439 604.63 773 661 773L661 0L0 0z"/>
<path style="fill:#a7a194; stroke:none;" d="M584 50C564.422 69.2766 544.783 88.4731 523.786 106.219C501.3 125.222 477.409 142.764 457.516 164.616C442.449 181.168 430.518 199.895 419 219L419 223C373.729 224.658 329.402 230.517 287.151 247.736C255.486 260.641 226.956 284.007 192.833 290.146C166.808 294.828 139.737 289.664 113.961 285.647C75.8679 279.712 37.9126 272.987 0 266L0 271L28 275L28 278L53 279L53 282C78.4007 285.677 103.769 289.576 129.17 293.25C150.759 296.372 173.33 299.686 194.858 294.433C211.708 290.321 225.993 280.834 240 271L253 262L277 255L277 252L294 252L294 253L283 253L283 254L315 245L315 242C346.446 235.001 380.629 229.871 408.628 213C431.184 199.408 447.779 178.368 466.812 160.586C486.086 142.579 507.75 128.024 530 114C553.906 86.408 579.07 60.649 606 36C657.649 63.1639 634.192 131.023 620 175L620 172L616 172L616 148L592 152L591 152L588 168L577 173L568 171L570 155L584 154L583 149L591 142L599 144L608 136L608 122L613 122C613.701 108.461 610.709 95.0726 614.263 81.5676C615.446 77.07 613.837 71.765 619 70L619 64L604 65L604 68L596 68C590.101 74.5902 582.224 76.5346 574 79L571 92L568 95C554.852 98.2779 551.307 109.922 541.412 117.686C533.766 123.686 520.078 127.835 515 136L505 137C490.095 166.225 485.078 193.32 485 226L487 224L488 233C498.057 232.471 496.937 216.053 489 213C495.661 202.148 504.481 205.267 515 209L515 213L555 237L571 244L571 248L592 245C583.624 256.969 574.377 266.836 563 276L560 279L561 291L564 291L564 296L574 300L571 320C565.908 329.648 558.952 333.98 549 338L550 335L544 334L536 327L522 311L514 310L506 300L512 311L512 312L509 312L509 313L518 318L516 334L540 359L560 376L560 384L553 390L540 390L546 401C538.671 406.189 540.166 419.768 540 428C545.009 428.909 551.73 430.729 554 425L543 427L544 406C550.377 411.098 553.024 415.899 554 424L555 424L562 418L561 413L564 424L567 424L567 432C556.481 441.199 555.339 459.06 555.739 472.423C555.982 480.551 558.352 489.634 552.99 496.737C547.172 504.445 534.627 504.713 526 507L526 510L512 511L509 514L509 529L512 529L526 545C521.578 552.979 516.374 558.645 509 564L516 573L516 577L519 577C521.934 589.07 531.927 591.356 539 600L547 600L547 604L555 604L560 609L560 614L565 619L575 619L575 633L576 633L576 629L577 629L578 660L563 676L576 673L582 680L582 684L579 684C578.024 691.197 566.363 701 559.94 704.329C555.783 706.483 548.418 707.153 547 712L530 713L530 718L544 719L544 721L498 717C491.989 707.821 476.68 708.985 467 709.513C459.791 709.906 451.231 707.84 444.525 711.114C439.259 713.685 435.559 718.792 432.023 723.278C418.24 740.766 416.566 758.26 436 773C437.784 763.303 439.572 753.341 444.451 744.636C463.059 711.434 513.237 722.41 544.017 712.252C570.733 703.435 586.669 683.017 601 660L593 657L600 653L601 633L604 633L604 626L603 626L595 648L594 648L592 646L589 651L582 659L586.657 643.027L588 634L587 621L584 621L574 600L564 587L564 584L540 583L540 571C544.292 568.067 545.84 565.012 547 560L554 560L554 556L557 556L559 549L569 550L568 545L547 539L540.787 531.921L539 514C542.9 513.913 545.47 513.865 547 510C559.761 507.059 557.68 494.812 562.703 485.697C565.242 481.089 568.867 481.777 571 486C573.479 465.211 575.386 444.495 574.71 423.533C573.957 400.184 570.582 376.875 572.595 353.499C575.951 314.514 590.647 276.415 598 238L587 234L589 224C592.403 223.271 591.987 221.194 592 218L603 214L606 216C608.203 221.587 611.129 223.278 617 224C627.205 180.936 641.8 136 641.825 91.392C641.836 71.502 636.836 42.0702 611.232 42.7105C601.774 42.9471 592.711 46.6605 584 50z"/>
<path style="fill:#8b745b; stroke:none;" d="M606 36C578.805 60.4548 553.701 86.1448 530 114C507.718 127.75 486.051 142.056 466.812 159.935C447.701 177.697 431.132 198.793 408.628 212.532C380.672 229.599 346.476 234.867 315 242L315 245L283 254L283 253L294 253L294 252L277 252L277 255L253 262L240 271C225.729 280.758 211.185 290.182 194.143 294.219C172.514 299.343 149.897 296.018 128.226 292.916C103.143 289.326 78.0883 285.552 53 282L53 279L28 278L28 275L0 271L2 328L8 326L8 331L4 331L4 335L12 332L13 347L16 347L8 356L0 350L0 383L24 396C47.6245 411.023 72.2759 428.354 71.5868 459.396C71.3482 470.144 68.626 480.639 66 491C42.1759 511.472 20.474 533.178 0 557C34.4915 520.419 67.3785 484.897 94 442C99.4907 441.302 112.014 440.649 114 435C122.148 429.022 120.906 420.018 120 411L114 402L111 403L111 390C118.382 393.885 133.032 394.451 142 393C145.586 392.42 144.723 386.706 148 389L148 380L145 380L145 376L126 370L126 362L122 362C122 357.434 123.313 350.554 118 349L113 329L111 331L105 304L134 304C140.974 312.854 155.636 311.703 166 313C166.641 319.17 167.929 323.204 173 327L173 331L190 334L200 332L211 324L210 318L214 318L236 304L248 289L293 273L291 277L299 277L299 282L310 280L309 277L315 274L303 272L312 269L322 247L342 245L342 241L382 238L392 233L391 238C410.295 224.383 427.192 209.551 443 192L461 158L468 158L468 165C461.6 166.305 452.236 182.122 461 184L460 188L464 188C465.499 191.529 467.291 192.343 471 193L477 223L480 223L481 238C486.526 241.547 489.164 249.896 491 256L500 258L501 258L503 254L525 246L522 262L520 261C525.864 268.238 531.877 270.734 541 272L544 275L544 286L568 299C568.165 311.718 568.353 322.349 557 330L557 325L550 324L547 321L547 316L540 314L540 311L533 311L533 307L526 296L514 293L489 267L488 261L492 261L492 259L476 256L475 261L480 259L480 268L472 272L480 288L476 288L478 293L485 292L484 297L488 297L488 304L482 304L488 310L488 314L474 314L470 310L470 306L464 306L465 301L471 301L457 292L454 294C446.869 286.159 439.207 282.508 429 280C421.831 272 414.203 268.092 404 265L405 256L393 248L392 248L384 251L384 248L373 246L374 256C368.603 256 371.373 261.187 375 263C376.976 263.988 378.413 261.735 380 262C382.768 262.461 382.297 263.812 382 265L392 266L397 270L396 275L402 276L402 277L400 277L400 278L408 280L411 284L408 286L424 297L430 300L435 300L435 304L440 303L440 306L458 314L464 321L473 323L473 327L481 341L450 353L457 407L464 407L468 439L473 440L477 458L484 462L523 477L526 477L526 474L530 474L532 481L526 482L531 488L532 494L538 498L504 500L504 499L512 499L512 498L488 503C488.931 514.597 490.193 524.662 500 532L499 547C493.849 546.843 490.979 547.675 488 552L482 552L495 576L502 581L504 579L505 579L514 587C507.653 597.742 490.936 608.267 505 619L505 622C512.863 621.996 522.427 623.701 527 616L523 617L526 610C529.463 616.872 540.126 609.038 547 609L553 630L552 630L552 627L551 627L551 632L558 632L571 623C571 629.482 567.802 647.469 575 650L574 660L578 660L577 629L576 629L576 633L575 633L575 619L565 619L560 614L560 609L555 604L547 604L547 600L539 600L519 577L516 577L516 573L509 564C516.595 558.749 521.736 553.206 526 545L512 529L509 529L509 514L512 511L526 510L526 507C549.491 486.038 557.944 461.43 567 432L567 424L564 424C564 420.116 565.581 413.982 561 413L562 418L551.889 428.278L543 432L555 431C544.613 442.127 533.924 449.837 520 456L526 460L526 461L521 462L502 456L502 448L515 453L512 414L514 398L503 406L499 406L499 372L502 372L502 366L523 353L533 356L533 362L548 377L543 376L536 379L536 384L547 389C539.439 394.804 535.755 400.924 533 410L540 410L539 428L540 428L546 401L540 390L553 390L560 384L560 376L540 359L516 334L518 318L509 313L509 312L512 312L512 311L509 311L506 300L514 310L522 311L536 327L544 334L550 335L549 338C556.32 337.995 565.567 336.798 571.772 332.481C576.192 329.406 576.246 321.845 571 320L574 300L564 296L564 291L561 291L560 279L563 276C574.617 266.966 583.773 257.203 592 245L571 248L571 244L555 237L515 213L515 209C504.418 204.955 495.533 201.808 489 213C496.062 217.182 498.167 231.912 488 233L487 224L485 226C485.215 193.398 490.291 166.227 505 137L515 136C521.504 127.964 534.038 124.231 542.22 117.686C551.892 109.95 555.49 99.1754 568 95L571 92L574 79C582.277 76.8417 590.602 75.1072 596 68L604 68L604 65L619 64L619 70L616 69L613 122L608 122L608 136L599 144L591 142L592 145L583 149L584 154L570 155L568 171L577 173L588 168L591 152L592 152C595.673 155.485 601.247 148.911 605.315 147.834C608.703 146.938 612.539 147.902 616 148L616 172L620 172L620 175C629.88 166.19 630.734 153.298 633.442 141.001C639.553 113.249 643.615 86.5588 642.86 58.0031C642.676 51.0361 642.887 42.702 639.294 36.4713C632.006 23.8323 615.142 29.132 606 36z"/>
<path style="fill:#2f2d29; stroke:none;" d="M619 40L620 50L629 48L633 79L632 79L632 76C627.188 78.3556 627.103 82.0173 627 87L623 87L629 97L626 101L637 60L633 60L636 54L637 54L637 46L633 46L633 40L623 40L624 43L622 40L619 40M608 41L582 67C586.041 64.8613 587.121 61.3113 588 57L610 48L610 45L616 46L616 42L608 41M633 114L634 105C628.777 106.652 630.181 110.387 633 114M461 158L443 192L428.664 222.453L391 238L392 233C387.381 233.292 384.529 233.951 382 238L342 241L342 245L322 247L312 269C307.883 268.104 304.718 267.667 303 272L315 274L309 277L310 280L299 282L299 277L291 277L293 273C283.428 273.051 275.77 280.107 266.844 282.32C259.57 284.123 252.676 281.796 248 289L236 304L214 318L210 318L211 324L200 332C196.362 331.022 190.994 329.361 190 334L173 331L173 327C168.396 322.941 166.814 319.024 166 313L134 304L105 304L111 331L113 329L118 349L122 362L126 362L126 370L145 376L145 380L148 380L148 389L146 387L111 390L111 403L114 402L112 404L120 411L114 435L94 442C82.2783 460.512 70.1034 478.57 56.4229 495.705C39.9197 516.375 21.9217 536.367 12.073 561.301C0.514382 590.564 0.467771 623.037 0.15773 654.04C-0.23878 693.689 3.40125e-05 733.349 0 773L410 773L407 771L408 744C410.512 736.797 405 726.984 405 719C405 715.76 403.993 710.587 408 710L408 705L409 684L395 683L399 661L375 653L375 650L357 649L357 646L345 643L339 638L339 635L330 632L334 632L334 631L321 629L324 635L320 631L277 619L270 609L263 608L260 597L233 570C232.708 565.464 232.074 562.39 228 560L228 556L225 556C229.893 549.169 235.068 545.682 243 543L243 544L240 544L240 545L264 556L270 563L273 562L284 584L315 597C316.512 602.17 328.087 603.084 332.995 604.023C337.828 604.948 342.19 607.911 347.134 608.806C359.392 611.023 371.359 606.987 383 604L382 601L410 594L408 586L412 581L422 580L422 579L416 579L416 576L428 573L428 570L432 564L435 564L435 560L443 566L442 569L461 598L460 601L463 605L470 608L474 630L471 629L471 647L471 648L481 667L486 667L492 671L492 676L505 688L553 680L553 686L551 685L551 691C545.02 692.262 535.475 698.25 533 704L509 706L509 712L547 712L574 677L557 678L567 664L572 664L575 650L571 623C565.279 624.823 561.52 627.083 558 632L551 632L551 627L552 627L552 630L553 630L547 609L526 610C522.372 611.436 522.169 613.347 523 617L527 616C521.693 623.209 513.12 621.993 505 622L505 619C491.634 607.966 508.348 598.149 514 587L505 579L504 579L502 581L495 576L482 552L488 552L499 547L500 532C490.698 524.272 489.145 514.554 488 503L512 498L512 499L504 499L504 500L538 498L532 494L531 488L526 482L532 481L530 474L526 477L523 477L523 474L484 462C482.609 458.48 480.639 458.185 477 458L473 440L468 439L464 407L457 407L450 353L481 341C479.692 334.983 477.888 330.873 473 327L473 323L464 321L458 314C453.224 307.889 447.369 307.011 440 306L440 303L435 304L435 300L430 300C428.865 296.603 427.423 296.421 424 297L408 286L411 284L408 280L400 278L400 277L402 277L402 276L396 275L397 270L392 266L382 265C381.606 262.163 367.638 260.118 374 256L373 246L384 248L384 251L392 248L393 248L405 256L404 265C413.988 268.282 421.652 272.409 429 280L454 294L457 292L471 301L465 301L464 306L470 306L470 310L474 314L488 314L488 310L482 304L488 304L488 297L484 297L485 292L478 293L476 288L480 288L472 272L480 268L480 259L475 261L476 256L492 259L492 261L488 261L489 267L514 293L526 296L533 307L533 311L540 311L540 314L547 316L547 321L550 324L557 325L557 330C568.715 322.596 568.293 311.772 568 299L544 286L544 275L541 272C532.049 270.542 526.037 267.86 520 261L522 262L525 246L503 254L501 258L500 258L491 256C489.665 249.963 486.916 240.765 481 238L480 223L477 223L471 193L464 188L460 188L461 184L468 165L468 158L461 158z"/>
<path style="fill:#8b745b; stroke:none;" d="M565 176L567 184L572 180L568 176L565 176M555 188L556 192L551 199L557 200L557 195L565 193L564 187L555 188z"/>
<path style="fill:#a7a194; stroke:none;" d="M26 294L19 298L19 300L36 299C36.3032 307.085 40.5975 309.224 48 311L51 308L48 303L50 300L40 299L40 296L28 294L26 294M52 312L52 320L62 320C60.4161 314.604 57.2754 313.205 52 312z"/>
<path style="fill:#2f2d29; stroke:none;" d="M0 325L0 350L8 356L16 347L13 347L12 332L4 335L4 331L8 331L8 326L0 325z"/>
<path style="fill:#a7a194; stroke:none;" d="M460 394L464 394L464 398L468 398L468 403L498 427C495.704 410.718 494.494 392.23 486.719 377.416C479.287 363.256 468.629 368.468 463.83 381.233C462.266 385.395 461.144 389.709 460 394z"/>
<path style="fill:#2f2d29; stroke:none;" d="M523 353C521.605 363.738 511.224 366 502 366L502 372L499 372L499 406L503 406L514 398L512 414C504.174 416.28 507.857 434.679 508.889 440.995C511 453.915 532.618 464.924 544.657 457.657C547.71 455.815 548.897 449.843 551.005 446.875C554.835 441.481 555 437.477 555 431L543 432L543 428L539 428L540 410L533 410C535.953 401.16 539.805 394.97 547 389L536 384L536 379L543 376L548 377L533 362L533 356L523 353z"/>
<path style="fill:#faf8f6; stroke:none;" d="M481 361L480 369L488 369L488 365L485 365L485 361L481 361z"/>
<path style="fill:#8b745b; stroke:none;" d="M517 386L530 384L530 379C524.371 379.733 520.411 381.345 517 386z"/>
<path style="fill:#a7a194; stroke:none;" d="M0 383L0 388L21 394L21 397L33 404C60.9699 429.09 69.6042 450.793 63 488L48 493L0 553L66 491C68.7523 480.652 71.6073 470.167 71.9625 459.403C72.9965 428.065 47.928 410.812 24 396L0 383z"/>
<path style="fill:#faf8f6; stroke:none;" d="M0 388L0 547L1 547L48 493L63 488C64.8597 478.256 66.7827 468.401 66.5177 458.433C65.8816 434.502 49.9782 418.782 33 404L21 397L21 394L0 388z"/>
<path style="fill:#2f2d29; stroke:none;" d="M96 392L96 393L105 393L96 392z"/>
<path style="fill:#faf8f6; stroke:none;" d="M554 403L560 403C560.484 400.081 561.625 395.619 558.393 393.822C556.464 392.749 546.743 391.898 547.304 395.842C547.657 398.317 552.567 400.746 554 403M544 406L543 427L554 425C553.441 416.307 551.006 411.248 544 406z"/>
<path style="fill:#2f2d29; stroke:none;" d="M69 412L87 417C83.7337 410.324 74.0727 400.884 69 412z"/>
<path style="fill:#8b745b; stroke:none;" d="M322 442L322 446L318 446L308 484L315 487L330 507L370 512L381 480L377 480L377 473C372.588 472.265 364.461 465.157 365 463L339 448L339 442L322 442z"/>
<path style="fill:#a7a194; stroke:none;" d="M502 448L502 456L521 462L526 461L526 460L512 453C510.024 448.43 506.639 448.182 502 448M347 460L340 463L340 464L341 468L349 470L349 472L336 473L336 480L339 480L336 497L339 500L352 503L350 497L366 497L368 488L371 488L360 473L358 463L350 460L347 460z"/>
<path style="fill:#faf8f6; stroke:none;" d="M569 469L570 476L571 469L569 469z"/>
<path style="fill:#a7a194; stroke:none;" d="M574 498L575 509L576 509L577 507L580 509C579.326 503.999 578.102 501.043 574 498z"/>
<path style="fill:#8b745b; stroke:none;" d="M343 536L345 535L349 549L352 549L352 556L360 556L360 549C368.627 545.582 363.167 533.668 356 532C350.953 523.01 343.423 526.81 343 536z"/>
<path style="fill:#a7a194; stroke:none;" d="M575 531L575 536L579 531L575 531z"/>
<path style="fill:#8b745b; stroke:none;" d="M297 532C300.599 539.706 307.297 533.331 297 532M225 556L228 556L228 560L233 570C243.993 578.395 246.335 591.097 260 597L263 608L270 609L277 619L320 631L324 635L321 629L334 631L334 632L330 632L339 635L339 638L345 643L357 646L357 649L375 650L375 653L399 661L395 683L409 684L408 705L408 710C403.907 710.514 405 715.527 405 719C405 727.484 409.488 735.967 408 744L407 771L434 773C434.883 764.578 435.737 756.039 438.485 747.979C447.43 721.741 473.777 718.223 498 717L544 721L544 719L530 718L530 713L540 713L540 712L509 712L509 706L533 704C536.477 698.521 544.888 692.995 551 691L551 685L553 686L553 680L505 688L492 676L492 671L486 667L481 667L471 648L471 647L471 629L474 630L470 608L463 605L460 601L461 598L442 569L443 566L435 560L435 564L432 564L428 570L428 573L416 576L416 579L422 579L422 580L412 581L408 586L410 594L382 601L383 604L315 597L284 584L273 562L270 563L264 556L240 545L240 544L243 544C234.494 545.626 229.611 548.618 225 556M550 649C556.731 656.635 563.599 657.399 570 649L550 649M567 664L563 670L571 664L567 664z"/>
<path style="fill:#a7a194; stroke:none;" d="M412 670L412 677C417.961 674.818 417.97 672.176 412 670z"/>
<path style="fill:#8b745b; stroke:none;" d="M561 670L557 678L574 677L578 688L579 688L579 684L582 684L582 680L576 673L563 676L563 670L561 670z"/>
<path style="fill:#faf8f6; stroke:none;" d="M582 685L581 691L585 691L585 685L582 685z"/>
<path style="fill:#8b745b; stroke:none;" d="M577 688L571 694C573.929 693.152 577.867 691.503 577 688z"/>
<path style="fill:#2f2d29; stroke:none;" d="M453 702C451.853 698.739 450.118 698.622 446.995 697.495C442.379 695.83 436.949 692.607 432.97 697.569C431.013 700.009 425.557 713 432.054 713.404C435.352 713.609 436.576 709.369 438.545 707.569C442.411 704.037 447.892 702.06 453 702z"/>
<path style="fill:#faf8f6; stroke:none;" d="M571 704L572 704L578 697L571 704z"/>
<path style="fill:#8b745b; stroke:none;" d="M560 704L564 701L560 704z"/>
</svg>
