<?xml version="1.0" standalone="yes"?>
<svg width="661" height="773">
<path style="fill:#faf8f6; stroke:none;" d="M0 0L0 266C36.0381 275.075 75.1657 281.929 112.02 286.595C123.232 288.014 134.625 287.159 145.794 288.859C164.236 291.667 180.184 305.62 199.579 301.432C224.242 296.108 239.94 266.437 262.041 254.634C282.271 243.829 304.44 239.09 326.542 233.982C341.856 230.442 356.664 223.888 372.284 221.82C387.655 219.786 403.581 222.438 419 223L419 219C426.326 209.239 428.489 198.465 433.808 187.784C438.243 178.881 445.153 170.845 451.79 163.512C473.891 139.092 504.835 126.034 530.241 105.959C550.142 90.2339 565.352 67.4966 584 50C595.749 35.0682 628.654 11.3628 642.378 38.0168C646.258 45.5533 646.493 54.7382 646.767 63.0295C647.939 98.5239 640.369 133.729 631.296 167.952C626.243 187.016 618.687 204.09 617 224C611.318 223.067 608.434 221.283 606 216L603 214L592 218L589 224L587 234L598 238C597.086 252.81 596.275 268.048 592.083 282.372C589.534 291.082 583.89 297.981 580.391 306.221C577.595 312.803 577.422 319.966 575.246 326.709C572.138 336.338 564.137 343.565 563.192 353.997C561.629 371.232 572.936 386.961 576.335 403.346C581.966 430.489 579.44 459.773 571 486C569.28 481.862 565.497 480.521 562.798 484.998C557.127 494.404 559.419 505.42 547 510L539 514C538.132 525.554 539.976 530.192 547 539L568 545L569 550L559 549L557 556L554 556L554 560L547 560L540 571L540 583L564 584L564 587L574 600L584 621L587 621L588 634L585.222 636.028L582 659L589 651C592.054 650.346 591.936 648.993 592 646L594 648L595 648L603 626L604 626L604 633L601 633L600 653L593 657L601 660C596.929 700.643 557.242 729.381 516.508 722.928C491.873 719.026 458.919 703.517 437.205 724.137C416.146 744.135 428.985 771.102 456.108 772.688C523.942 776.654 593.044 773 661 773L661 0L0 0z"/>
<path style="fill:#a7a194; stroke:none;" d="M584 50C564.386 67.0988 549.741 90.0953 529.464 105.959C503.423 126.334 471.699 139.669 449.636 165.136C435.187 181.814 431.204 201.436 419 219L419 223C403.574 222.366 387.677 219.72 372.284 221.641C356.328 223.632 341.216 230.38 325.592 233.982C303.525 239.069 281.356 243.796 261.184 254.634C239.32 266.38 223.899 295.531 199.579 301.132C180.38 305.553 164.144 291.301 145.794 288.655C134.611 287.043 123.233 287.875 112.02 286.423C75.0448 281.634 36.2818 274.666 0 266L0 271L28 275L28 278L53 279L53 282C70.6768 283.389 87.6321 287.839 105.134 290.273C117.613 292.008 130.326 291.375 142.747 293.501C155.718 295.72 166.768 303.24 179.574 305.764C207.642 311.296 224.931 291.403 240 271L253 262L277 255L277 252L294 252L294 253L283 253L283 254C295.066 253.714 304.365 250.537 315 245L315 242C336.536 237.85 357.177 231.57 378.998 228.513C392.487 226.623 409.078 227.414 420.799 219.549C435.579 209.632 437.416 186.499 448.529 172.827C469.861 146.582 499.994 128.573 530 114C552.39 85.7238 575.312 55.8734 606 36C609.65 34.1595 613.316 32.2961 617.31 31.3141C639.767 25.7922 642.69 49.7413 642.821 66.0088C643.013 89.8879 639.505 112.833 634.33 136.061C631.203 150.094 628.653 163.208 620 175L620 172L616 172L616 148L592 152L591 152L588 168L577 173L568 171L570 155L584 154L583 149L591 142L599 144L608 136L608 122L613 122C613.701 108.461 610.709 95.0726 614.263 81.5676C615.446 77.07 613.837 71.765 619 70L619 64L604 65L604 68L596 68C590.101 74.5902 582.224 76.5346 574 79L571 92L568 95C554.852 98.2779 551.307 109.922 541.412 117.686C533.766 123.686 520.078 127.835 515 136L505 137C497.964 143.066 488.928 148.791 484.585 157.255C480.713 164.801 481.214 173.793 481.154 182.029C481.044 197.158 480.839 211.317 485 226L487 224L488 233C498.057 232.471 496.937 216.053 489 213C495.593 202.028 504.474 205.241 515 209L515 213C530.61 217.817 543.42 225.466 555 237L571 244L571 248L592 245C593.609 267.266 584.418 274.549 563 276L560 279L561 291L564 291L564 296L574 300L571 320C569.478 332.374 559.967 335.429 549 338L550 335L544 334L536 327L522 311L514 310L506 300L512 311L512 312L509 312L509 313L518 318L516 334C527.078 340.457 534.693 347.168 540 359L560 376L560 384L553 390L540 390L546 401C538.671 406.189 540.166 419.768 540 428C545.009 428.909 551.73 430.729 554 425L543 427L544 406C550.757 410.95 553.339 415.658 554 424L555 424L562 418L561 413L564 424L567 424L567 432C556.481 441.199 555.339 459.06 555.739 472.423C555.982 480.551 558.352 489.634 552.99 496.737C547.172 504.445 534.627 504.713 526 507L526 510L512 511L509 514L509 529L512 529L526 545C525.743 557.009 520.285 561.29 509 564L516 573L516 577L519 577C521.934 589.07 531.927 591.356 539 600L547 600L547 604L555 604L560 609L560 614L565 619L575 619L575 633L576 633L576 629L577 629L578 660L563 676L576 673L582 680L582 684L579 684C578.024 691.197 566.363 701 559.94 704.329C555.783 706.483 548.418 707.153 547 712L530 713L530 718L544 719L544 721L498 717C491.989 707.821 476.68 708.985 467 709.513C459.791 709.906 451.231 707.84 444.525 711.114C439.259 713.685 435.559 718.792 432.023 723.278C418.24 740.766 416.566 758.26 436 773C431.647 765.297 426.826 757.123 426.62 748.021C426.153 727.352 445.927 715.835 464.069 714.738C484.979 713.473 502.837 722.756 523.234 723.811C562.491 725.842 597.562 699.256 601 660L593 657L600 653L601 633L604 633L604 626L603 626L595 648L594 648L592 646L589 651L582 659L586.657 643.027L588 634L587 621L584 621L574 600L564 587L564 584L540 583L540 571C544.292 568.067 545.84 565.012 547 560L554 560L554 556L557 556L559 549L569 550L568 545L547 539L540.787 531.921L539 514C542.9 513.913 545.47 513.865 547 510C559.761 507.059 557.68 494.812 562.703 485.697C565.242 481.089 568.867 481.777 571 486C580.114 459.604 582.18 428.811 576.132 401.441C572.714 385.976 562.332 371.212 563.494 354.904C564.246 344.351 572.236 337.174 575.493 327.555C585.755 297.253 596.508 270.725 598 238L587 234L589 224C592.403 223.271 591.987 221.194 592 218L603 214L606 216C608.203 221.587 611.129 223.278 617 224C618.88 204.501 626.333 187.649 631.296 168.944C640.662 133.65 648.103 97.6483 646.733 61.0446C646.42 52.6709 646.149 43.0827 641.53 35.774C626.459 11.9301 594.955 34.9113 584 50z"/>
<path style="fill:#8b745b; stroke:none;" d="M606 36C574.994 54.4252 551.096 85.3911 530 114C499.538 127.771 469.074 146.44 447.87 172.827C436.891 186.489 435.311 208.793 420.799 219.011C409.125 227.23 392.592 226.494 378.998 228.374C357.119 231.399 336.514 237.466 315 242L315 245C304.359 250.127 294.884 253.444 283 254L283 253L294 253L294 252L277 252L277 255L253 262L240 271C229.414 284.332 218.512 299.904 201.319 304.847C181.227 310.623 166.179 298.5 147.512 294.234C134.269 291.207 120.517 292.14 107.103 290.391C88.9218 288.021 71.3622 283.281 53 282L53 279L28 278L28 275L0 271L2 328L8 326L8 331L4 331L4 335L12 332L13 347L16 347L8 356L0 350L0 383C9.40633 385.651 16.6084 389.614 24 396C42.467 401.051 59.7187 410.02 74.0715 422.843C80.7098 428.773 87.3434 436.53 86.6955 446.013C85.6512 461.299 71.8841 476.968 66 491C38.6222 506.312 15.1134 529.484 0 557C32.0477 518.095 76.8765 491.689 94 442C99.4907 441.302 112.014 440.649 114 435C122.148 429.022 120.906 420.018 120 411L114 402L111 403L111 390C118.382 393.885 133.032 394.451 142 393C145.586 392.42 144.723 386.706 148 389L148 380L145 380L145 376L126 370L126 362L122 362C122 357.434 123.313 350.554 118 349L113 329L111 331L105 304L134 304C140.974 312.854 155.636 311.703 166 313C166.641 319.17 167.929 323.204 173 327L173 331L190 334L200 332L211 324L210 318L214 318L236 304L248 289L293 273L291 277L299 277L299 282L310 280L309 277L315 274L303 272L312 269L322 247L342 245L342 241L382 238L392 233L391 238L427.657 220.908L443 192L461 158L468 158L468 165C461.6 166.305 452.236 182.122 461 184L460 188L464 188C465.499 191.529 467.291 192.343 471 193L477 223L480 223L481 238C486.526 241.547 489.164 249.896 491 256L500 258L501 258L503 254L525 246L522 262L520 261C525.718 268.547 531.731 270.917 541 272L544 275L544 286L568 299C568.367 311.75 569.898 323.616 557 330L557 325L550 324L547 321L547 316L540 314L540 311L533 311L533 307L526 296L514 293C509.082 279.492 502.608 272.046 489 267L488 261L492 261L492 259L476 256L475 261L480 259L480 268L472 272L480 288L476 288L478 293L485 292L484 297L488 297L488 304L482 304L488 310L488 314L474 314L470 310L470 306L464 306L465 301L471 301L457 292L454 294C446.869 286.159 439.207 282.508 429 280C422.501 270.817 414.689 267.614 404 265L405 256L393 248L392 248L384 251L384 248L373 246L374 256C368.603 256 371.373 261.187 375 263C376.976 263.988 378.413 261.735 380 262C382.768 262.461 382.297 263.812 382 265L392 266L397 270L396 275L402 276L402 277L400 277L400 278L408 280L411 284L408 286L424 297L430 300L435 300L435 304L440 303L440 306L458 314L464 321L473 323L473 327L481 341L450 353C449.911 371.839 452.325 388.784 457 407L464 407L468 439L473 440L477 458L484 462C498.439 464.581 510.659 469.008 523 477L526 477L526 474L530 474L532 481L526 482L531 488L532 494L538 498L504 500L504 499L512 499L512 498L488 503C488.931 514.597 490.193 524.662 500 532L499 547C493.849 546.843 490.979 547.675 488 552L482 552L495 576L502 581L504 579L505 579L514 587C507.653 597.742 490.936 608.267 505 619L505 622C512.863 621.996 522.427 623.701 527 616L523 617L526 610C529.463 616.872 540.126 609.038 547 609L553 630L552 630L552 627L551 627L551 632L558 632L571 623C571 629.482 567.802 647.469 575 650L574 660L578 660L577 629L576 629L576 633L575 633L575 619L565 619L560 614L560 609L555 604L547 604L547 600L539 600L519 577L516 577L516 573L509 564C520.626 561.574 526.401 557.423 526 545L512 529L509 529L509 514L512 511L526 510L526 507C534.412 505.033 544.998 503.603 551.022 496.741C557.555 489.3 556.22 477.967 556.605 468.802C557.174 455.277 559.104 443.236 567 432L567 424L564 424C564 420.116 565.581 413.982 561 413L562 418L551.889 428.278L543 432L555 431C549.505 450.318 540.166 457.791 520 456L526 460L526 461L521 462L502 456L502 448L515 453C509.822 439.602 508.189 427.99 512 414L514 398L503 406L499 406L499 372L502 372L502 366C510.838 363.539 516.879 359.834 523 353L533 356L533 362L548 377L543 376L536 379L536 384L547 389C537.287 393.525 534.502 399.666 533 410L540 410L539 428L540 428L546 401L540 390L553 390L560 384L560 376L540 359C535.049 346.756 527.477 340.18 516 334L518 318L509 313L509 312L512 312L512 311L509 311L506 300L514 310L522 311L536 327L544 334L550 335L549 338C556.32 337.995 565.567 336.798 571.772 332.481C576.192 329.406 576.246 321.845 571 320L574 300L564 296L564 291L561 291L560 279L563 276C584.716 274.726 594.067 267.679 592 245L571 248L571 244L555 237C543.792 224.912 530.819 217.455 515 213L515 209C504.38 204.786 495.153 201.161 489 213C496.062 217.182 498.167 231.912 488 233L487 224L485 226C479.992 207.539 475.654 174.852 485.101 157.255C489.535 148.997 498.257 143.265 505 137L515 136C521.504 127.964 534.038 124.231 542.22 117.686C551.892 109.95 555.49 99.1754 568 95L571 92L574 79C582.277 76.8417 590.602 75.1072 596 68L604 68L604 65L619 64L619 70L616 69L613 122L608 122L608 136L599 144L591 142L592 145L583 149L584 154L570 155L568 171L577 173L588 168L591 152L592 152C595.673 155.485 601.247 148.911 605.315 147.834C608.703 146.938 612.539 147.902 616 148L616 172L620 172L620 175C629.88 166.19 630.734 153.298 633.442 141.001C639.553 113.249 643.615 86.5588 642.86 58.0031C642.676 51.0361 642.887 42.702 639.294 36.4713C632.006 23.8323 615.142 29.132 606 36z"/>
<path style="fill:#2f2d29; stroke:none;" d="M619 40L620 50L629 48L633 79L632 79L632 76C627.188 78.3556 627.103 82.0173 627 87L623 87L629 97L626 101C634.021 87.8441 636.423 75.2534 637 60L633 60L636 54L637 54L637 46L633 46L633 40L623 40L624 43L622 40L619 40M608 41C596.333 47.6636 588.105 54.8942 582 67C586.041 64.8613 587.121 61.3113 588 57L610 48L610 45L616 46L616 42L608 41M633 114L634 105C628.777 106.652 630.181 110.387 633 114M461 158L443 192L428.664 222.453L391 238L392 233C387.381 233.292 384.529 233.951 382 238L342 241L342 245L322 247L312 269C307.883 268.104 304.718 267.667 303 272L315 274L309 277L310 280L299 282L299 277L291 277L293 273C283.428 273.051 275.77 280.107 266.844 282.32C259.57 284.123 252.676 281.796 248 289C242.13 293.092 238.782 297.419 236 304L214 318L210 318L211 324L200 332C196.362 331.022 190.994 329.361 190 334L173 331L173 327C168.396 322.941 166.814 319.024 166 313L134 304L105 304L111 331L113 329L118 349L122 362L126 362L126 370L145 376L145 380L148 380L148 389L146 387C134.198 392.193 123.558 391.839 111 390L111 403L114 402L112 404L120 411C119.686 419.846 118.096 427.122 114 435L94 442C85.8009 463.687 73.3583 484.047 56.474 500.031C38.8266 516.738 15.0152 531.232 4.8902 554.189C-4.39684 575.246 8.27291e-07 603.516 6.16492e-08 626L0 773L410 773L407 771L408 744C410.512 736.797 405 726.984 405 719C405 715.76 403.993 710.587 408 710L408 705L409 684L395 683L399 661L375 653L375 650L357 649L357 646L345 643L339 638L339 635L330 632L334 632L334 631L321 629L324 635L320 631L277 619L270 609L263 608L260 597L233 570C232.708 565.464 232.074 562.39 228 560L228 556L225 556C228.998 547.603 233.989 544.698 243 543L243 544L240 544L240 545L264 556L270 563L273 562L284 584L315 597C316.512 602.17 328.087 603.084 332.995 604.023C337.828 604.948 342.19 607.911 347.134 608.806C359.392 611.023 371.359 606.987 383 604L382 601L410 594L408 586L412 581L422 580L422 579L416 579L416 576L428 573L428 570L432 564L435 564L435 560L443 566L442 569L461 598L460 601L463 605L470 608L474 630L471 629L471 647L471 648L481 667L486 667L492 671L492 676L505 688C522.573 689.44 536.534 685.64 553 680L553 686L551 685L551 691C545.02 692.262 535.475 698.25 533 704L509 706L509 712L547 712C560.19 702.983 574.403 694.711 574 677L557 678L567 664L572 664L575 650L571 623C565.279 624.823 561.52 627.083 558 632L551 632L551 627L552 627L552 630L553 630L547 609L526 610C522.372 611.436 522.169 613.347 523 617L527 616C521.693 623.209 513.12 621.993 505 622L505 619C491.634 607.966 508.348 598.149 514 587L505 579L504 579L502 581L495 576L482 552L488 552L499 547L500 532C490.698 524.272 489.145 514.554 488 503L512 498L512 499L504 499L504 500L538 498L532 494L531 488L526 482L532 481L530 474L526 477L523 477L523 474L484 462C482.609 458.48 480.639 458.185 477 458L473 440L468 439L464 407L457 407C452.651 388.759 450.034 371.802 450 353L481 341C479.692 334.983 477.888 330.873 473 327L473 323L464 321L458 314C453.224 307.889 447.369 307.011 440 306L440 303L435 304L435 300L430 300C428.865 296.603 427.423 296.421 424 297L408 286L411 284L408 280L400 278L400 277L402 277L402 276L396 275L397 270L392 266L382 265C381.606 262.163 367.638 260.118 374 256L373 246L384 248L384 251L392 248L393 248L405 256L404 265C414.503 267.813 422.21 271.284 429 280C438.809 282.973 446.481 286.991 454 294L457 292L471 301L465 301L464 306L470 306L470 310L474 314L488 314L488 310L482 304L488 304L488 297L484 297L485 292L478 293L476 288L480 288L472 272L480 268L480 259L475 261L476 256L492 259L492 261L488 261L489 267C502.188 272.394 508.78 279.865 514 293L526 296L533 307L533 311L540 311L540 314L547 316L547 321L550 324L557 325L557 330C570.521 324.14 568.511 311.815 568 299L544 286L544 275L541 272C531.93 270.682 525.943 268.089 520 261L522 262L525 246L503 254L501 258L500 258L491 256C489.665 249.963 486.916 240.765 481 238L480 223L477 223L471 193L464 188L460 188L461 184L468 165L468 158L461 158z"/>
<path style="fill:#8b745b; stroke:none;" d="M565 176L567 184L572 180L568 176L565 176M555 188L556 192L551 199L557 200L557 195L565 193L564 187L555 188z"/>
<path style="fill:#a7a194; stroke:none;" d="M26 294L19 298L19 300L36 299C35.8389 307.385 40.3724 309.423 48 311L51 308L48 303L50 300L40 299L40 296L28 294L26 294M52 312L52 320L62 320C60.4161 314.604 57.2754 313.205 52 312z"/>
<path style="fill:#2f2d29; stroke:none;" d="M0 325L0 350L8 356L16 347L13 347L12 332L4 335L4 331L8 331L8 326L0 325z"/>
<path style="fill:#a7a194; stroke:none;" d="M460 394L464 394L464 398L468 398L468 403C477.363 413.054 484.742 422.179 498 427C495.477 415.198 493.202 403.785 493.65 391.648C494.032 381.28 497.002 367.423 491.1 358.085C484.256 347.255 464.979 349.861 459.273 360.532C454.066 370.272 458.112 383.851 460 394z"/>
<path style="fill:#2f2d29; stroke:none;" d="M523 353C521.605 363.738 511.224 366 502 366L502 372L499 372L499 406L503 406L514 398L512 414C504.174 416.28 507.857 434.679 508.889 440.995C511 453.915 532.618 464.924 544.657 457.657C547.71 455.815 548.897 449.843 551.005 446.875C554.835 441.481 555 437.477 555 431L543 432L543 428L539 428L540 410L533 410C534.704 399.87 537.716 393.838 547 389L536 384L536 379L543 376L548 377L533 362L533 356L523 353z"/>
<path style="fill:#faf8f6; stroke:none;" d="M481 361L480 369L488 369L488 365L485 365L485 361L481 361z"/>
<path style="fill:#8b745b; stroke:none;" d="M517 386L530 384L530 379C524.371 379.733 520.411 381.345 517 386z"/>
<path style="fill:#a7a194; stroke:none;" d="M0 383L0 388L21 394L21 397L33 404C49.5898 410.421 82.1786 424.94 81.2628 446.647C80.671 460.672 68.6279 475.401 63 488L48 493C29.4639 510.349 9.92208 529.248 0 553C19.4046 529.191 39.4744 507.026 66 491C72.2971 477.095 86.7844 460.655 87.2061 445.131C87.4625 435.696 80.7499 428.037 74.0795 422.176C59.637 409.486 42.5628 400.666 24 396C16.7242 389.226 9.63256 385.431 0 383z"/>
<path style="fill:#faf8f6; stroke:none;" d="M0 388L0 547L1 547C14.7605 527.414 31.1225 509.912 48 493L63 488C69.0106 475.543 81.1243 460.77 81.7562 446.647C82.7436 424.576 49.9966 410.069 33 404L21 397L21 394L0 388z"/>
<path style="fill:#2f2d29; stroke:none;" d="M96 392L96 393L105 393L96 392z"/>
<path style="fill:#faf8f6; stroke:none;" d="M554 403L560 403C560.484 400.081 561.625 395.619 558.393 393.822C556.464 392.749 546.743 391.898 547.304 395.842C547.657 398.317 552.567 400.746 554 403M544 406L543 427L554 425C553.895 415.991 551.585 410.99 544 406z"/>
<path style="fill:#2f2d29; stroke:none;" d="M69 412L87 417C83.7337 410.324 74.0727 400.884 69 412z"/>
<path style="fill:#8b745b; stroke:none;" d="M322 442L322 446L318 446C312.459 458.451 309.598 470.491 308 484L315 487L330 507L370 512C380.762 502.957 381.864 493.497 381 480L377 480L377 473C372.588 472.265 364.461 465.157 365 463L339 448L339 442L322 442z"/>
<path style="fill:#a7a194; stroke:none;" d="M502 448L502 456L521 462L526 461L526 460L512 453C510.024 448.43 506.639 448.182 502 448M347 460L340 463L340 464L341 468L349 470L349 472L336 473L336 480L339 480L336 497L339 500L352 503L350 497L366 497L368 488L371 488L360 473L358 463L350 460L347 460z"/>
<path style="fill:#faf8f6; stroke:none;" d="M569 469L570 476L571 469L569 469z"/>
<path style="fill:#a7a194; stroke:none;" d="M574 498L575 509L576 509L577 507L580 509C579.326 503.999 578.102 501.043 574 498z"/>
<path style="fill:#8b745b; stroke:none;" d="M343 536L345 535L349 549L352 549L352 556L360 556L360 549C368.627 545.582 363.167 533.668 356 532C350.953 523.01 343.423 526.81 343 536z"/>
<path style="fill:#a7a194; stroke:none;" d="M575 531L575 536L579 531L575 531z"/>
<path style="fill:#8b745b; stroke:none;" d="M297 532C300.599 539.706 307.297 533.331 297 532M225 556L228 556L228 560L233 570C243.993 578.395 246.335 591.097 260 597L263 608L270 609L277 619L320 631L324 635L321 629L334 631L334 632L330 632L339 635L339 638L345 643L357 646L357 649L375 650L375 653L399 661L395 683L409 684L408 705L408 710C403.907 710.514 405 715.527 405 719C405 727.484 409.488 735.967 408 744L407 771L434 773C429.471 765.902 424.649 758.48 423.639 749.922C418.869 709.49 472.016 703.98 498 717L544 721L544 719L530 718L530 713L540 713L540 712L509 712L509 706L533 704C536.477 698.521 544.888 692.995 551 691L551 685L553 686L553 680C536.521 685.241 522.489 689.256 505 688L492 676L492 671L486 667L481 667L471 648L471 647L471 629L474 630L470 608L463 605L460 601L461 598L442 569L443 566L435 560L435 564L432 564L428 570L428 573L416 576L416 579L422 579L422 580L412 581L408 586L410 594L382 601L383 604C358.312 609.436 338.182 607.064 315 597L284 584L273 562L270 563L264 556C256.478 550.338 249.176 547.072 240 545L240 544L243 544C233.572 544.54 228.706 547.148 225 556M550 649C556.731 656.635 563.599 657.399 570 649L550 649M567 664L563 670L571 664L567 664z"/>
<path style="fill:#a7a194; stroke:none;" d="M412 670L412 677C417.961 674.818 417.97 672.176 412 670z"/>
<path style="fill:#8b745b; stroke:none;" d="M561 670L557 678L574 677L578 688L579 688L579 684L582 684L582 680L576 673L563 676L563 670L561 670z"/>
<path style="fill:#faf8f6; stroke:none;" d="M582 685L581 691L585 691L585 685L582 685z"/>
<path style="fill:#8b745b; stroke:none;" d="M577 688L571 694C573.929 693.152 577.867 691.503 577 688z"/>
<path style="fill:#2f2d29; stroke:none;" d="M453 702C451.853 698.739 450.118 698.622 446.995 697.495C442.379 695.83 436.949 692.607 432.97 697.569C431.013 700.009 425.557 713 432.054 713.404C435.352 713.609 436.576 709.369 438.545 707.569C442.411 704.037 447.892 702.06 453 702z"/>
<path style="fill:#faf8f6; stroke:none;" d="M571 704L572 704L578 697L571 704z"/>
<path style="fill:#8b745b; stroke:none;" d="M560 704L564 701L560 704z"/>
</svg>
