<?xml version="1.0" standalone="yes"?>
<svg width="661" height="773">
<path style="fill:#fdfcfb; stroke:none;" d="M0 0L0 266C40.138 273.273 80.3632 279.958 120.648 286.366C145.941 290.389 172.892 296.525 198.364 290.689C225.062 284.571 247.867 266.199 270 251C295.143 242.854 320.408 235.451 346.111 229.272C371.727 223.114 398.341 218.058 419.381 201.11C437.988 186.123 452.577 166.562 470.29 150.535C494.944 128.228 522.269 109.198 546.659 86.5325C564.467 69.9843 587.594 42.2276 614.161 41.8021C639.445 41.3971 643.272 72.9583 642.908 91.8965C641.939 142.291 623.808 192.738 603 238L600 238L598 245C592.17 265.902 584.468 284.988 574 304L569.257 361.505L577 467L570 476L572 472L573 472L573 483C562.702 490.102 558.138 499.914 553 511L548 525L551 538L563 542L563 545L576 552C566.275 556.373 558.043 560.848 551 569C547.135 570.53 547.087 573.1 547 577L596 604C598.778 610.387 602.013 614.401 608 618L606 601L609 599L611 599C603.564 643.531 595.558 696.054 546.675 712.759C524.823 720.227 501.722 718.135 479.233 721.684C468.357 723.4 455.186 726.84 448.684 736.602C438.235 752.29 457.814 763.809 470.546 767.4C504.06 776.853 542.52 772.984 576.969 772.996L661 773L661 0L0 0z"/>
<path style="fill:#b8a992; stroke:none;" d="M270 251C247.549 266.082 224.448 284.484 197.513 290.46C172.301 296.053 145.676 290.12 120.648 286.175C80.3664 279.827 40.1473 273.149 0 266L0 271L10 273L10 276L53 279L53 282L87 286L90 292L131 300L135 297C137.061 306.669 153.989 299.098 155 306L172 307L172 311C192.978 304.454 212.573 296.272 232 286L232 282C236.874 281.842 248.338 279.726 250 275L256 270L305 258C305 254.096 311.411 252 315 252L322 244L391 231L391 228C427.186 212.059 445.296 183.007 472.515 156.033C498.139 130.639 528.121 109.865 554.653 85.3825C558.359 81.9627 562.067 78.5436 565.836 75.1931C582.143 60.6973 619.079 30.9945 633.208 63.9315C635.237 68.6613 636.443 73.7184 637.319 78.7756C638.933 88.094 639.431 97.5739 640 107C634.874 108.5 634.614 117.346 633.718 122C631.345 134.312 629.548 146.51 627.736 159C627.008 164.017 625.971 168.961 621 171C619.499 159.692 616.426 151.848 608 144L619 126L615 126L620 122L622 118L622 117L622 116L619 107L617 77L620 77L619 58L582 72L578 79L574 79C555.523 96.8198 536.28 112.633 515 127L478 158L473 165L468 165L468 185L473 185C478.12 198.084 475.257 217.869 487 227L515 248L516 235L510 228L504 226L509 217L503 214L503 210L553 234L564 248L558 248L557 293L564 293L564 296L574 300L571 331L537 320L537 314L533 314L533 310L527 310L527 307L505 276L502 273L488 272L485 275L485 281L488 281L488 289L486 292L497 348L500 355L501 355L533 353L533 359C540.052 362.077 555.118 373.117 544 380L544 381L546 382L544 384L547 389L533 391L538 408L541 408L539 428L541 428L544 406C550.377 411.098 553.024 415.899 554 424L555 424L562 418L561 413L565 432L560 432L551 466L551 470L548 470L552 482L554 481L557 483L555 490L544 491L546 501L505 503L505 510L499 514L495 514L492 518L502 525L523 560L505 563L509 569L509 573L512 573L512 577L516 577L554 612L558 612L560 621L574 621L575 649L577 648L577 656L574 656L572 664L567 664L563 676L576 673L582 680L582 684L579 684C577.822 692.693 564.302 701.346 556.982 705.449C553.356 707.481 548.258 707.701 547 712L509 712L509 706L533 704L533 698L542 691L547 691L550 683L502 691L495 676L486 667L466 650L462 652L462 630L455 632L461 616L442 624L438 616L432 616L435 632L445 642L442 646L435 646L440 659L423 661L423 664L411 663L423 654L423 649C411.381 646.639 416.629 634.235 408 628L403 623L393 628L394 622C400.451 619.98 396.537 615.554 392 614L392 611C365.628 608.754 340.495 604.089 315 597L283 584L273 574L273 570C268.827 568.372 267.922 564.079 267 560L231 549L233 562L234 560L235 560L239 566L260 597L269 605L269 606L267 606L267 607L291 620C295.816 627.717 305.664 626.313 313 623L336 625L339 631L346 640L372 647L371 649L385 648L388 657L398 663L401 669C396.708 669.641 398 677.47 398 681L412 680L414 689L414 690L414 691L416 694L417 694L418 692L433 691L433 688L443 688L443 691L447 691L447 694L470 707L443 707L419 731L425 712L412 712C412 718.385 410.299 726.732 417 730L420 760L424 760L440 773C440.19 764.108 440.318 754.938 443.506 746.509C449.619 730.345 465.848 724.021 481.776 721.691C508.279 717.814 535.696 720.634 560.07 707.361C598.942 686.194 604.658 638.38 611 599L609 599L606 601L608 618L596 604L547 577L551 569C558.275 561.256 566.479 556.539 576 552L563 545L563 542L551 538L548 525C553.694 523.786 553 515.675 553 511C565.1 507.464 553.993 475.96 573 483L573 472L572 472L570 476L577 467L569.632 362.421L574 304C584.695 285.029 592.331 266.021 598 245L600 238L603 238C606.326 231.85 613.82 229.665 616.614 223.313C620.802 213.792 619.81 201.316 623.182 191.303C625.756 183.659 630.171 176.934 632.191 169C635.102 157.569 635.192 145.643 638.328 134.177C643.188 116.408 650.489 97.9421 648.191 79C645.64 57.9727 653.153 20.4099 620.236 24.4602C615.895 24.9943 611.286 26.2518 607.226 27.8657C593.661 33.2565 584.44 45.3256 574.943 55.6326C567.237 63.9965 558.308 71.9459 551.25 80.8102C546.837 86.3521 545.143 93.4275 539.858 98.3469C514.178 122.253 476.106 132.289 453.007 159.461C446.564 167.039 434.24 177.384 430.492 186.37C425.961 197.236 432.167 209.722 420.717 217.899C409.19 226.131 390.181 219.969 377 220.158C361.188 220.385 345.722 229.202 330.734 233.507C318.528 237.012 306.005 236.58 294 241.235C286.074 244.309 275.108 243.526 270 251z"/>
<path style="fill:#3d3731; stroke:none;" d="M391 228L391 231L322 244L315 252C311.026 252.017 304.973 253.413 305 258L256 270L250 275L232 282L232 286L172 311L172 307L155 306L135 297L131 300L90 292L87 286L53 282L53 279L10 276L10 273L0 271L0 287L48 289L50 296L62 296L76 304L96 307L96 308C93.6868 314.738 95.9347 327.964 102 332L102 344L111 346L111 348L108 349L109 361L103 362L104 350C93.2065 351.371 85.5025 353.883 78 362L74 362L70 368L66 367C59.5045 372.593 59.8741 361.256 57.4793 358.003C55.4371 355.228 51.0432 353.44 48 352L48 348L56 347L56 344L61 344C56.7177 338.717 52.8112 336.462 46 336L24 323L24 319L8 320L13 308L0 308L0 379L11 384C34.9193 398.433 63.1979 414.413 72.8402 442.439C76.6729 453.579 76.911 465.345 77 477L66 491L63 491L63 496L38 518C27.4483 530.674 17.2749 543.591 10.9694 558.985C-2.37058 591.551 0.103976 629.51 0.0273307 664.001C-0.0534079 700.334 1.56617e-06 736.667 0 773L432 773L432 772L424 760L420 760L417 730C410.804 725.846 412.001 718.698 412 712L425 712L419 731L443 707L470 707L447 694L447 691L443 691L443 688L433 688L433 691L418 692L417 694L416 694L414 691L414 690L414 689L416 689L412 680L398 681C398 676.469 397.292 668.073 401 669C400.987 665.806 401.403 663.729 398 663C397.532 659.126 391.624 657.767 388 657L385 648L371 649L372 647L346 640L339 631L336 625L313 623C305.231 626.204 296.632 627.173 291 620L267 607L267 606L269 606L269 605L260 597L239 566L235 560L234 560L233 562L231 549L267 560L273 570L273 574L283 584L315 597C316.744 602.963 329.636 602.7 334.94 604.449C352.495 610.238 373.472 619.113 392 611L392 614C396.183 615.815 399.913 619.716 394 622L393 628C396.242 627.659 403.023 626.606 403 623L408 628L423 649L423 654L411 663L423 664L423 661L440 659L435 646L442 646L441 643L445 642L435 632L432 616L438 616L442 624L461 616L455 632L462 630L462 652L466 650L486 667L495 676L502 691L550 683L547 691L542 691L533 698L533 704L509 706L509 712L547 712L579 684L582 684L582 680L576 673L563 676L567 664L572 664L574 656L577 656L577 648L575 649L574 621L560 621L558 612L554 612L516 577L512 577L512 573L509 573L509 569L505 563L523 560L502 525L492 518L495 514L499 514L505 510L505 503L546 501L544 491L555 490L557 483L554 481L552 482L548 470L551 470L551 466C559.93 460.76 554.504 451.836 554.794 444.004C554.964 439.435 558.183 435.976 560 432L565 432C564.924 427.484 565.62 413.99 561 413L562 418L539 428L541 408L538 408L533 391L547 389L544 381L544 380C555.935 373.35 540.259 361.778 533 359L533 353L501 355L500 355L497 348C495.371 328.655 491.86 310.511 486 292L488 289L488 281L485 281L485 275L488 272L502 273L505 276L527 307L527 310L533 310L533 314L537 314L537 320L571 331L574 300L564 296L564 293L557 293L558 248L564 248L553 234L550 235L503 210L503 214L509 217L504 226L510 228L516 235L515 248L487 227L473 185L468 185L468 165L473 165L478 158L515 127C536.482 112.804 555.642 97.0452 574 79L578 79L582 72L619 58L620 77L617 77L619 107L622 116L622 117L622 118L620 122L615 126L619 126L608 144L621 171C628.417 166.506 627.48 157.642 628.47 150C630.112 137.314 631.083 116.831 640 107C639.482 97.5537 639.034 88.0565 637.494 78.7087C636.657 73.6248 635.497 68.5392 633.527 63.7637C619.674 30.1827 582.349 59.8169 565.837 74.4844C562.066 77.8339 558.358 81.2537 554.653 84.6756C527.888 109.395 497.595 130.351 471.79 156.032C444.807 182.886 426.671 211.683 391 228M593 248C574.627 253.345 588.074 266.566 593 248z"/>
<path style="fill:#b8a992; stroke:none;" d="M0 287C1.64893 296.717 4.01423 303.232 13 308L8 320L24 319L24 323L46 336C52.7669 336.523 56.6667 338.815 61 344L56 344L56 347L48 348L48 352C50.4337 353.041 57.7771 356.635 58.6667 359.028C59.7732 362.004 57.9132 365.968 59.9444 368.667C62.1425 371.587 65.421 369.702 66 367L70 368L74 362L78 362L104 350L103 362L109 361L108 349L111 348L111 346L102 344L102 332L96 308L96 307L76 304L62 296L50 296L48 289L0 287M460 397L470 408L482 438L485 441L490 442L488 448L494 449L494 443L502 456L527 463L527 459C503.799 425.846 497.186 395.133 498 355C472.271 359.639 463.56 371.584 460 397M0 379L0 388L21 394C43.7122 411.775 71.4098 432.84 61.3018 465.332C58.2511 475.139 53.0417 484.115 48 493L0 553L38 518L63 496L63 491L66 491L77 477C77.0749 465.366 77.011 453.607 73.3001 442.444C63.8835 414.118 35.1603 398.225 11 384C9.68197 379.494 4.152 379.496 0 379z"/>
<path style="fill:#fdfcfb; stroke:none;" d="M0 388L0 540L48 493C53.1403 484.283 58.4418 475.479 61.6368 465.821C72.5071 432.961 44.1032 411.713 21 394L0 388M554 403L560 403C560.484 400.081 561.625 395.619 558.393 393.822C556.464 392.749 546.743 391.898 547.304 395.842C547.657 398.317 552.567 400.746 554 403M544 406L541 428L551 428L554 425C553.441 416.307 551.006 411.248 544 406z"/>
<path style="fill:#b8a992; stroke:none;" d="M551 425L543 428L543 429C547.538 428.997 552.099 429.798 554 425L551 425M322 445L315 490L373 505L377 500C376.326 489.43 375.48 479.258 367 472L322 445M555 656L564 656L564 652C559.868 652.035 556.663 651.803 555 656z"/>
</svg>
