<?xml version="1.0" standalone="yes"?>
<svg width="661" height="773">
<path style="fill:#fdfcfb; stroke:none;" d="M0 0L0 266C22.6394 271.701 45.6768 273.551 68.6366 277.312C82.238 279.541 95.3248 284.16 109.037 285.804C121.14 287.255 133.475 285.921 145.512 287.84C164.892 290.93 180.769 306.613 201.415 300.985C215.202 297.226 224.313 285.204 234.171 275.722C244.917 265.384 256.482 257.28 270 251C288.824 241.355 309.078 238.307 329.377 233.305C343.097 229.924 356.391 224.369 370.36 222.075C385.368 219.611 405.984 225.462 418.929 215.816C427.735 209.254 428.488 197.343 432.813 188.039C437.874 177.151 446.901 167.769 455.313 159.373C480.998 133.737 518.647 121.813 542.182 94.5659C561.732 71.9337 584.149 33.3733 615.826 27.188C647.588 20.9863 647.319 57.4084 647.512 79.0004C647.71 101.123 641.408 120.849 636.713 142.167C629.657 174.209 623.889 211.863 603 238L600 238L598 245C597.97 270.037 596.573 289.874 574 304C574.075 312.502 575.001 321.521 572.076 329.674C568.307 340.177 561.004 348.196 561.72 360.034C562.643 375.276 572.615 387.829 576.048 402.409C581.007 423.473 579.087 445.715 577 467L570 476L572 472L573 472L573 483C561.248 488.413 558.17 500.008 553 511L548 525L551 538L563 542L563 545L576 552C566.187 556.316 557.808 560.507 551 569C547.135 570.53 547.087 573.1 547 577C566.276 581.176 578.815 595.367 596 604C598.364 610.958 601.311 614.833 608 618L606 601L609 599L611 599C610.625 613.597 606.279 626.691 603.786 640.925C601.324 654.981 602.452 669.291 597.141 682.819C587.37 707.706 557.365 721.588 532.058 723.545C501.354 725.92 459.008 699.234 434.524 729.574C415.155 753.576 441.193 772.187 464.061 772.857C529.594 774.778 595.437 773 661 773L661 0L0 0z"/>
<path style="fill:#b8a992; stroke:none;" d="M270 251C256.036 256.974 244.387 265.178 233.469 275.722C223.609 285.244 214.383 297.302 200.5 300.906C180.369 306.132 164.53 290.425 145.512 287.645C133.781 285.93 121.811 287.198 110.031 285.798C96.3048 284.168 83.2055 279.547 69.5937 277.312C46.3329 273.495 22.9951 271.492 0 266L0 271L10 273L10 276L53 279L53 282L87 286L90 292L131 300L135 297C137.061 306.669 153.989 299.098 155 306L172 307L172 311C198.476 310.586 212.543 303.49 232 286L232 282C236.874 281.842 248.338 279.726 250 275L256 270L305 258C305 254.096 311.411 252 315 252L322 244L391 231L391 228C402.752 229.034 416.537 230.075 426.286 222.049C434.429 215.344 435.497 204.506 438.729 195.137C441.928 185.867 447.338 177.764 453.414 170.143C466.374 153.888 482.898 140.295 500.544 129.356C511.734 122.419 524.307 117.553 534.607 109.23C544.641 101.123 551.015 89.98 558.922 80.0043C566.628 70.2814 575.901 61.7082 584.732 53.0239C595.351 42.582 616.437 24.9765 632.433 34.9778C639.516 39.407 640.709 48.4858 640.938 56.1209C641.444 73.0165 640.263 90.0938 640 107C634.874 108.5 634.614 117.346 633.718 122C631.345 134.312 629.548 146.51 627.736 159C627.008 164.017 625.971 168.961 621 171C620.052 159.275 617.406 151.42 608 144L619 126L615 126L620 122L622 118L622 117L622 116L619 107L617 77L620 77L619 58L582 72L578 79L574 79C557.44 98.7963 541.284 120.924 515 127L478 158L473 165L468 165L468 185L473 185C478.12 198.084 475.257 217.869 487 227C494.001 237.936 503.396 242.831 515 248L516 235L510 228L504 226L509 217L503 214L503 210L553 234L564 248L558 248C549.932 263.596 552.078 276.719 557 293L564 293L564 296L574 300L571 331L537 320L537 314L533 314L533 310L527 310L527 307C514.566 299.139 508.737 290.143 505 276L502 273L488 272L485 275L485 281L488 281L488 289L486 292C503.056 307.797 502.464 326.704 497 348L500 355L501 355L533 353L533 359C540.052 362.077 555.118 373.117 544 380L544 381L546 382L544 384L547 389L533 391L538 408L541 408L539 428L541 428L544 406C550.757 410.95 553.339 415.658 554 424L555 424L562 418L561 413L565 432L560 432L551 466L551 470L548 470L552 482L554 481L557 483L555 490L544 491L546 501L505 503L505 510L499 514L495 514L492 518L502 525L523 560L505 563L509 569L509 573L512 573L512 577L516 577C525.917 593.684 538.869 600.848 554 612L558 612L560 621L574 621L575 649L577 648L577 656L574 656L572 664L567 664L563 676L576 673L582 680L582 684L579 684C577.822 692.693 564.302 701.346 556.982 705.449C553.356 707.481 548.258 707.701 547 712L509 712L509 706L533 704L533 698L542 691L547 691L550 683C533.961 688.996 519.058 690.875 502 691L495 676L486 667L466 650L462 652L462 630L455 632L461 616L442 624L438 616L432 616L435 632L445 642L442 646L435 646L440 659L423 661L423 664L411 663L423 654L423 649C411.381 646.639 416.629 634.235 408 628L403 623L393 628L394 622C400.451 619.98 396.537 615.554 392 614L392 611C364.596 614.938 340.029 607.956 315 597L283 584L273 574L273 570C268.827 568.372 267.922 564.079 267 560C255.272 553.497 244.394 550.033 231 549L233 562L234 560L235 560L239 566C243.543 578.611 250.25 587.873 260 597L269 605L269 606L267 606L267 607L291 620C295.816 627.717 305.664 626.313 313 623L336 625L339 631L346 640L372 647L371 649L385 648L388 657L398 663L401 669C396.708 669.641 398 677.47 398 681L412 680L414 689L414 690L414 691L416 694L417 694L418 692L433 691L433 688L443 688L443 691L447 691L447 694L470 707L443 707L419 731L425 712L412 712C412 718.385 410.299 726.732 417 730L420 760L424 760C428.434 766.108 433.165 769.822 440 773C426.392 752.407 423.68 726.854 452.63 717.931C479.772 709.564 505.064 725.708 532.058 723.7C557.222 721.828 587.286 708.558 597.166 683.775C602.563 670.235 601.504 656.009 603.866 641.913C606.312 627.315 610.796 613.972 611 599L609 599L606 601L608 618C601.675 614.587 598.571 610.68 596 604C579.057 594.728 566.544 580.736 547 577L551 569C558.092 560.955 566.4 556.505 576 552L563 545L563 542L551 538L548 525C553.694 523.786 553 515.675 553 511C565.1 507.464 553.993 475.96 573 483L573 472L572 472L570 476L577 467C579.241 445.428 581.103 422.815 576.048 401.462C572.68 387.236 562.893 374.923 562.101 360.034C561.473 348.216 568.987 340.204 572.624 329.674C575.448 321.494 574.299 312.478 574 304C597.258 290.519 598.176 270.056 598 245L600 238L603 238C606.326 231.85 613.82 229.665 616.614 223.313C620.802 213.792 619.81 201.316 623.182 191.303C625.756 183.659 630.171 176.934 632.191 169C635.102 157.569 635.192 145.643 638.328 134.177C643.188 116.408 650.489 97.9421 648.191 79C645.64 57.9727 653.153 20.4099 620.236 24.4602C615.895 24.9943 611.286 26.2518 607.226 27.8657C593.661 33.2565 584.44 45.3256 574.943 55.6326C567.237 63.9965 558.308 71.9459 551.25 80.8102C546.837 86.3521 545.143 93.4275 539.858 98.3469C514.178 122.253 476.106 132.289 453.007 159.461C446.564 167.039 434.24 177.384 430.492 186.37C425.961 197.236 432.167 209.722 420.717 217.899C409.19 226.131 390.181 219.969 377 220.158C361.188 220.385 345.722 229.202 330.734 233.507C318.528 237.012 306.005 236.58 294 241.235C286.074 244.309 275.108 243.526 270 251z"/>
<path style="fill:#3d3731; stroke:none;" d="M391 228L391 231L322 244L315 252C311.026 252.017 304.973 253.413 305 258L256 270L250 275L232 282L232 286C212.123 302.62 198.439 310.504 172 311L172 307L155 306L135 297L131 300L90 292L87 286L53 282L53 279L10 276L10 273L0 271L0 287L48 289L50 296L62 296L76 304L96 307L96 308C93.6868 314.738 95.9347 327.964 102 332L102 344L111 346L111 348L108 349L109 361L103 362L104 350C93.2065 351.371 85.5025 353.883 78 362L74 362L70 368L66 367C59.5045 372.593 59.8741 361.256 57.4793 358.003C55.4371 355.228 51.0432 353.44 48 352L48 348L56 347L56 344L61 344C56.7177 338.717 52.8112 336.462 46 336L24 323L24 319L8 320L13 308L0 308L0 379L11 384C31.522 392.398 50.644 404.93 68.0776 418.525C75.7806 424.532 84.726 431.661 86.7467 441.79C89.1172 453.671 81.1818 466.315 77 477L66 491L63 491L63 496L38 518C31.3023 521.518 24.8404 525.248 19.265 530.429C-4.32466 552.349 3.97969e-05 583.679 2.74921e-06 613L0 773L432 773L432 772L424 760L420 760L417 730C410.804 725.846 412.001 718.698 412 712L425 712L419 731L443 707L470 707L447 694L447 691L443 691L443 688L433 688L433 691L418 692L417 694L416 694L414 691L414 690L414 689L416 689L412 680L398 681C398 676.469 397.292 668.073 401 669C400.987 665.806 401.403 663.729 398 663C397.532 659.126 391.624 657.767 388 657L385 648L371 649L372 647L346 640L339 631L336 625L313 623C305.231 626.204 296.632 627.173 291 620L267 607L267 606L269 606L269 605L260 597C250.719 587.66 243.866 578.288 239 566L235 560L234 560L233 562L231 549C244.272 550.181 255.227 553.86 267 560L273 570L273 574L283 584L315 597C316.744 602.963 329.636 602.7 334.94 604.449C352.495 610.238 373.472 619.113 392 611L392 614C396.183 615.815 399.913 619.716 394 622L393 628C396.242 627.659 403.023 626.606 403 623L408 628L423 649L423 654L411 663L423 664L423 661L440 659L435 646L442 646L441 643L445 642L435 632L432 616L438 616L442 624L461 616L455 632L462 630L462 652L466 650C471.658 657.461 477.755 662.571 486 667L495 676L502 691C519.084 690.899 534.021 689.346 550 683L547 691L542 691L533 698L533 704L509 706L509 712L547 712C559.141 703.776 570.323 696.033 579 684L582 684L582 680L576 673L563 676L567 664L572 664L574 656L577 656L577 648L575 649L574 621L560 621L558 612L554 612C539.517 600.393 526.355 593.101 516 577L512 577L512 573L509 573L509 569L505 563L523 560L502 525L492 518L495 514L499 514L505 510L505 503L546 501L544 491L555 490L557 483L554 481L552 482L548 470L551 470L551 466C559.93 460.76 554.504 451.836 554.794 444.004C554.964 439.435 558.183 435.976 560 432L565 432C564.924 427.484 565.62 413.99 561 413L562 418L539 428L541 408L538 408L533 391L547 389L544 381L544 380C555.935 373.35 540.259 361.778 533 359L533 353L501 355L500 355L497 348C502.874 327.021 503.649 307.101 486 292L488 289L488 281L485 281L485 275L488 272L502 273L505 276C508.431 290.423 514.064 299.49 527 307L527 310L533 310L533 314L537 314L537 320L571 331L574 300L564 296L564 293L557 293C552.389 276.666 550.299 263.699 558 248L564 248L553 234L550 235C535.81 221.507 521.055 216.527 503 210L503 214L509 217L504 226L510 228L516 235L515 248C503.672 242.595 494.348 237.442 487 227C478.881 214.113 477.43 199.321 473 185L468 185L468 165L473 165L478 158L515 127C541.482 121.539 558.114 99.3723 574 79L578 79L582 72L619 58L620 77L617 77L619 107L622 116L622 117L622 118L620 122L615 126L619 126L608 144C616.875 151.681 619.776 159.478 621 171C628.417 166.506 627.48 157.642 628.47 150C630.112 137.314 631.083 116.831 640 107C640.337 90.085 641.439 73.0314 641.055 56.1205C640.884 48.5815 639.967 39.4624 633.115 34.8646C617.69 24.5144 596.083 41.2349 585.537 51.4492C576.389 60.3097 566.877 69.2491 558.922 79.2169C550.745 89.462 544.193 100.931 533.813 109.23C523.718 117.301 511.505 122.11 500.544 128.818C482.6 139.798 465.803 153.631 452.723 170.143C438.112 188.586 438.04 223.719 411.025 227.983C404.386 229.031 397.66 228.521 391 228M593 248C574.627 253.345 588.074 266.566 593 248z"/>
<path style="fill:#b8a992; stroke:none;" d="M0 287C0.999759 297.216 2.61138 304.461 13 308L8 320L24 319L24 323L46 336C52.7669 336.523 56.6667 338.815 61 344L56 344L56 347L48 348L48 352C50.4337 353.041 57.7771 356.635 58.6667 359.028C59.7732 362.004 57.9132 365.968 59.9444 368.667C62.1425 371.587 65.421 369.702 66 367L70 368L74 362L78 362C85.8036 354.693 93.5565 351.793 104 350L103 362L109 361L108 349L111 348L111 346L102 344L102 332L96 308L96 307L76 304L62 296L50 296L48 289L0 287M460 397L470 408L482 438L485 441L490 442L488 448L494 449L494 443L502 456L527 463L527 459C490.354 435.225 492.804 393.35 498 355C492.773 352.731 487.498 350.373 481.874 349.275C478.805 348.676 475.65 348.458 472.538 348.83C447.465 351.826 455.364 380.878 460 397M0 379L0 388L21 394C34.3508 406.24 50.9514 413.144 65.3984 423.822C72.4775 429.054 79.7069 436.212 78.9153 445.757C78.0398 456.313 69.5554 466.769 63.9222 475.324C59.4367 482.136 54.206 487.74 48 493C28.631 510.035 6.65284 526.956 0 553C11.403 539.063 22.1893 527.01 38 518L63 496L63 491L66 491L77 477C81.5263 466.351 89.4561 453.814 87.2064 441.79C85.2482 431.323 76.0145 424.046 68.0789 417.891C50.7391 404.443 31.6494 391.715 11 384C9.68197 379.494 4.152 379.496 0 379z"/>
<path style="fill:#fdfcfb; stroke:none;" d="M0 388L0 540L48 493C54.5787 487.873 59.8864 482.293 64.4819 475.309C70.1329 466.721 78.4973 456.356 79.3685 445.757C80.1487 436.264 73.2491 429.093 66.1906 423.822C51.6499 412.963 34.9317 405.793 21 394L0 388M554 403L560 403C560.484 400.081 561.625 395.619 558.393 393.822C556.464 392.749 546.743 391.898 547.304 395.842C547.657 398.317 552.567 400.746 554 403M544 406L541 428L551 428L554 425C553.895 415.991 551.585 410.99 544 406z"/>
<path style="fill:#b8a992; stroke:none;" d="M551 425L543 428L543 429C547.538 428.997 552.099 429.798 554 425L551 425M322 445C316.423 459.972 313.618 474.003 315 490C334.234 501.314 350.795 504.887 373 505L377 500C376.326 489.43 375.48 479.258 367 472C355.049 457.029 341.526 446.618 322 445M555 656L564 656L564 652C559.868 652.035 556.663 651.803 555 656z"/>
</svg>
