<?xml version="1.0" standalone="yes"?>
<svg width="661" height="773">
<path style="fill:#fdfcfb; stroke:none;" d="M0 0L0 266C47.0409 276.419 94.9932 280.938 142.412 288.357C161.589 291.357 180.225 304.201 200.1 299.325C214.903 295.694 225.543 283.763 236.502 274.004C246.783 264.848 257.925 257.551 270 251C300.211 237.956 335.292 229.107 367.677 223.304C383.564 220.457 404.656 223.941 418.001 213.257C426.595 206.378 429.978 194.983 435.245 185.721C441.254 175.155 449.279 165.902 458.035 157.525C483.999 132.684 518.937 119.12 543.169 92.5838C562.727 71.166 584.226 35.131 614.955 29.3307C645.485 23.5679 647.41 59.8152 647.105 81.011C646.788 103.041 641.092 123.861 636.25 145.191C629.041 176.954 621.878 210.931 603 238L600 238L598 245C596.949 269.636 593.822 287.776 574 304C573.368 323.758 562.502 342.599 563.727 361.976C564.704 377.42 572.949 391.462 576.033 406.505C580.118 426.428 578.687 446.899 577 467L570 476L572 472L573 472L573 483C562.702 490.102 558.138 499.914 553 511L548 525L551 538L563 542L563 545L576 552C566.275 556.373 558.043 560.848 551 569C547.135 570.53 547.087 573.1 547 577L596 604C598.778 610.387 602.013 614.401 608 618L606 601L609 599L611 599C609.421 614.781 605.914 630.12 603.557 645.776C601.348 660.442 600.26 675.56 592.542 688.629C581.541 707.257 559.823 718.427 538.96 721.71C507.949 726.589 458.715 699.812 435.83 731.572C416.899 757.845 450.118 771.854 471.128 772.704C534.226 775.256 597.85 773 661 773L661 0L0 0z"/>
<path style="fill:#b8a992; stroke:none;" d="M270 251C257.855 257.231 246.749 264.296 236.502 273.363C225.501 283.099 214.874 295.179 200.1 298.949C180.595 303.927 162.195 291.28 143.365 288.314C95.6405 280.798 47.4259 276.126 0 266L0 271L10 273L10 276L53 279L53 282L87 286L90 292L131 300L135 297C137.061 306.669 153.989 299.098 155 306L172 307L172 311C196.843 309.516 213.231 302.218 232 286L232 282C236.874 281.842 248.338 279.726 250 275L256 270L305 258C305 254.096 311.411 252 315 252L322 244L391 231L391 228C400.127 228.049 409.656 228.115 418.131 224.234C437.018 215.585 440.999 187.989 452.629 172.352C474.079 143.511 505.275 131.22 532.413 109.597C551.268 94.5734 564.207 72.9189 581.788 56.3726C592.847 45.9638 613.405 27.8672 629.919 37.2657C637.078 41.3401 639.255 49.9792 640.056 57.5965C641.767 73.8535 640.277 90.6842 640 107C634.874 108.5 634.614 117.346 633.718 122C631.345 134.312 629.548 146.51 627.736 159C627.008 164.017 625.971 168.961 621 171C619.499 159.692 616.426 151.848 608 144L619 126L615 126L620 122L622 118L622 117L622 116L619 107L617 77L620 77L619 58L582 72L578 79L574 79C556.741 99.1382 540.555 117.809 515 127L478 158L473 165L468 165L468 185L473 185C478.12 198.084 475.257 217.869 487 227C495.264 235.997 504.227 242.304 515 248L516 235L510 228L504 226L509 217L503 214L503 210L553 234L564 248L558 248C552.559 263.714 553.156 276.966 557 293L564 293L564 296L574 300L571 331L537 320L537 314L533 314L533 310L527 310L527 307C516.492 298.104 510.087 288.773 505 276L502 273L488 272L485 275L485 281L488 281L488 289L486 292C500.088 309.686 501.001 326.313 497 348L500 355L501 355L533 353L533 359C540.052 362.077 555.118 373.117 544 380L544 381L546 382L544 384L547 389L533 391L538 408L541 408L539 428L541 428L544 406C550.377 411.098 553.024 415.899 554 424L555 424L562 418L561 413L565 432L560 432L551 466L551 470L548 470L552 482L554 481L557 483L555 490L544 491L546 501L505 503L505 510L499 514L495 514L492 518L502 525L523 560L505 563L509 569L509 573L512 573L512 577L516 577C526.617 591.774 539.084 601.819 554 612L558 612L560 621L574 621L575 649L577 648L577 656L574 656L572 664L567 664L563 676L576 673L582 680L582 684L579 684C577.822 692.693 564.302 701.346 556.982 705.449C553.356 707.481 548.258 707.701 547 712L509 712L509 706L533 704L533 698L542 691L547 691L550 683C534.072 687.994 518.663 690.351 502 691L495 676L486 667L466 650L462 652L462 630L455 632L461 616L442 624L438 616L432 616L435 632L445 642L442 646L435 646L440 659L423 661L423 664L411 663L423 654L423 649C411.381 646.639 416.629 634.235 408 628L403 623L393 628L394 622C400.451 619.98 396.537 615.554 392 614L392 611C364.291 613.383 340.601 607.19 315 597L283 584L273 574L273 570C268.827 568.372 267.922 564.079 267 560L231 549L233 562L234 560L235 560L239 566L260 597L269 605L269 606L267 606L267 607L291 620C295.816 627.717 305.664 626.313 313 623L336 625L339 631L346 640L372 647L371 649L385 648L388 657L398 663L401 669C396.708 669.641 398 677.47 398 681L412 680L414 689L414 690L414 691L416 694L417 694L418 692L433 691L433 688L443 688L443 691L447 691L447 694L470 707L443 707L419 731L425 712L412 712C412 718.385 410.299 726.732 417 730L420 760L424 760L440 773C426.675 748.367 430.703 722.213 462.474 717.228C481.161 714.296 499.137 720.704 517.559 722.456C537.079 724.312 557.098 719.594 573.526 708.796C597.561 692.999 600.078 668.933 604.267 642.828C606.62 628.172 609.68 613.814 611 599L609 599L606 601L608 618L596 604C579.92 593.867 565.214 583.039 547 577L551 569C558.275 561.256 566.479 556.539 576 552L563 545L563 542L551 538L548 525C553.694 523.786 553 515.675 553 511C565.1 507.464 553.993 475.96 573 483L573 472L572 472L570 476L577 467C578.796 446.583 580.219 425.789 576.042 405.55C573.009 390.855 565.034 377.076 564.146 361.976C563.003 342.527 573.822 323.929 574 304C594.484 288.202 597.143 269.732 598 245L600 238L603 238C606.326 231.85 613.82 229.665 616.614 223.313C620.802 213.792 619.81 201.316 623.182 191.303C625.756 183.659 630.171 176.934 632.191 169C635.102 157.569 635.192 145.643 638.328 134.177C643.188 116.408 650.489 97.9421 648.191 79C645.64 57.9727 653.153 20.4099 620.236 24.4602C615.895 24.9943 611.286 26.2518 607.226 27.8657C593.661 33.2565 584.44 45.3256 574.943 55.6326C567.237 63.9965 558.308 71.9459 551.25 80.8102C546.837 86.3521 545.143 93.4275 539.858 98.3469C514.178 122.253 476.106 132.289 453.007 159.461C446.564 167.039 434.24 177.384 430.492 186.37C425.961 197.236 432.167 209.722 420.717 217.899C409.19 226.131 390.181 219.969 377 220.158C361.188 220.385 345.722 229.202 330.734 233.507C318.528 237.012 306.005 236.58 294 241.235C286.074 244.309 275.108 243.526 270 251z"/>
<path style="fill:#3d3731; stroke:none;" d="M391 228L391 231L322 244L315 252C311.026 252.017 304.973 253.413 305 258L256 270L250 275L232 282L232 286C213.065 301.661 196.68 309.359 172 311L172 307L155 306L135 297L131 300L90 292L87 286L53 282L53 279L10 276L10 273L0 271L0 287L48 289L50 296L62 296L76 304L96 307L96 308C93.6868 314.738 95.9347 327.964 102 332L102 344L111 346L111 348L108 349L109 361L103 362L104 350C93.2065 351.371 85.5025 353.883 78 362L74 362L70 368L66 367C59.5045 372.593 59.8741 361.256 57.4793 358.003C55.4371 355.228 51.0432 353.44 48 352L48 348L56 347L56 344L61 344C56.7177 338.717 52.8112 336.462 46 336L24 323L24 319L8 320L13 308L0 308L0 379L11 384C30.1312 393.074 48.8148 403.564 65.2934 416.964C73.654 423.762 82.2779 432.051 84.2696 443.122C86.3546 454.712 81.0678 466.43 77 477L66 491L63 491L63 496L38 518C28.0524 524.456 18.4973 531.337 11.634 541.198C-4.83707 564.864 0.000712686 598.719 8.90974e-05 626L0 773L432 773L432 772L424 760L420 760L417 730C410.804 725.846 412.001 718.698 412 712L425 712L419 731L443 707L470 707L447 694L447 691L443 691L443 688L433 688L433 691L418 692L417 694L416 694L414 691L414 690L414 689L416 689L412 680L398 681C398 676.469 397.292 668.073 401 669C400.987 665.806 401.403 663.729 398 663C397.532 659.126 391.624 657.767 388 657L385 648L371 649L372 647L346 640L339 631L336 625L313 623C305.231 626.204 296.632 627.173 291 620L267 607L267 606L269 606L269 605L260 597L239 566L235 560L234 560L233 562L231 549L267 560L273 570L273 574L283 584L315 597C316.744 602.963 329.636 602.7 334.94 604.449C352.495 610.238 373.472 619.113 392 611L392 614C396.183 615.815 399.913 619.716 394 622L393 628C396.242 627.659 403.023 626.606 403 623L408 628L423 649L423 654L411 663L423 664L423 661L440 659L435 646L442 646L441 643L445 642L435 632L432 616L438 616L442 624L461 616L455 632L462 630L462 652L466 650L486 667L495 676L502 691C518.703 690.414 534.075 688.155 550 683L547 691L542 691L533 698L533 704L509 706L509 712L547 712L579 684L582 684L582 680L576 673L563 676L567 664L572 664L574 656L577 656L577 648L575 649L574 621L560 621L558 612L554 612C539.489 601.556 526.88 591.338 516 577L512 577L512 573L509 573L509 569L505 563L523 560L502 525L492 518L495 514L499 514L505 510L505 503L546 501L544 491L555 490L557 483L554 481L552 482L548 470L551 470L551 466C559.93 460.76 554.504 451.836 554.794 444.004C554.964 439.435 558.183 435.976 560 432L565 432C564.924 427.484 565.62 413.99 561 413L562 418L539 428L541 408L538 408L533 391L547 389L544 381L544 380C555.935 373.35 540.259 361.778 533 359L533 353L501 355L500 355L497 348C501.371 326.375 500.676 309.353 486 292L488 289L488 281L485 281L485 275L488 272L502 273L505 276C509.86 289.053 516.093 298.286 527 307L527 310L533 310L533 314L537 314L537 320L571 331L574 300L564 296L564 293L557 293C553.36 277.016 552.792 263.682 558 248L564 248L553 234L550 235C535.57 223.103 520.529 216.189 503 210L503 214L509 217L504 226L510 228L516 235L515 248L487 227L473 185L468 185L468 165L473 165L478 158L515 127C540.931 118.327 557.142 99.6505 574 79L578 79L582 72L619 58L620 77L617 77L619 107L622 116L622 117L622 118L620 122L615 126L619 126L608 144C614.579 152.394 618.385 160.676 621 171C628.417 166.506 627.48 157.642 628.47 150C630.112 137.314 631.083 116.831 640 107C640.336 90.6654 641.782 73.8784 640.231 57.5881C639.51 50.0109 637.557 41.3226 630.57 37.061C614.456 27.2324 593.616 44.6557 582.583 54.8835C564.331 71.8029 551.111 94.1888 531.62 109.597C504.433 131.089 473.25 143.402 451.989 172.352C440.176 188.439 436.467 216.231 416.535 224.543C408.469 227.907 399.594 227.953 391 228M593 248C574.627 253.345 588.074 266.566 593 248z"/>
<path style="fill:#b8a992; stroke:none;" d="M0 287C1.64893 296.717 4.01423 303.232 13 308L8 320L24 319L24 323L46 336C52.7669 336.523 56.6667 338.815 61 344L56 344L56 347L48 348L48 352C50.4337 353.041 57.7771 356.635 58.6667 359.028C59.7732 362.004 57.9132 365.968 59.9444 368.667C62.1425 371.587 65.421 369.702 66 367L70 368L74 362L78 362L104 350L103 362L109 361L108 349L111 348L111 346L102 344L102 332L96 308L96 307L76 304L62 296L50 296L48 289L0 287M460 397L470 408L482 438L485 441L490 442L488 448L494 449L494 443L502 456L527 463L527 459C493.056 432.177 492.655 394.73 498 355C492.468 353.16 486.877 351.263 481.039 350.706C452.412 347.976 455.302 378.097 460 397M0 379L0 388L21 394C39.8911 408.828 85.4663 425.586 73.9461 456.186C71.5624 462.517 67.9567 468.416 64.1141 473.956C59.3469 480.829 53.7804 486.977 48 493C28.1192 510.718 10.0476 527.826 0 553C11.4602 539.515 23.3334 527.974 38 518L63 496L63 491L66 491L77 477C81.2866 466.462 86.7353 454.793 84.7635 443.122C82.8957 432.066 74.4053 423.761 66.0904 416.964C49.4604 403.369 30.5442 392.756 11 384C9.68197 379.494 4.152 379.496 0 379z"/>
<path style="fill:#fdfcfb; stroke:none;" d="M0 388L0 540L48 493C53.8231 487.26 59.3888 481.374 64.1302 474.689C67.8562 469.435 71.2995 463.849 73.787 457.893C87.1632 425.867 41.1548 409.014 21 394L0 388M554 403L560 403C560.484 400.081 561.625 395.619 558.393 393.822C556.464 392.749 546.743 391.898 547.304 395.842C547.657 398.317 552.567 400.746 554 403M544 406L541 428L551 428L554 425C553.441 416.307 551.006 411.248 544 406z"/>
<path style="fill:#b8a992; stroke:none;" d="M551 425L543 428L543 429C547.538 428.997 552.099 429.798 554 425L551 425M322 445C317.323 460.015 314.893 474.256 315 490C334.022 500.082 351.525 504.25 373 505L377 500C376.326 489.43 375.48 479.258 367 472C353.899 457.972 340.926 449.075 322 445M555 656L564 656L564 652C559.868 652.035 556.663 651.803 555 656z"/>
</svg>
