<?xml version="1.0" standalone="yes"?>
<svg width="661" height="773">
<path style="fill:#fdfcfb; stroke:none;" d="M0 0L0 266C43.6535 274.262 87.5512 280.881 131.405 287.94C153.561 291.506 177.497 299.371 199.916 293.842C225.949 287.421 248.134 265.586 270 251C298.331 241.103 327.125 232.941 356.478 226.657C377.146 222.233 400.396 220.256 417.419 206.487C435.938 191.507 447.902 169.344 465.497 153.134C490.54 130.062 520.376 113.195 544.697 89.1918C563.591 70.5433 585.75 39.0162 614.462 36.1836C641.42 33.524 645.51 66.6325 645.035 86.3137C643.793 137.695 626.454 192.668 603 238L600 238L598 245C594.059 267.378 587.157 285.412 574 304L567.563 362.189L575.42 414.647L577 467L570 476L572 472L573 472L573 483C562.702 490.102 558.138 499.914 553 511L548 525L551 538L563 542L563 545L576 552C566.275 556.373 558.043 560.848 551 569C547.135 570.53 547.087 573.1 547 577L596 604C598.778 610.387 602.013 614.401 608 618L606 601L609 599L611 599C604.129 644.761 599.361 701.01 546.938 716.175C523.177 723.049 499.079 717.324 474.962 719.628C463.051 720.766 449.268 724.572 442.482 735.338C426.636 760.478 465.93 770.373 482.667 771.806C541.476 776.84 601.999 773 661 773L661 0L0 0z"/>
<path style="fill:#b8a992; stroke:none;" d="M270 251C247.781 265.382 225.331 287.394 199.066 293.611C176.639 298.919 152.611 291.09 130.445 287.599C86.9019 280.742 43.3496 274.03 0 266L0 271L10 273L10 276L53 279L53 282L87 286L90 292L131 300L135 297C137.061 306.669 153.989 299.098 155 306L172 307L172 311C194.181 306.107 212.874 298.242 232 286L232 282C236.874 281.842 248.338 279.726 250 275L256 270L305 258C305 254.096 311.411 252 315 252L322 244L391 231L391 228C401.516 225.267 411.953 222.255 420.779 215.648C440.576 200.83 451.159 175.543 468.349 157.903C495.621 129.916 530.191 110.717 557.603 82.533C561.206 78.8292 564.804 75.1209 568.486 71.4959C584.201 56.0247 624.41 22.9124 636.177 60.1846C637.792 65.2985 638.579 70.6531 639.083 75.9787C640.06 86.2797 639.979 96.6637 640 107C634.874 108.5 634.614 117.346 633.718 122C631.345 134.312 629.548 146.51 627.736 159C627.008 164.017 625.971 168.961 621 171C619.499 159.692 616.426 151.848 608 144L619 126L615 126L620 122L622 118L622 117L622 116L619 107L617 77L620 77L619 58L582 72L578 79L574 79C556.065 98.0143 537.647 113.836 515 127L478 158L474 158L476 167C472.565 173.483 473.531 180.966 480 185C479.83 198.709 474.357 217.362 487 227L515 248L516 235L510 228L504 226L509 217L503 214L503 210L553 234L564 248L558 248L557 293L564 293L564 296L574 300L571 331L537 320L537 314L533 314L533 310L527 310L527 307L505 276L502 273L488 272L485 275L485 281L488 281L488 289L486 292C493.947 310.59 497.072 327.809 497 348L500 355L501 355L533 353L533 359C540.052 362.077 555.118 373.117 544 380L544 381L546 382L544 384L547 389L533 391L538 408L541 408L539 428L541 428L544 406C550.377 411.098 553.024 415.899 554 424L555 424L562 418L561 413L565 432L560 432L551 466L551 470L548 470L552 482L554 481L557 483L555 490L544 491L546 501L505 503L505 510L499 514L495 514L492 518L502 525L523 560L505 563L509 569L509 573L512 573L512 577L516 577L554 612L558 612L560 621L574 621L575 649L577 648L577 656L574 656L572 664L567 664L563 676L576 673L582 680L582 684L579 684C577.822 692.693 564.302 701.346 556.982 705.449C553.356 707.481 548.258 707.701 547 712L509 712L509 706L533 704L533 698L542 691L547 691L550 683L502 691L495 676L486 667L466 650L462 652L462 630L455 632L461 616L442 624L438 616L432 616L435 632L445 642L442 646L435 646L440 659L423 661L423 664L411 663L423 654L423 649C411.381 646.639 416.629 634.235 408 628L403 623L393 628L394 622C400.451 619.98 396.537 615.554 392 614L392 611C365.059 610.237 340.576 605.393 315 597L283 584L273 574L273 570C268.827 568.372 267.922 564.079 267 560L231 549L233 562L234 560L235 560L239 566L260 597L269 605L269 606L267 606L267 607L291 620C295.816 627.717 305.664 626.313 313 623L336 625L339 631L346 640L372 647L371 649L385 648L388 657L398 663L401 669C396.708 669.641 398 677.47 398 681L412 680L414 689L414 690L414 691L416 694L417 694L418 692L433 691L433 688L443 688L443 691L447 691L447 694L470 707L443 707L419 731L425 712L412 712C412 718.385 410.299 726.732 417 730L420 760L424 760L440 773C438.685 765.998 437.299 758.891 437.72 751.731C438.823 732.983 454.104 722.914 471.406 720.361C503.493 715.627 535.401 726.249 565.314 708.795C602.947 686.835 605.464 637.609 611 599L609 599L606 601L608 618L596 604L547 577L551 569C558.275 561.256 566.479 556.539 576 552L563 545L563 542L551 538L548 525C553.694 523.786 553 515.675 553 511C565.1 507.464 553.993 475.96 573 483L573 472L572 472L570 476L577 467L575.604 414.647L568.003 363.105L574 304C587.554 285.496 594.27 267.561 598 245L600 238L603 238C606.326 231.85 613.82 229.665 616.614 223.313C620.802 213.792 619.81 201.316 623.182 191.303C625.756 183.659 630.171 176.934 632.191 169C635.102 157.569 635.192 145.643 638.328 134.177C643.188 116.408 650.489 97.9421 648.191 79C645.64 57.9727 653.153 20.4099 620.236 24.4602C615.895 24.9943 611.286 26.2518 607.226 27.8657C593.661 33.2565 584.44 45.3256 574.943 55.6326C567.237 63.9965 558.308 71.9459 551.25 80.8102C546.837 86.3521 545.143 93.4275 539.858 98.3469C514.178 122.253 476.106 132.289 453.007 159.461C446.564 167.039 434.24 177.384 430.492 186.37C425.961 197.236 432.167 209.722 420.717 217.899C409.19 226.131 390.181 219.969 377 220.158C361.188 220.385 345.722 229.202 330.734 233.507C318.528 237.012 306.005 236.58 294 241.235C286.074 244.309 275.108 243.526 270 251z"/>
<path style="fill:#3f3933; stroke:none;" d="M391 228L391 231L322 244L315 252C311.026 252.017 304.973 253.413 305 258L256 270L250 275L232 282L232 286C212.849 298.046 194.063 305.956 172 311L172 307L155 306L135 297L131 300L90 292L87 286L53 282L53 279L10 276L10 273L0 271L0 287L48 289L50 296L62 296L76 304L96 307L96 308C93.6868 314.738 95.9347 327.964 102 332L102 344L111 346L111 348L108 349L109 361L103 362L104 350C93.2065 351.371 85.5025 353.883 78 362L74 362L70 368L66 367C59.5045 372.593 59.8741 361.256 57.4793 358.003C55.4371 355.228 51.0432 353.44 48 352L48 348L56 347L56 344L61 344C56.7177 338.717 52.8112 336.462 46 336L24 323L24 319L8 320L13 308L0 308L0 379L11 384C35.8119 397.601 70.7066 414.196 77.855 444.474C80.3977 455.243 78.715 466.248 77 477L66 491L63 491L63 496L38 518C27.503 528.069 17.2772 538.418 10.8017 551.633C-3.78143 581.393 0.0266841 618.833 0.00564891 651.001L0 773L432 773L432 772L424 760L420 760L417 730C410.804 725.846 412.001 718.698 412 712L425 712L419 731L443 707L470 707L447 694L447 691L443 691L443 688L433 688L433 691L418 692L417 694L416 694L414 691L414 690L414 689L416 689L412 680L398 681C398 676.469 397.292 668.073 401 669C400.987 665.806 401.403 663.729 398 663C397.532 659.126 391.624 657.767 388 657L385 648L371 649L372 647L346 640L339 631L336 625L313 623C305.231 626.204 296.632 627.173 291 620L267 607L267 606L269 606L269 605L260 597L239 566L235 560L234 560L233 562L231 549L267 560L273 570L273 574L283 584L315 597C316.744 602.963 329.636 602.7 334.94 604.449C352.495 610.238 373.472 619.113 392 611L392 614C396.183 615.815 399.913 619.716 394 622L393 628C396.242 627.659 403.023 626.606 403 623L408 628L423 649L423 654L411 663L423 664L423 661L440 659L435 646L442 646L441 643L445 642L435 632L432 616L438 616L442 624L461 616L455 632L462 630L462 652L466 650L486 667L495 676L502 691L550 683L547 691L542 691L533 698L533 704L509 706L509 712L547 712L579 684L582 684L582 680L576 673L563 676L567 664L572 664L574 656L577 656L577 648L575 649L574 621L560 621L558 612L554 612L516 577L512 577L512 573L509 573L509 569L505 563L523 560L502 525L492 518L495 514L499 514L505 510L505 503L546 501L544 491L555 490L557 483L554 481L552 482L548 470L551 470L551 466C559.93 460.76 554.504 451.836 554.794 444.004C554.964 439.435 558.183 435.976 560 432L565 432C564.924 427.484 565.62 413.99 561 413L562 418L539 428L541 408L538 408L533 391L547 389L544 381L544 380C555.935 373.35 540.259 361.778 533 359L533 353L501 355L500 355L497 348C497.405 327.645 494.361 310.601 486 292L488 289L488 281L485 281L485 275L488 272L502 273L505 276L527 307L527 310L533 310L533 314L537 314L537 320L571 331L574 300L564 296L564 293L557 293L558 248L564 248L553 234L550 235L503 210L503 214L509 217L504 226L510 228L516 235L515 248L487 227L480 185C474.093 180.203 472.995 173.878 476 167L474 158L478 158L515 127C537.972 114.096 556.229 98.3646 574 79L578 79L582 72L619 58L620 77L617 77L619 107L622 116L622 117L622 118L620 122L615 126L619 126L608 144L621 171C628.417 166.506 627.48 157.642 628.47 150C630.112 137.314 631.083 116.831 640 107C640.018 96.3585 640.151 85.6625 639.147 75.0563C638.645 69.758 637.859 64.4301 636.237 59.3473C624.434 22.3682 584.098 55.4156 568.486 70.7572C564.801 74.3779 561.203 78.0849 557.603 81.7896C530.191 110 495.699 129.247 468.349 157.16C451.023 174.842 440.478 200.034 420.779 215.136C411.976 221.885 401.543 225.089 391 228M593 248C589.395 248.917 585.757 249.809 582.36 251.359C580.188 252.349 578.115 253.598 576.36 255.228C565.086 265.701 581.826 273.044 588.855 260.001C590.873 256.256 591.914 252.084 593 248z"/>
<path style="fill:#b8a992; stroke:none;" d="M0 287C1.64893 296.717 4.01423 303.232 13 308L8 320L24 319L24 323L46 336C52.7669 336.523 56.6667 338.815 61 344L56 344L56 347L48 348L48 352C50.4337 353.041 57.7771 356.635 58.6667 359.028C59.7732 362.004 57.9132 365.968 59.9444 368.667C62.1425 371.587 65.421 369.702 66 367L70 368L74 362L78 362L104 350L103 362L109 361L108 349L111 348L111 346L102 344L102 332L96 308L96 307L76 304L62 296L50 296L48 289L0 287M460 397L470 408L482 438L485 441L490 442L488 448L494 449L494 443L502 456L527 463L527 459C499.673 427.249 494.808 395.921 498 355C492.469 354.813 486.873 354.572 481.385 355.459C460.244 358.876 459.413 379.569 460 397M0 379L0 388L21 394C46.4099 412.299 80.9662 433.393 63.395 469.129C59.2075 477.645 53.5487 485.34 48 493C29.3993 511.459 13.6038 530.567 0 553L38 518L63 496L63 491L66 491L77 477C78.8748 466.273 80.735 455.278 78.3192 444.474C71.4804 413.889 36.047 397.315 11 384C9.68197 379.494 4.152 379.496 0 379z"/>
<path style="fill:#fdfcfb; stroke:none;" d="M0 388L0 540L48 493C53.6064 485.531 59.3088 478.028 63.5845 469.69C82.1137 433.558 46.9729 412.204 21 394L0 388M554 403L560 403C560.484 400.081 561.625 395.619 558.393 393.822C556.464 392.749 546.743 391.898 547.304 395.842C547.657 398.317 552.567 400.746 554 403M544 406L541 428L551 428L554 425C553.441 416.307 551.006 411.248 544 406z"/>
<path style="fill:#b8a992; stroke:none;" d="M551 425L543 428L543 429C547.538 428.997 552.099 429.798 554 425L551 425M322 445L315 490C334.036 497.211 352.865 502.023 373 505L377 500C376.326 489.43 375.48 479.258 367 472C352.85 461.004 338.393 452.25 322 445M555 656L564 656L564 652C559.868 652.035 556.663 651.803 555 656z"/>
</svg>
