<?xml version="1.0" standalone="yes"?>
<svg width="661" height="773">
<path style="fill:#faf8f6; stroke:none;" d="M0 0L0 271C38.63 276.264 77.1378 282.345 115.747 287.752C141.293 291.33 168.14 296.27 193.829 291.383C228.127 284.857 259.242 261.826 291 248C328.743 235.761 373.397 230.5 407.943 210.642C430.587 197.627 446.757 176.1 465.116 158.042C485.78 137.716 508.948 120.272 530.758 101.242C549.903 84.5372 567.685 64.7983 589.509 51.5043C598.818 45.8335 611.053 40.4103 621.953 44.7712C639.198 51.6706 640.404 76.3768 640.167 91.9394C639.495 136.154 626.198 180.28 616 223L608 223L609 210L608 210L602 211L608 208L608 204L605 204L596 195C595.679 200.377 593.953 203.41 590 207L590 208L590 209L592 215L582 216C570.906 225.001 578.757 229.485 584 240L596 241C590.627 256.747 583.763 268.213 571 279L571 282L567 282L567 289L582 294L574 304C566.894 356.068 573.942 405.868 574 458L563 478L562 478L562 476L561 476L558 496L555 496L553 507L547 507L536 514L547 538L551 560L547 560L546 569L547 569L548 566L550 566L551 569L542 574L540 577L540 578L564 584L564 587L575 604L578 604L578 614L581 614L584 649L581 649L578 660L571 669L581 667L584 660L592 660L596 664L581 702L587 687L582 685L578 688L578 694L554 706L562 713C544.086 715.818 526.267 717.764 508.143 718.518C490.813 719.239 470.523 718.752 455.36 728.529C452.947 730.085 450.707 731.944 448.876 734.164C433.36 752.978 461.799 765.792 476.33 768.798C500.965 773.893 526.99 772.879 552.013 772.959C588.342 773.074 624.671 773 661 773L661 0L0 0z"/>
<path style="fill:#9f876a; stroke:none;" d="M401 224L401 225C412.806 227.077 428.389 222.966 432.017 209.963C434.01 202.819 431.643 194.935 435.07 188.126C440.377 177.58 452.159 168.094 459.848 159.108C465.612 152.371 473.871 148.833 480.909 143.677C487.399 138.922 492.98 132.223 500.118 128.484C511.859 122.334 526.718 118.066 536.947 109.511C546.25 101.731 550.891 89.822 557.75 80.1328C563.141 72.5175 570.628 68.2787 576.985 61.7723C590.68 47.7551 599.881 35.2396 620.003 30.253C637.948 25.806 642.647 40.4345 641.536 55C640.347 70.5919 641.46 86.3707 639.704 101.881C638.087 116.169 633.331 130.397 629.488 144.168C626.885 153.494 629.468 164.353 621 171C619.499 159.692 616.426 151.848 608 144L619 126L615 126L620 122L622 118L622 117L622 116L619 107L617 77L620 77L619 58L582 72L578 79L574 79L540 119L547 117L585 97L578 104L578 110L570 114L568 117L570 120L562 128L554 136L550 134L550 144L527 152L526 146L522 146L522 141L526 141L533 136L536 128L540 128L540 120L515 127L478 158L474 158L476 167C472.565 173.483 473.531 180.966 480 185C479.83 198.709 474.357 217.362 487 227C489.49 234.924 497.909 234.72 498.786 225.951C499.678 217.034 493.782 213.508 492.15 205.837C491.415 202.381 493.299 200.603 496 199L495 202L515 210C516.091 213.731 519.902 214.28 523.259 215.801C526.445 217.244 530.654 217.333 533.509 219.213C539.589 223.216 544.841 234.813 553 234L564 248L558 248L557 293L564 293L564 296L574 300L571 331L537 320L537 314L533 314L533 310L527 310L527 307L505 276L502 273L488 272L485 275L485 281L488 281L488 289L486 292L497 348L500 355L501 355L533 353L533 359C540.052 362.077 555.118 373.117 544 380L544 381L546 382L544 384L547 389L533 391L538 408L541 408L539 428L541 428L544 406C550.377 411.098 553.024 415.899 554 424L555 424L562 418L561 413L565 432L560 432L551 466L551 470L548 470L552 482L554 481L557 483L555 490L544 491L546 501L505 503L505 510L499 514L495 514L492 518L502 525L523 560L505 563L509 569L509 573L512 573L512 577L516 577L554 612L558 612L560 621L574 621L575 649L577 648L577 656L574 656L574 660L578 660L581 649L584 649L581 614L578 614L578 604L575 604L564 587L564 584L540 578L540 577L543 577L542 574L551 569L550 566L548 566L547 569L546 569L547 560L551 560L547 538L536 514C540.015 513.524 545.824 511.025 547 507L553 507L555 496L558 496L561 476L562 476L562 478L563 478L574 458C574.216 405.96 567.404 356 574 304L582 294L567 289L567 282L571 282L571 279C584.134 268.384 590.82 256.975 596 241L584 240L580.274 229.586L571.802 223.945L582 216L592 215L590 209L590 208L590 207C595.406 204.361 596 200.629 596 195L605 204L608 204L608 208L602 211L608 210L609 210L608 223L616 223C621.857 198.993 627.906 175.006 632.76 150.771C635.661 136.287 638.164 121.682 639.495 106.962C641.617 83.4781 641.034 32.8275 603.805 44.1875C598.761 45.7267 594.007 48.1296 589.51 50.8589C581.325 55.8268 573.871 61.938 566.665 68.2134C534.156 96.5238 499.842 123.888 468.827 153.786C445.353 176.414 425.008 201.853 401 224z"/>
<path style="fill:#685c4e; stroke:none;" d="M384 228L322 244L315 252C311.026 252.017 304.973 253.413 305 258L256 270L250 275L232 282L232 286L172 311L172 307L155 306L135 297L131 300L90 292L87 286L53 282L53 279L10 276L10 273L0 271L0 287L48 289L50 296L62 296L76 304L96 307L96 308L101 336L96 334L96 347L95 347L95 344L90 344L90 347L70 355L72 347L69 350L46 336L24 323L24 319L8 320L13 308L0 308L0 383C26.5585 395.417 57.2594 409.558 69.8824 437.991C74.6604 448.753 75.94 460.397 77 472L97 443C101.633 442.252 112.449 439.411 114 435C118.282 432.116 119.364 429.019 120 424L125 424L123 415L111 403L112 393C126.185 394.625 146.275 400.131 152 383L149 384L143 373L143 369L134 369L118 327L114 326C115.811 315.711 118.916 309.457 128 304L128 307L208 337L207 332L212 330L211 324L218 317L225 317L232 311L231 307L235 307L235 311L240 306L248 304C248.854 307.987 252.489 307 256 307L256 300L264 300L263 297L259 298L259 293L264 293L264 296L270 296C271.465 293.196 274.984 290.637 272 288L272 287L279 286L276 302L286 304L286 300L301 301L301 296L312 304L311 296L319 298L328 296L328 304L333 304L333 300L341 302L354 316L354 311L343 300L343 292L353 302L343 288L344 277L352 276L352 272L357 269L352 269L352 263L368 265C370.831 272.154 385.395 271.962 392 272L392 273L388 273L388 274L394 274L394 282C402.879 285.283 406.894 290.769 413.444 297.389C415.532 299.499 418.565 299.878 419 303L426 303L425 307L429 311L451 313L451 317L458 323L464 327L475 331C475.013 334.194 474.597 336.271 478 337L478 338L474 336L450 356L447 356L447 368L448 368L448 366L449 366C447.712 380.476 447.753 396.891 460 407L463 410L471 461L475 465L498 476C505.603 474.565 512.943 473.541 516 482L520 481L523 483C514.628 494.371 501.092 497.964 492.352 508.532C473.48 531.352 482.792 559.945 486 586C478.157 587.681 491.082 594.06 485 597L486 600L484 608L480 609L480 603L475 605L470 598L458 594L449 570L445 570C439.085 562.899 433.071 560.803 424 560L424 564L381 597L380 604L315 597L284 584L277 560C285.373 557.85 284.272 549.692 276.151 547.777C258.979 543.728 241.321 542.28 224 539L226 563L231 563C260.626 602.324 293.719 624.52 339 643L356 646C354.852 642.076 349.78 640.8 346 640L339 631L328 620C328 616.85 326.434 612.46 330 612L328 608L392 611L392 614C396.183 615.815 399.913 619.716 394 622L393 628C396.242 627.659 403.023 626.606 403 623L408 628L423 649L423 654L398 657L398 658L400 658L400 659L388 657L385 648L371 649L372 647L357 647L357 649L375 650L381 657L381 658L378 658L378 659L395 677C390.615 678.283 391.07 682.126 392 686L405 687L405 698L402 698L396 727L402 740L408 746C413.65 758.145 420.701 765.843 432 773L432 772L424 760L420 760L417 730C410.804 725.846 412.001 718.698 412 712L425 712L419 731L443 707L470 707L447 694L447 691L443 691L443 686L436 685L437.718 669.956L452 664L440 663L443 660L445 655L437 648L442 647L441 643L445 642L435 632L432 616L438 616L442 624L461 616L455 632L462 630L462 652L466 650L491 687C494.978 689.618 495.705 692.367 496 697C502.119 701.394 491.843 705.486 496.623 710.063C499.68 712.99 505.208 711.569 509 711.997C521.844 713.446 534.155 712.455 547 712L547 709L518 709L533 704C536.04 698.862 541.41 698.163 547 698L551 694L551 688L554 688L571 677L571 684L577 684L577 690L571 694L579 684L582 684L582 680L576 673L563 676L563 670L557 671L547 681C514.611 675.113 495.461 661.267 476 635L488 631C496.098 620.725 509.127 623.894 520 628L527 618L533 618L533 615L546 615C548.722 622.137 552.041 627.185 558 632L571 623L570 647L552 647L550 649L574 651L568 663L568 664L572 664L574 656L577 656L577 648L575 649L574 621L560 621L558 612L554 612L516 577L512 577L512 573L509 573L509 569L505 563L523 560L502 525L492 518L495 514L499 514L505 510L505 503L546 501L544 491L555 490L557 483L554 481L552 482L548 470L551 470L551 466C559.93 460.76 554.504 451.836 554.794 444.004C554.964 439.435 558.183 435.976 560 432L565 432C564.924 427.484 565.62 413.99 561 413L562 418L539 428L541 408L538 408L533 391L547 389L544 381L544 380C555.935 373.35 540.259 361.778 533 359L533 353L501 355L500 355L497 348L486 292L488 289L488 281L485 281L485 275L488 272L502 273L505 276L527 307L527 310L533 310L533 314L537 314L537 320L571 331L574 300L564 296L564 299L568 299C568 307.057 571.122 317.159 570.02 324.787C569.041 331.565 562.467 328.951 560 325C555.696 325.154 551.456 321.219 551 317L540 314L540 307L530 306L514 293L502 258L510 252L514 252L525 246L522 262L520 261C525.864 268.238 531.877 270.734 541 272L544 275L544 286L554 286L557 290L558 248L564 248L553 234L550 235L515 210L495 202L496 199C493.289 200.241 491.486 201.679 491.755 204.984C492.36 212.418 499.423 216.588 498.716 224.968C497.984 233.65 490.451 234.486 487 227L480 185C474.093 180.203 472.995 173.878 476 167L474 158L478 158L515 127C536.242 112.596 555.514 96.798 574 79L578 79L582 72L619 58L620 77L617 77L619 107L622 116L622 117L622 118L620 122L615 126L619 126L608 144L621 171C631.014 168.172 626.956 150.887 629.835 143.089C639.982 115.608 639.12 88.7607 641.089 60C641.656 51.7241 645.293 34.2691 634.995 30.7029C619.709 25.4089 598.463 36.0314 588.286 47.2863C583.136 52.9811 579.179 60.6457 572.91 65.2354C556.232 77.4455 551.253 97.7355 535.545 110.579C525.007 119.196 508.868 122 497.29 128.974C491.469 132.48 486.515 138.918 480.985 143.101C464.259 155.756 448.516 167.94 435.649 185.17C429.309 193.659 435.822 205.809 429.867 214.91C425.227 222 413.402 227.099 405 225.741C399.233 224.808 386.661 220.432 384 228z"/>
<path style="fill:#faf8f6; stroke:none;" d="M547 117L540 119L540 128L536 128L533 136C529.291 136.657 527.499 137.471 526 141L522 141L522 146L526 146L527 152L550 144L550 134L554 136L562 128L570 120L568 117C570.475 116.487 570.575 116.396 570 114L578 110L578 104L585 97L547 117z"/>
<path style="fill:#262623; stroke:none;" d="M450 197L444 202L440 212L439 212L439 208L437 208L436 220L441 217L441 220L446 221L445 226L434 224L434 225L439 225L438 231L424 234C422.75 228.167 408.755 233.9 404 234L404 238L398 236L398 240L402 240L400 244C404.049 246.529 404.708 249.381 405 254L408 254L408 246L412 248L412 244L424 241L422 238L431 237L442 251L471 251L470 240L475 240L475 239C471.421 235.323 475.779 231.502 475.889 227.028C476.003 222.374 473.575 218.111 474.083 213C474.459 209.229 476.884 204.047 472 203L473 200L470 197L464 200L464 196L450 197z"/>
<path style="fill:#9f876a; stroke:none;" d="M291 248C259.349 261.427 228.586 283.934 194.695 290.823C172.826 295.267 150.245 292.182 128.364 289.433C103.244 286.277 78.1324 283.061 53 280L53 282L87 286L90 292L131 300L135 297C137.061 306.669 153.989 299.098 155 306L172 307L172 311L232 286L232 282C236.874 281.842 248.338 279.726 250 275L256 270L305 258C305 254.096 311.411 252 315 252L322 244L384 228L400 224C395.641 221.895 389.799 223.253 385 222.94C370.659 222.005 351.711 224.248 338.153 229.954C333.434 231.939 330.409 237.216 324.981 237.917C317.221 238.918 293.659 238.909 291 248z"/>
<path style="fill:#262623; stroke:none;" d="M514 252L510 252L502 258L514 293L530 306L540 307L540 314L551 317L560 325C561.994 329.073 568.686 331.996 570.137 325.6C571.813 318.213 568 306.962 568 299L564 299L564 293L557 293L554 286L544 286L544 275L541 272C532.049 270.542 526.037 267.86 520 261L522 262L525 246C520.741 247.067 515.725 247.64 514 252z"/>
<path style="fill:#685c4e; stroke:none;" d="M593 248C589.395 248.917 585.757 249.809 582.36 251.359C580.188 252.349 578.115 253.598 576.36 255.228C565.086 265.701 581.826 273.044 588.855 260.001C590.873 256.256 591.914 252.084 593 248z"/>
<path style="fill:#262623; stroke:none;" d="M352 263L352 269L357 269L352 272L352 276L344 277L343 288L353 302L343 292L343 300L354 311L354 316L341 302L333 300L333 304L328 304L328 296L319 298L311 296L312 304L301 296L301 301L286 300L286 304L276 302L279 286L272 287L272 288L270 296L264 296L264 293L259 293L259 298L264 300L256 300L256 307L248 304L240 306L235 311L235 307L231 307L232 311L225 317L218 317L211 324L212 330L207 332L208 337L128 307L128 304C118.664 309.324 115.623 315.543 114 326L118 327L134 369L143 369L143 373L149 384L152 383C145.467 399.647 126.429 394.491 112 393L111 403L123 415L125 424L120 424L114 435L97 443L38 525C28.0436 536.061 18.5208 547.372 12.3622 561.062C-1.83789 592.628 0.197879 630.183 0.0572017 664.008C-0.0938928 700.338 1.03551e-05 736.67 0 773L405 773L408 746L402 740L396 727L402 698L405 698L405 687L392 686L395 677L378 659L378 658L381 658L381 657L375 650L357 649L357 646L339 643C334.827 633.758 309.431 634.217 300.22 630.756C279.964 623.145 264.045 609.326 249.981 593.821C241.612 584.596 232.34 576.273 231 563L226 563L224 539C241.026 542.546 258.357 544.608 275.419 547.923C283.594 549.512 285.31 557.27 277 560L284 584L315 597C316.512 602.17 328.087 603.084 332.995 604.023C343.367 606.007 351.882 608.959 363 607.866C368.934 607.282 374.148 604.258 380 604L381 597L424 564L424 560C432.924 560.986 438.902 563.292 445 570L449 570L458 594L470 598L475 605L480 603L480 609L484 608L485 597C492.56 595.372 479.354 589.027 486 586L484 584C482.942 558.878 475.048 531.971 491.961 509.945C500.513 498.809 514.449 494.506 523 483L520 481L516 482C513.479 473.071 505.565 474.358 498 476C493.889 468.871 482.786 465.128 475 465L471 461L463 410L460 407L449 366L448 366L448 368L447 368L447 356L450 356L474 336L478 338L478 337L475 337L475 331L464 327L458 323L451 317L451 313L429 311L425 307L426 303L419 303L394 282L394 274L388 274L388 273L392 273L392 272L368 265L352 263z"/>
<path style="fill:#9f876a; stroke:none;" d="M3 271L3 273L10 273L10 276L52 279L3 271M0 287C1.64893 296.717 4.01423 303.232 13 308L8 320L24 319L24 323L46 336L72 347L70 355L90 347L90 344L95 347L96 347L96 334L101 336L96 308L96 307L76 304L62 296L50 296L48 289L0 287M460 397L470 408L482 438L485 441L490 442L488 448L494 449L494 443L502 456L527 463L527 459C504.636 425.673 497.716 394.874 498 355C473.259 360.641 464.413 372.395 460 397z"/>
<path style="fill:#faf8f6; stroke:none;" d="M474 359C474.998 363.568 475.55 367.781 480 370L480 375L488 375C484.595 367.914 480.617 363.26 474 359z"/>
<path style="fill:#262623; stroke:none;" d="M527 360L520 366L502 366L502 372C493.499 374.487 498.995 398.995 499 406L503 406L514 398L512 414L509 414C511.845 429.81 521.829 460.749 543.749 445.717C547.651 443.041 550.83 439.472 554 436L546 438L540 434L539 413L529 413C529 408.065 534.502 395.179 529 394L544 387L544 386L515 386L521 377L544 375L544 370L540 363L527 360z"/>
<path style="fill:#9f876a; stroke:none;" d="M0 383L0 386L69 420L0 383z"/>
<path style="fill:#faf8f6; stroke:none;" d="M0 386L0 547L1 547C25.1334 521.387 56.7963 494.473 67.9934 460.005C72.2215 446.99 72.3431 433.538 72 420L0 386M554 403L560 403C560.484 400.081 561.625 395.619 558.393 393.822C556.464 392.749 546.743 391.898 547.304 395.842C547.657 398.317 552.567 400.746 554 403M544 406L541 428L551 428L554 425C553.441 416.307 551.006 411.248 544 406z"/>
<path style="fill:#9f876a; stroke:none;" d="M72 422L72 423C71.8432 436.467 71.1646 449.774 66.5341 462.564C54.0603 497.016 22.6265 525.015 0 553L38 518L63 496L63 491L66 491L77 477C77.4404 458.188 75.8936 440.413 72 422M551 425L543 428L543 429C547.538 428.997 552.099 429.798 554 425L551 425z"/>
<path style="fill:#685c4e; stroke:none;" d="M322 446L318 446L308 484L315 487L330 507L370 512L380 474C374.63 473.105 364.21 466.159 365 463L350 448L346 448C342.028 440.495 324.744 435.422 322 446z"/>
<path style="fill:#9f876a; stroke:none;" d="M329 486L329 497L373 505L377 500C376.326 489.43 375.48 479.258 367 472C362.61 463.838 346.88 453.223 337.433 459.099C329.433 464.075 317.406 479.308 329 486z"/>
<path style="fill:#685c4e; stroke:none;" d="M63 493L77 477C72.0635 477.885 65.2403 488.41 63 493M38 518L0 557L38 525L56 501L38 518M346 553L349 556L366 556L366 536L356 532C352.377 527.058 343.106 520.256 342.038 531.103C341.331 538.288 344.343 546.099 346 553M297 532C300.599 539.706 307.297 533.331 297 532z"/>
<path style="fill:#9f876a; stroke:none;" d="M242 554L242 558L239 558L247 567L249 573L246 574L246 577L259 587L269 598C273.564 595.76 273.676 592.74 273 588C275.801 587.4 276.426 585.958 275.528 583C273.142 575.141 268.692 568.756 267 560L242 554M328 608L330 612L327 613L328 620L339 631L346 640L372 647L371 649L385 648L388 657L400 659L400 658L398 658L398 657L423 654L423 649C411.381 646.639 416.629 634.235 408 628L403 623L393 628L394 622C400.451 619.98 396.537 615.554 392 614L392 611L328 608z"/>
<path style="fill:#262623; stroke:none;" d="M533 615L533 618L527 618L520 628C518.869 622.72 511.194 625.666 507 624.889C499.672 623.532 488.052 618.671 488 631L476 635C495.258 661.697 514.315 675.459 547 681L557 671L574 651C569.333 651.98 570.616 657.041 566.889 659.278C556.721 665.378 552.209 652.848 552 647L570 647L571 623C565.279 624.823 561.52 627.083 558 632L546 615L533 615z"/>
<path style="fill:#9f876a; stroke:none;" d="M432 616L435 632L445 642L441 643L442 647L437 648L445 655L440 663L452 664C444.838 670.124 439.981 676.455 436 685L443 686L443 691L447 691L447 694L470 707L443 707L419 731L425 712L412 712C412 718.385 410.299 726.732 417 730L420 760L424 760L436 773C437.359 760.866 438.812 748.02 446.441 737.984C456.452 724.817 473.573 721.26 489.147 719.881C513.607 717.715 537.695 717.034 562 713L554 708C550.531 708.248 548.039 708.449 547 712C534.033 712.107 521.939 713.303 509 711.603C505.414 711.132 501.445 712.777 498.113 710.82C490.672 706.451 504.866 699.925 496 697C495.823 692.285 495.479 689.189 491 687L466 650L462 652L462 630L455 632L461 616L442 624L438 616L432 616M584 660L581 667L571 669L571 664L567 664L563 676L576 673L582 680L582 684L579 684L579 688L582 685L587 687L581 702L596 664L592 660L584 660M398 681L405 681L419 678L432 690L422 677L421 668C411.228 670.07 404.604 673.44 398 681z"/>
<path style="fill:#262623; stroke:none;" d="M554 688L551 688L551 694L547 698C541.563 698.075 535.213 698.242 533 704L518 709L577 690L577 684L571 684L571 677C564.038 679.476 558.807 682.305 554 688z"/>
<path style="fill:#9f876a; stroke:none;" d="M568 697L568 698C571.735 697.128 576.886 694.813 578 691L568 697z"/>
<path style="fill:#685c4e; stroke:none;" d="M560 704L564 701L560 704z"/>
</svg>
