<?xml version="1.0" standalone="yes"?>
<svg width="661" height="773">
<path style="fill:#fdfcfb; stroke:none;" d="M0 0L0 266C38.847 272.968 77.7482 279.598 116.739 285.717C143.303 289.885 171.377 295.458 198.071 289.363C224.802 283.259 247.715 266.129 270 251C293.651 243.52 317.393 236.547 341.45 230.483C369.852 223.323 398.481 216.837 421.695 197.903C439.758 183.171 454.849 165.028 472.167 149.44C496.827 127.246 523.436 107.358 548.086 85.1187C565.343 69.5491 588.506 43.8125 613.948 44.3221C638.504 44.8139 642.197 75.6098 641.904 94.2584C641.123 143.984 622.84 193.099 603 238L600 238L598 245L574 304C567.077 359.075 575.652 411.92 577 467L570 476L572 472L573 472L573 483C562.702 490.102 558.138 499.914 553 511L548 525L551 538L563 542L563 545L576 552C566.275 556.373 558.043 560.848 551 569C547.135 570.53 547.087 573.1 547 577L596 604C598.778 610.387 602.013 614.401 608 618L606 601L609 599L611 599C603.272 642.208 594.459 692.233 548.588 710.432C526.658 719.132 502.986 718.095 480.172 722.559C469.736 724.6 456.526 728.25 450.752 738.131C441.901 753.278 461.843 763.521 473.458 766.845C506.457 776.285 544.007 772.958 577.952 772.989L661 773L661 0L0 0z"/>
<path style="fill:#b8a992; stroke:none;" d="M270 251C247.405 266.04 224.194 283.167 197.22 289.145C170.783 295.003 143.038 289.615 116.739 285.525C77.7516 279.461 38.8546 272.857 0 266L0 271L10 273L10 276L53 279L53 282L87 286L90 292L131 300L135 297C137.061 306.669 153.989 299.098 155 306L172 307L172 311L232 286L232 282C236.874 281.842 248.338 279.726 250 275L256 270L305 258C305 254.096 311.411 252 315 252L322 244L391 231L391 228C425.794 210.368 446.452 182.426 473.709 155.651C498.653 131.148 526.956 110.074 553.092 86.8586C556.819 83.5483 560.554 80.2461 564.346 77.0107C580.691 63.0654 616.46 34.4812 631.655 65.1334C633.833 69.5279 635.225 74.2843 636.279 79.0601C638.307 88.2425 639.117 97.655 640 107C634.874 108.5 634.614 117.346 633.718 122C631.345 134.312 629.548 146.51 627.736 159C627.008 164.017 625.971 168.961 621 171C619.499 159.692 616.426 151.848 608 144L619 126L615 126L620 122L622 118L622 117L622 116L619 107L617 77L620 77L619 58L582 72L578 79L574 79L515 127L478 158L473 165L468 165L468 185L473 185C478.12 198.084 475.257 217.869 487 227L515 248L516 235L510 228L504 226L509 217L503 214L503 210L553 234L564 248L558 248L557 293L564 293L564 296L574 300L571 331L537 320L537 314L533 314L533 310L527 310L527 307L505 276L502 273L488 272L485 275L485 281L488 281L488 289L486 292L497 348L500 355L501 355L533 353L533 359C540.052 362.077 555.118 373.117 544 380L544 381L546 382L544 384L547 389L533 391L538 408L541 408L539 428L541 428L544 406C550.377 411.098 553.024 415.899 554 424L555 424L562 418L561 413L565 432L560 432L551 466L551 470L548 470L552 482L554 481L557 483L555 490L544 491L546 501L505 503L505 510L499 514L495 514L492 518L502 525L523 560L505 563L509 569L509 573L512 573L512 577L516 577L554 612L558 612L560 621L574 621L575 649L577 648L577 656L574 656L572 664L567 664L563 676L576 673L582 680L582 684L579 684C577.822 692.693 564.302 701.346 556.982 705.449C553.356 707.481 548.258 707.701 547 712L509 712L509 706L533 704L533 698L542 691L547 691L550 683L502 691L495 676L486 667L466 650L462 652L462 630L455 632L461 616L442 624L438 616L432 616L435 632L445 642L442 646L435 646L440 659L423 661L423 664L411 663L423 654L423 649C411.381 646.639 416.629 634.235 408 628L403 623L393 628L394 622C400.451 619.98 396.537 615.554 392 614L392 611C365.806 608.266 340.491 603.612 315 597L283 584L273 574L273 570C268.827 568.372 267.922 564.079 267 560L231 549L233 562L234 560L235 560L239 566L260 597L269 605L269 606L267 606L267 607L291 620C295.816 627.717 305.664 626.313 313 623L336 625L339 631L346 640L372 647L371 649L385 648L388 657L398 663L401 669C396.708 669.641 398 677.47 398 681L412 680L414 689L414 690L414 691L416 694L417 694L418 692L433 691L433 688L443 688L443 691L447 691L447 694L470 707L443 707L419 731L425 712L412 712C412 718.385 410.299 726.732 417 730L420 760L424 760L440 773C441.022 763.295 442.034 753.236 446.714 744.486C454.664 729.626 471.17 724.329 486.803 721.852C511.056 718.01 536.207 718.378 558.372 706.338C597.179 685.256 604.173 638.472 611 599L609 599L606 601L608 618L596 604L547 577L551 569C558.275 561.256 566.479 556.539 576 552L563 545L563 542L551 538L548 525C553.694 523.786 553 515.675 553 511C565.1 507.464 553.993 475.96 573 483L573 472L572 472L570 476L577 467C575.843 411.993 567.584 359.015 574 304C583.91 284.888 591.715 265.589 598 245L600 238L603 238C606.326 231.85 613.82 229.665 616.614 223.313C620.802 213.792 619.81 201.316 623.182 191.303C625.756 183.659 630.171 176.934 632.191 169C635.102 157.569 635.192 145.643 638.328 134.177C643.188 116.408 650.489 97.9421 648.191 79C645.64 57.9727 653.153 20.4099 620.236 24.4602C615.895 24.9943 611.286 26.2518 607.226 27.8657C593.661 33.2565 584.44 45.3256 574.943 55.6326C567.237 63.9965 558.308 71.9459 551.25 80.8102C546.837 86.3521 545.143 93.4275 539.858 98.3469C514.178 122.253 476.106 132.289 453.007 159.461C446.564 167.039 434.24 177.384 430.492 186.37C425.961 197.236 432.167 209.722 420.717 217.899C409.19 226.131 390.181 219.969 377 220.158C361.188 220.385 345.722 229.202 330.734 233.507C318.528 237.012 306.005 236.58 294 241.235C286.074 244.309 275.108 243.526 270 251z"/>
<path style="fill:#3d3731; stroke:none;" d="M391 228L391 231L322 244L315 252C311.026 252.017 304.973 253.413 305 258L256 270L250 275L232 282L232 286L172 311L172 307L155 306L135 297L131 300L90 292L87 286L53 282L53 279L10 276L10 273L0 271L0 287L48 289L50 296L62 296L76 304L96 307L96 308C93.6868 314.738 95.9347 327.964 102 332L102 344L111 346L111 348L108 349L109 361L103 362L104 350C93.2065 351.371 85.5025 353.883 78 362L74 362L70 368L66 367C59.5045 372.593 59.8741 361.256 57.4793 358.003C55.4371 355.228 51.0432 353.44 48 352L48 348L56 347L56 344L61 344C56.7177 338.717 52.8112 336.462 46 336L24 323L24 319L8 320L13 308L0 308L0 379L11 384C33.9891 398.558 59.7219 414.266 70.3673 440.673C75.0369 452.256 76.114 464.664 77 477L66 491L63 491L63 496L38 518C26.8919 532.545 16.3374 547.345 10.1284 564.728C0.00508404 593.07 0.370768 624.32 0.125834 654.028C-0.201099 693.683 2.12901e-05 733.345 0 773L432 773L432 772L424 760L420 760L417 730C410.804 725.846 412.001 718.698 412 712L425 712L419 731L443 707L470 707L447 694L447 691L443 691L443 688L433 688L433 691L418 692L417 694L416 694L414 691L414 690L414 689L416 689L412 680L398 681C398 676.469 397.292 668.073 401 669C400.987 665.806 401.403 663.729 398 663C397.532 659.126 391.624 657.767 388 657L385 648L371 649L372 647L346 640L339 631L336 625L313 623C305.231 626.204 296.632 627.173 291 620L267 607L267 606L269 606L269 605L260 597L239 566L235 560L234 560L233 562L231 549L267 560L273 570L273 574L283 584L315 597C316.744 602.963 329.636 602.7 334.94 604.449C352.495 610.238 373.472 619.113 392 611L392 614C396.183 615.815 399.913 619.716 394 622L393 628C396.242 627.659 403.023 626.606 403 623L408 628L423 649L423 654L411 663L423 664L423 661L440 659L435 646L442 646L441 643L445 642L435 632L432 616L438 616L442 624L461 616L455 632L462 630L462 652L466 650L486 667L495 676L502 691L550 683L547 691L542 691L533 698L533 704L509 706L509 712L547 712L579 684L582 684L582 680L576 673L563 676L567 664L572 664L574 656L577 656L577 648L575 649L574 621L560 621L558 612L554 612L516 577L512 577L512 573L509 573L509 569L505 563L523 560L502 525L492 518L495 514L499 514L505 510L505 503L546 501L544 491L555 490L557 483L554 481L552 482L548 470L551 470L551 466C559.93 460.76 554.504 451.836 554.794 444.004C554.964 439.435 558.183 435.976 560 432L565 432C564.924 427.484 565.62 413.99 561 413L562 418L539 428L541 408L538 408L533 391L547 389L544 381L544 380C555.935 373.35 540.259 361.778 533 359L533 353L501 355L500 355L497 348L486 292L488 289L488 281L485 281L485 275L488 272L502 273L505 276L527 307L527 310L533 310L533 314L537 314L537 320L571 331L574 300L564 296L564 293L557 293L558 248L564 248L553 234L550 235L503 210L503 214L509 217L504 226L510 228L516 235L515 248L487 227L473 185L468 185L468 165L473 165L478 158L515 127L574 79L578 79L582 72L619 58L620 77L617 77L619 107L622 116L622 117L622 118L620 122L615 126L619 126L608 144L621 171C628.417 166.506 627.48 157.642 628.47 150C630.112 137.314 631.083 116.831 640 107C639.173 97.6269 638.42 88.1898 636.472 78.9677C635.457 74.1616 634.111 69.372 631.987 64.9276C617.033 33.6219 580.879 62.2117 564.347 76.3113C560.554 79.5465 556.819 82.8501 553.093 86.1625C526.968 109.386 498.678 130.47 473.709 154.939C446.369 181.731 425.594 209.895 391 228M593 248C574.627 253.345 588.074 266.566 593 248z"/>
<path style="fill:#b8a992; stroke:none;" d="M0 287C1.64893 296.717 4.01423 303.232 13 308L8 320L24 319L24 323L46 336C52.7669 336.523 56.6667 338.815 61 344L56 344L56 347L48 348L48 352C50.4337 353.041 57.7771 356.635 58.6667 359.028C59.7732 362.004 57.9132 365.968 59.9444 368.667C62.1425 371.587 65.421 369.702 66 367L70 368L74 362L78 362L104 350L103 362L109 361L108 349L111 348L111 346L102 344L102 332L96 308L96 307L76 304L62 296L50 296L48 289L0 287M460 397L470 408L482 438L485 441L490 442L488 448L494 449L494 443L502 456L527 463L527 459C505.414 425.537 498.22 394.611 498 355C474.191 361.523 465.181 373.168 460 397M0 379L0 388L21 394C42.6083 411.915 67.6232 432.694 60.0129 463.965C57.5258 474.185 52.6805 483.649 48 493L0 553L38 518L63 496L63 491L66 491L77 477C76.2993 464.959 75.438 452.831 71.1272 441.444C60.8595 414.323 34.46 398.52 11 384C9.68197 379.494 4.152 379.496 0 379z"/>
<path style="fill:#fdfcfb; stroke:none;" d="M0 388L0 540L48 493C52.7943 483.811 57.7514 474.513 60.3925 464.428C68.6739 432.808 42.9553 411.859 21 394L0 388M554 403L560 403C560.484 400.081 561.625 395.619 558.393 393.822C556.464 392.749 546.743 391.898 547.304 395.842C547.657 398.317 552.567 400.746 554 403M544 406L541 428L551 428L554 425C553.441 416.307 551.006 411.248 544 406z"/>
<path style="fill:#b8a992; stroke:none;" d="M551 425L543 428L543 429C547.538 428.997 552.099 429.798 554 425L551 425M322 445L315 490L373 505L377 500C376.326 489.43 375.48 479.258 367 472L322 445M555 656L564 656L564 652C559.868 652.035 556.663 651.803 555 656z"/>
</svg>
