<?xml version="1.0" standalone="yes"?>
<svg width="661" height="773">
<path style="fill:#fdfcfb; stroke:none;" d="M0 0L0 266C22.6394 271.701 45.6768 273.551 68.6366 277.312C82.238 279.541 95.3248 284.16 109.037 285.804C121.14 287.255 133.475 285.921 145.512 287.84C164.892 290.93 180.769 306.613 201.415 300.985C215.202 297.226 224.313 285.204 234.171 275.722C244.917 265.384 256.482 257.28 270 251C288.824 241.355 309.078 238.307 329.377 233.305C343.097 229.924 356.391 224.369 370.36 222.075C385.368 219.611 405.984 225.462 418.929 215.816C427.735 209.254 428.488 197.343 432.813 188.039C437.874 177.151 446.901 167.769 455.313 159.373C480.998 133.737 518.647 121.813 542.182 94.5659C561.732 71.9337 584.149 33.3733 615.826 27.188C647.588 20.9863 647.319 57.4084 647.512 79.0004C647.71 101.123 641.408 120.849 636.713 142.167C629.657 174.209 623.889 211.863 603 238L600 238L598 245C597.97 270.037 596.573 289.874 574 304C574.075 312.502 575.001 321.521 572.076 329.674C568.307 340.177 561.004 348.196 561.72 360.034C562.643 375.276 572.615 387.829 576.048 402.409C581.007 423.473 579.087 445.715 577 467L570 476L572 472L573 472L573 483C561.248 488.413 558.17 500.008 553 511L548 525L551 538L563 542L563 545L576 552C566.187 556.316 557.808 560.507 551 569C547.135 570.53 547.087 573.1 547 577C566.276 581.176 578.815 595.367 596 604C598.364 610.958 601.311 614.833 608 618L606 601L609 599L611 599C610.625 613.597 606.279 626.691 603.786 640.925C601.324 654.981 602.452 669.291 597.141 682.819C587.37 707.706 557.365 721.588 532.058 723.545C501.354 725.92 459.008 699.234 434.524 729.574C415.155 753.576 441.193 772.187 464.061 772.857C529.594 774.778 595.437 773 661 773L661 0L0 0z"/>
<path style="fill:#b8a992; stroke:none;" d="M270 251C256.036 256.974 244.387 265.178 233.469 275.722C223.609 285.244 214.383 297.302 200.5 300.906C180.369 306.132 164.53 290.425 145.512 287.645C133.781 285.93 121.811 287.198 110.031 285.798C96.3048 284.168 83.2055 279.547 69.5937 277.312C46.3329 273.495 22.9951 271.492 0 266L0 271L28 275L28 278L53 279L53 282C69.2922 283.28 85.0564 287.023 101.217 289.17C114.684 290.959 128.387 290.967 141.781 293.261C154.741 295.481 165.859 302.803 178.651 305.278C207.294 310.819 224.491 291.999 240 271L253 262C273.965 257.686 295.901 254.944 315 245L315 242L384 228C396.045 225.014 411.039 226.43 421.444 218.934C430.841 212.164 432.18 200.504 436.529 190.599C440.701 181.098 447.648 173.128 454.702 165.648C475.788 143.286 502.609 127.303 530 114C552.39 85.7238 575.312 55.8734 606 36C609.918 34.0261 613.862 32.0348 618.186 31.1183C640.631 26.3615 643.494 49.6674 643.128 66.0088C642.567 91.0077 638.945 114.661 633.703 139.044C630.448 154.184 628.505 167.787 617 179L616 172C599.786 173.428 587.629 179.761 578 193C574.187 192.181 571.416 191.977 570 196L564 196L550 203L551 192L560 183L562 173L560 161L570 161L570 155L584 154L584 141C588.447 140.659 591.891 140.224 594 136L599 136L600 126C611.833 116.501 611.63 89.2246 613 75L614 75L614 82L615 82C615.001 77.3841 613.878 71.7511 619 70L619 64L604 65L571 92L568 95L540 119L540 123C536.53 123.248 534.039 123.449 533 127L495 148L495 151C479.84 152.698 482.378 182.153 482.018 194.018C481.859 199.254 479.061 208.899 486 210C489.945 202.788 494.347 198.988 502 196L555 237L568 237C571.054 245.697 585.725 244 593 244C593.81 260.277 590.408 270.907 574 276L575 278L563 279L564 290L582 294L581 300C598.573 286.836 598.143 265.344 598 245L600 238L603 238C606.326 231.85 613.82 229.665 616.614 223.313C620.802 213.792 619.81 201.316 623.182 191.303C625.756 183.659 630.171 176.934 632.191 169C635.102 157.569 635.192 145.643 638.328 134.177C643.188 116.408 650.489 97.9421 648.191 79C645.64 57.9727 653.153 20.4099 620.236 24.4602C615.895 24.9943 611.286 26.2518 607.226 27.8657C593.661 33.2565 584.44 45.3256 574.943 55.6326C567.237 63.9965 558.308 71.9459 551.25 80.8102C546.837 86.3521 545.143 93.4275 539.858 98.3469C514.178 122.253 476.106 132.289 453.007 159.461C446.564 167.039 434.24 177.384 430.492 186.37C425.961 197.236 432.167 209.722 420.717 217.899C409.19 226.131 390.181 219.969 377 220.158C361.188 220.385 345.722 229.202 330.734 233.507C318.528 237.012 306.005 236.58 294 241.235C286.074 244.309 275.108 243.526 270 251z"/>
<path style="fill:#826c54; stroke:none;" d="M606 36C574.994 54.4252 551.096 85.3911 530 114C521.75 115.173 512.147 122.286 504.715 126.171C486.665 135.604 468.605 150.319 454.871 165.124C448.612 171.872 439.944 178.305 435.008 186.089C429.114 195.387 436.501 207.584 428.526 216.7C423.387 222.575 412.837 227.008 405 225.741C399.233 224.808 386.661 220.432 384 228L315 242L315 245C295.543 254.373 273.984 257.319 253 262L240 271C229.648 284.037 219.023 299.349 202.24 304.253C181.418 310.337 165.975 298.29 146.569 293.982C132.362 290.828 117.571 291.116 103.172 289.289C86.3446 287.153 69.9688 283.184 53 282L53 279L28 278L28 275L0 271L0 383C9.40633 385.651 16.6084 389.614 24 396C34.7167 398.716 44.7196 402.048 53.9306 408.335C64.844 415.784 80.5733 426.939 84.2253 440.394C87.767 453.444 76.8666 468.723 69.6817 478.716C48.902 507.614 17.5827 524.989 0 557C11.2473 543.351 20.3812 530.274 38 525L69.4049 487.054L97 443C101.633 442.252 112.449 439.411 114 435C118.282 432.116 119.364 429.019 120 424L125 424L123 415L111 403L112 393C125.954 394.639 147.887 401.271 152 383L149 384L143 373L143 369L134 369C127.017 355.53 121.071 341.915 118 327L114 326C113.958 314.016 115.541 306.999 128 304L128 307L155.748 317.035L176.299 331.213L208 337L207 332L212 330L211 324L218 317L225 317L232 311L231 307L239 307L240 300L247 290L256 289L256 286L293 273L291 277L299 277L299 282C313.527 278.354 317.604 268.542 324 256L324 265C329.95 261.562 327.522 256.301 324 252C329.047 252 335.814 253.517 338 248L352 258L348 258L346 264L368 265C370.831 272.154 385.395 271.962 392 272L392 273L388 273L388 274L394 274L394 282C402.879 285.283 406.894 290.769 413.444 297.389C415.532 299.499 418.565 299.878 419 303L426 303L425 307L429 311L451 313L451 317L458 323L464 327L475 331C475.013 334.194 474.597 336.271 478 337L478 338L474 336C464.249 341.288 456.637 347.038 450 356L447 356L447 368L448 368L448 366L449 366C447.712 380.476 447.753 396.891 460 407L463 410C464.109 427.62 465.853 444.044 471 461L475 465L498 476C505.603 474.565 512.943 473.541 516 482L520 481L523 483C517.487 497.853 506.014 494.506 494.984 502.669C480.746 513.206 475.534 542.982 483 558L488 567L493 567L493 568L491 568L491 569L508 583L510 596L506 596L506 600L502 600C497.125 608.04 497.427 613.116 505 619L505 622L523 621L526 610C530.221 618.374 535.216 607.647 541.442 611.426C551.555 617.563 542.19 631.423 558 632L571 623L570 647L552 647L550 649C558.285 656.27 564.615 656.709 574 651L557 671L547 681C532.092 687.442 518.244 690.507 502 691L495 676L486 667L481 667C473.608 646.75 476.564 634.726 486 616L458 594L449 570L445 570C439.085 562.899 433.071 560.803 424 560L424 564C406.533 571.637 394.301 583.703 381 597L380 604C356.611 608.254 336.905 606.447 315 597L284 584L277 560C285.373 557.85 284.272 549.692 276.151 547.777C258.979 543.728 241.321 542.28 224 539L226 563L231 563C242.343 594.204 267.998 616.041 298.019 628.856C311.364 634.552 325.7 637.112 339 643L357 646L357 649L375 650L381 657L381 658L378 658L378 659C387.449 662.653 392.199 667.183 395 677C390.615 678.283 391.07 682.126 392 686C395.709 685.868 409.084 685.837 409.833 691C410.182 693.401 408 697.068 408 700L405 699L408 744L411 751L406 751C404.382 770.726 417.027 772.606 434 773C430.139 766.948 426.115 760.764 424.346 753.717C419.594 734.789 436.301 714.669 454.425 711.016C484.576 704.941 513.451 723.528 544 721L544 719L530 718L530 713L547 712L547 709L518 709L533 704C536.477 698.521 544.888 692.995 551 691L554 688C559.8 681.878 565.935 679.158 574 677L571 694L579 684L582 684L582 680L576 673L563 676L578 660L577 619C564.367 611.215 553.763 603.252 539 600L516 577L512 577L512 573L509 573L509 569L505 563C515.464 560.663 524.982 558.091 519 546L512 529L509 529L509 514L512 511L530 510L529 508L533 508L533 505L554 504C555.971 490.543 554.573 479.052 551 466C559.93 460.76 554.504 451.836 554.794 444.004C554.964 439.435 558.183 435.976 560 432L565 432C564.924 427.484 565.62 413.99 561 413L562 418C544.726 429.223 542.634 416.827 546 401L540 390L553 390L560 384L560 376L540 359L529 348L529 341L515 336L516 317L506 300L514 310L522 311L535 328L542 331L541 333L550 335L549 338C569.539 333.65 573.072 323.734 574 304L582 294L564 290L563 279L575 278L574 276C590.866 271.32 594.051 260.463 593 244L568 237L555 237L502 196C494.011 198.716 489.696 202.402 486 210C479.547 207.975 481.848 199.481 482.036 194.013C482.447 182.113 480.012 153.312 495 151L495 148L533 127L540 123L540 119L568 95L571 92L604 65L619 64L619 70L616 69L615 82L614 82L614 75L613 75C611.398 89.3668 611.666 116.146 600 126L599 136L594 136L584 141L584 154L570 155L570 161L568 159L567 159L560 161L562 173L560 183L551 192L550 203C555.945 202.134 560.304 200.958 564 196L570 196L578 193C588.09 180.357 599.971 173.908 616 172L617 179C628.568 168.689 630.384 155.564 633.49 141.027C638.989 115.294 642.719 90.394 643.22 64.0146C643.534 47.4703 639.626 25.4664 617.499 30.9236C613.382 31.9388 609.681 33.9626 606 36z"/>
<path style="fill:#2a2a29; stroke:none;" d="M436 228L424 234C422.568 227.318 410.492 232.389 406 232.389C403.217 232.389 401.154 230.126 398.111 231.333C394.985 232.573 393.394 236.482 390 238L390 234C383.991 238.938 382.695 243.401 384 251L392 248L393 248L405 256L404 265L419 268L420 257L422 257L423 260L424 260L421 255L424 247L429 247L429 252L436 252L436 254L432 254L434 256L432 260L441 258L442 259C440.503 261.469 439.966 262.333 443 263L446 266L454 294L457 292L472 298L474 286L471 288L468 264L464 264L459 270L458 275C453.825 269.267 452.834 265.123 460 262L460 258L480 253L480 249L483 249L484 238L481 238L477 197L471 193L460 176L464 176L468 165L473 165L477 158L480 148C457.95 156.113 437.169 183.885 435.919 206.966C435.546 213.862 427.634 224.4 436 228M514 252L510 252L502 258L514 293C520.958 296.095 525.63 299.746 530 306L540 307L540 314L551 317L560 325C561.994 329.073 568.686 331.996 570.137 325.6C571.813 318.213 568 306.962 568 299L564 299L564 293L557 293L554 286L544 286L544 275L541 272C531.93 270.682 525.943 268.089 520 261L522 262L525 246C520.741 247.067 515.725 247.64 514 252M338 248L324 252L324 265L324 256C317.36 268.193 313.161 277.953 299 282L299 277L291 277L293 273L256 286L256 289L247 290L240 300L239 307L231 307L232 311L225 317L218 317L211 324L212 330L207 332L208 337L176.299 330.847L155.748 316.532L128 307L128 304C114.968 306.566 113.507 313.656 114 326L118 327C120.71 342.081 126.652 355.632 134 369L143 369L143 373L149 384L152 383C146.811 400.715 126.252 394.48 112 393L111 403L123 415L125 424L120 424L114 435L97 443L69.405 486.246L38 525C6.89721 533.129 0.10587 562.651 0.0126951 591.003C-0.186664 651.668 0 712.335 0 773L405 773L406 751L411 751L408 744L405 699L408 700C405.55 691.125 400.623 688.28 392 686L395 677C392.607 666.786 387.812 662.372 378 659L378 658L381 658L381 657L375 650L357 649L357 646L339 643C334.827 633.758 309.431 634.217 300.22 630.756C279.964 623.145 264.045 609.326 249.981 593.821C241.612 584.596 232.34 576.273 231 563L226 563L224 539C241.026 542.546 258.357 544.608 275.419 547.923C283.594 549.512 285.31 557.27 277 560L284 584L315 597C316.512 602.17 328.087 603.084 332.995 604.023C343.367 606.007 351.882 608.959 363 607.866C368.934 607.282 374.148 604.258 380 604L381 597C394.655 584.263 406.908 572.087 424 564L424 560C432.924 560.986 438.902 563.292 445 570L449 570L458 594L486 616C475.945 634.497 473.235 646.863 481 667L486 667L495 676L502 691C518.308 690.582 532.151 687.829 547 681L557 671C564.419 665.324 569.498 659.173 574 651C569.333 651.98 570.616 657.041 566.889 659.278C556.721 665.378 552.209 652.848 552 647L570 647L571 623C565.279 624.823 561.52 627.083 558 632C546.338 623.165 541.081 613.311 526 610C521.003 611.985 522.608 616.475 523 621L505 622L505 619C497.816 612.973 497.462 608.011 502 600L506 600L506 596L510 596L508 583L491 569L491 568L493 568L493 567L488 567L483 558C476.295 542.7 481.039 514.1 495 503.208C505.858 494.736 517.687 497.968 523 483L520 481L516 482C513.479 473.071 505.565 474.358 498 476C493.889 468.871 482.786 465.128 475 465L471 461L463 410L460 407C450.835 394.152 448.465 381.58 449 366L448 366L448 368L447 368L447 356L450 356C456.872 347.453 464.56 341.505 474 336L478 338L478 337L475 337L475 331L464 327L458 323L451 317L451 313L429 311L425 307L426 303L419 303L394 282L394 274L388 274L388 273L392 273L392 272L368 265L346 264L348 258L352 258L349 255L338 248z"/>
<path style="fill:#b8a992; stroke:none;" d="M506 300L516 317L515 336L529 341L529 348L540 359L560 376L560 384L553 390L540 390L546 401L543 418L544 418L544 406C550.757 410.95 553.339 415.658 554 424L555 424L562 418L561 413L565 432L560 432L551 466C554.244 479.031 555.785 490.608 554 504L533 505L533 508L529 508L530 510L512 511L509 514L509 529L512 529L519 546C523.714 557.844 515.205 560.383 505 563L509 569L509 573L512 573L512 577L516 577C520.688 589.819 531.353 590.513 539 600C553.501 603.568 564.234 611.755 577 619L578 660L563 676L576 673L582 680L582 684L579 684C578.024 691.197 566.363 701 559.94 704.329C555.783 706.483 548.418 707.153 547 712L530 713L530 718L544 719L544 721C512.599 723.311 480.585 702.249 449.814 711.885C420.115 721.185 416.008 755.903 440 773C426.392 752.407 423.68 726.854 452.63 717.931C479.772 709.564 505.064 725.708 532.058 723.7C557.222 721.828 587.286 708.558 597.166 683.775C602.563 670.235 601.504 656.009 603.866 641.913C606.312 627.315 610.796 613.972 611 599L609 599L606 601L608 618C601.675 614.587 598.571 610.68 596 604C579.057 594.728 566.544 580.736 547 577L551 569C558.092 560.955 566.4 556.505 576 552L563 545L563 542L551 538L548 525C553.694 523.786 553 515.675 553 511C565.1 507.464 553.993 475.96 573 483L573 472L572 472L570 476L577 467C579.241 445.428 581.103 422.815 576.048 401.462C572.613 386.953 562.434 374.338 562.063 359.069C561.703 344.22 573.58 332.794 575 318L574 318C569.705 330.786 561.669 335.012 549 338L550 335L541 333L542 331L535 328L522 311L514 310L506 300M460 397L467 405L468 405C476.305 404.771 478.085 416.34 481.718 421.507C484.634 425.653 488.454 423.922 490 420L496 424C492.36 400.346 494.811 378.541 498 355C492.773 352.731 487.498 350.373 481.874 349.275C478.805 348.676 475.65 348.458 472.538 348.83C447.465 351.826 455.364 380.878 460 397z"/>
<path style="fill:#2a2a29; stroke:none;" d="M527 360L520 366L502 366L502 372C493.499 374.487 498.995 398.995 499 406L503 406L514 398L512 414L509 414C509.126 423.73 508.569 434.782 513.723 443.459C526.632 465.192 546.177 453.674 554 436L546 438L540 434L539 413L529 413C529 408.065 534.502 395.179 529 394L544 387L544 386L515 386L521 377L544 375L544 370L540 363L527 360z"/>
<path style="fill:#b8a992; stroke:none;" d="M0 383L0 388L21 394C34.3508 406.24 50.9514 413.144 65.3984 423.822C72.4775 429.054 79.7069 436.212 78.9153 445.757C78.0398 456.313 69.5554 466.769 63.9222 475.324C59.4367 482.136 54.206 487.74 48 493C28.631 510.035 6.65284 526.956 0 553C10.8155 539.729 21.6831 526.858 34.1141 515.046C47.0506 502.753 61.2548 491.924 71.4327 477.051C78.0174 467.43 87.6254 453.555 84.9769 441.227C81.9006 426.907 64.5869 414.718 53.0921 407.215C44.1177 401.357 34.34 398.414 24 396C16.7242 389.226 9.63256 385.431 0 383z"/>
<path style="fill:#fdfcfb; stroke:none;" d="M0 388L0 540L48 493C54.5787 487.873 59.8864 482.293 64.4819 475.309C70.1329 466.721 78.4973 456.356 79.3685 445.757C80.1487 436.264 73.2491 429.093 66.1906 423.822C51.6499 412.963 34.9317 405.793 21 394L0 388M554 403L560 403C560.484 400.081 561.625 395.619 558.393 393.822C556.464 392.749 546.743 391.898 547.304 395.842C547.657 398.317 552.567 400.746 554 403M544 406L541 428L551 428L554 425C553.895 415.991 551.585 410.99 544 406z"/>
<path style="fill:#b8a992; stroke:none;" d="M551 425L543 428L543 429C547.538 428.997 552.099 429.798 554 425L551 425z"/>
<path style="fill:#826c54; stroke:none;" d="M322 446L318 446C312.459 458.451 309.598 470.491 308 484L315 487L330 507C343.802 507.105 356.79 507.678 370 512C382.643 501.364 381.642 489.331 380 474C374.63 473.105 364.21 466.159 365 463L350 448L346 448C342.028 440.495 324.744 435.422 322 446z"/>
<path style="fill:#b8a992; stroke:none;" d="M506 458L515 459L512 455C511.258 449.1 506.198 453.904 506 458M336 463L338 465L329 480L333 496L339 497L339 503L368 502L368 496L371 496L371 492L373 494L374 494L373 480L370 480L370 474L366 474L361 469L361 465C352.367 462.057 344.994 461.519 336 463z"/>
<path style="fill:#826c54; stroke:none;" d="M346 553L349 556L366 556L366 536L356 532C352.377 527.058 343.106 520.256 342.038 531.103C341.331 538.288 344.343 546.099 346 553M297 532C300.599 539.706 307.297 533.331 297 532z"/>
<path style="fill:#b8a992; stroke:none;" d="M412 671L419 676L419 671L412 671z"/>
<path style="fill:#2a2a29; stroke:none;" d="M554 688L551 691C545.02 692.262 535.475 698.25 533 704L518 709C540.413 713.243 574.642 705.256 574 677C565.755 678.962 559.562 681.424 554 688z"/>
<path style="fill:#826c54; stroke:none;" d="M560 704L564 701L560 704z"/>
</svg>
