<?xml version="1.0" standalone="yes"?>
<svg width="661" height="773">
<path style="fill:#faf8f5; stroke:none;" d="M0 0L0 192L8.12667e-07 243C1.68453e-05 249.206 -1.8255 259.271 1.65956 264.752C5.23718 270.379 16.1285 270.596 22 271.185C40.0482 272.994 58.1431 276.352 76 279.525C89.9006 281.995 102.781 286.338 117 287.512C128.802 288.486 140.393 285.919 152 289.112C168.094 293.539 184.401 307.505 202 302.648C220.662 297.497 233.155 274.02 247.562 262.108C262.083 250.102 287.855 243.405 306.009 239.118C327.849 233.961 351.786 223.016 374 221.289C388.614 220.154 408.989 227.328 421.703 218.274C432.003 210.939 427.71 199.055 432.071 189.005C436.55 178.682 447.051 169.956 453.928 161.077C460.645 152.405 470 147.312 478.679 140.914C487.431 134.462 495.538 126.767 505 121.356C514.994 115.641 526.522 111.175 535.179 103.443C541.941 97.403 545.201 89.2384 550.484 82.1042C556.333 74.2072 564.973 68.8525 571.81 61.878C585.998 47.4042 599.808 25.1905 622.683 24.3645C647.348 23.4739 646.935 46.6162 646.999 65C647.084 89.6452 642.274 110.099 637.666 134C634.247 151.738 632.49 168.091 625.818 185C622.927 192.325 619.601 200.301 617.938 207.999C616.574 214.311 618.174 220.215 612 224L613 226L601 218L604 217L604 216L587 223L587 224L586 234L598 237L596 246C596.943 259.461 596.349 274.096 591.022 286.705C587.877 294.15 582.36 300.286 579.344 307.793C576.514 314.837 576.247 322.569 573.461 329.627C570.274 337.7 564.547 344.56 563.346 353.379C560.925 371.149 572.965 388.052 576.415 405C581.021 427.626 577.669 449.332 576 472L575 472L574 468C570.112 470.064 569.183 471.906 571 476L574 472L573 485L571 485L571 481L558 499L560 499L548 508L548 509L550 509L550 510L546 513L544 512L540 515C541.083 535.045 555.634 542.121 571 552L565 550L556 553L547 569C545.139 585.058 566.176 588.405 574.14 600.023C585.948 617.245 585.631 637.094 584 657L591 654L593 660L601 659L598 669C596.536 678.646 594.407 687.753 588.206 695.565C571.213 716.973 540.583 727.726 514 723.02C488.88 718.573 457.994 704.463 436.339 726.094C414.805 747.605 433.296 771.593 459.062 772.768C526.095 775.825 593.894 773 661 773L661 0L0 0z"/>
<path style="fill:#a59f93; stroke:none;" d="M0 267L0 271L17 273L76 283L76 284L74 284L74 285C101.698 288.126 134.079 289.636 160 300C188.926 311.05 207.804 305.642 231 286L246 271L245 269L253 262L272 258L272 257L270 256L285 252L285 253L283 253L283 254L291 254L291 253L288 253L288 252L301 255L300 252C323.78 240.313 347.865 233.232 374 228.983C388.465 226.632 406.678 228.772 419.617 221.06C429.957 214.898 432.365 203.192 436.967 192.975C441.247 183.47 447.505 174.957 454.287 167.093C476.992 140.762 510.276 129.975 535.028 107.014C552.411 90.8885 566.882 70.822 583.796 53.9216C593.428 44.2972 604.671 33.5085 618.709 31.2904C646.324 26.9268 642.849 61.6672 641 79L642 79L642 76L643 76C640.144 109.012 634.067 143.374 624 175L621 175L616 158C621.909 157.168 615.404 148.941 611.977 147.898C604.125 145.509 598.67 152.78 591 152L591 141C600.402 138.667 604.657 133.963 608 125C615.483 119.274 613.203 104.536 612 96L613 83L614 83L614 86L615 86C614.986 70.7261 611.709 65.095 596 69L584 78L582 77C565.502 91.4949 551.064 108.902 533.202 121.732C513.3 136.028 488.071 144.302 479 169C486.98 180.671 479.252 203.495 481.067 216.989C481.496 220.174 488.462 232.176 491.999 232.175C499.348 232.174 493.456 213.881 489 212C495.324 201.944 503.562 204.583 513.118 209.136C526.778 215.643 538.962 223.65 550 234C560.958 239.281 577.259 242.714 586.643 250.098C592.706 254.869 591.269 263.298 586.144 268.166C584.04 270.165 581.501 271.571 579 273L580 275L560 279L570.052 300.86L575 329C564.503 333.172 555.291 335.194 544 334L536 327L523 316L525 312L520 311L522 309L522 308L505 300L508 313C513.381 320.61 515.794 327.798 517 337L519 335L520 335L530 345C541.726 356.205 551.93 367.871 560 382L551 384C548.889 389.595 544.448 389.773 539 390L541 413L542 413L542 411L543 411L543 417L541 416C546.966 428.636 555.37 422.554 561 413C564.77 427.595 559.683 438.162 557.52 452.429C555.391 466.474 559.792 489.309 546.983 499.028C542.362 502.535 536.536 503.749 531 505L532 507C524.285 508.541 495.68 517.536 512 528C516.236 535.575 523.941 545.442 523.161 554.61C522.395 563.621 514.438 566.874 516 577L531 591L530 593L551 604C560.615 611.99 569.282 619.707 575 631L576 631L576 629L577 629L577 658L561 675L582 678C572.101 695.991 557.869 705.69 539 713L540 715L532 715L532 716L534 716L534 717L530 717L530 718L544 719L544 720C512.48 722.404 482.583 703.598 451.249 712.245C420.659 720.687 415.561 752.928 437 773C432.46 765.372 427.249 757.192 427 748.03C426.448 727.781 447.414 716.105 465.029 714.896C484.623 713.552 501.836 722.524 521 724.135C556.322 727.104 593.226 705.362 598 669C602.447 668.047 601.937 662.718 601 659L593 660L591 654L584 657C585.889 636.989 586.123 616.452 574.145 599.181C565.989 587.42 547.059 584.995 547 569L556 553L565 550L571 552C555.971 541.639 542.051 534.755 540 515L544 512L546 513L550 510L550 509L548 509L548 508L560 499L558 499L571 481L571 485L573 485L574 472L571 476C569.437 471.83 570.056 470.068 574 468L575 472L576 472C578.012 448.97 581.112 426.997 576.417 404C573.084 387.67 561.623 371.418 563.625 354.328C564.704 345.117 570.821 338.106 574.043 329.69C576.688 322.779 576.751 315.216 579.493 308.334C582.453 300.903 587.997 294.897 591.146 287.558C596.635 274.766 597.095 259.661 596 246L598 237L586 234L587 224L587 223L604 216L604 217L601 218L613 226L612 224C618.396 220.884 616.747 215.081 618 208.996C619.654 200.966 623.16 192.598 626.227 185C632.87 168.542 634.302 152.29 637.674 135C642.481 110.357 647.104 89.3795 646.998 64C646.917 44.2756 645.932 20.1089 619.027 24.6163C597.598 28.2065 585.749 46.5304 571.798 60.9068C565.008 67.9047 556.403 73.3389 550.512 81.1614C544.91 88.5993 541.501 97.1656 534.325 103.424C510.108 124.545 474.489 134.028 453.942 160.164C447.061 168.916 436.564 177.796 432.117 188.011C427.668 198.234 431.761 209.808 421.677 217.574C409.035 227.31 387.865 220.13 373 221.301C357.784 222.5 342.487 229.789 328 234.334C319.51 236.997 310.604 237.489 302.06 239.891C284.021 244.962 260.521 250.585 245.968 262.789C231.872 274.607 219.519 297.664 201 302.572C182.447 307.489 164.708 290.703 147 287.791C133.924 285.641 120.296 288.048 107 286.381C96.3996 285.052 86.4875 281.1 76 279.368C50.6833 275.185 25.1275 272.09 0 267z"/>
<path style="fill:#8a745b; stroke:none;" d="M300 252L301 255L288 252L288 253L291 253L291 254L283 254L283 253L285 253L285 252L272 257L272 258L253 262L245 269L246 271L231 286C206.977 305.022 189.442 310.518 160 300C134.733 289.014 101.34 287.775 74 285L74 284L76 284L76 283L17 273L0 271L2 330L8 326L8 330C4.47934 331.207 4.01416 332.453 5 336L6 336C10.7679 337.578 11.8295 340.136 12 345L16 347L16 350L11 355L7 354L8 351L0 349C0.120382 358.843 -0.60221 370.392 5.66524 378.683C24.8685 404.085 75.4531 404.538 85.2112 439.281C88.9633 452.641 78.6451 467.287 71.5722 477.792C51.434 507.699 17.2957 523.256 0 556C20.5772 533.341 45.8376 515.096 65.6167 491.936C81.6425 473.171 90.2086 450.531 111 436C116.177 429.783 118.723 423.983 120 416L122 416L120 410L108 402L111 392L112 391L120 391L121 391L122 391L136 393L135 396L146 387L148 388L147 384L148 380L121 362L120 360C122.6 352.017 118.14 344.327 115.148 337C114.019 334.234 114.127 330.466 111 330L108 312L105 304L151 308L166 314L166 321L176 331L190 334L200 331L202 324L210 323C209.823 319.662 209.694 318.215 213 317L212 310L236 304C240.944 295.123 246.827 290.248 256 286L255 283L277 279L278 275L292 273L291 276L299 275L310 280L309 277L312 274L303 272L312 262L316.333 256.333L326 247C331.267 246.996 340.871 246.386 343 241L352 242L355 240L360 244L377 241L391 234L390 238C401.778 232.982 418.022 231.241 427.473 222.207C435.509 214.525 437.243 202.408 442.015 192.772C448.465 179.744 457.803 168.257 468 158L459 188L464 192L475 203L476 203L476 200L477 200L485 246L490 256L521 248L525 245L523 272L541 272L544 286L568 300C567.855 309.035 568.945 330.156 553.947 322.358C551.891 321.289 549.994 319.928 548.188 318.483C545.299 316.17 542.655 313.572 540 311L525 296C520.629 296.009 515.703 294.267 514 290L502 268L495 268L494 264L492 266L491 266L488 262L492 260L492 259C484.743 256.859 479.046 255.202 474 262L480 260L476 273L473 274C474.094 278.006 475.612 285.06 480 286L479 293L485 293L483 299L488 301L485 300L488 303L488 304L483 304L490 311L490 314L489 314L480 316L479 316L469 306L464 306L465 303L463 300L471 300L461 298L455 294L429 272L425 269L423 270L405 256L400 257L399 257L393 248L392 248L372 245L380 265L380 264L376 264L376 263L384 263L382 264L382 265L385 264L396 276L410 280C416.802 289.988 425.475 296.751 435 304L439 302L442 307C453.691 310.096 461.905 316.266 471 324L473 323C481.57 343.727 453.615 346.196 450.854 365.684C447.216 391.365 467.824 411.444 465 437L470 441L473 440L478 446C483.319 464.793 507.125 467.474 523 474L522 477L523 478L525 478L526 477L525 474L529 473L531 481C525.486 481.299 525.114 485.925 530 488L530 489L528 489L528 490L538 497L538 498L522 498L523 500L504 500L504 499L506 499L506 498C488.235 502.705 485.141 520.068 499 532C497.658 541.191 493.026 545.665 488 553L483 551L488 566L495 575L503 581L504 581L504 578L505 578L514 587L507 598L508 601L494 609C502.799 617.25 510.982 620.999 523 622L527 616L523 617L523 611L546 610L547 618L550 618L553 631L554 631L557 630L571 623L570 664L567 667L557 678L575 682L578 681C562.442 704.288 536.122 717.976 509 706L529 704L543 697L551 685C553.819 685 553.634 683.579 553 681L555 677L554 677C537.403 686.089 523.364 690.959 505 684L492 677L482 666L473 643C472.388 630.281 474.035 619.396 464 610L466 608L463 605L449 580L447 581L442 567L439 568L440 564L432 564L416 576L416 580L424 579L419 583C415.648 576.832 407.396 588.422 409 593L375 604C354.352 610.155 336.274 605.236 316 600L316 599L318 599L318 598C307.565 595.549 293.091 591.522 285.394 583.565C281.232 579.263 276.144 562.698 271 562L271 557C256.913 548.781 234.161 535.051 225 556L229 562L230 560L231 560L245 586L249 587L249 591L253 594L260 604L262 602L265 605L264 607L270 609C285.83 622.335 304.471 628.946 324 635L322 629L323 629L324 632L325 632L325 629L333 631L333 632L327 631L338 638L342 642L389 657L388 659L397 661L398 673C398.673 680.251 402.43 682.661 409 685L408 687L408 706L406 705C405.478 719.871 408.309 733.695 409.431 748.4C409.91 754.692 408.937 763.031 413.872 767.876C418.684 772.602 426.732 772.571 433 773C429.244 766.963 425.341 760.803 423.624 753.818C419.099 735.41 435.134 716.95 452.215 712.306C483.216 703.878 512.738 722.862 544 720L544 719L530 718L530 717L534 717L534 716L532 716L532 715L540 715L539 713C558.181 706.171 572.683 696.516 582 678L561 675L577 658L577 629L576 629L576 631L575 631C569.657 619.321 560.957 611.795 551 604L530 593L531 591L516 577C514.799 567.19 521.98 564.269 523.39 555.609C524.945 546.057 516.592 535.655 512 528C512.047 515.308 521.314 511.129 532 507L531 505C536.502 503.881 542.321 502.83 547.017 499.546C560.368 490.211 555.774 466.477 557.951 452.44C560.178 438.076 565.387 427.611 561 413C555.075 422.028 547.399 427.687 541 416L543 417L543 411L542 411L542 413L541 413L539 390C544.483 389.75 548.728 389.504 551 384L560 382C552.387 367.451 542.239 355.851 530 345C526.353 340.503 522.706 338.091 517 337C516.053 327.599 513.834 320.514 508 313L505 300L522 308L522 309L520 311L525 312L523 316L536 327L544 334L547 333C553.154 343.843 567.862 333.765 575 329C571.771 310.022 567.966 296.443 560 279L580 275L579 273C581.513 271.718 584.065 270.46 586.208 268.592C591.893 263.637 593.325 254.392 586.739 249.517C577.091 242.377 561.117 238.96 550 234L551 231C538.452 222.792 525.875 214.614 512.249 208.271C502.722 203.836 494.804 201.915 489 212C490.059 213.931 491.146 215.843 491.909 217.917C497.265 232.485 484.425 224.32 481.958 214.748C478.11 199.82 483.099 184.174 479 169L482.982 154.199L492 148.81L528.741 126.329L565.333 92.6574L582 77L584 78L596 69C611.271 65.8271 614.694 71.1224 615 86L614 86L614 83L613 83L612 96L608 125C604.349 133.596 600.009 138.238 591 141L591 152C598.104 155.552 604.599 145.2 613 148C616.876 149.292 621.002 159.251 616 158L621 175L624 175C634.393 143.559 640.516 108.967 643 76L642 76L642 79C642.341 71.3442 642.818 63.6512 642.5 55.9871C641.497 31.7914 622.96 25.0024 602.906 37.1426C573.103 55.1843 557.222 88.3069 531.044 109.795C506.263 130.136 475.939 141.389 454.284 166.215C447.472 174.023 441.189 182.507 436.909 191.987C432.248 202.309 429.885 214.086 419.612 220.53C406.755 228.596 388.515 226.514 374 228.819C347.874 232.969 323.502 239.713 300 252z"/>
<path style="fill:#2f2d29; stroke:none;" d="M619 40L618 43C614.297 42.3569 600.589 42.0624 600 46C596.505 46.6173 587.862 50.5837 590 55L590 56L586 59L597 51C600.235 51.0544 610.301 48.2637 611 45L618 44C620.46 47.8964 622.43 49.649 627 48L628 48L627 57L631 57L631 76L626 80L628 80C626.775 86.0753 626.118 92.4269 632 96L632 90L633 90L633 98C637.037 97.1848 638.769 92.022 634 91L637 78L635 52L636 52L636 56L637 56L636 45L634 46L633 40L619 40M635 40L636 41L635 40M610 51L611 52L610 51M584 61L582 63L582 64L586 61L584 61M628.333 62.6667L628.667 63.3333L628.333 62.6667M583 65L584 66L583 65z"/>
<path style="fill:#a59f93; stroke:none;" d="M618 65L618 68L619 68L618 65z"/>
<path style="fill:#8a745b; stroke:none;" d="M632.333 72.6667L632.667 73.3333L632.333 72.6667z"/>
<path style="fill:#2f2d29; stroke:none;" d="M557 83L557 88L558 88L557 83M559 83L560 84L559 83z"/>
<path style="fill:#8a745b; stroke:none;" d="M628 87L629 88L628 87z"/>
<path style="fill:#a59f93; stroke:none;" d="M614.333 97.6667L614.667 98.3333L614.333 97.6667z"/>
<path style="fill:#2f2d29; stroke:none;" d="M632 114L633 114L634 105C629.348 106.971 630.455 109.832 632 114M635.333 105.667L635.667 106.333L635.333 105.667M635 108L636 109L635 108M630.333 112.667L630.667 113.333L630.333 112.667z"/>
<path style="fill:#faf8f5; stroke:none;" d="M556 115L559 115L558 113L556 115z"/>
<path style="fill:#2f2d29; stroke:none;" d="M630 115L629 121L630 121L630 115M627 117L627 120L628 120L627 117M626 132L626 134L627 135L629 135L630 132L629 131L626 132z"/>
<path style="fill:#8a745b; stroke:none;" d="M512.667 135.333L513.333 135.667L512.667 135.333z"/>
<path style="fill:#2f2d29; stroke:none;" d="M625 136L624 140L628 140L627 136L625 136z"/>
<path style="fill:#8a745b; stroke:none;" d="M584 148C584.614 150.851 585.303 150.854 588 150L584 148M572 155L572 156L574 157C570.545 158.623 559.456 169.25 569 166L571 168L569 171L577 173L590 152L572 155z"/>
<path style="fill:#2f2d29; stroke:none;" d="M390 238L391 234C386.385 234 378.069 236.013 377 241C373.077 239.994 361.025 239.215 360 244L355 240L352 242L343 241L326 247L312 262L303 272L312 274L310 280L299 275L291 276L292 273L278 275L277 279L274 278L255 283L256 286C246.307 289.863 240.545 294.52 236 304L212 310L213 317C209.596 317.967 209.644 319.668 210 323L202 324L200 331L190 334L176 331L166 321L166 314L151 308L105 304L108 312L111 330C114.412 330 113.836 335.207 115 338C118.043 345.303 122.344 351.902 120 360L121 362L148 380L147 384L148 388L146 387L135 396L136 393L122 391L121 391L120 391L112 391L111 392L108 402L120 410L122 416L120 416C118.523 423.822 115.949 429.755 111 436C90.4845 449.466 82.1649 470.823 67.1158 489.244C48.4156 512.134 17.2499 527.083 4.7658 554.694C-4.46348 575.105 8.00271e-07 603.129 6.09945e-08 625L0 773L411 773C408.624 768.133 406.206 765.123 408.333 759.083C409.433 755.961 412.363 754.671 412.278 751C412.097 743.19 406.895 737.123 405.25 730C403.509 722.464 405.613 712.674 406 705L408 706L408 687L409 685C403.012 682.246 399.716 679.48 398 673L397 661L388 659L389 657L342 642L338 638L327 631L333 632L333 631C329.728 630.326 325.918 627.805 325 632L324 632L323 629L322 629L321 632L324 635C304.672 628.496 286.114 621.855 270 609L264 607L265 605L262 602L260 604L253 594L249 591L249 587L245 586L231 560L230 560L229 562L225 556C235.597 536.197 256.206 548.901 271 557L271 562C274.64 562 281.392 579.898 284.5 583.667C290.643 591.117 308.649 597.262 318 598L318 599L316 599L316 600C336.077 605.537 354.558 610.616 375 604L409 593C409.637 588.192 413.183 581.142 419 583L424 579L416 580L416 576L432 564L440 564L439 568L442 567L447 581L449 580L466 608L464 607L464 610C472.448 620.091 472.183 630.445 473 643C467.798 653.403 483.719 659.122 482 666L492 677L505 684C506.87 688.723 513.302 689.471 518 689.937C528.538 690.983 547.316 685.699 554 677L555 677L556 680L553 681C553.508 684.047 553.587 685.647 551 685L543 697L529 704L509 706C535.5 718.831 563.541 704.632 578 681L575 682C571.096 675.536 563.486 678.235 557 678L567 667L570 664C572.94 650.259 571.912 636.912 571 623L557 630L554 631L553 631L550 618L547 618L546 610L523 611L523 617L527 616L523 622C511.204 620.587 502.875 616.91 494 609L508 601L507 598L514 587L505 578L504 578L504 581L503 581L495 575L488 566L483 551L488 553C492.898 544.447 498.761 543.032 499 532C488.341 518.397 489.51 505.189 506 498L506 499L504 499L504 500L523 500L522 498L538 498L538 497L528 490L528 489L530 489L530 488C525.608 485.655 525.492 481.358 531 481L529 473L525 474L526 477L525 478L523 478L522 477L523 474C507.083 467.018 484.322 464.366 478 446L473 440L470 441L465 437L468 436C465.469 412.248 447.789 390.765 450.99 366.544C453.619 346.658 482.797 343.906 473 323L471 324C462 315.775 454.124 309.619 442 307L439 302L435 304L410 280L408 282L396 276L385 264L382 265L382 264L384 263L376 263L376 264L380 264L380 265L372 245L392 248L393 248L399 257L400 257L405 256L423 270L425 269L429 272L455 294L457 292L461 298L471 300L463 300L465 303L464 306L469 306L479 316L480 316L490 314L490 311L488 312L483 304L488 304L488 303L485 300L488 301C487.311 297.803 485.946 298.254 483 299L485 293L479 293L480 286L473 274L476 273L480 260L474 262L492 259L492 260L488 262L491 266L492 266L494 264L495 268L502 268L514 290C516.603 294.33 520.102 295.566 525 296L540 311C542.688 313.82 545.369 316.662 548.38 319.145C550.141 320.597 552.006 321.95 554.032 323.011C569.486 331.102 568.031 309.111 568 300L544 286L541 272L523 272L525 245L521 248L490 256L485 246L477 200L476 200L476 203L475 203L464 192L459 188L468 158C457.326 167.941 447.922 179.564 441.563 192.772C436.985 202.28 435.204 213.893 427.473 221.571C418.066 230.913 401.83 232.716 390 238z"/>
<path style="fill:#8a745b; stroke:none;" d="M463 164L464 165L463 164M568 174L567 178L568 178L568 174M563 188L558 189L554 199L560 193L565 193L563 188z"/>
<path style="fill:#a59f93; stroke:none;" d="M557 192L557 193L560 193L557 192z"/>
<path style="fill:#faf8f5; stroke:none;" d="M596 205L597 208L604 204L596 205z"/>
<path style="fill:#a59f93; stroke:none;" d="M485 225L486 226L485 225z"/>
<path style="fill:#8a745b; stroke:none;" d="M406.667 232.333L407.333 232.667L406.667 232.333M388.667 239.333L389.333 239.667L388.667 239.333M367 244L368 245L367 244z"/>
<path style="fill:#2f2d29; stroke:none;" d="M496 248L497 249L496 248M584 251L587 248L584 251M378 252L379 253L378 252M402 257L403 258L402 257z"/>
<path style="fill:#a59f93; stroke:none;" d="M560 258L560 262L561 262L560 258M556 262L559 260L556 262z"/>
<path style="fill:#8a745b; stroke:none;" d="M469 272L469 274L471 274L471 272L469 272M472 272L473 273L472 272z"/>
<path style="fill:#2f2d29; stroke:none;" d="M280.667 273.333L281.333 273.667L280.667 273.333z"/>
<path style="fill:#8a745b; stroke:none;" d="M583 274L584 275L583 274M585 274L585 275L588 275L585 274z"/>
<path style="fill:#2f2d29; stroke:none;" d="M263.667 280.333L264.333 280.667L263.667 280.333z"/>
<path style="fill:#8a745b; stroke:none;" d="M445 280L446 281L445 280M464 293L464 295L468 295L468 293L464 293z"/>
<path style="fill:#a59f93; stroke:none;" d="M18 299L18 300L34 300L32 311C35.2678 310.455 36.6757 310.297 36 313C57.6895 301.61 28.8278 297.506 18 299z"/>
<path style="fill:#8a745b; stroke:none;" d="M507.333 305.667L507.667 306.333L507.333 305.667z"/>
<path style="fill:#a59f93; stroke:none;" d="M50 311L50 312L51 319C47.4739 317.603 45.3301 317.042 44 321L64 321L64 320L62 319L70 315L70 314L50 311M48 312L49 313L48 312z"/>
<path style="fill:#2f2d29; stroke:none;" d="M489 318L488 321L492 321L492 320L489 318M208 320L206 323L208 320z"/>
<path style="fill:#a59f93; stroke:none;" d="M60 322L63 324L60 322z"/>
<path style="fill:#2f2d29; stroke:none;" d="M0 325L0 349L8 351L7 354L11 355L16 350L16 347L12 345C12.5192 339.914 11.7642 336.065 6 336L5 336C4.19055 332.502 4.59072 331.269 8 330L8 326L2 330L0 325M9 327L10 328L9 327z"/>
<path style="fill:#8a745b; stroke:none;" d="M0 331L0 335L1 335L0 331M7 339L11 342L11 341L7 339M2 343L2 344L6 344L2 343M5 347L5 348L8 349L8 346L5 347z"/>
<path style="fill:#2f2d29; stroke:none;" d="M24 352L24 346C19.5581 347.68 19.3757 350.466 24 352z"/>
<path style="fill:#a59f93; stroke:none;" d="M461 352L454 362L461 391L462 391L462 389L463 389L471 408L472 408L472 406L473 406L491 425L491 426L488 428C497.751 422.177 493.981 414.227 489 406C494.007 388.457 495.416 371.166 494 353L493 353L492 355L491 352L461 352z"/>
<path style="fill:#2f2d29; stroke:none;" d="M520 362C505.29 369.284 500.579 378.713 496 394C497.472 398.882 498.05 403.68 503 406L514 398L512 412L506 419L508 424L508 438L510 446L519 455L546 459L551 444C554.983 443.405 554.575 434.579 555 431L541 432L539 410L530 393L530 391L540 387L541 387L544 389L544 386L540 386L540 385L543 385L543 384L536 380L547 379L547 378L544 378L544 377L549 377L533 362L533 359L529 359C528.239 353.499 519.3 355.449 520 362M24 357L25 358L24 357M531 357L532 358L531 357z"/>
<path style="fill:#8a745b; stroke:none;" d="M520 358L520 359L524 359L520 358z"/>
<path style="fill:#faf8f5; stroke:none;" d="M482 361L481 362L481 369L487 369L488 366L484 361L482 361M484 371L485 372L484 371z"/>
<path style="fill:#2f2d29; stroke:none;" d="M2 376L9 376L7 373L2 376z"/>
<path style="fill:#8a745b; stroke:none;" d="M519 380L516 386L534 383C529.3 375.523 522.981 382.934 519 380z"/>
<path style="fill:#a59f93; stroke:none;" d="M0 381L0 387C12.5718 391.925 24.5224 397.907 36.4194 404.273C45.5963 409.183 54.8051 414.217 63.2539 420.324C86.1946 436.906 81.8581 454.454 67.2101 475.552C47.4497 504.013 12.9923 518.125 0 552C6.29557 544.045 12.6566 536.171 19.8165 528.966C39.8625 508.795 63.3778 493.662 77.8792 468.578C84.2807 457.504 90.2809 444.933 82.9786 432.771C78.9267 426.022 72.564 420.82 66.3416 416.161C58.0134 409.925 49.1108 404.619 39.8691 399.862C26.7762 393.121 13.6676 386.504 0 381z"/>
<path style="fill:#8a745b; stroke:none;" d="M552.333 385.667L552.667 386.333L552.333 385.667z"/>
<path style="fill:#faf8f5; stroke:none;" d="M0 387L0 542C11.7137 530.362 23.186 518.402 35.5431 507.438C46.9955 497.277 59.0906 488.322 67.8548 475.552C73.9062 466.734 82.2226 455.181 81.3258 443.915C80.4784 433.27 71.3724 425.448 63.2585 419.683C44.2068 406.146 21.949 394.915 0 387z"/>
<path style="fill:#2f2d29; stroke:none;" d="M96 392L96 393L104 393L96 392z"/>
<path style="fill:#faf8f5; stroke:none;" d="M546 394C556.994 404.992 562.058 393.076 546 394M546 415L544 414L541 421L541 422L543 427C550.574 422.034 554.218 416.566 557 408L556 408L555 410C549.688 408.353 547.148 409.442 546 415z"/>
<path style="fill:#2f2d29; stroke:none;" d="M65 408L65 409L68 409L68 410L66 411L80 418L82 407L65 408z"/>
<path style="fill:#a59f93; stroke:none;" d="M471 409L472 410L471 409z"/>
<path style="fill:#2f2d29; stroke:none;" d="M85 416L86 417L85 416z"/>
<path style="fill:#8a745b; stroke:none;" d="M537 421L538 422L537 421z"/>
<path style="fill:#a59f93; stroke:none;" d="M486 427L487 428L486 427M498 428L502 432L498 428z"/>
<path style="fill:#8a745b; stroke:none;" d="M309 459L308 484L327 503L349 508L349 509L346 509L346 510C360.956 510.274 383.134 511.197 380.007 489.717C379.47 486.026 378.222 482.507 377 479L364 465C364.024 460.661 357.351 458.646 354 456.444C345.169 450.641 335.988 437.879 324.083 442.5C316.823 445.318 314.934 458.174 309 459z"/>
<path style="fill:#a59f93; stroke:none;" d="M503 445C506.947 454.085 512.041 458.889 521 463L522 463L526 461L526 460L503 445z"/>
<path style="fill:#8a745b; stroke:none;" d="M559 450L559 454L560 454L559 450z"/>
<path style="fill:#a59f93; stroke:none;" d="M340 463L340 467L348 470L348 472L336 474L335 480L338 489L340 500L352 503L350 501L349 497C357.225 496.314 362.619 494.433 368 488L371 489L372 488L363 471L361 472L340 463z"/>
<path style="fill:#2f2d29; stroke:none;" d="M535 488L536 489L535 488z"/>
<path style="fill:#a59f93; stroke:none;" d="M575 495L575 509L576 509L576 505L577 505L579 508L575 495z"/>
<path style="fill:#8a745b; stroke:none;" d="M509.667 498.333L510.333 498.667L509.667 498.333z"/>
<path style="fill:#2f2d29; stroke:none;" d="M525 499L525 500L528 500L525 499M533 499L533 500L536 500L533 499M537 499L538 500L537 499M355 508L355 509L359 509L355 508z"/>
<path style="fill:#8a745b; stroke:none;" d="M343 535L352 556L363 553C363.732 547.034 363.929 541.307 360.368 536.124C355.294 528.738 347.46 526.346 343 535z"/>
<path style="fill:#a59f93; stroke:none;" d="M575 528L575 538L576 538L577 536L579 538L575 528z"/>
<path style="fill:#8a745b; stroke:none;" d="M297 532L297 536L307 535L307 533L297 532M482 547L485 544L482 547z"/>
<path style="fill:#faf8f5; stroke:none;" d="M560.667 550.333L561.333 550.667L560.667 550.333z"/>
<path style="fill:#a59f93; stroke:none;" d="M585 554L586 555L585 554M252 560L253 561L252 560M592 561L594 564L594 561L592 561z"/>
<path style="fill:#2f2d29; stroke:none;" d="M234 567L235 568L234 567M421 583L422 584L421 583M511 600L512 601L511 600z"/>
<path style="fill:#a59f93; stroke:none;" d="M609 610L610 615L611 615L611 610L609 610M606 619L605 624L606 619z"/>
<path style="fill:#2f2d29; stroke:none;" d="M552 623L553 624L552 623z"/>
<path style="fill:#faf8f5; stroke:none;" d="M583 624L584 625L583 624z"/>
<path style="fill:#a59f93; stroke:none;" d="M603 626L602 632L604 632L603 626M600 632L601 633L600 632M600 636L598 643C591.14 643.858 595.288 651.564 600 653L600 636z"/>
<path style="fill:#8a745b; stroke:none;" d="M553 649C557.943 657.275 564.13 657.619 570 650L553 649z"/>
<path style="fill:#a59f93; stroke:none;" d="M396.333 653.667L396.667 654.333L396.333 653.667M592 653L592 656L593 656L592 653M411 671C414.225 676.302 417.732 676.214 421 671L411 671z"/>
<path style="fill:#8a745b; stroke:none;" d="M583 680L584 681L583 680z"/>
<path style="fill:#a59f93; stroke:none;" d="M424 683L423 687L424 687L424 683M420.333 684.667L420.667 685.333L420.333 684.667z"/>
<path style="fill:#faf8f5; stroke:none;" d="M581 691L585 691L585 687L581 691z"/>
<path style="fill:#8a745b; stroke:none;" d="M589.333 691.667L589.667 692.333L589.333 691.667z"/>
<path style="fill:#2f2d29; stroke:none;" d="M430 712L452 699L442 694C435.82 699.127 432.491 704.385 430 712z"/>
<path style="fill:#faf8f5; stroke:none;" d="M575 695L576 696L575 695z"/>
<path style="fill:#8a745b; stroke:none;" d="M586 695L587 696L586 695z"/>
<path style="fill:#faf8f5; stroke:none;" d="M568 702L569 705L573 704L577 697L568 702z"/>
<path style="fill:#a59f93; stroke:none;" d="M468 700L468 701L480 702C478.302 696.195 472.392 699.342 468 700z"/>
<path style="fill:#faf8f5; stroke:none;" d="M576 700L577 701L576 700M566 704L564 708L568 705L566 704z"/>
<path style="fill:#a59f93; stroke:none;" d="M531 720L532 721L531 720z"/>
</svg>
