<?xml version="1.0" standalone="yes"?>
<svg width="661" height="773">
<path style="fill:#fdfcfb; stroke:none;" d="M0 0L0 266C44.2782 274.565 88.8749 281.056 133.4 288.122C154.955 291.542 178.273 300.37 200.132 294.909C226.035 288.438 248.007 265.288 270 251C299.111 240.507 329.003 232.194 359.313 225.923C378.746 221.903 401.271 220.921 417.297 207.906C435.764 192.907 446.785 169.808 464.426 153.543C489.737 130.206 520.445 113.98 544.793 89.4278C563.791 70.2701 585.7 37.8035 614.867 34.5808C642.318 31.5477 646.108 65.3416 645.573 85.1935C644.191 136.459 627.311 193.116 603 238L600 238L598 245C594.719 267.921 588.268 285.63 574 304L566.963 363.047L575.645 413.613L577 467L570 476L572 472L573 472L573 483C562.702 490.102 558.138 499.914 553 511L548 525L551 538L563 542L563 545L576 552C566.275 556.373 558.043 560.848 551 569C547.135 570.53 547.087 573.1 547 577L596 604C598.778 610.387 602.013 614.401 608 618L606 601L609 599L611 599C604.246 645.147 600.457 702.1 547.176 717.05C523.066 723.815 499.022 717.169 474.631 718.869C462.202 719.735 447.93 723.567 440.834 734.754C424.572 760.393 462.923 770.694 480.501 772.038C540.126 776.598 601.216 773 661 773L661 0L0 0z"/>
<path style="fill:#b8a992; stroke:none;" d="M270 251C247.633 265.052 225.42 288.445 199.279 294.684C177.706 299.833 154.674 291.254 133.4 287.937C88.8695 280.992 44.2976 274.372 0 266L0 271L28 275L28 278L53 279L53 282C81.7067 285.881 110.652 289.157 139.129 294.506C158.92 298.224 179.851 304.922 199.929 299.345C216.325 294.791 228.465 282.854 240 271L253 262L315 245L315 242L384 228C395.879 224.671 407.78 221.106 417.701 213.471C435.065 200.109 445.115 178.835 460.294 163.197C480.35 142.531 504.948 127.755 530 114C553.106 85.3187 577.809 59.7317 606 36C634.404 37.2629 641.697 55.7855 641.088 82.2838C640.313 116.035 631.904 148.833 617 179L616 172L578 193C574.187 192.181 571.416 191.977 570 196L564 196L550 203L551 192L560 183L562 173L560 161L570 161L570 155L584 154L584 141C588.447 140.659 591.891 140.224 594 136L599 136L600 126C611.833 116.501 611.63 89.2246 613 75L614 75L614 82L615 82C615.001 77.3841 613.878 71.7511 619 70L619 64L604 65L571 92L568 95L540 119L540 123C536.53 123.248 534.039 123.449 533 127L495 148L495 151C479.84 152.698 482.378 182.153 482.018 194.018C481.859 199.254 479.061 208.899 486 210L502 196L555 237L568 237C571.054 245.697 585.725 244 593 244C589.679 257.52 584.522 266.815 574 276L575 278L563 279L564 290L582 294L581 300C590.715 282.256 595.469 265.015 598 245L600 238L603 238C606.326 231.85 613.82 229.665 616.614 223.313C620.802 213.792 619.81 201.316 623.182 191.303C625.756 183.659 630.171 176.934 632.191 169C635.102 157.569 635.192 145.643 638.328 134.177C643.188 116.408 650.489 97.9421 648.191 79C645.64 57.9727 653.153 20.4099 620.236 24.4602C615.895 24.9943 611.286 26.2518 607.226 27.8657C593.661 33.2565 584.44 45.3256 574.943 55.6326C567.237 63.9965 558.308 71.9459 551.25 80.8102C546.837 86.3521 545.143 93.4275 539.858 98.3469C514.178 122.253 476.106 132.289 453.007 159.461C446.564 167.039 434.24 177.384 430.492 186.37C425.961 197.236 432.167 209.722 420.717 217.899C409.19 226.131 390.181 219.969 377 220.158C361.188 220.385 345.722 229.202 330.734 233.507C318.528 237.012 306.005 236.58 294 241.235C286.074 244.309 275.108 243.526 270 251z"/>
<path style="fill:#826c54; stroke:none;" d="M606 36C577.341 59.3802 552.771 84.8864 530 114C521.75 115.173 512.147 122.286 504.715 126.171C486.665 135.604 468.605 150.319 454.871 165.124C448.612 171.872 439.944 178.305 435.008 186.089C429.114 195.387 436.501 207.584 428.526 216.7C423.387 222.575 412.837 227.008 405 225.741C399.233 224.808 386.661 220.432 384 228L315 242L315 245L253 262L240 271C228.155 282.777 215.708 294.754 199.112 299.193C178.988 304.577 158.001 297.753 138.179 294.118C110.005 288.952 81.3963 285.705 53 282L53 279L28 278L28 275L0 271L0 383L24 396C34.3245 400.749 44.6747 405.585 53.9128 412.281C59.076 416.024 63.9095 420.31 67.8799 425.319C98.3057 463.701 42.0752 504.999 19.9715 531.112C12.9227 539.44 6.42724 548.19 0 557L38 525C58.9776 498.381 79.2457 471.918 97 443C101.633 442.252 112.449 439.411 114 435C118.282 432.116 119.364 429.019 120 424L125 424L123 415L111 403L112 393C126.185 394.625 146.275 400.131 152 383L149 384L143 373L143 369L134 369L118 327L114 326C115.811 315.711 118.916 309.457 128 304L128 307C154.692 317.803 179.845 330.263 208 337L207 332L212 330L211 324L218 317L225 317L232 311L231 307L239 307L240 300L247 290L256 289L256 286L293 273L291 277L299 277L299 282L324 256L324 265C329.95 261.562 327.522 256.301 324 252C329.047 252 335.814 253.517 338 248L352 258L348 258L346 264L368 265C370.831 272.154 385.395 271.962 392 272L392 273L388 273L388 274L394 274L394 282C402.879 285.283 406.894 290.769 413.444 297.389C415.532 299.499 418.565 299.878 419 303L426 303L425 307L429 311L451 313L451 317L458 323L464 327L475 331C475.013 334.194 474.597 336.271 478 337L478 338L474 336L450 356L447 356L447 368L448 368L448 366L449 366C447.712 380.476 447.753 396.891 460 407L463 410L471 461L475 465L498 476C505.603 474.565 512.943 473.541 516 482L520 481L523 483C515.308 493.447 504.225 496.931 495.147 505.54C481.21 518.758 478.706 540.301 483 558L488 567L493 567L493 568L491 568L491 569L508 583L510 596L506 596L506 600L502 600C497.125 608.04 497.427 613.116 505 619L505 622L523 621L526 610C530.221 618.374 535.216 607.647 541.442 611.426C551.555 617.563 542.19 631.423 558 632L571 623L570 647L552 647L550 649L574 651L557 671L547 681L502 691L495 676L486 667L481 667C479.433 649.08 480.972 633.27 486 616L458 594L449 570L445 570C439.085 562.899 433.071 560.803 424 560L424 564L381 597L380 604C357.499 604.807 336.799 602.646 315 597L284 584L277 560C285.373 557.85 284.272 549.692 276.151 547.777C258.979 543.728 241.321 542.28 224 539L226 563L231 563C239.709 577.528 248.893 591.603 261.457 603.141C283.347 623.243 311.553 633.068 339 643L357 646L357 649L375 650L381 657L381 658L378 658L378 659L395 677C390.615 678.283 391.07 682.126 392 686C395.709 685.868 409.084 685.837 409.833 691C410.182 693.401 408 697.068 408 700L405 699L408 744L411 751L406 751C412.819 763.004 421.083 768.51 434 773C432.356 765.568 430.667 758.04 430.898 750.379C432.335 702.614 491.797 715.529 522.043 718.994C529.347 719.831 536.672 720.428 544 721L544 719L530 718L530 713L547 712L547 709L518 709L533 704C536.477 698.521 544.888 692.995 551 691L554 688L571 677L571 684L577 684L577 690L571 694L579 684L582 684L582 680L576 673L563 676L578 660L577 619L539 600L516 577L512 577L512 573L509 573L509 569L505 563C515.038 560.355 523.063 557.59 519 546L512 529L509 529L509 514L512 511L530 510L529 508L533 508L533 505L554 504L551 466C559.93 460.76 554.504 451.836 554.794 444.004C554.964 439.435 558.183 435.976 560 432L565 432C564.924 427.484 565.62 413.99 561 413L562 418C547.783 421.85 545.766 413.86 546 401L540 390L553 390L560 384L560 376L540 359L529 348L529 341L515 336L516 317L506 300L514 310L522 311L535 328L542 331L541 333L550 335L549 338C561.268 328.478 568.452 318.486 574 304L582 294L564 290L563 279L575 278L574 276C584.867 266.958 589.879 257.723 593 244L568 237L555 237L502 196L486 210C479.547 207.975 481.848 199.481 482.036 194.013C482.447 182.113 480.012 153.312 495 151L495 148L533 127L540 123L540 119L568 95L571 92L604 65L619 64L619 70L616 69L615 82L614 82L614 75L613 75C611.398 89.3668 611.666 116.146 600 126L599 136L594 136L584 141L584 154L570 155L570 161L568 159L567 159L560 161L562 173L560 183L551 192L550 203C555.945 202.134 560.304 200.958 564 196L570 196L578 193L616 172L617 179C632.588 148.479 640.818 114.713 641.256 80.3633C641.588 54.2617 634.034 36.2015 606 36z"/>
<path style="fill:#282726; stroke:none;" d="M436 228L424 234C422.568 227.318 410.492 232.389 406 232.389C403.217 232.389 401.154 230.126 398.111 231.333C394.985 232.573 393.394 236.482 390 238L390 234C383.991 238.938 382.695 243.401 384 251L392 248L393 248L405 256L404 265L419 268L420 257L422 257L423 260L424 260L421 255L424 247L429 247L429 252L436 252L436 254L432 254L434 256L432 260L441 258L442 259C440.503 261.469 439.966 262.333 443 263L446 266L454 294L457 292L472 298L474 286L471 288L468 264L464 264L459 270L458 275C453.825 269.267 452.834 265.123 460 262L460 258L480 253L480 249L483 249L484 238L481 238L477 197L471 193L460 176L464 176L468 165L473 165L477 158L480 148C457.95 156.113 437.169 183.885 435.919 206.966C435.546 213.862 427.634 224.4 436 228M514 252L510 252L502 258L514 293L530 306L540 307L540 314L551 317L560 325C561.994 329.073 568.686 331.996 570.137 325.6C571.813 318.213 568 306.962 568 299L564 299L564 293L557 293L554 286L544 286L544 275L541 272C532.049 270.542 526.037 267.86 520 261L522 262L525 246C520.741 247.067 515.725 247.64 514 252M338 248L324 252L324 265L324 256L299 282L299 277L291 277L293 273L256 286L256 289L247 290L240 300L239 307L231 307L232 311L225 317L218 317L211 324L212 330L207 332L208 337L128 307L128 304C118.664 309.324 115.623 315.543 114 326L118 327L134 369L143 369L143 373L149 384L152 383C145.467 399.647 126.429 394.491 112 393L111 403L123 415L125 424L120 424L114 435L97 443L38 525C28.9202 531.633 20.1127 538.539 13.8356 548.027C-3.09325 573.614 0.0647148 608.76 0.0146268 638.004C-0.062447 683.002 1.79492e-12 728.001 0 773L405 773L406 751L411 751L408 744L405 699L408 700C404.452 692.367 399.78 688.959 392 686L395 677L378 659L378 658L381 658L381 657L375 650L357 649L357 646L339 643C334.827 633.758 309.431 634.217 300.22 630.756C279.964 623.145 264.045 609.326 249.981 593.821C241.612 584.596 232.34 576.273 231 563L226 563L224 539C241.026 542.546 258.357 544.608 275.419 547.923C283.594 549.512 285.31 557.27 277 560L284 584L315 597C316.512 602.17 328.087 603.084 332.995 604.023C343.367 606.007 351.882 608.959 363 607.866C368.934 607.282 374.148 604.258 380 604L381 597L424 564L424 560C432.924 560.986 438.902 563.292 445 570L449 570L458 594L486 616C480.807 633.298 479.281 649.021 481 667L486 667L495 676L502 691L547 681L557 671L574 651C569.333 651.98 570.616 657.041 566.889 659.278C556.721 665.378 552.209 652.848 552 647L570 647L571 623C565.279 624.823 561.52 627.083 558 632L526 610C521.003 611.985 522.608 616.475 523 621L505 622L505 619C497.816 612.973 497.462 608.011 502 600L506 600L506 596L510 596L508 583L491 569L491 568L493 568L493 567L488 567L483 558C479.565 540.224 481.662 519.628 495.26 506.208C504.176 497.409 515.294 493.37 523 483L520 481L516 482C513.479 473.071 505.565 474.358 498 476C493.889 468.871 482.786 465.128 475 465L471 461L463 410L460 407L449 366L448 366L448 368L447 368L447 356L450 356L474 336L478 338L478 337L475 337L475 331L464 327L458 323L451 317L451 313L429 311L425 307L426 303L419 303L394 282L394 274L388 274L388 273L392 273L392 272L368 265L346 264L348 258L352 258L349 255L338 248z"/>
<path style="fill:#b8a992; stroke:none;" d="M506 300L516 317L515 336L529 341L529 348L540 359L560 376L560 384L553 390L540 390L546 401L543 418L544 418L544 406C550.377 411.098 553.024 415.899 554 424L555 424L562 418L561 413L565 432L560 432L551 466L554 504L533 505L533 508L529 508L530 510L512 511L509 514L509 529L512 529L519 546C520.595 556.74 514.305 559.795 505 563L509 569L509 573L512 573L512 577L516 577C520.688 589.819 531.353 590.513 539 600L577 619L578 660L563 676L576 673L582 680L582 684L579 684C578.024 691.197 566.363 701 559.94 704.329C555.783 706.483 548.418 707.153 547 712L530 713L530 718L544 719L544 721C517.122 718.724 485.958 708.85 459.325 715.583C441.565 720.073 428.123 735.393 432.26 754.343C433.708 760.976 436.885 767.028 440 773C438.322 766.431 436.575 759.779 436.445 752.959C436.073 733.6 451.372 722.371 469.194 719.734C502.713 714.773 535.26 727.826 566.69 709.191C603.956 687.096 605.664 637.382 611 599L609 599L606 601L608 618L596 604L547 577L551 569C558.275 561.256 566.479 556.539 576 552L563 545L563 542L551 538L548 525C553.694 523.786 553 515.675 553 511C565.1 507.464 553.993 475.96 573 483L573 472L572 472L570 476L577 467L575.693 412.653L567.394 359.445L575 318L574 318L549 338L550 335L541 333L542 331L535 328L522 311L514 310L506 300M460 397L467 405L468 405C476.305 404.771 478.085 416.34 481.718 421.507C484.634 425.653 488.454 423.922 490 420L496 424L498 355C492.307 354.45 486.54 353.835 480.828 354.483C458.489 357.015 458.539 379.405 460 397z"/>
<path style="fill:#282726; stroke:none;" d="M527 360L520 366L502 366L502 372C493.499 374.487 498.995 398.995 499 406L503 406L514 398L512 414L509 414C511.845 429.81 521.829 460.749 543.749 445.717C547.651 443.041 550.83 439.472 554 436L546 438L540 434L539 413L529 413C529 408.065 534.502 395.179 529 394L544 387L544 386L515 386L521 377L544 375L544 370L540 363L527 360z"/>
<path style="fill:#b8a992; stroke:none;" d="M0 383L0 388L21 394C47.0847 412.687 83.7543 433.295 63.8892 469.993C59.4427 478.208 53.6781 485.617 48 493C29.0323 511.306 13.1573 530.091 0 553C6.35533 545.738 12.727 538.49 19.2807 531.405C42.7297 506.056 99.3865 463.146 68.0486 424.646C64.0214 419.698 59.1541 415.47 53.9575 411.794C44.6927 405.239 34.3368 400.572 24 396L0 383z"/>
<path style="fill:#fdfcfb; stroke:none;" d="M0 388L0 540L48 493C53.7264 485.822 59.5222 478.613 64.0356 470.586C84.8946 433.487 47.7167 412.57 21 394L0 388M554 403L560 403C560.484 400.081 561.625 395.619 558.393 393.822C556.464 392.749 546.743 391.898 547.304 395.842C547.657 398.317 552.567 400.746 554 403M544 406L541 428L551 428L554 425C553.441 416.307 551.006 411.248 544 406z"/>
<path style="fill:#b8a992; stroke:none;" d="M551 425L543 428L543 429C547.538 428.997 552.099 429.798 554 425L551 425z"/>
<path style="fill:#826c54; stroke:none;" d="M322 446L318 446L308 484L315 487L330 507L370 512L380 474C374.63 473.105 364.21 466.159 365 463L350 448L346 448C342.028 440.495 324.744 435.422 322 446z"/>
<path style="fill:#b8a992; stroke:none;" d="M506 458L515 459L512 455C511.258 449.1 506.198 453.904 506 458M336 463L338 465L329 480L333 496L339 497L339 503L368 502L368 496L371 496L371 492L373 494L374 494L373 480L370 480L370 474L366 474L361 469L361 465L336 463z"/>
<path style="fill:#826c54; stroke:none;" d="M346 553L349 556L366 556L366 536L356 532C352.377 527.058 343.106 520.256 342.038 531.103C341.331 538.288 344.343 546.099 346 553M297 532C300.599 539.706 307.297 533.331 297 532z"/>
<path style="fill:#b8a992; stroke:none;" d="M412 671L419 676L419 671L412 671z"/>
<path style="fill:#282726; stroke:none;" d="M554 688L551 691C545.02 692.262 535.475 698.25 533 704L518 709C539.964 707.016 557.875 700.907 577 690L577 684L571 684L571 677C564.038 679.476 558.807 682.305 554 688z"/>
<path style="fill:#826c54; stroke:none;" d="M560 704L564 701L560 704z"/>
</svg>
