<?xml version="1.0" standalone="yes"?>
<svg width="661" height="773">
<path style="fill:#fdfcfb; stroke:none;" d="M0 0L0 266C42.3811 273.894 84.9413 280.583 127.504 287.395C150.588 291.09 175.527 298.474 198.871 293.087C225.379 286.968 247.979 265.939 270 251C297.491 241.629 325.274 233.64 353.642 227.37C375.547 222.528 399.601 219.694 417.64 205.172C436.203 190.227 448.966 168.855 466.545 152.696C491.59 129.672 520.885 112.076 545.344 88.2834C563.894 70.2388 586.573 39.4544 614.773 37.6483C641.259 35.9518 645.005 69.0052 644.474 88.4112C643.077 139.484 625.608 192.651 603 238L600 238L598 245C593.477 266.906 586.266 285.265 574 304L568.094 362.248L577 467L570 476L572 472L573 472L573 483C562.702 490.102 558.138 499.914 553 511L548 525L551 538L563 542L563 545L576 552C566.275 556.373 558.043 560.848 551 569C547.135 570.53 547.087 573.1 547 577L596 604C598.778 610.387 602.013 614.401 608 618L606 601L609 599L611 599C603.902 645.203 597.867 701.256 544.857 715.86C522.872 721.917 500.367 717.994 478.015 720.049C466.438 721.114 453.183 724.201 445.547 733.749C432.268 750.354 450.98 764.523 466.075 768.518C500.606 777.655 540.589 772.999 575.99 773L661 773L661 0L0 0z"/>
<path style="fill:#b8a992; stroke:none;" d="M270 251C247.842 265.625 225.246 286.448 198.871 292.653C175.556 298.138 150.588 290.86 127.504 287.208C84.9422 280.473 42.3948 273.739 0 266L0 271L28 275L28 278L53 279L53 282C80.7345 285.8 108.518 289.391 136.106 294.162C156.727 297.728 178.645 303.145 199.358 297.315C215.389 292.803 227.917 281.944 240 271L253 262L315 245L315 242L384 228C396.118 223.633 408.009 218.929 418.194 210.84C435.63 196.993 447.482 177.155 463.227 161.535C482.845 142.072 506.184 127.693 530 114C553.356 85.6753 578.276 60.0747 606 36C633.553 41.7745 640.773 60.6104 639.984 87.464C639.042 119.532 629.85 149.868 617 179L616 172L578 193C574.187 192.181 571.416 191.977 570 196L564 196L550 203L551 192L560 183L562 173L560 161L570 161L570 155L584 154L584 141C588.447 140.659 591.891 140.224 594 136L599 136L600 126C611.833 116.501 611.63 89.2246 613 75L614 75L614 82L615 82C615.001 77.3841 613.878 71.7511 619 70L619 64L604 65L571 92L568 95L540 119L540 123C536.53 123.248 534.039 123.449 533 127L495 148L495 151C479.84 152.698 482.378 182.153 482.018 194.018C481.859 199.254 479.061 208.899 486 210L502 196L555 237L568 237C571.054 245.697 585.725 244 593 244C589.679 257.52 584.522 266.815 574 276L575 278L563 279L564 290L582 294L581 300C589.239 282.106 594.523 264.378 598 245L600 238L603 238C606.326 231.85 613.82 229.665 616.614 223.313C620.802 213.792 619.81 201.316 623.182 191.303C625.756 183.659 630.171 176.934 632.191 169C635.102 157.569 635.192 145.643 638.328 134.177C643.188 116.408 650.489 97.9421 648.191 79C645.64 57.9727 653.153 20.4099 620.236 24.4602C615.895 24.9943 611.286 26.2518 607.226 27.8657C593.661 33.2565 584.44 45.3256 574.943 55.6326C567.237 63.9965 558.308 71.9459 551.25 80.8102C546.837 86.3521 545.143 93.4275 539.858 98.3469C514.178 122.253 476.106 132.289 453.007 159.461C446.564 167.039 434.24 177.384 430.492 186.37C425.961 197.236 432.167 209.722 420.717 217.899C409.19 226.131 390.181 219.969 377 220.158C361.188 220.385 345.722 229.202 330.734 233.507C318.528 237.012 306.005 236.58 294 241.235C286.074 244.309 275.108 243.526 270 251z"/>
<path style="fill:#826c54; stroke:none;" d="M606 36C577.882 59.7974 553.079 85.2998 530 114C521.75 115.173 512.147 122.286 504.715 126.171C486.665 135.604 468.605 150.319 454.871 165.124C448.612 171.872 439.944 178.305 435.008 186.089C429.114 195.387 436.501 207.584 428.526 216.7C423.387 222.575 412.837 227.008 405 225.741C399.233 224.808 386.661 220.432 384 228L315 242L315 245L253 262L240 271C227.631 281.88 214.819 292.728 198.585 297.145C177.794 302.801 155.833 297.315 135.156 293.794C107.882 289.15 80.4208 285.649 53 282L53 279L28 278L28 275L0 271L0 383L24 396C34.6823 401.601 45.4943 407.244 54.8127 414.995C59.2449 418.682 63.3321 422.843 66.6037 427.606C92.6655 465.545 41.5014 506.171 19.7707 532.078C12.9535 540.205 6.4592 548.588 0 557L38 525L97 443C101.633 442.252 112.449 439.411 114 435C118.282 432.116 119.364 429.019 120 424L125 424L123 415L111 403L112 393C126.185 394.625 146.275 400.131 152 383L149 384L143 373L143 369L134 369L118 327L114 326C115.811 315.711 118.916 309.457 128 304L128 307L208 337L207 332L212 330L211 324L218 317L225 317L232 311L231 307L239 307L240 300L247 290L256 289L256 286L293 273L291 277L299 277L299 282L324 256L324 265C329.95 261.562 327.522 256.301 324 252C329.047 252 335.814 253.517 338 248L352 258L348 258L346 264L368 265C370.831 272.154 385.395 271.962 392 272L392 273L388 273L388 274L394 274L394 282C402.879 285.283 406.894 290.769 413.444 297.389C415.532 299.499 418.565 299.878 419 303L426 303L425 307L429 311L451 313L451 317L458 323L464 327L475 331C475.013 334.194 474.597 336.271 478 337L478 338L474 336L450 356L447 356L447 368L448 368L448 366L449 366C447.712 380.476 447.753 396.891 460 407L463 410L471 461L475 465L498 476C505.603 474.565 512.943 473.541 516 482L520 481L523 483C515.308 493.447 504.225 496.931 495.147 505.54C481.21 518.758 478.706 540.301 483 558L488 567L493 567L493 568L491 568L491 569L508 583L510 596L506 596L506 600L502 600C497.125 608.04 497.427 613.116 505 619L505 622L523 621L526 610C530.221 618.374 535.216 607.647 541.442 611.426C551.555 617.563 542.19 631.423 558 632L571 623L570 647L552 647L550 649L574 651L557 671L547 681L502 691L495 676L486 667L481 667C480.628 649.519 482.226 633.073 486 616L458 594L449 570L445 570C439.085 562.899 433.071 560.803 424 560L424 564L381 597L380 604C357.822 603.89 336.686 601.656 315 597L284 584L277 560C285.373 557.85 284.272 549.692 276.151 547.777C258.979 543.728 241.321 542.28 224 539L226 563L231 563C240.949 578.098 251.298 592.83 265.051 604.754C286.38 623.247 312.926 633.227 339 643L357 646L357 649L375 650L381 657L381 658L378 658L378 659L395 677C390.615 678.283 391.07 682.126 392 686C395.709 685.868 409.084 685.837 409.833 691C410.182 693.401 408 697.068 408 700L405 699L408 744L411 751L406 751C412.819 763.004 421.083 768.51 434 773C433.105 764.407 432.156 755.648 433.72 747.071C441.209 705.997 493.452 715.662 522.944 718.861C529.958 719.622 536.978 720.317 544 721L544 719L530 718L530 713L547 712L547 709L518 709L533 704C536.477 698.521 544.888 692.995 551 691L554 688L571 677L571 684L577 684L577 690L571 694L579 684L582 684L582 680L576 673L563 676L578 660L577 619L539 600L516 577L512 577L512 573L509 573L509 569L505 563C515.038 560.355 523.063 557.59 519 546L512 529L509 529L509 514L512 511L530 510L529 508L533 508L533 505L554 504L551 466C559.93 460.76 554.504 451.836 554.794 444.004C554.964 439.435 558.183 435.976 560 432L565 432C564.924 427.484 565.62 413.99 561 413L562 418C547.783 421.85 545.766 413.86 546 401L540 390L553 390L560 384L560 376L540 359L529 348L529 341L515 336L516 317L506 300L514 310L522 311L535 328L542 331L541 333L550 335L549 338C560.418 328.126 567.911 317.804 574 304L582 294L564 290L563 279L575 278L574 276C584.867 266.958 589.879 257.723 593 244L568 237L555 237L502 196L486 210C479.547 207.975 481.848 199.481 482.036 194.013C482.447 182.113 480.012 153.312 495 151L495 148L533 127L540 123L540 119L568 95L571 92L604 65L619 64L619 70L616 69L615 82L614 82L614 75L613 75C611.398 89.3668 611.666 116.146 600 126L599 136L594 136L584 141L584 154L570 155L570 161L568 159L567 159L560 161L562 173L560 183L551 192L550 203C555.945 202.134 560.304 200.958 564 196L570 196L578 193L616 172L617 179C630.42 149.394 639.568 118.314 640.193 85.5714C640.697 59.1583 633.373 40.6744 606 36z"/>
<path style="fill:#282726; stroke:none;" d="M436 228L424 234C422.568 227.318 410.492 232.389 406 232.389C403.217 232.389 401.154 230.126 398.111 231.333C394.985 232.573 393.394 236.482 390 238L390 234C383.991 238.938 382.695 243.401 384 251L392 248L393 248L405 256L404 265L419 268L420 257L422 257L423 260L424 260L421 255L424 247L429 247L429 252L436 252L436 254L432 254L434 256L432 260L441 258L442 259C440.503 261.469 439.966 262.333 443 263L446 266L454 294L457 292L472 298L474 286L471 288L468 264L464 264L459 270L458 275C453.825 269.267 452.834 265.123 460 262L460 258L480 253L480 249L483 249L484 238L481 238L477 197L471 193L460 176L464 176L468 165L473 165L477 158L480 148C457.95 156.113 437.169 183.885 435.919 206.966C435.546 213.862 427.634 224.4 436 228M514 252L510 252L502 258L514 293L530 306L540 307L540 314L551 317L560 325C561.994 329.073 568.686 331.996 570.137 325.6C571.813 318.213 568 306.962 568 299L564 299L564 293L557 293L554 286L544 286L544 275L541 272C532.049 270.542 526.037 267.86 520 261L522 262L525 246C520.741 247.067 515.725 247.64 514 252M338 248L324 252L324 265L324 256L299 282L299 277L291 277L293 273L256 286L256 289L247 290L240 300L239 307L231 307L232 311L225 317L218 317L211 324L212 330L207 332L208 337L128 307L128 304C118.664 309.324 115.623 315.543 114 326L118 327L134 369L143 369L143 373L149 384L152 383C145.467 399.647 126.429 394.491 112 393L111 403L123 415L125 424L120 424L114 435L97 443L38 525C28.4816 533.297 19.2859 541.862 13.0372 552.991C-2.97022 581.502 0.0911797 618.472 0.0225215 650.006C-0.0667429 691.004 6.36841e-09 732.002 0 773L405 773L406 751L411 751L408 744L405 699L408 700C404.452 692.367 399.78 688.959 392 686L395 677L378 659L378 658L381 658L381 657L375 650L357 649L357 646L339 643C334.827 633.758 309.431 634.217 300.22 630.756C279.964 623.145 264.045 609.326 249.981 593.821C241.612 584.596 232.34 576.273 231 563L226 563L224 539C241.026 542.546 258.357 544.608 275.419 547.923C283.594 549.512 285.31 557.27 277 560L284 584L315 597C316.512 602.17 328.087 603.084 332.995 604.023C343.367 606.007 351.882 608.959 363 607.866C368.934 607.282 374.148 604.258 380 604L381 597L424 564L424 560C432.924 560.986 438.902 563.292 445 570L449 570L458 594L486 616C482.126 633.087 480.533 649.486 481 667L486 667L495 676L502 691L547 681L557 671L574 651C569.333 651.98 570.616 657.041 566.889 659.278C556.721 665.378 552.209 652.848 552 647L570 647L571 623C565.279 624.823 561.52 627.083 558 632L526 610C521.003 611.985 522.608 616.475 523 621L505 622L505 619C497.816 612.973 497.462 608.011 502 600L506 600L506 596L510 596L508 583L491 569L491 568L493 568L493 567L488 567L483 558C479.565 540.224 481.662 519.628 495.26 506.208C504.176 497.409 515.294 493.37 523 483L520 481L516 482C513.479 473.071 505.565 474.358 498 476C493.889 468.871 482.786 465.128 475 465L471 461L463 410L460 407L449 366L448 366L448 368L447 368L447 356L450 356L474 336L478 338L478 337L475 337L475 331L464 327L458 323L451 317L451 313L429 311L425 307L426 303L419 303L394 282L394 274L388 274L388 273L392 273L392 272L368 265L346 264L348 258L352 258L349 255L338 248z"/>
<path style="fill:#b8a992; stroke:none;" d="M506 300L516 317L515 336L529 341L529 348L540 359L560 376L560 384L553 390L540 390L546 401L543 418L544 418L544 406C550.377 411.098 553.024 415.899 554 424L555 424L562 418L561 413L565 432L560 432L551 466L554 504L533 505L533 508L529 508L530 510L512 511L509 514L509 529L512 529L519 546C520.595 556.74 514.305 559.795 505 563L509 569L509 573L512 573L512 577L516 577C520.688 589.819 531.353 590.513 539 600L577 619L578 660L563 676L576 673L582 680L582 684L579 684C578.024 691.197 566.363 701 559.94 704.329C555.783 706.483 548.418 707.153 547 712L530 713L530 718L544 719L544 721C536.978 720.277 529.958 719.543 522.944 718.748C495.091 715.591 429.66 705.691 434.474 752.893C435.184 759.854 437.623 766.47 440 773C439.053 765.601 438.033 758.072 439.018 750.621C441.416 732.483 456.738 723.4 473.6 720.891C504.019 716.364 534.78 724.667 563.15 708.872C601.81 687.348 605.24 638.131 611 599L609 599L606 601L608 618L596 604L547 577L551 569C558.275 561.256 566.479 556.539 576 552L563 545L563 542L551 538L548 525C553.694 523.786 553 515.675 553 511C565.1 507.464 553.993 475.96 573 483L573 472L572 472L570 476L577 467C578.103 416.338 563.193 368.049 575 318L574 318L549 338L550 335L541 333L542 331L535 328L522 311L514 310L506 300M460 397L467 405L468 405C476.305 404.771 478.085 416.34 481.718 421.507C484.634 425.653 488.454 423.922 490 420L496 424L498 355C492.416 355.136 486.76 355.221 481.287 356.456C461.664 360.884 460.217 380.106 460 397z"/>
<path style="fill:#282726; stroke:none;" d="M527 360L520 366L502 366L502 372C493.499 374.487 498.995 398.995 499 406L503 406L514 398L512 414L509 414C511.845 429.81 521.829 460.749 543.749 445.717C547.651 443.041 550.83 439.472 554 436L546 438L540 434L539 413L529 413C529 408.065 534.502 395.179 529 394L544 387L544 386L515 386L521 377L544 375L544 370L540 363L527 360z"/>
<path style="fill:#b8a992; stroke:none;" d="M0 383L0 388L21 394C45.7834 412.094 78.3966 433.407 62.8484 468.318C58.9324 477.111 53.4031 485.077 48 493C29.7353 511.61 13.9505 530.952 0 553C6.23245 546.039 12.4748 539.088 18.807 532.217C41.9307 507.128 93.8936 465.165 66.8379 426.947C63.5043 422.238 59.3741 418.133 54.9034 414.506C45.5352 406.905 34.7068 401.429 24 396L0 383z"/>
<path style="fill:#fdfcfb; stroke:none;" d="M0 388L0 540L48 493C53.631 485.033 59.3948 477.013 63.4305 468.085C79.2299 433.134 45.9073 411.739 21 394L0 388M554 403L560 403C560.484 400.081 561.625 395.619 558.393 393.822C556.464 392.749 546.743 391.898 547.304 395.842C547.657 398.317 552.567 400.746 554 403M544 406L541 428L551 428L554 425C553.441 416.307 551.006 411.248 544 406z"/>
<path style="fill:#b8a992; stroke:none;" d="M551 425L543 428L543 429C547.538 428.997 552.099 429.798 554 425L551 425z"/>
<path style="fill:#826c54; stroke:none;" d="M322 446L318 446L308 484L315 487L330 507L370 512L380 474C374.63 473.105 364.21 466.159 365 463L350 448L346 448C342.028 440.495 324.744 435.422 322 446z"/>
<path style="fill:#b8a992; stroke:none;" d="M506 458L515 459L512 455C511.258 449.1 506.198 453.904 506 458M336 463L338 465L329 480L333 496L339 497L339 503L368 502L368 496L371 496L371 492L373 494L374 494L373 480L370 480L370 474L366 474L361 469L361 465L336 463z"/>
<path style="fill:#826c54; stroke:none;" d="M346 553L349 556L366 556L366 536L356 532C352.377 527.058 343.106 520.256 342.038 531.103C341.331 538.288 344.343 546.099 346 553M297 532C300.599 539.706 307.297 533.331 297 532z"/>
<path style="fill:#b8a992; stroke:none;" d="M412 671L419 676L419 671L412 671z"/>
<path style="fill:#282726; stroke:none;" d="M554 688L551 691C545.02 692.262 535.475 698.25 533 704L518 709C539.212 705.742 557.821 699.606 577 690L577 684L571 684L571 677C564.038 679.476 558.807 682.305 554 688z"/>
<path style="fill:#826c54; stroke:none;" d="M560 704L564 701L560 704z"/>
</svg>
