<?xml version="1.0" standalone="yes"?>
<svg width="661" height="773">
<path style="fill:#fdfcfb; stroke:none;" d="M0 0L0 266C45.2129 275.013 90.8639 281.212 136.373 288.37C157.099 291.63 179.282 301.481 200.373 296.116C226.14 289.56 247.754 264.901 270 251C299.778 239.815 330.933 231.359 362.134 225.146C380.342 221.521 402.25 221.722 417.309 209.462C435.439 194.701 445.205 170.798 462.57 154.634C488.054 130.914 519.82 115.483 544.2 90.4269C563.502 70.5896 584.847 37.4228 614.453 32.9941C643.077 28.7125 646.685 63.6891 646.104 84.1005C644.655 134.971 628.313 193.952 603 238L600 238L598 245C595.446 268.514 589.672 285.989 574 304C571.599 323.454 565.111 343.308 566.17 362.992C567.06 379.542 573.139 395.315 575.778 411.6C578.756 429.976 578.025 448.495 577 467L570 476L572 472L573 472L573 483C562.702 490.102 558.138 499.914 553 511L548 525L551 538L563 542L563 545L576 552C566.275 556.373 558.043 560.848 551 569C547.135 570.53 547.087 573.1 547 577L596 604C598.778 610.387 602.013 614.401 608 618L606 601L609 599L611 599C604.287 646.765 600.948 705.34 544.549 718.683C520.696 724.326 497.361 716.821 473.423 718.097C460.937 718.762 446.964 722.558 439.516 733.443C421.849 759.265 458.69 770.928 477.377 772.226C538.104 776.446 600.136 773 661 773L661 0L0 0z"/>
<path style="fill:#b8a992; stroke:none;" d="M270 251C247.345 264.627 225.535 289.61 199.515 295.903C178.729 300.929 156.808 291.324 136.373 288.186C90.8513 281.197 45.2374 274.786 0 266L0 271L28 275L28 278L53 279L53 282C82.014 285.84 111.464 288.906 140.195 294.503C159.764 298.316 180.245 306.019 200.236 300.505C216.856 295.921 228.779 283.35 240 271L253 262L315 245L315 242L384 228C396.016 225.125 408.316 222.134 418.282 214.433C435.104 201.435 443.823 179.735 458.404 164.389C478.758 142.968 504.154 127.804 530 114C552.988 85.1472 577.506 59.4919 606 36C634.636 34.5275 642.161 52.8497 641.639 79.2008C640.955 113.717 633.324 148.537 617 179L616 172C601.98 177.261 589.904 183.913 578 193C574.187 192.181 571.416 191.977 570 196L564 196L550 203L551 192L560 183L562 173L560 161L570 161L570 155L584 154L584 141C588.447 140.659 591.891 140.224 594 136L599 136L600 126C611.833 116.501 611.63 89.2246 613 75L614 75L614 82L615 82C615.001 77.3841 613.878 71.7511 619 70L619 64L604 65L571 92L568 95L540 119L540 123C536.53 123.248 534.039 123.449 533 127L495 148L495 151C479.84 152.698 482.378 182.153 482.018 194.018C481.859 199.254 479.061 208.899 486 210L502 196L555 237L568 237C571.054 245.697 585.725 244 593 244C589.679 257.52 584.522 266.815 574 276L575 278L563 279L564 290L582 294L581 300C591.83 282.426 596.042 265.423 598 245L600 238L603 238C606.326 231.85 613.82 229.665 616.614 223.313C620.802 213.792 619.81 201.316 623.182 191.303C625.756 183.659 630.171 176.934 632.191 169C635.102 157.569 635.192 145.643 638.328 134.177C643.188 116.408 650.489 97.9421 648.191 79C645.64 57.9727 653.153 20.4099 620.236 24.4602C615.895 24.9943 611.286 26.2518 607.226 27.8657C593.661 33.2565 584.44 45.3256 574.943 55.6326C567.237 63.9965 558.308 71.9459 551.25 80.8102C546.837 86.3521 545.143 93.4275 539.858 98.3469C514.178 122.253 476.106 132.289 453.007 159.461C446.564 167.039 434.24 177.384 430.492 186.37C425.961 197.236 432.167 209.722 420.717 217.899C409.19 226.131 390.181 219.969 377 220.158C361.188 220.385 345.722 229.202 330.734 233.507C318.528 237.012 306.005 236.58 294 241.235C286.074 244.309 275.108 243.526 270 251z"/>
<path style="fill:#826c54; stroke:none;" d="M606 36C576.993 59.0706 552.599 84.6855 530 114C521.75 115.173 512.147 122.286 504.715 126.171C486.665 135.604 468.605 150.319 454.871 165.124C448.612 171.872 439.944 178.305 435.008 186.089C429.114 195.387 436.501 207.584 428.526 216.7C423.387 222.575 412.837 227.008 405 225.741C399.233 224.808 386.661 220.432 384 228L315 242L315 245L253 262L240 271C228.659 283.038 216.662 295.481 200.254 300.135C180.585 305.714 160.424 298.233 141.144 294.471C112.117 288.808 82.3324 285.724 53 282L53 279L28 278L28 275L0 271L0 383L24 396C34.2486 400.338 44.4573 404.819 53.6698 411.141C59.0844 414.857 64.1814 419.131 68.4605 424.129C101.37 462.571 42.6865 504.078 20.3214 530.202C13.0164 538.734 6.45445 547.818 0 557C11.6231 544.641 23.6852 534.139 38 525C58.9214 498.26 79.4428 472.138 97 443C101.633 442.252 112.449 439.411 114 435C118.282 432.116 119.364 429.019 120 424L125 424L123 415L111 403L112 393C126.185 394.625 146.275 400.131 152 383L149 384L143 373L143 369L134 369L118 327L114 326C115.811 315.711 118.916 309.457 128 304L128 307C154.984 317.408 179.462 330.969 208 337L207 332L212 330L211 324L218 317L225 317L232 311L231 307L239 307L240 300L247 290L256 289L256 286L293 273L291 277L299 277L299 282L324 256L324 265C329.95 261.562 327.522 256.301 324 252C329.047 252 335.814 253.517 338 248L352 258L348 258L346 264L368 265C370.831 272.154 385.395 271.962 392 272L392 273L388 273L388 274L394 274L394 282C402.879 285.283 406.894 290.769 413.444 297.389C415.532 299.499 418.565 299.878 419 303L426 303L425 307L429 311L451 313L451 317L458 323L464 327L475 331C475.013 334.194 474.597 336.271 478 337L478 338L474 336L450 356L447 356L447 368L448 368L448 366L449 366C447.712 380.476 447.753 396.891 460 407L463 410L471 461L475 465L498 476C505.603 474.565 512.943 473.541 516 482L520 481L523 483C515.308 493.447 504.225 496.931 495.147 505.54C481.21 518.758 478.706 540.301 483 558L488 567L493 567L493 568L491 568L491 569L508 583L510 596L506 596L506 600L502 600C497.125 608.04 497.427 613.116 505 619L505 622L523 621L526 610C530.221 618.374 535.216 607.647 541.442 611.426C551.555 617.563 542.19 631.423 558 632L571 623L570 647L552 647L550 649L574 651L557 671L547 681L502 691L495 676L486 667L481 667C478.559 648.756 480.082 633.422 486 616L458 594L449 570L445 570C439.085 562.899 433.071 560.803 424 560L424 564L381 597L380 604C357.277 605.418 336.882 603.299 315 597L284 584L277 560C285.373 557.85 284.272 549.692 276.151 547.777C258.979 543.728 241.321 542.28 224 539L226 563L231 563C238.722 576.701 246.939 589.929 258.261 600.994C280.617 622.841 310.227 632.688 339 643L357 646L357 649L375 650L381 657L381 658L378 658L378 659L395 677C390.615 678.283 391.07 682.126 392 686C395.709 685.868 409.084 685.837 409.833 691C410.182 693.401 408 697.068 408 700L405 699L408 744L411 751L406 751C412.462 763.539 420.718 768.809 434 773C431.883 765.811 429.72 758.525 429.533 750.975C429.42 746.432 430.043 741.873 431.589 737.589C444.812 700.933 493.142 715.789 521.134 719.134C528.733 720.042 536.363 720.543 544 721L544 719L530 718L530 713L547 712L547 709L518 709L533 704C536.477 698.521 544.888 692.995 551 691L554 688L571 677L571 684L577 684L577 690L571 694L579 684L582 684L582 680L576 673L563 676L578 660L577 619L539 600L516 577L512 577L512 573L509 573L509 569L505 563C515.038 560.355 523.063 557.59 519 546L512 529L509 529L509 514L512 511L530 510L529 508L533 508L533 505L554 504L551 466C559.93 460.76 554.504 451.836 554.794 444.004C554.964 439.435 558.183 435.976 560 432L565 432C564.924 427.484 565.62 413.99 561 413L562 418C547.783 421.85 545.766 413.86 546 401L540 390L553 390L560 384L560 376L540 359L529 348L529 341L515 336L516 317L506 300L514 310L522 311L535 328L542 331L541 333L550 335L549 338C562.551 329.078 569.292 319.478 574 304L582 294L564 290L563 279L575 278L574 276C584.867 266.958 589.879 257.723 593 244L568 237L555 237L502 196L486 210C479.547 207.975 481.848 199.481 482.036 194.013C482.447 182.113 480.012 153.312 495 151L495 148L533 127L540 123L540 119L568 95L571 92L604 65L619 64L619 70L616 69L615 82L614 82L614 75L613 75C611.398 89.3668 611.666 116.146 600 126L599 136L594 136L584 141L584 154L570 155L570 161L568 159L567 159L560 161L562 173L560 183L551 192L550 203C555.945 202.134 560.304 200.958 564 196L570 196L578 193L616 172L617 179C633.96 148.527 641.219 112.99 641.772 78.2294C642.189 52.0179 634.647 33.478 606 36z"/>
<path style="fill:#282726; stroke:none;" d="M436 228L424 234C422.568 227.318 410.492 232.389 406 232.389C403.217 232.389 401.154 230.126 398.111 231.333C394.985 232.573 393.394 236.482 390 238L390 234C383.991 238.938 382.695 243.401 384 251L392 248L393 248L405 256L404 265L419 268L420 257L422 257L423 260L424 260L421 255L424 247L429 247L429 252L436 252L436 254L432 254L434 256L432 260L441 258L442 259C440.503 261.469 439.966 262.333 443 263L446 266L454 294L457 292L472 298L474 286L471 288L468 264L464 264L459 270L458 275C453.825 269.267 452.834 265.123 460 262L460 258L480 253L480 249L483 249L484 238L481 238L477 197L471 193L460 176L464 176L468 165L473 165L477 158L480 148C457.95 156.113 437.169 183.885 435.919 206.966C435.546 213.862 427.634 224.4 436 228M514 252L510 252L502 258L514 293L530 306L540 307L540 314L551 317L560 325C561.994 329.073 568.686 331.996 570.137 325.6C571.813 318.213 568 306.962 568 299L564 299L564 293L557 293L554 286L544 286L544 275L541 272C532.049 270.542 526.037 267.86 520 261L522 262L525 246C520.741 247.067 515.725 247.64 514 252M338 248L324 252L324 265L324 256L299 282L299 277L291 277L293 273L256 286L256 289L247 290L240 300L239 307L231 307L232 311L225 317L218 317L211 324L212 330L207 332L208 337L128 307L128 304C118.664 309.324 115.623 315.543 114 326L118 327L134 369L143 369L143 373L149 384L152 383C145.467 399.647 126.429 394.491 112 393L111 403L123 415L125 424L120 424L114 435L97 443L38 525C29.2655 530.677 20.7974 536.632 14.5441 545.117C-2.88259 568.765 0.0573836 602.235 0.0123056 630.003C-0.0650748 677.668 1.28789e-15 725.334 0 773L405 773L406 751L411 751L408 744L405 699L408 700C404.452 692.367 399.78 688.959 392 686L395 677L378 659L378 658L381 658L381 657L375 650L357 649L357 646L339 643C334.827 633.758 309.431 634.217 300.22 630.756C279.964 623.145 264.045 609.326 249.981 593.821C241.612 584.596 232.34 576.273 231 563L226 563L224 539C241.026 542.546 258.357 544.608 275.419 547.923C283.594 549.512 285.31 557.27 277 560L284 584L315 597C316.512 602.17 328.087 603.084 332.995 604.023C343.367 606.007 351.882 608.959 363 607.866C368.934 607.282 374.148 604.258 380 604L381 597L424 564L424 560C432.924 560.986 438.902 563.292 445 570L449 570L458 594L486 616C479.865 633.454 478.369 648.683 481 667L486 667L495 676L502 691L547 681L557 671L574 651C569.333 651.98 570.616 657.041 566.889 659.278C556.721 665.378 552.209 652.848 552 647L570 647L571 623C565.279 624.823 561.52 627.083 558 632L526 610C521.003 611.985 522.608 616.475 523 621L505 622L505 619C497.816 612.973 497.462 608.011 502 600L506 600L506 596L510 596L508 583L491 569L491 568L493 568L493 567L488 567L483 558C479.565 540.224 481.662 519.628 495.26 506.208C504.176 497.409 515.294 493.37 523 483L520 481L516 482C513.479 473.071 505.565 474.358 498 476C493.889 468.871 482.786 465.128 475 465L471 461L463 410L460 407L449 366L448 366L448 368L447 368L447 356L450 356L474 336L478 338L478 337L475 337L475 331L464 327L458 323L451 317L451 313L429 311L425 307L426 303L419 303L394 282L394 274L388 274L388 273L392 273L392 272L368 265L346 264L348 258L352 258L349 255L338 248z"/>
<path style="fill:#b8a992; stroke:none;" d="M506 300L516 317L515 336L529 341L529 348L540 359L560 376L560 384L553 390L540 390L546 401L543 418L544 418L544 406C550.377 411.098 553.024 415.899 554 424L555 424L562 418L561 413L565 432L560 432L551 466L554 504L533 505L533 508L529 508L530 510L512 511L509 514L509 529L512 529L519 546C520.595 556.74 514.305 559.795 505 563L509 569L509 573L512 573L512 577L516 577C520.688 589.819 531.353 590.513 539 600L577 619L578 660L563 676L576 673L582 680L582 684L579 684C578.024 691.197 566.363 701 559.94 704.329C555.783 706.483 548.418 707.153 547 712L530 713L530 718L544 719L544 721C516.429 719.152 484.183 707.479 457.006 714.842C439.133 719.685 425.625 736.33 431.041 755.266C432.88 761.696 436.471 767.389 440 773C431.088 746.315 437.355 722.578 468.793 718.755C503.666 714.514 536.29 729.28 568.93 709.087C604.997 686.773 606.004 636.732 611 599L609 599L606 601L608 618L596 604L547 577L551 569C558.275 561.256 566.479 556.539 576 552L563 545L563 542L551 538L548 525C553.694 523.786 553 515.675 553 511C565.1 507.464 553.993 475.96 573 483L573 472L572 472L570 476L577 467C578.1 448.17 578.858 429.341 575.813 410.639C573.029 393.533 566.506 376.852 566.55 359.36C566.585 345.167 571.006 331.473 575 318L574 318L549 338L550 335L541 333L542 331L535 328L522 311L514 310L506 300M460 397L467 405L468 405C476.305 404.771 478.085 416.34 481.718 421.507C484.634 425.653 488.454 423.922 490 420L496 424C494.407 400.715 495.329 378.169 498 355C492.394 354.072 486.722 353.08 481.016 353.326C456.762 354.371 457.541 378.876 460 397z"/>
<path style="fill:#282726; stroke:none;" d="M527 360L520 366L502 366L502 372C493.499 374.487 498.995 398.995 499 406L503 406L514 398L512 414L509 414C511.845 429.81 521.829 460.749 543.749 445.717C547.651 443.041 550.83 439.472 554 436L546 438L540 434L539 413L529 413C529 408.065 534.502 395.179 529 394L544 387L544 386L515 386L521 377L544 375L544 370L540 363L527 360z"/>
<path style="fill:#b8a992; stroke:none;" d="M0 383L0 388L21 394C40.8171 408.298 78.952 426.306 70.7716 456.368C69.2906 461.81 66.7411 466.923 63.8227 471.727C59.225 479.295 53.5929 486.159 48 493C28.6519 511.151 12.5455 529.494 0 553C6.5035 545.445 13.0294 537.911 19.8096 530.602C43.4423 505.125 102.356 461.95 68.5915 423.449C64.2628 418.513 59.1395 414.296 53.6958 410.647C44.466 404.461 34.2559 400.155 24 396L0 383z"/>
<path style="fill:#fdfcfb; stroke:none;" d="M0 388L0 540L48 493C53.828 486.144 59.6828 479.251 64.4021 471.562C67.3209 466.807 69.852 461.733 71.329 456.333C79.6208 426.016 41.142 408.038 21 394L0 388M554 403L560 403C560.484 400.081 561.625 395.619 558.393 393.822C556.464 392.749 546.743 391.898 547.304 395.842C547.657 398.317 552.567 400.746 554 403M544 406L541 428L551 428L554 425C553.441 416.307 551.006 411.248 544 406z"/>
<path style="fill:#b8a992; stroke:none;" d="M551 425L543 428L543 429C547.538 428.997 552.099 429.798 554 425L551 425z"/>
<path style="fill:#826c54; stroke:none;" d="M322 446L318 446L308 484L315 487L330 507L370 512C375.876 499.574 378.78 487.673 380 474C374.63 473.105 364.21 466.159 365 463L350 448L346 448C342.028 440.495 324.744 435.422 322 446z"/>
<path style="fill:#b8a992; stroke:none;" d="M506 458L515 459L512 455C511.258 449.1 506.198 453.904 506 458M336 463L338 465L329 480L333 496L339 497L339 503L368 502L368 496L371 496L371 492L373 494L374 494L373 480L370 480L370 474L366 474L361 469L361 465L336 463z"/>
<path style="fill:#826c54; stroke:none;" d="M346 553L349 556L366 556L366 536L356 532C352.377 527.058 343.106 520.256 342.038 531.103C341.331 538.288 344.343 546.099 346 553M297 532C300.599 539.706 307.297 533.331 297 532z"/>
<path style="fill:#b8a992; stroke:none;" d="M412 671L419 676L419 671L412 671z"/>
<path style="fill:#282726; stroke:none;" d="M554 688L551 691C545.02 692.262 535.475 698.25 533 704L518 709C540.435 707.905 557.926 701.725 577 690L577 684L571 684L571 677C564.038 679.476 558.807 682.305 554 688z"/>
<path style="fill:#826c54; stroke:none;" d="M560 704L564 701L560 704z"/>
</svg>
